%FSLAX24Y24*%
%MOIN*%
G70*
G01*
G75*
G04 Layer_Color=8388736*
%ADD10R,0.1181X0.0551*%
%ADD11R,0.0433X0.0394*%
%ADD12C,0.0394*%
%ADD13R,0.0512X0.0591*%
%ADD14R,0.0433X0.0236*%
%ADD15R,0.0290X0.0220*%
%ADD16R,0.0118X0.0472*%
%ADD17R,0.0571X0.0177*%
%ADD18R,0.0335X0.0110*%
%ADD19R,0.0110X0.0335*%
%ADD20R,0.0276X0.0118*%
%ADD21R,0.0480X0.0358*%
%ADD22R,0.0358X0.0480*%
%ADD23R,0.0500X0.0200*%
%ADD24R,0.0200X0.0500*%
%ADD25R,0.0472X0.0118*%
%ADD26R,0.0551X0.0118*%
%ADD27R,0.0630X0.0709*%
%ADD28R,0.0906X0.0236*%
%ADD29R,0.0236X0.0433*%
%ADD30R,0.0591X0.0512*%
%ADD31C,0.0100*%
%ADD32C,0.0110*%
%ADD33C,0.1575*%
%ADD34C,0.0748*%
%ADD35R,0.0748X0.0748*%
%ADD36C,0.0787*%
%ADD37C,0.1496*%
%ADD38C,0.0280*%
%ADD39C,0.0098*%
%ADD40C,0.0118*%
%ADD41C,0.0050*%
%ADD42C,0.0079*%
%ADD43C,0.0059*%
%ADD44R,0.1161X0.0531*%
%ADD45R,0.0413X0.0374*%
%ADD46C,0.0374*%
%ADD47R,0.0492X0.0571*%
%ADD48R,0.0413X0.0216*%
%ADD49R,0.0270X0.0200*%
%ADD50R,0.0098X0.0452*%
%ADD51R,0.0551X0.0157*%
%ADD52R,0.0315X0.0090*%
%ADD53R,0.0090X0.0315*%
%ADD54R,0.0256X0.0098*%
%ADD55R,0.0460X0.0338*%
%ADD56R,0.0338X0.0460*%
%ADD57R,0.0480X0.0180*%
%ADD58R,0.0180X0.0480*%
%ADD59R,0.0452X0.0098*%
%ADD60R,0.0531X0.0098*%
%ADD61R,0.0610X0.0689*%
%ADD62R,0.0886X0.0216*%
%ADD63R,0.0216X0.0413*%
%ADD64R,0.0571X0.0492*%
%ADD65R,0.1261X0.0631*%
%ADD66R,0.0513X0.0474*%
%ADD67C,0.0787*%
%ADD68R,0.0592X0.0671*%
%ADD69R,0.0513X0.0316*%
%ADD70R,0.0370X0.0300*%
%ADD71R,0.0198X0.0552*%
%ADD72R,0.0610X0.0217*%
%ADD73R,0.0375X0.0150*%
%ADD74R,0.0150X0.0375*%
%ADD75R,0.0316X0.0158*%
%ADD76R,0.0560X0.0438*%
%ADD77R,0.0438X0.0560*%
%ADD78R,0.0580X0.0280*%
%ADD79R,0.0280X0.0580*%
%ADD80R,0.0552X0.0198*%
%ADD81R,0.0591X0.0157*%
%ADD82R,0.0710X0.0789*%
%ADD83R,0.0986X0.0316*%
%ADD84R,0.0316X0.0513*%
%ADD85R,0.0671X0.0592*%
%ADD86C,0.1655*%
%ADD87C,0.0828*%
%ADD88R,0.0828X0.0828*%
%ADD89C,0.0867*%
%ADD90C,0.1576*%
G36*
X14523Y-433D02*
X14528Y-434D01*
X14533Y-435D01*
X14538Y-438D01*
X14542Y-441D01*
X14546Y-444D01*
X14550Y-448D01*
X14552Y-452D01*
X14555Y-457D01*
X14556Y-462D01*
X14557Y-467D01*
X14558Y-472D01*
Y-2008D01*
X14557Y-2013D01*
X14556Y-2018D01*
X14555Y-2023D01*
X14552Y-2028D01*
X14550Y-2032D01*
X14546Y-2036D01*
X14542Y-2040D01*
X14538Y-2043D01*
X14533Y-2045D01*
X14528Y-2047D01*
X14523Y-2048D01*
X14518Y-2048D01*
X14163D01*
X14158Y-2048D01*
X14153Y-2047D01*
X14148Y-2045D01*
X14143Y-2043D01*
X14139Y-2040D01*
X14135Y-2036D01*
X13859Y-1761D01*
X13856Y-1757D01*
X13853Y-1752D01*
X13851Y-1748D01*
X13849Y-1743D01*
X13848Y-1738D01*
X13848Y-1732D01*
Y-748D01*
X13848Y-743D01*
X13849Y-738D01*
X13851Y-733D01*
X13853Y-728D01*
X13856Y-724D01*
X13859Y-720D01*
X14135Y-444D01*
X14139Y-441D01*
X14143Y-438D01*
X14148Y-435D01*
X14153Y-434D01*
X14158Y-433D01*
X14163Y-432D01*
X14518D01*
X14523Y-433D01*
D02*
G37*
G36*
X8774Y-2323D02*
X8777Y-2324D01*
X8781Y-2326D01*
X8784Y-2328D01*
X8786Y-2331D01*
X8788Y-2335D01*
X8789Y-2339D01*
X8790Y-2343D01*
Y-2972D01*
X8789Y-2976D01*
X8788Y-2980D01*
X8786Y-2984D01*
X8784Y-2987D01*
X8781Y-2989D01*
X8777Y-2991D01*
X8774Y-2992D01*
X8770Y-2993D01*
X8376D01*
X8372Y-2992D01*
X8368Y-2991D01*
X8365Y-2989D01*
X8362Y-2987D01*
X8359Y-2984D01*
X8357Y-2980D01*
X8356Y-2976D01*
X8356Y-2972D01*
Y-2343D01*
X8356Y-2339D01*
X8357Y-2335D01*
X8359Y-2331D01*
X8362Y-2328D01*
X8365Y-2326D01*
X8368Y-2324D01*
X8372Y-2323D01*
X8376Y-2322D01*
X8770D01*
X8774Y-2323D01*
D02*
G37*
G36*
X15389Y-433D02*
X15394Y-434D01*
X15399Y-435D01*
X15404Y-438D01*
X15408Y-441D01*
X15412Y-444D01*
X15688Y-720D01*
X15691Y-724D01*
X15694Y-728D01*
X15696Y-733D01*
X15698Y-738D01*
X15699Y-743D01*
X15700Y-748D01*
Y-1732D01*
X15699Y-1738D01*
X15698Y-1743D01*
X15696Y-1748D01*
X15694Y-1752D01*
X15691Y-1757D01*
X15688Y-1761D01*
X15412Y-2036D01*
X15408Y-2040D01*
X15404Y-2043D01*
X15399Y-2045D01*
X15394Y-2047D01*
X15389Y-2048D01*
X15384Y-2048D01*
X15030D01*
X15024Y-2048D01*
X15019Y-2047D01*
X15014Y-2045D01*
X15009Y-2043D01*
X15005Y-2040D01*
X15001Y-2036D01*
X14998Y-2032D01*
X14995Y-2028D01*
X14992Y-2023D01*
X14991Y-2018D01*
X14990Y-2013D01*
X14989Y-2008D01*
Y-472D01*
X14990Y-467D01*
X14991Y-462D01*
X14992Y-457D01*
X14995Y-452D01*
X14998Y-448D01*
X15001Y-444D01*
X15005Y-441D01*
X15009Y-438D01*
X15014Y-435D01*
X15019Y-434D01*
X15024Y-433D01*
X15030Y-432D01*
X15384D01*
X15389Y-433D01*
D02*
G37*
G36*
X11925Y3622D02*
X11930Y3621D01*
X11935Y3620D01*
X11939Y3617D01*
X11944Y3614D01*
X11948Y3611D01*
X12223Y3335D01*
X12227Y3331D01*
X12230Y3327D01*
X12232Y3322D01*
X12234Y3317D01*
X12235Y3312D01*
X12235Y3307D01*
Y2953D01*
X12235Y2948D01*
X12234Y2942D01*
X12232Y2937D01*
X12230Y2933D01*
X12227Y2928D01*
X12223Y2924D01*
X12219Y2921D01*
X12215Y2918D01*
X12210Y2916D01*
X12205Y2914D01*
X12200Y2913D01*
X12195Y2913D01*
X10659D01*
X10654Y2913D01*
X10649Y2914D01*
X10644Y2916D01*
X10639Y2918D01*
X10635Y2921D01*
X10631Y2924D01*
X10628Y2928D01*
X10625Y2933D01*
X10622Y2937D01*
X10621Y2942D01*
X10620Y2948D01*
X10619Y2953D01*
Y3307D01*
X10620Y3312D01*
X10621Y3317D01*
X10622Y3322D01*
X10625Y3327D01*
X10628Y3331D01*
X10631Y3335D01*
X10907Y3611D01*
X10911Y3614D01*
X10915Y3617D01*
X10920Y3620D01*
X10925Y3621D01*
X10930Y3622D01*
X10935Y3623D01*
X11919D01*
X11925Y3622D01*
D02*
G37*
G36*
X12200Y2481D02*
X12205Y2480D01*
X12210Y2478D01*
X12215Y2476D01*
X12219Y2473D01*
X12223Y2469D01*
X12227Y2465D01*
X12230Y2461D01*
X12232Y2456D01*
X12234Y2451D01*
X12235Y2446D01*
X12235Y2441D01*
Y2087D01*
X12235Y2081D01*
X12234Y2076D01*
X12232Y2071D01*
X12230Y2067D01*
X12227Y2062D01*
X12223Y2058D01*
X11948Y1783D01*
X11944Y1779D01*
X11939Y1776D01*
X11935Y1774D01*
X11930Y1772D01*
X11925Y1771D01*
X11919Y1771D01*
X10935D01*
X10930Y1771D01*
X10925Y1772D01*
X10920Y1774D01*
X10915Y1776D01*
X10911Y1779D01*
X10907Y1783D01*
X10631Y2058D01*
X10628Y2062D01*
X10625Y2067D01*
X10622Y2071D01*
X10621Y2076D01*
X10620Y2081D01*
X10619Y2087D01*
Y2441D01*
X10620Y2446D01*
X10621Y2451D01*
X10622Y2456D01*
X10625Y2461D01*
X10628Y2465D01*
X10631Y2469D01*
X10635Y2473D01*
X10639Y2476D01*
X10644Y2478D01*
X10649Y2480D01*
X10654Y2481D01*
X10659Y2481D01*
X12195D01*
X12200Y2481D01*
D02*
G37*
G54D65*
X-18307Y-3992D02*
D03*
Y-5921D02*
D03*
X-15551Y6358D02*
D03*
Y4429D02*
D03*
G54D66*
X-9980Y-2756D02*
D03*
X-9311D02*
D03*
X-9980Y-1870D02*
D03*
X-9311D02*
D03*
X-7612Y-1870D02*
D03*
X-6943D02*
D03*
X-7612Y-2756D02*
D03*
X-6943D02*
D03*
X11339Y-3041D02*
D03*
X12008D02*
D03*
X-2894Y-394D02*
D03*
X-2224D02*
D03*
X4295Y4589D02*
D03*
X3626D02*
D03*
X-1240Y1969D02*
D03*
X-1909D02*
D03*
X1929D02*
D03*
X2598D02*
D03*
X-335Y1280D02*
D03*
X335D02*
D03*
X748Y-2165D02*
D03*
X1417D02*
D03*
X-2500Y-3937D02*
D03*
X-1831D02*
D03*
X2579Y98D02*
D03*
X3248D02*
D03*
X3626Y3760D02*
D03*
X4295D02*
D03*
X-4173Y1969D02*
D03*
X-3504D02*
D03*
X-4173Y4724D02*
D03*
X-3504D02*
D03*
X8268Y-1122D02*
D03*
X8937D02*
D03*
X14911Y335D02*
D03*
X14242D02*
D03*
X8268Y593D02*
D03*
X8937D02*
D03*
X-2894Y-1083D02*
D03*
X-2224D02*
D03*
X-492D02*
D03*
X-1161D02*
D03*
X3626Y3089D02*
D03*
X4295D02*
D03*
X3248Y-1083D02*
D03*
X2579D02*
D03*
X758D02*
D03*
X1427D02*
D03*
X1417Y-3937D02*
D03*
X748D02*
D03*
X3287Y-2165D02*
D03*
X2618D02*
D03*
X3287Y-3937D02*
D03*
X2618D02*
D03*
X-1825Y-2854D02*
D03*
X-2494D02*
D03*
X3287Y-3179D02*
D03*
X2618D02*
D03*
X-453Y-2165D02*
D03*
X-1122D02*
D03*
X-4173Y5413D02*
D03*
X-3504D02*
D03*
X-5551D02*
D03*
X-4882D02*
D03*
X-1447D02*
D03*
X-2116D02*
D03*
X-3504Y2657D02*
D03*
X-4173D02*
D03*
X-3504Y4089D02*
D03*
X-4173D02*
D03*
X6890Y-2402D02*
D03*
X6220D02*
D03*
X8937Y-1762D02*
D03*
X8268D02*
D03*
X-4173Y3445D02*
D03*
X-3504D02*
D03*
X8268Y-482D02*
D03*
X8937D02*
D03*
X-5551Y4089D02*
D03*
X-4882D02*
D03*
X8268Y1319D02*
D03*
X8937D02*
D03*
X6890Y2717D02*
D03*
X6220D02*
D03*
X6220Y2045D02*
D03*
X6890D02*
D03*
X11339Y-1122D02*
D03*
X12008D02*
D03*
X10010Y-482D02*
D03*
X10679D02*
D03*
X12008Y-1762D02*
D03*
X11339D02*
D03*
X11339Y-2402D02*
D03*
X12008D02*
D03*
X14911Y984D02*
D03*
X14242D02*
D03*
G54D67*
X-26077Y64764D02*
D03*
X62506D02*
D03*
X62506Y-6496D02*
D03*
X-26077D02*
D03*
G54D68*
X-11831Y-1870D02*
D03*
X-12579D02*
D03*
X-11831Y-2756D02*
D03*
X-12579D02*
D03*
X4335Y5337D02*
D03*
X3587D02*
D03*
X-374Y1969D02*
D03*
X374D02*
D03*
X8228Y-3937D02*
D03*
X8976D02*
D03*
X6929Y-1762D02*
D03*
X6181D02*
D03*
X6929Y-3937D02*
D03*
X6181D02*
D03*
X14282Y-3091D02*
D03*
X15030D02*
D03*
X14203Y3002D02*
D03*
X14951D02*
D03*
X8228Y2045D02*
D03*
X8976D02*
D03*
X6969Y4272D02*
D03*
X6220D02*
D03*
X-16063Y-3008D02*
D03*
X-16811D02*
D03*
X-18681D02*
D03*
X-17933D02*
D03*
X-12283Y-6102D02*
D03*
X-11535D02*
D03*
X-13504D02*
D03*
X-14252D02*
D03*
X-16063Y-3992D02*
D03*
X-16811D02*
D03*
G54D69*
X4478Y1181D02*
D03*
Y1555D02*
D03*
Y807D02*
D03*
X3376Y1555D02*
D03*
Y807D02*
D03*
X-9567Y-4931D02*
D03*
Y-5679D02*
D03*
X-10669Y-4931D02*
D03*
Y-5679D02*
D03*
Y-5305D02*
D03*
X9154Y3100D02*
D03*
Y3474D02*
D03*
Y2726D02*
D03*
X8051Y3474D02*
D03*
Y2726D02*
D03*
G54D70*
X14187Y1584D02*
D03*
X14967Y1959D02*
D03*
X14187Y2334D02*
D03*
G54D71*
X-12205Y3248D02*
D03*
X-12461D02*
D03*
X-12717D02*
D03*
X-12972D02*
D03*
X-13228D02*
D03*
X-13484D02*
D03*
X-13740D02*
D03*
X-13996D02*
D03*
X-14252D02*
D03*
X-14508D02*
D03*
X-14508Y965D02*
D03*
X-14252D02*
D03*
X-13996D02*
D03*
X-13740D02*
D03*
X-13484D02*
D03*
X-13228D02*
D03*
X-12972D02*
D03*
X-12717D02*
D03*
X-12461D02*
D03*
X-12205D02*
D03*
G54D72*
X-866Y-2923D02*
D03*
Y-3179D02*
D03*
Y-3435D02*
D03*
Y-2667D02*
D03*
X866D02*
D03*
Y-2923D02*
D03*
Y-3179D02*
D03*
Y-3435D02*
D03*
G54D73*
X11742Y-256D02*
D03*
X11742Y-59D02*
D03*
Y138D02*
D03*
Y335D02*
D03*
Y531D02*
D03*
Y728D02*
D03*
X13297D02*
D03*
Y531D02*
D03*
Y335D02*
D03*
Y138D02*
D03*
Y-59D02*
D03*
X13297Y-256D02*
D03*
D03*
G54D74*
X13012Y1014D02*
D03*
X12815D02*
D03*
X12618D02*
D03*
X12421D02*
D03*
X12224D02*
D03*
X12028Y1014D02*
D03*
X13012Y-541D02*
D03*
X12815D02*
D03*
X12618D02*
D03*
X12421D02*
D03*
X12224D02*
D03*
X12028D02*
D03*
G54D75*
X8986Y-2913D02*
D03*
Y-2657D02*
D03*
Y-2402D02*
D03*
X8159D02*
D03*
Y-2657D02*
D03*
Y-2913D02*
D03*
G54D76*
X13396Y-1187D02*
D03*
Y-2474D02*
D03*
G54D77*
X9898Y1220D02*
D03*
X11185D02*
D03*
G54D78*
X15357Y-1240D02*
D03*
X14191D02*
D03*
G54D79*
X11427Y3280D02*
D03*
Y2114D02*
D03*
G54D80*
X-13642Y-4931D02*
D03*
Y-4675D02*
D03*
Y-4419D02*
D03*
Y-4163D02*
D03*
Y-3907D02*
D03*
Y-3652D02*
D03*
Y-3396D02*
D03*
X-11358D02*
D03*
Y-3652D02*
D03*
Y-3907D02*
D03*
Y-4163D02*
D03*
Y-4419D02*
D03*
Y-4675D02*
D03*
Y-4931D02*
D03*
G54D81*
X-866Y394D02*
D03*
Y197D02*
D03*
Y0D02*
D03*
Y-197D02*
D03*
Y-394D02*
D03*
X866Y394D02*
D03*
Y197D02*
D03*
Y0D02*
D03*
Y-197D02*
D03*
Y-394D02*
D03*
G54D82*
X12224Y-3937D02*
D03*
X11122D02*
D03*
X9154Y4272D02*
D03*
X8051D02*
D03*
G54D83*
X-1781Y4589D02*
D03*
Y4089D02*
D03*
Y3589D02*
D03*
Y3089D02*
D03*
X1781Y4589D02*
D03*
Y4089D02*
D03*
Y3589D02*
D03*
Y3089D02*
D03*
G54D84*
X-16618Y4390D02*
D03*
X-18618Y6043D02*
D03*
Y4390D02*
D03*
X-16618Y6043D02*
D03*
G54D85*
X-10728Y2579D02*
D03*
Y3327D02*
D03*
Y4941D02*
D03*
Y5689D02*
D03*
X-12598Y4941D02*
D03*
Y5689D02*
D03*
X-11614Y4941D02*
D03*
Y5689D02*
D03*
X-13484Y4941D02*
D03*
Y5689D02*
D03*
X-14370Y4941D02*
D03*
Y5689D02*
D03*
G54D86*
X-23124Y66831D02*
D03*
X59553D02*
D03*
X59553Y-8563D02*
D03*
X-23124D02*
D03*
G54D87*
X17028Y2500D02*
D03*
Y3500D02*
D03*
Y4500D02*
D03*
Y-500D02*
D03*
Y500D02*
D03*
Y1500D02*
D03*
Y-1500D02*
D03*
Y-2500D02*
D03*
Y-3500D02*
D03*
X-23906Y-4000D02*
D03*
X-22906Y-5000D02*
D03*
X-23906Y-2000D02*
D03*
Y-1000D02*
D03*
Y-0D02*
D03*
Y1000D02*
D03*
Y2000D02*
D03*
Y3000D02*
D03*
Y4000D02*
D03*
X-22906Y-2000D02*
D03*
Y-3000D02*
D03*
Y-4000D02*
D03*
Y1000D02*
D03*
Y-0D02*
D03*
Y-1000D02*
D03*
Y2000D02*
D03*
Y3000D02*
D03*
Y4000D02*
D03*
X-23906Y-5000D02*
D03*
Y5000D02*
D03*
Y-3000D02*
D03*
G54D88*
X17028Y-4500D02*
D03*
X-22906Y5000D02*
D03*
G54D89*
X-5906Y-2402D02*
D03*
G54D90*
X-7402Y-5472D02*
D03*
X-4409D02*
D03*
M02*
