%FSLAX24Y24*%
%MOIN*%
G70*
G01*
G75*
G04 Layer_Physical_Order=2*
G04 Layer_Color=16711680*
%ADD10R,0.1181X0.0551*%
%ADD11R,0.0433X0.0394*%
%ADD12C,0.0394*%
%ADD13R,0.0512X0.0591*%
%ADD14R,0.0433X0.0236*%
%ADD15R,0.0290X0.0220*%
%ADD16R,0.0118X0.0472*%
%ADD17R,0.0571X0.0177*%
%ADD18R,0.0335X0.0110*%
%ADD19R,0.0110X0.0335*%
%ADD20R,0.0276X0.0118*%
%ADD21R,0.0480X0.0358*%
%ADD22R,0.0358X0.0480*%
%ADD23R,0.0500X0.0200*%
%ADD24R,0.0200X0.0500*%
%ADD25R,0.0472X0.0118*%
%ADD26R,0.0551X0.0118*%
%ADD27R,0.0630X0.0709*%
%ADD28R,0.0906X0.0236*%
%ADD29R,0.0236X0.0433*%
%ADD30R,0.0591X0.0512*%
%ADD31C,0.0100*%
%ADD32C,0.0110*%
%ADD33C,0.1575*%
%ADD34C,0.0748*%
%ADD35R,0.0748X0.0748*%
%ADD36C,0.0787*%
%ADD37C,0.1496*%
%ADD38C,0.0280*%
G36*
X17900Y-6969D02*
X-24778D01*
Y6969D01*
X17900D01*
Y-6969D01*
D02*
G37*
%LPC*%
G36*
X-11850Y3582D02*
X-11940Y3564D01*
X-12017Y3513D01*
X-12068Y3436D01*
X-12085Y3346D01*
X-12068Y3257D01*
X-12017Y3180D01*
X-11994Y3165D01*
Y-3470D01*
X-12017Y-3485D01*
X-12068Y-3562D01*
X-12085Y-3652D01*
X-12068Y-3742D01*
X-12017Y-3818D01*
X-11940Y-3869D01*
X-11850Y-3887D01*
X-11760Y-3869D01*
X-11684Y-3818D01*
X-11633Y-3742D01*
X-11615Y-3652D01*
X-11633Y-3562D01*
X-11684Y-3485D01*
X-11707Y-3470D01*
Y3165D01*
X-11684Y3180D01*
X-11633Y3257D01*
X-11615Y3346D01*
X-11633Y3436D01*
X-11684Y3513D01*
X-11760Y3564D01*
X-11850Y3582D01*
D02*
G37*
G36*
X-23906Y-2531D02*
X-24027Y-2547D01*
X-24140Y-2594D01*
X-24237Y-2669D01*
X-24311Y-2766D01*
X-24358Y-2879D01*
X-24374Y-3000D01*
X-24358Y-3121D01*
X-24311Y-3234D01*
X-24237Y-3331D01*
X-24140Y-3406D01*
X-24027Y-3453D01*
X-23906Y-3469D01*
X-23784Y-3453D01*
X-23671Y-3406D01*
X-23574Y-3331D01*
X-23500Y-3234D01*
X-23453Y-3121D01*
X-23437Y-3000D01*
X-23453Y-2879D01*
X-23500Y-2766D01*
X-23574Y-2669D01*
X-23671Y-2594D01*
X-23784Y-2547D01*
X-23906Y-2531D01*
D02*
G37*
G36*
X-22906D02*
X-23027Y-2547D01*
X-23140Y-2594D01*
X-23237Y-2669D01*
X-23311Y-2766D01*
X-23358Y-2879D01*
X-23374Y-3000D01*
X-23358Y-3121D01*
X-23311Y-3234D01*
X-23237Y-3331D01*
X-23140Y-3406D01*
X-23027Y-3453D01*
X-22906Y-3469D01*
X-22784Y-3453D01*
X-22671Y-3406D01*
X-22574Y-3331D01*
X-22500Y-3234D01*
X-22453Y-3121D01*
X-22437Y-3000D01*
X-22453Y-2879D01*
X-22500Y-2766D01*
X-22574Y-2669D01*
X-22671Y-2594D01*
X-22784Y-2547D01*
X-22906Y-2531D01*
D02*
G37*
G36*
Y-3531D02*
X-23027Y-3547D01*
X-23140Y-3594D01*
X-23237Y-3669D01*
X-23311Y-3766D01*
X-23358Y-3879D01*
X-23374Y-4000D01*
X-23358Y-4121D01*
X-23311Y-4234D01*
X-23237Y-4331D01*
X-23140Y-4406D01*
X-23027Y-4453D01*
X-22906Y-4469D01*
X-22784Y-4453D01*
X-22671Y-4406D01*
X-22574Y-4331D01*
X-22500Y-4234D01*
X-22453Y-4121D01*
X-22437Y-4000D01*
X-22453Y-3879D01*
X-22500Y-3766D01*
X-22574Y-3669D01*
X-22671Y-3594D01*
X-22784Y-3547D01*
X-22906Y-3531D01*
D02*
G37*
G36*
X16978Y-3550D02*
X16556D01*
X16566Y-3624D01*
X16614Y-3739D01*
X16689Y-3838D01*
X16789Y-3914D01*
X16904Y-3962D01*
X16978Y-3972D01*
Y-3550D01*
D02*
G37*
G36*
X17499D02*
X17078D01*
Y-3972D01*
X17151Y-3962D01*
X17267Y-3914D01*
X17366Y-3838D01*
X17442Y-3739D01*
X17489Y-3624D01*
X17499Y-3550D01*
D02*
G37*
G36*
X16978Y-3028D02*
X16904Y-3038D01*
X16789Y-3086D01*
X16689Y-3162D01*
X16614Y-3261D01*
X16566Y-3376D01*
X16556Y-3450D01*
X16978D01*
Y-3028D01*
D02*
G37*
G36*
X-23906Y-1531D02*
X-24027Y-1547D01*
X-24140Y-1594D01*
X-24237Y-1669D01*
X-24311Y-1766D01*
X-24358Y-1879D01*
X-24374Y-2000D01*
X-24358Y-2121D01*
X-24311Y-2234D01*
X-24237Y-2331D01*
X-24140Y-2406D01*
X-24027Y-2453D01*
X-23906Y-2469D01*
X-23784Y-2453D01*
X-23671Y-2406D01*
X-23574Y-2331D01*
X-23500Y-2234D01*
X-23453Y-2121D01*
X-23437Y-2000D01*
X-23453Y-1879D01*
X-23500Y-1766D01*
X-23574Y-1669D01*
X-23671Y-1594D01*
X-23784Y-1547D01*
X-23906Y-1531D01*
D02*
G37*
G36*
X-22906D02*
X-23027Y-1547D01*
X-23140Y-1594D01*
X-23237Y-1669D01*
X-23311Y-1766D01*
X-23358Y-1879D01*
X-23374Y-2000D01*
X-23358Y-2121D01*
X-23311Y-2234D01*
X-23237Y-2331D01*
X-23140Y-2406D01*
X-23027Y-2453D01*
X-22906Y-2469D01*
X-22784Y-2453D01*
X-22671Y-2406D01*
X-22574Y-2331D01*
X-22500Y-2234D01*
X-22453Y-2121D01*
X-22437Y-2000D01*
X-22453Y-1879D01*
X-22500Y-1766D01*
X-22574Y-1669D01*
X-22671Y-1594D01*
X-22784Y-1547D01*
X-22906Y-1531D01*
D02*
G37*
G36*
X17028Y-1031D02*
X16906Y-1047D01*
X16793Y-1094D01*
X16696Y-1169D01*
X16622Y-1266D01*
X16575Y-1379D01*
X16559Y-1500D01*
X16575Y-1621D01*
X16622Y-1734D01*
X16696Y-1831D01*
X16793Y-1906D01*
X16906Y-1953D01*
X17028Y-1969D01*
X17149Y-1953D01*
X17262Y-1906D01*
X17359Y-1831D01*
X17433Y-1734D01*
X17480Y-1621D01*
X17496Y-1500D01*
X17480Y-1379D01*
X17433Y-1266D01*
X17359Y-1169D01*
X17262Y-1094D01*
X17149Y-1047D01*
X17028Y-1031D01*
D02*
G37*
G36*
X17078Y-3028D02*
Y-3450D01*
X17499D01*
X17489Y-3376D01*
X17442Y-3261D01*
X17366Y-3162D01*
X17267Y-3086D01*
X17151Y-3038D01*
X17078Y-3028D01*
D02*
G37*
G36*
X17028Y-2031D02*
X16906Y-2047D01*
X16793Y-2094D01*
X16696Y-2169D01*
X16622Y-2266D01*
X16575Y-2379D01*
X16559Y-2500D01*
X16575Y-2621D01*
X16622Y-2734D01*
X16696Y-2831D01*
X16793Y-2906D01*
X16906Y-2953D01*
X17028Y-2969D01*
X17149Y-2953D01*
X17262Y-2906D01*
X17359Y-2831D01*
X17433Y-2734D01*
X17480Y-2621D01*
X17496Y-2500D01*
X17480Y-2379D01*
X17433Y-2266D01*
X17359Y-2169D01*
X17262Y-2094D01*
X17149Y-2047D01*
X17028Y-2031D01*
D02*
G37*
G36*
X5217Y-2422D02*
X5127Y-2440D01*
X5050Y-2491D01*
X5035Y-2514D01*
X1953D01*
X1938Y-2491D01*
X1862Y-2440D01*
X1772Y-2422D01*
X1682Y-2440D01*
X1605Y-2491D01*
X1554Y-2568D01*
X1537Y-2657D01*
X1554Y-2747D01*
X1605Y-2824D01*
X1682Y-2875D01*
X1772Y-2893D01*
X1862Y-2875D01*
X1938Y-2824D01*
X1953Y-2801D01*
X5035D01*
X5050Y-2824D01*
X5127Y-2875D01*
X5217Y-2893D01*
X5306Y-2875D01*
X5383Y-2824D01*
X5434Y-2747D01*
X5452Y-2657D01*
X5434Y-2568D01*
X5383Y-2491D01*
X5306Y-2440D01*
X5217Y-2422D01*
D02*
G37*
G36*
X-3562Y-5522D02*
X-4359D01*
Y-6320D01*
X-4243Y-6308D01*
X-4083Y-6260D01*
X-3936Y-6181D01*
X-3807Y-6075D01*
X-3701Y-5946D01*
X-3622Y-5799D01*
X-3574Y-5639D01*
X-3562Y-5522D01*
D02*
G37*
G36*
X-23906Y-4531D02*
X-24027Y-4547D01*
X-24140Y-4594D01*
X-24237Y-4669D01*
X-24311Y-4766D01*
X-24358Y-4879D01*
X-24374Y-5000D01*
X-24358Y-5121D01*
X-24311Y-5234D01*
X-24237Y-5331D01*
X-24140Y-5406D01*
X-24027Y-5453D01*
X-23906Y-5469D01*
X-23784Y-5453D01*
X-23671Y-5406D01*
X-23574Y-5331D01*
X-23500Y-5234D01*
X-23453Y-5121D01*
X-23437Y-5000D01*
X-23453Y-4879D01*
X-23500Y-4766D01*
X-23574Y-4669D01*
X-23671Y-4594D01*
X-23784Y-4547D01*
X-23906Y-4531D01*
D02*
G37*
G36*
X-22906D02*
X-23027Y-4547D01*
X-23140Y-4594D01*
X-23237Y-4669D01*
X-23311Y-4766D01*
X-23358Y-4879D01*
X-23374Y-5000D01*
X-23358Y-5121D01*
X-23311Y-5234D01*
X-23237Y-5331D01*
X-23140Y-5406D01*
X-23027Y-5453D01*
X-22906Y-5469D01*
X-22784Y-5453D01*
X-22671Y-5406D01*
X-22574Y-5331D01*
X-22500Y-5234D01*
X-22453Y-5121D01*
X-22437Y-5000D01*
X-22453Y-4879D01*
X-22500Y-4766D01*
X-22574Y-4669D01*
X-22671Y-4594D01*
X-22784Y-4547D01*
X-22906Y-4531D01*
D02*
G37*
G36*
X-7452Y-5522D02*
X-8249D01*
X-8237Y-5639D01*
X-8189Y-5799D01*
X-8110Y-5946D01*
X-8004Y-6075D01*
X-7875Y-6181D01*
X-7728Y-6260D01*
X-7568Y-6308D01*
X-7452Y-6320D01*
Y-5522D01*
D02*
G37*
G36*
X-6554D02*
X-7352D01*
Y-6320D01*
X-7235Y-6308D01*
X-7075Y-6260D01*
X-6928Y-6181D01*
X-6799Y-6075D01*
X-6693Y-5946D01*
X-6614Y-5799D01*
X-6566Y-5639D01*
X-6554Y-5522D01*
D02*
G37*
G36*
X-4459D02*
X-5257D01*
X-5245Y-5639D01*
X-5197Y-5799D01*
X-5118Y-5946D01*
X-5012Y-6075D01*
X-4883Y-6181D01*
X-4736Y-6260D01*
X-4576Y-6308D01*
X-4459Y-6320D01*
Y-5522D01*
D02*
G37*
G36*
X-7452Y-4625D02*
X-7568Y-4637D01*
X-7728Y-4685D01*
X-7875Y-4764D01*
X-8004Y-4870D01*
X-8110Y-4999D01*
X-8189Y-5146D01*
X-8237Y-5306D01*
X-8249Y-5422D01*
X-7452D01*
Y-4625D01*
D02*
G37*
G36*
X17492Y-4035D02*
X16563D01*
Y-4965D01*
X17492D01*
Y-4035D01*
D02*
G37*
G36*
X-17372Y-2773D02*
X-17462Y-2791D01*
X-17538Y-2842D01*
X-17589Y-2918D01*
X-17607Y-3008D01*
X-17589Y-3098D01*
X-17538Y-3174D01*
X-17515Y-3189D01*
Y-3811D01*
X-17538Y-3826D01*
X-17589Y-3902D01*
X-17607Y-3992D01*
X-17589Y-4082D01*
X-17538Y-4158D01*
X-17515Y-4174D01*
Y-4494D01*
X-17538Y-4509D01*
X-17589Y-4585D01*
X-17607Y-4675D01*
X-17589Y-4765D01*
X-17538Y-4841D01*
X-17462Y-4892D01*
X-17372Y-4910D01*
X-17282Y-4892D01*
X-17206Y-4841D01*
X-17155Y-4765D01*
X-17137Y-4675D01*
X-17155Y-4585D01*
X-17206Y-4509D01*
X-17229Y-4494D01*
Y-4174D01*
X-17206Y-4158D01*
X-17155Y-4082D01*
X-17137Y-3992D01*
X-17155Y-3902D01*
X-17206Y-3826D01*
X-17229Y-3811D01*
Y-3189D01*
X-17206Y-3174D01*
X-17155Y-3098D01*
X-17137Y-3008D01*
X-17155Y-2918D01*
X-17206Y-2842D01*
X-17282Y-2791D01*
X-17372Y-2773D01*
D02*
G37*
G36*
X-23906Y-3531D02*
X-24027Y-3547D01*
X-24140Y-3594D01*
X-24237Y-3669D01*
X-24311Y-3766D01*
X-24358Y-3879D01*
X-24374Y-4000D01*
X-24358Y-4121D01*
X-24311Y-4234D01*
X-24237Y-4331D01*
X-24140Y-4406D01*
X-24027Y-4453D01*
X-23906Y-4469D01*
X-23784Y-4453D01*
X-23671Y-4406D01*
X-23574Y-4331D01*
X-23500Y-4234D01*
X-23453Y-4121D01*
X-23437Y-4000D01*
X-23453Y-3879D01*
X-23500Y-3766D01*
X-23574Y-3669D01*
X-23671Y-3594D01*
X-23784Y-3547D01*
X-23906Y-3531D01*
D02*
G37*
G36*
X-7352Y-4625D02*
Y-5422D01*
X-6554D01*
X-6566Y-5306D01*
X-6614Y-5146D01*
X-6693Y-4999D01*
X-6799Y-4870D01*
X-6928Y-4764D01*
X-7075Y-4685D01*
X-7235Y-4637D01*
X-7352Y-4625D01*
D02*
G37*
G36*
X-4459D02*
X-4576Y-4637D01*
X-4736Y-4685D01*
X-4883Y-4764D01*
X-5012Y-4870D01*
X-5118Y-4999D01*
X-5197Y-5146D01*
X-5245Y-5306D01*
X-5257Y-5422D01*
X-4459D01*
Y-4625D01*
D02*
G37*
G36*
X-4359D02*
Y-5422D01*
X-3562D01*
X-3574Y-5306D01*
X-3622Y-5146D01*
X-3701Y-4999D01*
X-3807Y-4870D01*
X-3936Y-4764D01*
X-4083Y-4685D01*
X-4243Y-4637D01*
X-4359Y-4625D01*
D02*
G37*
G36*
X-23906Y3469D02*
X-24027Y3453D01*
X-24140Y3406D01*
X-24237Y3331D01*
X-24311Y3234D01*
X-24358Y3121D01*
X-24374Y3000D01*
X-24358Y2879D01*
X-24311Y2766D01*
X-24237Y2669D01*
X-24140Y2594D01*
X-24027Y2547D01*
X-23906Y2531D01*
X-23784Y2547D01*
X-23671Y2594D01*
X-23574Y2669D01*
X-23500Y2766D01*
X-23453Y2879D01*
X-23437Y3000D01*
X-23453Y3121D01*
X-23500Y3234D01*
X-23574Y3331D01*
X-23671Y3406D01*
X-23784Y3453D01*
X-23906Y3469D01*
D02*
G37*
G36*
X-22906D02*
X-23027Y3453D01*
X-23140Y3406D01*
X-23237Y3331D01*
X-23311Y3234D01*
X-23358Y3121D01*
X-23374Y3000D01*
X-23358Y2879D01*
X-23311Y2766D01*
X-23237Y2669D01*
X-23140Y2594D01*
X-23027Y2547D01*
X-22906Y2531D01*
X-22784Y2547D01*
X-22671Y2594D01*
X-22574Y2669D01*
X-22500Y2766D01*
X-22453Y2879D01*
X-22437Y3000D01*
X-22453Y3121D01*
X-22500Y3234D01*
X-22574Y3331D01*
X-22671Y3406D01*
X-22784Y3453D01*
X-22906Y3469D01*
D02*
G37*
G36*
X17028Y3969D02*
X16906Y3953D01*
X16793Y3906D01*
X16696Y3831D01*
X16622Y3734D01*
X16575Y3621D01*
X16559Y3500D01*
X16575Y3379D01*
X16622Y3266D01*
X16696Y3169D01*
X16793Y3094D01*
X16906Y3047D01*
X17028Y3031D01*
X17149Y3047D01*
X17262Y3094D01*
X17359Y3169D01*
X17433Y3266D01*
X17480Y3379D01*
X17496Y3500D01*
X17480Y3621D01*
X17433Y3734D01*
X17359Y3831D01*
X17262Y3906D01*
X17149Y3953D01*
X17028Y3969D01*
D02*
G37*
G36*
X-23906Y2469D02*
X-24027Y2453D01*
X-24140Y2406D01*
X-24237Y2331D01*
X-24311Y2234D01*
X-24358Y2121D01*
X-24374Y2000D01*
X-24358Y1879D01*
X-24311Y1766D01*
X-24237Y1669D01*
X-24140Y1594D01*
X-24027Y1547D01*
X-23906Y1531D01*
X-23784Y1547D01*
X-23671Y1594D01*
X-23574Y1669D01*
X-23500Y1766D01*
X-23453Y1879D01*
X-23437Y2000D01*
X-23453Y2121D01*
X-23500Y2234D01*
X-23574Y2331D01*
X-23671Y2406D01*
X-23784Y2453D01*
X-23906Y2469D01*
D02*
G37*
G36*
X-22906D02*
X-23027Y2453D01*
X-23140Y2406D01*
X-23237Y2331D01*
X-23311Y2234D01*
X-23358Y2121D01*
X-23374Y2000D01*
X-23358Y1879D01*
X-23311Y1766D01*
X-23237Y1669D01*
X-23140Y1594D01*
X-23027Y1547D01*
X-22906Y1531D01*
X-22784Y1547D01*
X-22671Y1594D01*
X-22574Y1669D01*
X-22500Y1766D01*
X-22453Y1879D01*
X-22437Y2000D01*
X-22453Y2121D01*
X-22500Y2234D01*
X-22574Y2331D01*
X-22671Y2406D01*
X-22784Y2453D01*
X-22906Y2469D01*
D02*
G37*
G36*
X17028Y2969D02*
X16906Y2953D01*
X16793Y2906D01*
X16696Y2831D01*
X16622Y2734D01*
X16575Y2621D01*
X16559Y2500D01*
X16575Y2379D01*
X16622Y2266D01*
X16696Y2169D01*
X16793Y2094D01*
X16906Y2047D01*
X17028Y2031D01*
X17149Y2047D01*
X17262Y2094D01*
X17359Y2169D01*
X17433Y2266D01*
X17480Y2379D01*
X17496Y2500D01*
X17480Y2621D01*
X17433Y2734D01*
X17359Y2831D01*
X17262Y2906D01*
X17149Y2953D01*
X17028Y2969D01*
D02*
G37*
G36*
X-23906Y4469D02*
X-24027Y4453D01*
X-24140Y4406D01*
X-24237Y4331D01*
X-24311Y4234D01*
X-24358Y4121D01*
X-24374Y4000D01*
X-24358Y3879D01*
X-24311Y3766D01*
X-24237Y3669D01*
X-24140Y3594D01*
X-24027Y3547D01*
X-23906Y3531D01*
X-23784Y3547D01*
X-23671Y3594D01*
X-23574Y3669D01*
X-23500Y3766D01*
X-23453Y3879D01*
X-23437Y4000D01*
X-23453Y4121D01*
X-23500Y4234D01*
X-23574Y4331D01*
X-23671Y4406D01*
X-23784Y4453D01*
X-23906Y4469D01*
D02*
G37*
G36*
Y5469D02*
X-24027Y5453D01*
X-24140Y5406D01*
X-24237Y5331D01*
X-24311Y5234D01*
X-24358Y5121D01*
X-24374Y5000D01*
X-24358Y4879D01*
X-24311Y4766D01*
X-24237Y4669D01*
X-24140Y4594D01*
X-24027Y4547D01*
X-23906Y4531D01*
X-23784Y4547D01*
X-23671Y4594D01*
X-23574Y4669D01*
X-23500Y4766D01*
X-23453Y4879D01*
X-23437Y5000D01*
X-23453Y5121D01*
X-23500Y5234D01*
X-23574Y5331D01*
X-23671Y5406D01*
X-23784Y5453D01*
X-23906Y5469D01*
D02*
G37*
G36*
X-22441Y5465D02*
X-23370D01*
Y4535D01*
X-22441D01*
Y5465D01*
D02*
G37*
G36*
X-6024Y4959D02*
X-6114Y4942D01*
X-6190Y4891D01*
X-6205Y4868D01*
X-9563D01*
X-9578Y4891D01*
X-9654Y4942D01*
X-9744Y4959D01*
X-9834Y4942D01*
X-9910Y4891D01*
X-9961Y4814D01*
X-9979Y4724D01*
X-9961Y4634D01*
X-9910Y4558D01*
X-9834Y4507D01*
X-9744Y4489D01*
X-9654Y4507D01*
X-9578Y4558D01*
X-9563Y4581D01*
X-6205D01*
X-6190Y4558D01*
X-6114Y4507D01*
X-6024Y4489D01*
X-5934Y4507D01*
X-5857Y4558D01*
X-5806Y4634D01*
X-5789Y4724D01*
X-5806Y4814D01*
X-5857Y4891D01*
X-5934Y4942D01*
X-6024Y4959D01*
D02*
G37*
G36*
X-22906Y4469D02*
X-23027Y4453D01*
X-23140Y4406D01*
X-23237Y4331D01*
X-23311Y4234D01*
X-23358Y4121D01*
X-23374Y4000D01*
X-23358Y3879D01*
X-23311Y3766D01*
X-23237Y3669D01*
X-23140Y3594D01*
X-23027Y3547D01*
X-22906Y3531D01*
X-22784Y3547D01*
X-22671Y3594D01*
X-22574Y3669D01*
X-22500Y3766D01*
X-22453Y3879D01*
X-22437Y4000D01*
X-22453Y4121D01*
X-22500Y4234D01*
X-22574Y4331D01*
X-22671Y4406D01*
X-22784Y4453D01*
X-22906Y4469D01*
D02*
G37*
G36*
X2559Y5473D02*
X2469Y5455D01*
X2393Y5404D01*
X2342Y5328D01*
X2324Y5238D01*
X2342Y5148D01*
X2393Y5072D01*
X2416Y5057D01*
Y4270D01*
X2393Y4255D01*
X2342Y4179D01*
X2324Y4089D01*
X2342Y3999D01*
X2393Y3922D01*
X2469Y3871D01*
X2559Y3854D01*
X2649Y3871D01*
X2725Y3922D01*
X2776Y3999D01*
X2794Y4089D01*
X2776Y4179D01*
X2725Y4255D01*
X2702Y4270D01*
Y5057D01*
X2725Y5072D01*
X2776Y5148D01*
X2794Y5238D01*
X2776Y5328D01*
X2725Y5404D01*
X2649Y5455D01*
X2559Y5473D01*
D02*
G37*
G36*
X17028Y4969D02*
X16906Y4953D01*
X16793Y4906D01*
X16696Y4831D01*
X16622Y4734D01*
X16575Y4621D01*
X16559Y4500D01*
X16575Y4379D01*
X16622Y4266D01*
X16696Y4169D01*
X16793Y4094D01*
X16906Y4047D01*
X17028Y4031D01*
X17149Y4047D01*
X17262Y4094D01*
X17359Y4169D01*
X17433Y4266D01*
X17480Y4379D01*
X17496Y4500D01*
X17480Y4621D01*
X17433Y4734D01*
X17359Y4831D01*
X17262Y4906D01*
X17149Y4953D01*
X17028Y4969D01*
D02*
G37*
G36*
Y1969D02*
X16906Y1953D01*
X16793Y1906D01*
X16696Y1831D01*
X16622Y1734D01*
X16575Y1621D01*
X16559Y1500D01*
X16575Y1379D01*
X16622Y1266D01*
X16696Y1169D01*
X16793Y1094D01*
X16906Y1047D01*
X17028Y1031D01*
X17149Y1047D01*
X17262Y1094D01*
X17359Y1169D01*
X17433Y1266D01*
X17480Y1379D01*
X17496Y1500D01*
X17480Y1621D01*
X17433Y1734D01*
X17359Y1831D01*
X17262Y1906D01*
X17149Y1953D01*
X17028Y1969D01*
D02*
G37*
G36*
X4035Y333D02*
X3945Y316D01*
X3869Y265D01*
X3818Y188D01*
X3800Y98D01*
X3818Y8D01*
X3869Y-68D01*
X3892Y-83D01*
Y-854D01*
X3848Y-877D01*
X3830Y-865D01*
X3740Y-848D01*
X3650Y-865D01*
X3574Y-916D01*
X3523Y-993D01*
X3505Y-1083D01*
X3523Y-1173D01*
X3535Y-1191D01*
X3511Y-1235D01*
X-2779D01*
X-2794Y-1232D01*
X-7865D01*
X-7865Y-1232D01*
X-8672D01*
X-8687Y-1235D01*
X-8760D01*
X-8815Y-1246D01*
X-8861Y-1277D01*
X-8960Y-1375D01*
X-8991Y-1422D01*
X-9002Y-1476D01*
Y-1689D01*
X-9024Y-1704D01*
X-9075Y-1780D01*
X-9093Y-1870D01*
X-9075Y-1960D01*
X-9024Y-2036D01*
X-8948Y-2087D01*
X-8858Y-2105D01*
X-8768Y-2087D01*
X-8692Y-2036D01*
X-8641Y-1960D01*
X-8623Y-1870D01*
X-8641Y-1780D01*
X-8692Y-1704D01*
X-8715Y-1689D01*
Y-1536D01*
X-8700Y-1521D01*
X-8675D01*
X-8660Y-1518D01*
X-7786D01*
X-7786Y-1518D01*
X-3569D01*
X-3531Y-1568D01*
X-3542Y-1624D01*
X-3531Y-1680D01*
X-3569Y-1730D01*
X-6307D01*
X-6324Y-1704D01*
X-6400Y-1653D01*
X-6490Y-1635D01*
X-6580Y-1653D01*
X-6656Y-1704D01*
X-6707Y-1780D01*
X-6725Y-1870D01*
X-6707Y-1960D01*
X-6656Y-2036D01*
X-6580Y-2087D01*
X-6490Y-2105D01*
X-6400Y-2087D01*
X-6324Y-2036D01*
X-6322Y-2033D01*
X-6297Y-2035D01*
X-6275Y-2087D01*
X-6329Y-2157D01*
X-6377Y-2275D01*
X-6394Y-2402D01*
X-6377Y-2528D01*
X-6329Y-2646D01*
X-6251Y-2747D01*
X-6150Y-2825D01*
X-6032Y-2873D01*
X-5906Y-2890D01*
X-5779Y-2873D01*
X-5661Y-2825D01*
X-5560Y-2747D01*
X-5483Y-2646D01*
X-5434Y-2528D01*
X-5417Y-2402D01*
X-5434Y-2275D01*
X-5483Y-2157D01*
X-5552Y-2066D01*
X-5537Y-2016D01*
X3529D01*
X3553Y-2060D01*
X3543Y-2075D01*
X3525Y-2165D01*
X3543Y-2255D01*
X3594Y-2332D01*
X3670Y-2383D01*
X3760Y-2400D01*
X3850Y-2383D01*
X3926Y-2332D01*
X3977Y-2255D01*
X3995Y-2165D01*
X3977Y-2075D01*
X3926Y-1999D01*
X3903Y-1984D01*
Y-1982D01*
X3892Y-1927D01*
X3861Y-1881D01*
X3798Y-1817D01*
X3818Y-1767D01*
X3943D01*
X3998Y-1756D01*
X4044Y-1725D01*
X4137Y-1633D01*
X4168Y-1586D01*
X4179Y-1532D01*
Y-83D01*
X4202Y-68D01*
X4253Y8D01*
X4270Y98D01*
X4253Y188D01*
X4202Y265D01*
X4125Y316D01*
X4035Y333D01*
D02*
G37*
G36*
X-22956Y-50D02*
X-23377D01*
X-23367Y-124D01*
X-23320Y-239D01*
X-23244Y-338D01*
X-23145Y-414D01*
X-23029Y-462D01*
X-22956Y-472D01*
Y-50D01*
D02*
G37*
G36*
X-22434D02*
X-22856D01*
Y-472D01*
X-22782Y-462D01*
X-22666Y-414D01*
X-22567Y-338D01*
X-22491Y-239D01*
X-22444Y-124D01*
X-22434Y-50D01*
D02*
G37*
G36*
X-23906Y-531D02*
X-24027Y-547D01*
X-24140Y-594D01*
X-24237Y-669D01*
X-24311Y-766D01*
X-24358Y-879D01*
X-24374Y-1000D01*
X-24358Y-1121D01*
X-24311Y-1234D01*
X-24237Y-1331D01*
X-24140Y-1406D01*
X-24027Y-1453D01*
X-23906Y-1469D01*
X-23784Y-1453D01*
X-23671Y-1406D01*
X-23574Y-1331D01*
X-23500Y-1234D01*
X-23453Y-1121D01*
X-23437Y-1000D01*
X-23453Y-879D01*
X-23500Y-766D01*
X-23574Y-669D01*
X-23671Y-594D01*
X-23784Y-547D01*
X-23906Y-531D01*
D02*
G37*
G36*
X-22906D02*
X-23027Y-547D01*
X-23140Y-594D01*
X-23237Y-669D01*
X-23311Y-766D01*
X-23358Y-879D01*
X-23374Y-1000D01*
X-23358Y-1121D01*
X-23311Y-1234D01*
X-23237Y-1331D01*
X-23140Y-1406D01*
X-23027Y-1453D01*
X-22906Y-1469D01*
X-22784Y-1453D01*
X-22671Y-1406D01*
X-22574Y-1331D01*
X-22500Y-1234D01*
X-22453Y-1121D01*
X-22437Y-1000D01*
X-22453Y-879D01*
X-22500Y-766D01*
X-22574Y-669D01*
X-22671Y-594D01*
X-22784Y-547D01*
X-22906Y-531D01*
D02*
G37*
G36*
X17028Y-31D02*
X16906Y-47D01*
X16793Y-94D01*
X16696Y-169D01*
X16622Y-266D01*
X16575Y-379D01*
X16559Y-500D01*
X16575Y-621D01*
X16622Y-734D01*
X16696Y-831D01*
X16793Y-906D01*
X16906Y-953D01*
X17028Y-969D01*
X17149Y-953D01*
X17262Y-906D01*
X17359Y-831D01*
X17433Y-734D01*
X17480Y-621D01*
X17496Y-500D01*
X17480Y-379D01*
X17433Y-266D01*
X17359Y-169D01*
X17262Y-94D01*
X17149Y-47D01*
X17028Y-31D01*
D02*
G37*
G36*
X-23906Y469D02*
X-24027Y453D01*
X-24140Y406D01*
X-24237Y331D01*
X-24311Y234D01*
X-24358Y121D01*
X-24374Y-0D01*
X-24358Y-121D01*
X-24311Y-234D01*
X-24237Y-331D01*
X-24140Y-406D01*
X-24027Y-453D01*
X-23906Y-469D01*
X-23784Y-453D01*
X-23671Y-406D01*
X-23574Y-331D01*
X-23500Y-234D01*
X-23453Y-121D01*
X-23437Y-0D01*
X-23453Y121D01*
X-23500Y234D01*
X-23574Y331D01*
X-23671Y406D01*
X-23784Y453D01*
X-23906Y469D01*
D02*
G37*
G36*
Y1469D02*
X-24027Y1453D01*
X-24140Y1406D01*
X-24237Y1331D01*
X-24311Y1234D01*
X-24358Y1121D01*
X-24374Y1000D01*
X-24358Y879D01*
X-24311Y766D01*
X-24237Y669D01*
X-24140Y594D01*
X-24027Y547D01*
X-23906Y531D01*
X-23784Y547D01*
X-23671Y594D01*
X-23574Y669D01*
X-23500Y766D01*
X-23453Y879D01*
X-23437Y1000D01*
X-23453Y1121D01*
X-23500Y1234D01*
X-23574Y1331D01*
X-23671Y1406D01*
X-23784Y1453D01*
X-23906Y1469D01*
D02*
G37*
G36*
X-22906D02*
X-23027Y1453D01*
X-23140Y1406D01*
X-23237Y1331D01*
X-23311Y1234D01*
X-23358Y1121D01*
X-23374Y1000D01*
X-23358Y879D01*
X-23311Y766D01*
X-23237Y669D01*
X-23140Y594D01*
X-23027Y547D01*
X-22906Y531D01*
X-22784Y547D01*
X-22671Y594D01*
X-22574Y669D01*
X-22500Y766D01*
X-22453Y879D01*
X-22437Y1000D01*
X-22453Y1121D01*
X-22500Y1234D01*
X-22574Y1331D01*
X-22671Y1406D01*
X-22784Y1453D01*
X-22906Y1469D01*
D02*
G37*
G36*
X-2455Y1318D02*
X-2545Y1300D01*
X-2621Y1249D01*
X-2636Y1226D01*
X-10925D01*
X-10980Y1215D01*
X-11027Y1184D01*
X-11119Y1091D01*
X-11150Y1045D01*
X-11161Y990D01*
Y-1196D01*
X-11184Y-1212D01*
X-11235Y-1288D01*
X-11253Y-1378D01*
X-11235Y-1468D01*
X-11184Y-1544D01*
X-11108Y-1595D01*
X-11018Y-1613D01*
X-10928Y-1595D01*
X-10916Y-1587D01*
X-10872Y-1611D01*
Y-3514D01*
X-10917Y-3523D01*
X-10993Y-3574D01*
X-11044Y-3650D01*
X-11062Y-3740D01*
X-11044Y-3830D01*
X-10993Y-3906D01*
X-10917Y-3957D01*
X-10827Y-3975D01*
X-10737Y-3957D01*
X-10661Y-3906D01*
X-10610Y-3830D01*
X-10592Y-3740D01*
X-10599Y-3702D01*
X-10596Y-3697D01*
X-10585Y-3642D01*
Y630D01*
X-10551Y664D01*
X2653D01*
X2668Y641D01*
X2745Y590D01*
X2835Y572D01*
X2925Y590D01*
X3001Y641D01*
X3052Y717D01*
X3070Y807D01*
X3052Y897D01*
X3001Y973D01*
X2925Y1024D01*
X2835Y1042D01*
X2745Y1024D01*
X2668Y973D01*
X2653Y950D01*
X-2214D01*
X-2236Y1000D01*
X-2220Y1083D01*
X-2238Y1173D01*
X-2289Y1249D01*
X-2365Y1300D01*
X-2455Y1318D01*
D02*
G37*
G36*
X17028Y969D02*
X16906Y953D01*
X16793Y906D01*
X16696Y831D01*
X16622Y734D01*
X16575Y621D01*
X16559Y500D01*
X16575Y379D01*
X16622Y266D01*
X16696Y169D01*
X16793Y94D01*
X16906Y47D01*
X17028Y31D01*
X17149Y47D01*
X17262Y94D01*
X17359Y169D01*
X17433Y266D01*
X17480Y379D01*
X17496Y500D01*
X17480Y621D01*
X17433Y734D01*
X17359Y831D01*
X17262Y906D01*
X17149Y953D01*
X17028Y969D01*
D02*
G37*
G36*
X-22956Y472D02*
X-23029Y462D01*
X-23145Y414D01*
X-23244Y338D01*
X-23320Y239D01*
X-23367Y124D01*
X-23377Y50D01*
X-22956D01*
Y472D01*
D02*
G37*
G36*
X-22856D02*
Y50D01*
X-22434D01*
X-22444Y124D01*
X-22491Y239D01*
X-22567Y338D01*
X-22666Y414D01*
X-22782Y462D01*
X-22856Y472D01*
D02*
G37*
%LPD*%
G54D31*
X-11929Y-3652D02*
X-11850Y-3573D01*
Y3346D01*
Y-3652D02*
Y-3573D01*
X-3307Y-1624D02*
X3943D01*
X-3396D02*
X-3307D01*
X3943D02*
X4035Y-1532D01*
X-8760Y-1378D02*
X-8675D01*
X-8858Y-1476D02*
X-8760Y-1378D01*
X-8858Y-1870D02*
Y-1476D01*
X-8675Y-1378D02*
X-8672Y-1375D01*
X-7786D01*
X-10925Y1083D02*
X-2455D01*
X-11018Y990D02*
X-10925Y1083D01*
X-11018Y-1378D02*
Y990D01*
X-10610Y807D02*
X2835D01*
X-10728Y689D02*
X-10610Y807D01*
X-10728Y-3642D02*
Y689D01*
X-10827Y-3740D02*
X-10728Y-3642D01*
X-9744Y4724D02*
X-6024D01*
X-17372Y-4675D02*
Y-3992D01*
Y-4730D02*
Y-4675D01*
X1772Y-2657D02*
X5217D01*
X-6466Y-1873D02*
X3651D01*
X-6487D02*
X-6466D01*
X-6476Y-1884D02*
X-6466Y-1873D01*
X-6490Y-1870D02*
X-6487Y-1873D01*
X-2791Y-1378D02*
X3642D01*
X-2794Y-1375D02*
X-2791Y-1378D01*
X-7865Y-1375D02*
X-2794D01*
X3651Y-1873D02*
X3760Y-1982D01*
X4035Y-1532D02*
Y98D01*
X3760Y-2165D02*
Y-1982D01*
X3740Y-1280D02*
Y-1083D01*
X3642Y-1378D02*
X3740Y-1280D01*
X2559Y4134D02*
Y5163D01*
X2522Y5238D02*
X2596Y5163D01*
X-17372Y-3963D02*
Y-3008D01*
X-17402D02*
X-17372D01*
G54D33*
X-23124Y66831D02*
D03*
X59553D02*
D03*
X59553Y-8563D02*
D03*
X-23124D02*
D03*
G54D34*
X17028Y2500D02*
D03*
Y3500D02*
D03*
Y4500D02*
D03*
Y-500D02*
D03*
Y500D02*
D03*
Y1500D02*
D03*
Y-1500D02*
D03*
Y-2500D02*
D03*
Y-3500D02*
D03*
X-23906Y-4000D02*
D03*
X-22906Y-5000D02*
D03*
X-23906Y-2000D02*
D03*
Y-1000D02*
D03*
Y-0D02*
D03*
Y1000D02*
D03*
Y2000D02*
D03*
Y3000D02*
D03*
Y4000D02*
D03*
X-22906Y-2000D02*
D03*
Y-3000D02*
D03*
Y-4000D02*
D03*
Y1000D02*
D03*
Y-0D02*
D03*
Y-1000D02*
D03*
Y2000D02*
D03*
Y3000D02*
D03*
Y4000D02*
D03*
X-23906Y-5000D02*
D03*
Y5000D02*
D03*
Y-3000D02*
D03*
G54D35*
X17028Y-4500D02*
D03*
X-22906Y5000D02*
D03*
G54D36*
X-5906Y-2402D02*
D03*
G54D37*
X-7402Y-5472D02*
D03*
X-4409D02*
D03*
G54D38*
X-3307Y-1624D02*
D03*
X-9744Y4724D02*
D03*
X1673Y1476D02*
D03*
X-8858Y-1870D02*
D03*
X-17372Y-4675D02*
D03*
X-11850Y-3652D02*
D03*
X-13740Y3799D02*
D03*
X1772Y-2657D02*
D03*
X-8065Y-2756D02*
D03*
X-10427Y-1870D02*
D03*
X-11018Y-1378D02*
D03*
X-10728Y2100D02*
D03*
X-2455Y1083D02*
D03*
X-13085Y-1870D02*
D03*
Y-2756D02*
D03*
X-6490Y-1870D02*
D03*
X-12894Y-6102D02*
D03*
X-12717Y472D02*
D03*
X-17012Y6421D02*
D03*
X13632Y3002D02*
D03*
X-10827Y-4163D02*
D03*
Y-3740D02*
D03*
X-11850Y3346D02*
D03*
X-2972Y-3937D02*
D03*
X-886Y1280D02*
D03*
X2835Y807D02*
D03*
X5020Y1181D02*
D03*
X2559Y4089D02*
D03*
X-6024Y4724D02*
D03*
X-17372Y-3008D02*
D03*
X3760Y-2165D02*
D03*
X-3307Y-394D02*
D03*
X-984Y5413D02*
D03*
X-4646Y1969D02*
D03*
X-6024Y4089D02*
D03*
Y5413D02*
D03*
X3760Y-3179D02*
D03*
X-15532Y-3992D02*
D03*
X4035Y98D02*
D03*
X197Y-2165D02*
D03*
X13770Y-3091D02*
D03*
X5659Y2045D02*
D03*
X7707D02*
D03*
X12825Y-3937D02*
D03*
X10906Y-1762D02*
D03*
X9656Y-2657D02*
D03*
Y-1762D02*
D03*
X7559Y-3937D02*
D03*
X7480Y4272D02*
D03*
X-10197Y-5305D02*
D03*
X2559Y5238D02*
D03*
X-17372Y-3992D02*
D03*
X3157Y3760D02*
D03*
X4763Y4549D02*
D03*
X4890Y5337D02*
D03*
X-13484Y6201D02*
D03*
X-12598D02*
D03*
X-14370D02*
D03*
X-11614Y4429D02*
D03*
X3740Y-1083D02*
D03*
X5217Y-2657D02*
D03*
X12224Y541D02*
D03*
X12520D02*
D03*
X12815D02*
D03*
Y246D02*
D03*
X12520D02*
D03*
X12224D02*
D03*
X12520Y-49D02*
D03*
X12815D02*
D03*
X12224D02*
D03*
X6492Y-5461D02*
D03*
X6772Y-4901D02*
D03*
X6492Y-3221D02*
D03*
Y-981D02*
D03*
X6772Y-421D02*
D03*
X6492Y139D02*
D03*
X6772Y699D02*
D03*
X6492Y1259D02*
D03*
X6772Y5179D02*
D03*
X6492Y5739D02*
D03*
X7052Y-5461D02*
D03*
X7332Y-4901D02*
D03*
X7052Y-3221D02*
D03*
Y-981D02*
D03*
X7332Y-421D02*
D03*
X7052Y139D02*
D03*
X7332Y699D02*
D03*
X7052Y1259D02*
D03*
X7332Y5179D02*
D03*
X7052Y5739D02*
D03*
X7612Y-5461D02*
D03*
X7892Y-4901D02*
D03*
X7612Y-4341D02*
D03*
Y-3221D02*
D03*
Y-981D02*
D03*
Y139D02*
D03*
Y1259D02*
D03*
Y2379D02*
D03*
X7892Y5179D02*
D03*
X7612Y5739D02*
D03*
X8172Y-5461D02*
D03*
X8452Y-4901D02*
D03*
X8172Y-3221D02*
D03*
Y5739D02*
D03*
X8732Y-5461D02*
D03*
X9012Y-4901D02*
D03*
X8732Y-3221D02*
D03*
Y5739D02*
D03*
X9292Y-5461D02*
D03*
X9572Y-4901D02*
D03*
X9292Y-3221D02*
D03*
Y5739D02*
D03*
X9852Y-5461D02*
D03*
X10132Y-4901D02*
D03*
X9852Y-4341D02*
D03*
Y-3221D02*
D03*
Y-2101D02*
D03*
X10132Y-1541D02*
D03*
X9852Y-981D02*
D03*
Y5739D02*
D03*
X10412Y-5461D02*
D03*
X10692Y-4901D02*
D03*
X10412Y-4341D02*
D03*
Y-2101D02*
D03*
Y-981D02*
D03*
X10692Y4059D02*
D03*
Y5179D02*
D03*
X10412Y5739D02*
D03*
X10972Y-5461D02*
D03*
X11252Y-4901D02*
D03*
Y4059D02*
D03*
X10972Y4619D02*
D03*
X11252Y5179D02*
D03*
X10972Y5739D02*
D03*
X11532Y-5461D02*
D03*
X11812Y-4901D02*
D03*
Y4059D02*
D03*
X11532Y4619D02*
D03*
X11812Y5179D02*
D03*
X11532Y5739D02*
D03*
X12092Y-5461D02*
D03*
X12372Y-4901D02*
D03*
X12092Y4619D02*
D03*
X12372Y5179D02*
D03*
X12092Y5739D02*
D03*
X12652Y-5461D02*
D03*
X12932Y-4901D02*
D03*
X12652Y4619D02*
D03*
X12932Y5179D02*
D03*
X12652Y5739D02*
D03*
X13212Y-5461D02*
D03*
X13492Y-4901D02*
D03*
X13212Y-4341D02*
D03*
X13492Y-3781D02*
D03*
X13212Y4619D02*
D03*
X13492Y5179D02*
D03*
X13212Y5739D02*
D03*
X13772Y-5461D02*
D03*
X14052Y-4901D02*
D03*
X13772Y-4341D02*
D03*
X14052Y-3781D02*
D03*
X13772Y4619D02*
D03*
X14052Y5179D02*
D03*
X13772Y5739D02*
D03*
X14332Y-5461D02*
D03*
X14612Y-4901D02*
D03*
X14332Y-4341D02*
D03*
X14612Y-3781D02*
D03*
X14332Y4619D02*
D03*
X14612Y5179D02*
D03*
X14332Y5739D02*
D03*
X14892Y-5461D02*
D03*
X15172Y-4901D02*
D03*
X14892Y-4341D02*
D03*
X15172Y-3781D02*
D03*
X14892Y4619D02*
D03*
X15172Y5179D02*
D03*
X14892Y5739D02*
D03*
X15452Y-5461D02*
D03*
X15732Y-4901D02*
D03*
X15452Y-4341D02*
D03*
X15732Y-3781D02*
D03*
X15452Y4619D02*
D03*
X15732Y5179D02*
D03*
X15452Y5739D02*
D03*
X16012Y-5461D02*
D03*
X16292Y-4901D02*
D03*
X16012Y-4341D02*
D03*
X16292Y-3781D02*
D03*
X16012Y4619D02*
D03*
X16292Y5179D02*
D03*
X16012Y5739D02*
D03*
X16572Y-5461D02*
D03*
Y5739D02*
D03*
X17412Y2939D02*
D03*
Y4059D02*
D03*
Y5179D02*
D03*
X8612Y3100D02*
D03*
M02*
