M48
;Layer_Color=9474304
;FILE_FORMAT=2:4
INCH,LZ
;TYPE=PLATED
T1F00S00C0.0160
T2F00S00C0.0394
T3F00S00C0.0402
T4F00S00C0.0748
%
T01
X013772Y-005461
X014332
X014892
X015452
X016012
X016572
X016292Y-004901
X015732
X015172
X014612
X014052
X013772Y-004341
X014332
X014892
X015452
X016012
X015732Y-003781
X015172
X014612
X014052
X01377Y-003091
X016292Y-003781
X017412Y002939
Y004059
X016012Y004619
X015452
X014892
X014332
X013772
X013632Y003002
X013212Y004619
X012652
X012092
X011532
X010972
X010692Y004059
X011252
X011812
X012224Y000541
X01252
X012815
Y000246
X01252
X012224
Y-000049
X01252
X012815
X010412Y-000981
X009852
X010132Y-001541
X009656Y-001762
X009852Y-002101
X010412
X010906Y-001762
X009656Y-002657
X009852Y-003221
X009292
X008732
X008172
X007612
X007052
X006492
X007559Y-003937
X007612Y-004341
X007332Y-004901
X006772
X006492Y-005461
X007052
X007612
X008172
X008732
X009292
X009852
X010412
X010972
X011532
X012092
X012652
X013212
X012932Y-004901
X012372
X011812
X011252
X010692
X010132
X009572
X009012
X008452
X007892
X009852Y-004341
X010412
X013212
X012825Y-003937
X013492Y-003781
Y-004901
X007612Y-000981
X007052
X006492
X006772Y-000421
X007332
X007052Y000139
X006492
X006772Y000699
X007332
X007052Y001259
X006492
X007612
X007707Y002045
X007612Y002379
X008612Y0031
X00748Y004272
X004763Y004549
X003157Y00376
X002559Y004089
X001673Y001476
X002835Y000807
X004035Y000098
X00374Y-001083
X00376Y-002165
Y-003179
X005217Y-002657
X001772
X000197Y-002165
X-000886Y00128
X00502Y001181
X005659Y002045
X007612Y000139
X-002455Y001083
X-003307Y-000394
Y-001624
X-002972Y-003937
X-00649Y-00187
X-008858Y-00187
X-010427Y-00187
X-011018Y-001378
X-010827Y-00374
Y-004163
X-01185Y-003652
X-013085Y-002756
Y-00187
X-012717Y000472
X-010728Y0021
X-01185Y003346
X-011614Y004429
X-009744Y004724
X-006024
Y004089
X-004646Y001969
X-008065Y-002756
X-010197Y-005305
X-012894Y-006102
X-015532Y-003992
X-017372
Y-004675
Y-003008
X-01374Y003799
X-013484Y006201
X-012598
X-01437
X-017012Y006421
X-006024Y005413
X-000984
X002559Y005238
X00489Y005337
X006492Y005739
X007052
X007612
X008172
X008732
X009292
X009852
X010412
X010972
X011532
X012092
X012652
X013212
X012932Y005179
X012372
X011812
X011252
X010692
X007892
X007332
X006772
X013492
X014052
X014612
X015172
X015732
X016292
X016012Y005739
X015452
X014892
X014332
X013772
X016572
X017412Y005179
T02
X017028Y-0045
Y-0035
Y-0025
Y-0015
Y-0005
Y0005
Y0015
Y0025
Y0035
Y0045
X-022906Y005
Y004
X-023906
Y003
Y002
Y001
Y-0
Y-001
Y-002
X-022906
Y-003
Y-004
X-023906
Y-005
X-022906
X-023906Y-003
X-022906Y-001
Y-0
Y001
Y002
Y003
X-023906Y005
T03
X-005906Y-002402
T04
X-007402Y-005472
X-004409
M30
