%FSLAX24Y24*%
%MOIN*%
G70*
G01*
G75*
G04 Layer_Color=16711935*
%ADD10R,0.1181X0.0551*%
%ADD11R,0.0433X0.0394*%
%ADD12C,0.0394*%
%ADD13R,0.0512X0.0591*%
%ADD14R,0.0433X0.0236*%
%ADD15R,0.0290X0.0220*%
%ADD16R,0.0118X0.0472*%
%ADD17R,0.0571X0.0177*%
%ADD18R,0.0335X0.0110*%
%ADD19R,0.0110X0.0335*%
%ADD20R,0.0276X0.0118*%
%ADD21R,0.0480X0.0358*%
%ADD22R,0.0358X0.0480*%
%ADD23R,0.0500X0.0200*%
%ADD24R,0.0200X0.0500*%
%ADD25R,0.0472X0.0118*%
%ADD26R,0.0551X0.0118*%
%ADD27R,0.0630X0.0709*%
%ADD28R,0.0906X0.0236*%
%ADD29R,0.0236X0.0433*%
%ADD30R,0.0591X0.0512*%
%ADD31C,0.0100*%
%ADD32C,0.0110*%
%ADD33C,0.1575*%
%ADD34C,0.0748*%
%ADD35R,0.0748X0.0748*%
%ADD36C,0.0787*%
%ADD37C,0.1496*%
%ADD38C,0.0280*%
%ADD39C,0.0098*%
%ADD40C,0.0118*%
%ADD41C,0.0050*%
%ADD42C,0.0079*%
%ADD43C,0.0059*%
%ADD44R,0.1161X0.0531*%
%ADD45R,0.0413X0.0374*%
%ADD46C,0.0374*%
%ADD47R,0.0492X0.0571*%
%ADD48R,0.0413X0.0216*%
%ADD49R,0.0270X0.0200*%
%ADD50R,0.0098X0.0452*%
%ADD51R,0.0551X0.0157*%
%ADD52R,0.0315X0.0090*%
%ADD53R,0.0090X0.0315*%
%ADD54R,0.0256X0.0098*%
%ADD55R,0.0460X0.0338*%
%ADD56R,0.0338X0.0460*%
%ADD57R,0.0480X0.0180*%
%ADD58R,0.0180X0.0480*%
%ADD59R,0.0452X0.0098*%
%ADD60R,0.0531X0.0098*%
%ADD61R,0.0610X0.0689*%
%ADD62R,0.0886X0.0216*%
%ADD63R,0.0216X0.0413*%
%ADD64R,0.0571X0.0492*%
%ADD65R,0.1261X0.0631*%
%ADD66R,0.0513X0.0474*%
%ADD67C,0.0787*%
%ADD68R,0.0592X0.0671*%
%ADD69R,0.0513X0.0316*%
%ADD70R,0.0370X0.0300*%
%ADD71R,0.0198X0.0552*%
%ADD72R,0.0610X0.0217*%
%ADD73R,0.0375X0.0150*%
%ADD74R,0.0150X0.0375*%
%ADD75R,0.0316X0.0158*%
%ADD76R,0.0560X0.0438*%
%ADD77R,0.0438X0.0560*%
%ADD78R,0.0580X0.0280*%
%ADD79R,0.0280X0.0580*%
%ADD80R,0.0552X0.0198*%
%ADD81R,0.0591X0.0157*%
%ADD82R,0.0710X0.0789*%
%ADD83R,0.0986X0.0316*%
%ADD84R,0.0316X0.0513*%
%ADD85R,0.0671X0.0592*%
%ADD86C,0.1655*%
%ADD87C,0.0828*%
%ADD88R,0.0828X0.0828*%
%ADD89C,0.0867*%
%ADD90C,0.1576*%
G54D86*
X-23124Y66831D02*
D03*
X59553D02*
D03*
X59553Y-8563D02*
D03*
X-23124D02*
D03*
G54D87*
X17028Y2500D02*
D03*
Y3500D02*
D03*
Y4500D02*
D03*
Y-500D02*
D03*
Y500D02*
D03*
Y1500D02*
D03*
Y-1500D02*
D03*
Y-2500D02*
D03*
Y-3500D02*
D03*
X-23906Y-4000D02*
D03*
X-22906Y-5000D02*
D03*
X-23906Y-2000D02*
D03*
Y-1000D02*
D03*
Y-0D02*
D03*
Y1000D02*
D03*
Y2000D02*
D03*
Y3000D02*
D03*
Y4000D02*
D03*
X-22906Y-2000D02*
D03*
Y-3000D02*
D03*
Y-4000D02*
D03*
Y1000D02*
D03*
Y-0D02*
D03*
Y-1000D02*
D03*
Y2000D02*
D03*
Y3000D02*
D03*
Y4000D02*
D03*
X-23906Y-5000D02*
D03*
Y5000D02*
D03*
Y-3000D02*
D03*
G54D88*
X17028Y-4500D02*
D03*
X-22906Y5000D02*
D03*
G54D89*
X-5906Y-2402D02*
D03*
G54D90*
X-7402Y-5472D02*
D03*
X-4409D02*
D03*
M02*
