%FSLAX24Y24*%
%MOIN*%
G70*
G01*
G75*
G04 Layer_Color=2752767*
%ADD10R,0.1181X0.0551*%
%ADD11R,0.0433X0.0394*%
%ADD12C,0.0394*%
%ADD13R,0.0512X0.0591*%
%ADD14R,0.0433X0.0236*%
%ADD15R,0.0290X0.0220*%
%ADD16R,0.0118X0.0472*%
%ADD17R,0.0571X0.0177*%
%ADD18R,0.0335X0.0110*%
%ADD19R,0.0110X0.0335*%
%ADD20R,0.0276X0.0118*%
%ADD21R,0.0480X0.0358*%
%ADD22R,0.0358X0.0480*%
%ADD23R,0.0500X0.0200*%
%ADD24R,0.0200X0.0500*%
%ADD25R,0.0472X0.0118*%
%ADD26R,0.0551X0.0118*%
%ADD27R,0.0630X0.0709*%
%ADD28R,0.0906X0.0236*%
%ADD29R,0.0236X0.0433*%
%ADD30R,0.0591X0.0512*%
%ADD31C,0.0100*%
%ADD32C,0.0110*%
%ADD33C,0.1575*%
%ADD34C,0.0748*%
%ADD35R,0.0748X0.0748*%
%ADD36C,0.0787*%
%ADD37C,0.1496*%
%ADD38C,0.0280*%
%ADD39C,0.0098*%
%ADD40C,0.0118*%
%ADD41C,0.0050*%
%ADD42C,0.0079*%
%ADD43C,0.0059*%
%ADD44R,0.1161X0.0531*%
%ADD45R,0.0413X0.0374*%
%ADD46C,0.0374*%
%ADD47R,0.0492X0.0571*%
%ADD48R,0.0413X0.0216*%
%ADD49R,0.0270X0.0200*%
%ADD50R,0.0098X0.0452*%
%ADD51R,0.0551X0.0157*%
%ADD52R,0.0315X0.0090*%
%ADD53R,0.0090X0.0315*%
%ADD54R,0.0256X0.0098*%
%ADD55R,0.0460X0.0338*%
%ADD56R,0.0338X0.0460*%
%ADD57R,0.0480X0.0180*%
%ADD58R,0.0180X0.0480*%
%ADD59R,0.0452X0.0098*%
%ADD60R,0.0531X0.0098*%
%ADD61R,0.0610X0.0689*%
%ADD62R,0.0886X0.0216*%
%ADD63R,0.0216X0.0413*%
%ADD64R,0.0571X0.0492*%
%ADD65R,0.1261X0.0631*%
%ADD66R,0.0513X0.0474*%
%ADD67C,0.0787*%
%ADD68R,0.0592X0.0671*%
%ADD69R,0.0513X0.0316*%
%ADD70R,0.0370X0.0300*%
%ADD71R,0.0198X0.0552*%
%ADD72R,0.0610X0.0217*%
%ADD73R,0.0375X0.0150*%
%ADD74R,0.0150X0.0375*%
%ADD75R,0.0316X0.0158*%
%ADD76R,0.0560X0.0438*%
%ADD77R,0.0438X0.0560*%
%ADD78R,0.0580X0.0280*%
%ADD79R,0.0280X0.0580*%
%ADD80R,0.0552X0.0198*%
%ADD81R,0.0591X0.0157*%
%ADD82R,0.0710X0.0789*%
%ADD83R,0.0986X0.0316*%
%ADD84R,0.0316X0.0513*%
%ADD85R,0.0671X0.0592*%
%ADD86C,0.1655*%
%ADD87C,0.0828*%
%ADD88R,0.0828X0.0828*%
%ADD89C,0.0867*%
%ADD90C,0.1576*%
%ADD91C,0.0067*%
G54D41*
X-23324Y66631D02*
Y67031D01*
X-22924D01*
Y66631D01*
X-23324D01*
X59353D02*
Y67031D01*
X59753D01*
Y66631D01*
X59353D01*
X59353Y-8763D02*
Y-8363D01*
X59753D01*
Y-8763D01*
X59353D01*
X-23324D02*
Y-8363D01*
X-22924D01*
Y-8763D01*
X-23324D01*
X-5906Y-2602D02*
X-6106Y-2202D01*
X-5706D01*
X-5906Y-2602D01*
X-7402Y-5672D02*
X-7302Y-5572D01*
X-7202D01*
X-7302Y-5472D01*
X-7202Y-5372D01*
X-7302D01*
X-7402Y-5272D01*
X-7502Y-5372D01*
X-7602D01*
X-7502Y-5472D01*
X-7602Y-5572D01*
X-7502D01*
X-7402Y-5672D01*
X-4409D02*
X-4309Y-5572D01*
X-4209D01*
X-4309Y-5472D01*
X-4209Y-5372D01*
X-4309D01*
X-4409Y-5272D01*
X-4509Y-5372D01*
X-4609D01*
X-4509Y-5472D01*
X-4609Y-5572D01*
X-4509D01*
X-4409Y-5672D01*
X-3507Y-1824D02*
X-3407Y-1624D01*
X-3507Y-1424D01*
X-3307Y-1524D01*
X-3107Y-1424D01*
X-3207Y-1624D01*
X-3107Y-1824D01*
X-3307Y-1724D01*
X-3507Y-1824D01*
X-9944Y4524D02*
X-9844Y4724D01*
X-9944Y4924D01*
X-9744Y4824D01*
X-9544Y4924D01*
X-9644Y4724D01*
X-9544Y4524D01*
X-9744Y4624D01*
X-9944Y4524D01*
X1473Y1276D02*
X1573Y1476D01*
X1473Y1676D01*
X1673Y1576D01*
X1873Y1676D01*
X1773Y1476D01*
X1873Y1276D01*
X1673Y1376D01*
X1473Y1276D01*
X-9058Y-2070D02*
X-8958Y-1870D01*
X-9058Y-1670D01*
X-8858Y-1770D01*
X-8658Y-1670D01*
X-8758Y-1870D01*
X-8658Y-2070D01*
X-8858Y-1970D01*
X-9058Y-2070D01*
X-17572Y-4875D02*
X-17472Y-4675D01*
X-17572Y-4475D01*
X-17372Y-4575D01*
X-17172Y-4475D01*
X-17272Y-4675D01*
X-17172Y-4875D01*
X-17372Y-4775D01*
X-17572Y-4875D01*
X-12050Y-3852D02*
X-11950Y-3652D01*
X-12050Y-3452D01*
X-11850Y-3552D01*
X-11650Y-3452D01*
X-11750Y-3652D01*
X-11650Y-3852D01*
X-11850Y-3752D01*
X-12050Y-3852D01*
X-13940Y3599D02*
X-13840Y3799D01*
X-13940Y3999D01*
X-13740Y3899D01*
X-13540Y3999D01*
X-13640Y3799D01*
X-13540Y3599D01*
X-13740Y3699D01*
X-13940Y3599D01*
X1572Y-2857D02*
X1672Y-2657D01*
X1572Y-2457D01*
X1772Y-2557D01*
X1972Y-2457D01*
X1872Y-2657D01*
X1972Y-2857D01*
X1772Y-2757D01*
X1572Y-2857D01*
X-8265Y-2956D02*
X-8165Y-2756D01*
X-8265Y-2556D01*
X-8065Y-2656D01*
X-7865Y-2556D01*
X-7965Y-2756D01*
X-7865Y-2956D01*
X-8065Y-2856D01*
X-8265Y-2956D01*
X-10627Y-2070D02*
X-10527Y-1870D01*
X-10627Y-1670D01*
X-10427Y-1770D01*
X-10227Y-1670D01*
X-10327Y-1870D01*
X-10227Y-2070D01*
X-10427Y-1970D01*
X-10627Y-2070D01*
X-11218Y-1578D02*
X-11118Y-1378D01*
X-11218Y-1178D01*
X-11018Y-1278D01*
X-10818Y-1178D01*
X-10918Y-1378D01*
X-10818Y-1578D01*
X-11018Y-1478D01*
X-11218Y-1578D01*
X-10928Y1900D02*
X-10828Y2100D01*
X-10928Y2300D01*
X-10728Y2200D01*
X-10528Y2300D01*
X-10628Y2100D01*
X-10528Y1900D01*
X-10728Y2000D01*
X-10928Y1900D01*
X-2655Y883D02*
X-2555Y1083D01*
X-2655Y1283D01*
X-2455Y1183D01*
X-2255Y1283D01*
X-2355Y1083D01*
X-2255Y883D01*
X-2455Y983D01*
X-2655Y883D01*
X-13285Y-2070D02*
X-13185Y-1870D01*
X-13285Y-1670D01*
X-13085Y-1770D01*
X-12885Y-1670D01*
X-12985Y-1870D01*
X-12885Y-2070D01*
X-13085Y-1970D01*
X-13285Y-2070D01*
Y-2956D02*
X-13185Y-2756D01*
X-13285Y-2556D01*
X-13085Y-2656D01*
X-12885Y-2556D01*
X-12985Y-2756D01*
X-12885Y-2956D01*
X-13085Y-2856D01*
X-13285Y-2956D01*
X-6690Y-2070D02*
X-6590Y-1870D01*
X-6690Y-1670D01*
X-6490Y-1770D01*
X-6290Y-1670D01*
X-6390Y-1870D01*
X-6290Y-2070D01*
X-6490Y-1970D01*
X-6690Y-2070D01*
X-13094Y-6302D02*
X-12994Y-6102D01*
X-13094Y-5902D01*
X-12894Y-6002D01*
X-12694Y-5902D01*
X-12794Y-6102D01*
X-12694Y-6302D01*
X-12894Y-6202D01*
X-13094Y-6302D01*
X-12917Y272D02*
X-12817Y472D01*
X-12917Y672D01*
X-12717Y572D01*
X-12517Y672D01*
X-12617Y472D01*
X-12517Y272D01*
X-12717Y372D01*
X-12917Y272D01*
X-17212Y6221D02*
X-17112Y6421D01*
X-17212Y6621D01*
X-17012Y6521D01*
X-16812Y6621D01*
X-16912Y6421D01*
X-16812Y6221D01*
X-17012Y6321D01*
X-17212Y6221D01*
X13432Y2802D02*
X13532Y3002D01*
X13432Y3202D01*
X13632Y3102D01*
X13832Y3202D01*
X13732Y3002D01*
X13832Y2802D01*
X13632Y2902D01*
X13432Y2802D01*
X-11027Y-4363D02*
X-10927Y-4163D01*
X-11027Y-3963D01*
X-10827Y-4063D01*
X-10627Y-3963D01*
X-10727Y-4163D01*
X-10627Y-4363D01*
X-10827Y-4263D01*
X-11027Y-4363D01*
Y-3940D02*
X-10927Y-3740D01*
X-11027Y-3540D01*
X-10827Y-3640D01*
X-10627Y-3540D01*
X-10727Y-3740D01*
X-10627Y-3940D01*
X-10827Y-3840D01*
X-11027Y-3940D01*
X-12050Y3146D02*
X-11950Y3346D01*
X-12050Y3546D01*
X-11850Y3446D01*
X-11650Y3546D01*
X-11750Y3346D01*
X-11650Y3146D01*
X-11850Y3246D01*
X-12050Y3146D01*
X-3172Y-4137D02*
X-3072Y-3937D01*
X-3172Y-3737D01*
X-2972Y-3837D01*
X-2772Y-3737D01*
X-2872Y-3937D01*
X-2772Y-4137D01*
X-2972Y-4037D01*
X-3172Y-4137D01*
X-1086Y1080D02*
X-986Y1280D01*
X-1086Y1480D01*
X-886Y1380D01*
X-686Y1480D01*
X-786Y1280D01*
X-686Y1080D01*
X-886Y1180D01*
X-1086Y1080D01*
X2635Y607D02*
X2735Y807D01*
X2635Y1007D01*
X2835Y907D01*
X3035Y1007D01*
X2935Y807D01*
X3035Y607D01*
X2835Y707D01*
X2635Y607D01*
X4820Y981D02*
X4920Y1181D01*
X4820Y1381D01*
X5020Y1281D01*
X5220Y1381D01*
X5120Y1181D01*
X5220Y981D01*
X5020Y1081D01*
X4820Y981D01*
X2359Y3889D02*
X2459Y4089D01*
X2359Y4289D01*
X2559Y4189D01*
X2759Y4289D01*
X2659Y4089D01*
X2759Y3889D01*
X2559Y3989D01*
X2359Y3889D01*
X-6224Y4524D02*
X-6124Y4724D01*
X-6224Y4924D01*
X-6024Y4824D01*
X-5824Y4924D01*
X-5924Y4724D01*
X-5824Y4524D01*
X-6024Y4624D01*
X-6224Y4524D01*
X-17572Y-3208D02*
X-17472Y-3008D01*
X-17572Y-2808D01*
X-17372Y-2908D01*
X-17172Y-2808D01*
X-17272Y-3008D01*
X-17172Y-3208D01*
X-17372Y-3108D01*
X-17572Y-3208D01*
X3560Y-2365D02*
X3660Y-2165D01*
X3560Y-1965D01*
X3760Y-2065D01*
X3960Y-1965D01*
X3860Y-2165D01*
X3960Y-2365D01*
X3760Y-2265D01*
X3560Y-2365D01*
X-3507Y-594D02*
X-3407Y-394D01*
X-3507Y-194D01*
X-3307Y-294D01*
X-3107Y-194D01*
X-3207Y-394D01*
X-3107Y-594D01*
X-3307Y-494D01*
X-3507Y-594D01*
X-1184Y5213D02*
X-1084Y5413D01*
X-1184Y5613D01*
X-984Y5513D01*
X-784Y5613D01*
X-884Y5413D01*
X-784Y5213D01*
X-984Y5313D01*
X-1184Y5213D01*
X-4846Y1769D02*
X-4746Y1969D01*
X-4846Y2168D01*
X-4646Y2069D01*
X-4446Y2168D01*
X-4546Y1969D01*
X-4446Y1769D01*
X-4646Y1868D01*
X-4846Y1769D01*
X-6224Y3889D02*
X-6124Y4089D01*
X-6224Y4289D01*
X-6024Y4189D01*
X-5824Y4289D01*
X-5924Y4089D01*
X-5824Y3889D01*
X-6024Y3989D01*
X-6224Y3889D01*
Y5213D02*
X-6124Y5413D01*
X-6224Y5613D01*
X-6024Y5513D01*
X-5824Y5613D01*
X-5924Y5413D01*
X-5824Y5213D01*
X-6024Y5313D01*
X-6224Y5213D01*
X3560Y-3379D02*
X3660Y-3179D01*
X3560Y-2979D01*
X3760Y-3079D01*
X3960Y-2979D01*
X3860Y-3179D01*
X3960Y-3379D01*
X3760Y-3279D01*
X3560Y-3379D01*
X-15732Y-4192D02*
X-15632Y-3992D01*
X-15732Y-3792D01*
X-15532Y-3892D01*
X-15331Y-3792D01*
X-15431Y-3992D01*
X-15331Y-4192D01*
X-15532Y-4092D01*
X-15732Y-4192D01*
X3835Y-102D02*
X3935Y98D01*
X3835Y298D01*
X4035Y198D01*
X4235Y298D01*
X4135Y98D01*
X4235Y-102D01*
X4035Y-2D01*
X3835Y-102D01*
X-3Y-2365D02*
X97Y-2165D01*
X-3Y-1965D01*
X197Y-2065D01*
X397Y-1965D01*
X297Y-2165D01*
X397Y-2365D01*
X197Y-2265D01*
X-3Y-2365D01*
X13570Y-3291D02*
X13670Y-3091D01*
X13570Y-2891D01*
X13770Y-2991D01*
X13970Y-2891D01*
X13870Y-3091D01*
X13970Y-3291D01*
X13770Y-3191D01*
X13570Y-3291D01*
X5459Y1845D02*
X5559Y2045D01*
X5459Y2245D01*
X5659Y2145D01*
X5859Y2245D01*
X5759Y2045D01*
X5859Y1845D01*
X5659Y1945D01*
X5459Y1845D01*
X7507D02*
X7607Y2045D01*
X7507Y2245D01*
X7707Y2145D01*
X7907Y2245D01*
X7807Y2045D01*
X7907Y1845D01*
X7707Y1945D01*
X7507Y1845D01*
X12625Y-4137D02*
X12725Y-3937D01*
X12625Y-3737D01*
X12825Y-3837D01*
X13025Y-3737D01*
X12925Y-3937D01*
X13025Y-4137D01*
X12825Y-4037D01*
X12625Y-4137D01*
X10706Y-1962D02*
X10806Y-1762D01*
X10706Y-1562D01*
X10906Y-1662D01*
X11106Y-1562D01*
X11006Y-1762D01*
X11106Y-1962D01*
X10906Y-1862D01*
X10706Y-1962D01*
X9456Y-2857D02*
X9556Y-2657D01*
X9456Y-2457D01*
X9656Y-2557D01*
X9856Y-2457D01*
X9756Y-2657D01*
X9856Y-2857D01*
X9656Y-2757D01*
X9456Y-2857D01*
Y-1962D02*
X9556Y-1762D01*
X9456Y-1562D01*
X9656Y-1662D01*
X9856Y-1562D01*
X9756Y-1762D01*
X9856Y-1962D01*
X9656Y-1862D01*
X9456Y-1962D01*
X7359Y-4137D02*
X7459Y-3937D01*
X7359Y-3737D01*
X7559Y-3837D01*
X7759Y-3737D01*
X7659Y-3937D01*
X7759Y-4137D01*
X7559Y-4037D01*
X7359Y-4137D01*
X7280Y4072D02*
X7380Y4272D01*
X7280Y4472D01*
X7480Y4372D01*
X7680Y4472D01*
X7580Y4272D01*
X7680Y4072D01*
X7480Y4172D01*
X7280Y4072D01*
X-10397Y-5505D02*
X-10297Y-5305D01*
X-10397Y-5105D01*
X-10197Y-5205D01*
X-9997Y-5105D01*
X-10097Y-5305D01*
X-9997Y-5505D01*
X-10197Y-5405D01*
X-10397Y-5505D01*
X2359Y5038D02*
X2459Y5238D01*
X2359Y5438D01*
X2559Y5338D01*
X2759Y5438D01*
X2659Y5238D01*
X2759Y5038D01*
X2559Y5138D01*
X2359Y5038D01*
X-17572Y-4192D02*
X-17472Y-3992D01*
X-17572Y-3792D01*
X-17372Y-3892D01*
X-17172Y-3792D01*
X-17272Y-3992D01*
X-17172Y-4192D01*
X-17372Y-4092D01*
X-17572Y-4192D01*
X2957Y3560D02*
X3057Y3760D01*
X2957Y3960D01*
X3157Y3860D01*
X3357Y3960D01*
X3257Y3760D01*
X3357Y3560D01*
X3157Y3660D01*
X2957Y3560D01*
X4563Y4349D02*
X4663Y4549D01*
X4563Y4749D01*
X4763Y4649D01*
X4963Y4749D01*
X4863Y4549D01*
X4963Y4349D01*
X4763Y4449D01*
X4563Y4349D01*
X4690Y5137D02*
X4790Y5337D01*
X4690Y5537D01*
X4890Y5437D01*
X5090Y5537D01*
X4990Y5337D01*
X5090Y5137D01*
X4890Y5237D01*
X4690Y5137D01*
X-13684Y6001D02*
X-13584Y6201D01*
X-13684Y6401D01*
X-13484Y6301D01*
X-13284Y6401D01*
X-13384Y6201D01*
X-13284Y6001D01*
X-13484Y6101D01*
X-13684Y6001D01*
X-12798D02*
X-12698Y6201D01*
X-12798Y6401D01*
X-12598Y6301D01*
X-12398Y6401D01*
X-12498Y6201D01*
X-12398Y6001D01*
X-12598Y6101D01*
X-12798Y6001D01*
X-14570D02*
X-14470Y6201D01*
X-14570Y6401D01*
X-14370Y6301D01*
X-14170Y6401D01*
X-14270Y6201D01*
X-14170Y6001D01*
X-14370Y6101D01*
X-14570Y6001D01*
X-11814Y4229D02*
X-11714Y4429D01*
X-11814Y4629D01*
X-11614Y4529D01*
X-11414Y4629D01*
X-11514Y4429D01*
X-11414Y4229D01*
X-11614Y4329D01*
X-11814Y4229D01*
X3540Y-1283D02*
X3640Y-1083D01*
X3540Y-883D01*
X3740Y-983D01*
X3940Y-883D01*
X3840Y-1083D01*
X3940Y-1283D01*
X3740Y-1183D01*
X3540Y-1283D01*
X5017Y-2857D02*
X5117Y-2657D01*
X5017Y-2457D01*
X5217Y-2557D01*
X5417Y-2457D01*
X5317Y-2657D01*
X5417Y-2857D01*
X5217Y-2757D01*
X5017Y-2857D01*
X12024Y341D02*
X12124Y541D01*
X12024Y741D01*
X12224Y641D01*
X12424Y741D01*
X12324Y541D01*
X12424Y341D01*
X12224Y441D01*
X12024Y341D01*
X12320D02*
X12420Y541D01*
X12320Y741D01*
X12520Y641D01*
X12720Y741D01*
X12620Y541D01*
X12720Y341D01*
X12520Y441D01*
X12320Y341D01*
X12615D02*
X12715Y541D01*
X12615Y741D01*
X12815Y641D01*
X13015Y741D01*
X12915Y541D01*
X13015Y341D01*
X12815Y441D01*
X12615Y341D01*
Y46D02*
X12715Y246D01*
X12615Y446D01*
X12815Y346D01*
X13015Y446D01*
X12915Y246D01*
X13015Y46D01*
X12815Y146D01*
X12615Y46D01*
X12320D02*
X12420Y246D01*
X12320Y446D01*
X12520Y346D01*
X12720Y446D01*
X12620Y246D01*
X12720Y46D01*
X12520Y146D01*
X12320Y46D01*
X12024D02*
X12124Y246D01*
X12024Y446D01*
X12224Y346D01*
X12424Y446D01*
X12324Y246D01*
X12424Y46D01*
X12224Y146D01*
X12024Y46D01*
X12320Y-249D02*
X12420Y-49D01*
X12320Y151D01*
X12520Y51D01*
X12720Y151D01*
X12620Y-49D01*
X12720Y-249D01*
X12520Y-149D01*
X12320Y-249D01*
X12615D02*
X12715Y-49D01*
X12615Y151D01*
X12815Y51D01*
X13015Y151D01*
X12915Y-49D01*
X13015Y-249D01*
X12815Y-149D01*
X12615Y-249D01*
X12024D02*
X12124Y-49D01*
X12024Y151D01*
X12224Y51D01*
X12424Y151D01*
X12324Y-49D01*
X12424Y-249D01*
X12224Y-149D01*
X12024Y-249D01*
X6292Y-5661D02*
X6392Y-5461D01*
X6292Y-5261D01*
X6492Y-5361D01*
X6692Y-5261D01*
X6592Y-5461D01*
X6692Y-5661D01*
X6492Y-5561D01*
X6292Y-5661D01*
X6572Y-5101D02*
X6672Y-4901D01*
X6572Y-4701D01*
X6772Y-4801D01*
X6972Y-4701D01*
X6872Y-4901D01*
X6972Y-5101D01*
X6772Y-5001D01*
X6572Y-5101D01*
X6292Y-3421D02*
X6392Y-3221D01*
X6292Y-3021D01*
X6492Y-3121D01*
X6692Y-3021D01*
X6592Y-3221D01*
X6692Y-3421D01*
X6492Y-3321D01*
X6292Y-3421D01*
Y-1181D02*
X6392Y-981D01*
X6292Y-781D01*
X6492Y-881D01*
X6692Y-781D01*
X6592Y-981D01*
X6692Y-1181D01*
X6492Y-1081D01*
X6292Y-1181D01*
X6572Y-621D02*
X6672Y-421D01*
X6572Y-221D01*
X6772Y-321D01*
X6972Y-221D01*
X6872Y-421D01*
X6972Y-621D01*
X6772Y-521D01*
X6572Y-621D01*
X6292Y-61D02*
X6392Y139D01*
X6292Y339D01*
X6492Y239D01*
X6692Y339D01*
X6592Y139D01*
X6692Y-61D01*
X6492Y39D01*
X6292Y-61D01*
X6572Y499D02*
X6672Y699D01*
X6572Y899D01*
X6772Y799D01*
X6972Y899D01*
X6872Y699D01*
X6972Y499D01*
X6772Y599D01*
X6572Y499D01*
X6292Y1059D02*
X6392Y1259D01*
X6292Y1459D01*
X6492Y1359D01*
X6692Y1459D01*
X6592Y1259D01*
X6692Y1059D01*
X6492Y1159D01*
X6292Y1059D01*
X6572Y4979D02*
X6672Y5179D01*
X6572Y5379D01*
X6772Y5279D01*
X6972Y5379D01*
X6872Y5179D01*
X6972Y4979D01*
X6772Y5079D01*
X6572Y4979D01*
X6292Y5539D02*
X6392Y5739D01*
X6292Y5939D01*
X6492Y5839D01*
X6692Y5939D01*
X6592Y5739D01*
X6692Y5539D01*
X6492Y5639D01*
X6292Y5539D01*
X6852Y-5661D02*
X6952Y-5461D01*
X6852Y-5261D01*
X7052Y-5361D01*
X7252Y-5261D01*
X7152Y-5461D01*
X7252Y-5661D01*
X7052Y-5561D01*
X6852Y-5661D01*
X7132Y-5101D02*
X7232Y-4901D01*
X7132Y-4701D01*
X7332Y-4801D01*
X7532Y-4701D01*
X7432Y-4901D01*
X7532Y-5101D01*
X7332Y-5001D01*
X7132Y-5101D01*
X6852Y-3421D02*
X6952Y-3221D01*
X6852Y-3021D01*
X7052Y-3121D01*
X7252Y-3021D01*
X7152Y-3221D01*
X7252Y-3421D01*
X7052Y-3321D01*
X6852Y-3421D01*
Y-1181D02*
X6952Y-981D01*
X6852Y-781D01*
X7052Y-881D01*
X7252Y-781D01*
X7152Y-981D01*
X7252Y-1181D01*
X7052Y-1081D01*
X6852Y-1181D01*
X7132Y-621D02*
X7232Y-421D01*
X7132Y-221D01*
X7332Y-321D01*
X7532Y-221D01*
X7432Y-421D01*
X7532Y-621D01*
X7332Y-521D01*
X7132Y-621D01*
X6852Y-61D02*
X6952Y139D01*
X6852Y339D01*
X7052Y239D01*
X7252Y339D01*
X7152Y139D01*
X7252Y-61D01*
X7052Y39D01*
X6852Y-61D01*
X7132Y499D02*
X7232Y699D01*
X7132Y899D01*
X7332Y799D01*
X7532Y899D01*
X7432Y699D01*
X7532Y499D01*
X7332Y599D01*
X7132Y499D01*
X6852Y1059D02*
X6952Y1259D01*
X6852Y1459D01*
X7052Y1359D01*
X7252Y1459D01*
X7152Y1259D01*
X7252Y1059D01*
X7052Y1159D01*
X6852Y1059D01*
X7132Y4979D02*
X7232Y5179D01*
X7132Y5379D01*
X7332Y5279D01*
X7532Y5379D01*
X7432Y5179D01*
X7532Y4979D01*
X7332Y5079D01*
X7132Y4979D01*
X6852Y5539D02*
X6952Y5739D01*
X6852Y5939D01*
X7052Y5839D01*
X7252Y5939D01*
X7152Y5739D01*
X7252Y5539D01*
X7052Y5639D01*
X6852Y5539D01*
X7412Y-5661D02*
X7512Y-5461D01*
X7412Y-5261D01*
X7612Y-5361D01*
X7812Y-5261D01*
X7712Y-5461D01*
X7812Y-5661D01*
X7612Y-5561D01*
X7412Y-5661D01*
X7692Y-5101D02*
X7792Y-4901D01*
X7692Y-4701D01*
X7892Y-4801D01*
X8092Y-4701D01*
X7992Y-4901D01*
X8092Y-5101D01*
X7892Y-5001D01*
X7692Y-5101D01*
X7412Y-4541D02*
X7512Y-4341D01*
X7412Y-4141D01*
X7612Y-4241D01*
X7812Y-4141D01*
X7712Y-4341D01*
X7812Y-4541D01*
X7612Y-4441D01*
X7412Y-4541D01*
Y-3421D02*
X7512Y-3221D01*
X7412Y-3021D01*
X7612Y-3121D01*
X7812Y-3021D01*
X7712Y-3221D01*
X7812Y-3421D01*
X7612Y-3321D01*
X7412Y-3421D01*
Y-1181D02*
X7512Y-981D01*
X7412Y-781D01*
X7612Y-881D01*
X7812Y-781D01*
X7712Y-981D01*
X7812Y-1181D01*
X7612Y-1081D01*
X7412Y-1181D01*
Y-61D02*
X7512Y139D01*
X7412Y339D01*
X7612Y239D01*
X7812Y339D01*
X7712Y139D01*
X7812Y-61D01*
X7612Y39D01*
X7412Y-61D01*
Y1059D02*
X7512Y1259D01*
X7412Y1459D01*
X7612Y1359D01*
X7812Y1459D01*
X7712Y1259D01*
X7812Y1059D01*
X7612Y1159D01*
X7412Y1059D01*
Y2179D02*
X7512Y2379D01*
X7412Y2579D01*
X7612Y2479D01*
X7812Y2579D01*
X7712Y2379D01*
X7812Y2179D01*
X7612Y2279D01*
X7412Y2179D01*
X7692Y4979D02*
X7792Y5179D01*
X7692Y5379D01*
X7892Y5279D01*
X8092Y5379D01*
X7992Y5179D01*
X8092Y4979D01*
X7892Y5079D01*
X7692Y4979D01*
X7412Y5539D02*
X7512Y5739D01*
X7412Y5939D01*
X7612Y5839D01*
X7812Y5939D01*
X7712Y5739D01*
X7812Y5539D01*
X7612Y5639D01*
X7412Y5539D01*
X7972Y-5661D02*
X8072Y-5461D01*
X7972Y-5261D01*
X8172Y-5361D01*
X8372Y-5261D01*
X8272Y-5461D01*
X8372Y-5661D01*
X8172Y-5561D01*
X7972Y-5661D01*
X8252Y-5101D02*
X8352Y-4901D01*
X8252Y-4701D01*
X8452Y-4801D01*
X8652Y-4701D01*
X8552Y-4901D01*
X8652Y-5101D01*
X8452Y-5001D01*
X8252Y-5101D01*
X7972Y-3421D02*
X8072Y-3221D01*
X7972Y-3021D01*
X8172Y-3121D01*
X8372Y-3021D01*
X8272Y-3221D01*
X8372Y-3421D01*
X8172Y-3321D01*
X7972Y-3421D01*
Y5539D02*
X8072Y5739D01*
X7972Y5939D01*
X8172Y5839D01*
X8372Y5939D01*
X8272Y5739D01*
X8372Y5539D01*
X8172Y5639D01*
X7972Y5539D01*
X8532Y-5661D02*
X8632Y-5461D01*
X8532Y-5261D01*
X8732Y-5361D01*
X8932Y-5261D01*
X8832Y-5461D01*
X8932Y-5661D01*
X8732Y-5561D01*
X8532Y-5661D01*
X8812Y-5101D02*
X8912Y-4901D01*
X8812Y-4701D01*
X9012Y-4801D01*
X9212Y-4701D01*
X9112Y-4901D01*
X9212Y-5101D01*
X9012Y-5001D01*
X8812Y-5101D01*
X8532Y-3421D02*
X8632Y-3221D01*
X8532Y-3021D01*
X8732Y-3121D01*
X8932Y-3021D01*
X8832Y-3221D01*
X8932Y-3421D01*
X8732Y-3321D01*
X8532Y-3421D01*
Y5539D02*
X8632Y5739D01*
X8532Y5939D01*
X8732Y5839D01*
X8932Y5939D01*
X8832Y5739D01*
X8932Y5539D01*
X8732Y5639D01*
X8532Y5539D01*
X9092Y-5661D02*
X9192Y-5461D01*
X9092Y-5261D01*
X9292Y-5361D01*
X9492Y-5261D01*
X9392Y-5461D01*
X9492Y-5661D01*
X9292Y-5561D01*
X9092Y-5661D01*
X9372Y-5101D02*
X9472Y-4901D01*
X9372Y-4701D01*
X9572Y-4801D01*
X9772Y-4701D01*
X9672Y-4901D01*
X9772Y-5101D01*
X9572Y-5001D01*
X9372Y-5101D01*
X9092Y-3421D02*
X9192Y-3221D01*
X9092Y-3021D01*
X9292Y-3121D01*
X9492Y-3021D01*
X9392Y-3221D01*
X9492Y-3421D01*
X9292Y-3321D01*
X9092Y-3421D01*
Y5539D02*
X9192Y5739D01*
X9092Y5939D01*
X9292Y5839D01*
X9492Y5939D01*
X9392Y5739D01*
X9492Y5539D01*
X9292Y5639D01*
X9092Y5539D01*
X9652Y-5661D02*
X9752Y-5461D01*
X9652Y-5261D01*
X9852Y-5361D01*
X10052Y-5261D01*
X9952Y-5461D01*
X10052Y-5661D01*
X9852Y-5561D01*
X9652Y-5661D01*
X9932Y-5101D02*
X10032Y-4901D01*
X9932Y-4701D01*
X10132Y-4801D01*
X10332Y-4701D01*
X10232Y-4901D01*
X10332Y-5101D01*
X10132Y-5001D01*
X9932Y-5101D01*
X9652Y-4541D02*
X9752Y-4341D01*
X9652Y-4141D01*
X9852Y-4241D01*
X10052Y-4141D01*
X9952Y-4341D01*
X10052Y-4541D01*
X9852Y-4441D01*
X9652Y-4541D01*
Y-3421D02*
X9752Y-3221D01*
X9652Y-3021D01*
X9852Y-3121D01*
X10052Y-3021D01*
X9952Y-3221D01*
X10052Y-3421D01*
X9852Y-3321D01*
X9652Y-3421D01*
Y-2301D02*
X9752Y-2101D01*
X9652Y-1901D01*
X9852Y-2001D01*
X10052Y-1901D01*
X9952Y-2101D01*
X10052Y-2301D01*
X9852Y-2201D01*
X9652Y-2301D01*
X9932Y-1741D02*
X10032Y-1541D01*
X9932Y-1341D01*
X10132Y-1441D01*
X10332Y-1341D01*
X10232Y-1541D01*
X10332Y-1741D01*
X10132Y-1641D01*
X9932Y-1741D01*
X9652Y-1181D02*
X9752Y-981D01*
X9652Y-781D01*
X9852Y-881D01*
X10052Y-781D01*
X9952Y-981D01*
X10052Y-1181D01*
X9852Y-1081D01*
X9652Y-1181D01*
Y5539D02*
X9752Y5739D01*
X9652Y5939D01*
X9852Y5839D01*
X10052Y5939D01*
X9952Y5739D01*
X10052Y5539D01*
X9852Y5639D01*
X9652Y5539D01*
X10212Y-5661D02*
X10312Y-5461D01*
X10212Y-5261D01*
X10412Y-5361D01*
X10612Y-5261D01*
X10512Y-5461D01*
X10612Y-5661D01*
X10412Y-5561D01*
X10212Y-5661D01*
X10492Y-5101D02*
X10592Y-4901D01*
X10492Y-4701D01*
X10692Y-4801D01*
X10892Y-4701D01*
X10792Y-4901D01*
X10892Y-5101D01*
X10692Y-5001D01*
X10492Y-5101D01*
X10212Y-4541D02*
X10312Y-4341D01*
X10212Y-4141D01*
X10412Y-4241D01*
X10612Y-4141D01*
X10512Y-4341D01*
X10612Y-4541D01*
X10412Y-4441D01*
X10212Y-4541D01*
Y-2301D02*
X10312Y-2101D01*
X10212Y-1901D01*
X10412Y-2001D01*
X10612Y-1901D01*
X10512Y-2101D01*
X10612Y-2301D01*
X10412Y-2201D01*
X10212Y-2301D01*
Y-1181D02*
X10312Y-981D01*
X10212Y-781D01*
X10412Y-881D01*
X10612Y-781D01*
X10512Y-981D01*
X10612Y-1181D01*
X10412Y-1081D01*
X10212Y-1181D01*
X10492Y3859D02*
X10592Y4059D01*
X10492Y4259D01*
X10692Y4159D01*
X10892Y4259D01*
X10792Y4059D01*
X10892Y3859D01*
X10692Y3959D01*
X10492Y3859D01*
Y4979D02*
X10592Y5179D01*
X10492Y5379D01*
X10692Y5279D01*
X10892Y5379D01*
X10792Y5179D01*
X10892Y4979D01*
X10692Y5079D01*
X10492Y4979D01*
X10212Y5539D02*
X10312Y5739D01*
X10212Y5939D01*
X10412Y5839D01*
X10612Y5939D01*
X10512Y5739D01*
X10612Y5539D01*
X10412Y5639D01*
X10212Y5539D01*
X10772Y-5661D02*
X10872Y-5461D01*
X10772Y-5261D01*
X10972Y-5361D01*
X11172Y-5261D01*
X11072Y-5461D01*
X11172Y-5661D01*
X10972Y-5561D01*
X10772Y-5661D01*
X11052Y-5101D02*
X11152Y-4901D01*
X11052Y-4701D01*
X11252Y-4801D01*
X11452Y-4701D01*
X11352Y-4901D01*
X11452Y-5101D01*
X11252Y-5001D01*
X11052Y-5101D01*
Y3859D02*
X11152Y4059D01*
X11052Y4259D01*
X11252Y4159D01*
X11452Y4259D01*
X11352Y4059D01*
X11452Y3859D01*
X11252Y3959D01*
X11052Y3859D01*
X10772Y4419D02*
X10872Y4619D01*
X10772Y4819D01*
X10972Y4719D01*
X11172Y4819D01*
X11072Y4619D01*
X11172Y4419D01*
X10972Y4519D01*
X10772Y4419D01*
X11052Y4979D02*
X11152Y5179D01*
X11052Y5379D01*
X11252Y5279D01*
X11452Y5379D01*
X11352Y5179D01*
X11452Y4979D01*
X11252Y5079D01*
X11052Y4979D01*
X10772Y5539D02*
X10872Y5739D01*
X10772Y5939D01*
X10972Y5839D01*
X11172Y5939D01*
X11072Y5739D01*
X11172Y5539D01*
X10972Y5639D01*
X10772Y5539D01*
X11332Y-5661D02*
X11432Y-5461D01*
X11332Y-5261D01*
X11532Y-5361D01*
X11732Y-5261D01*
X11632Y-5461D01*
X11732Y-5661D01*
X11532Y-5561D01*
X11332Y-5661D01*
X11612Y-5101D02*
X11712Y-4901D01*
X11612Y-4701D01*
X11812Y-4801D01*
X12012Y-4701D01*
X11912Y-4901D01*
X12012Y-5101D01*
X11812Y-5001D01*
X11612Y-5101D01*
Y3859D02*
X11712Y4059D01*
X11612Y4259D01*
X11812Y4159D01*
X12012Y4259D01*
X11912Y4059D01*
X12012Y3859D01*
X11812Y3959D01*
X11612Y3859D01*
X11332Y4419D02*
X11432Y4619D01*
X11332Y4819D01*
X11532Y4719D01*
X11732Y4819D01*
X11632Y4619D01*
X11732Y4419D01*
X11532Y4519D01*
X11332Y4419D01*
X11612Y4979D02*
X11712Y5179D01*
X11612Y5379D01*
X11812Y5279D01*
X12012Y5379D01*
X11912Y5179D01*
X12012Y4979D01*
X11812Y5079D01*
X11612Y4979D01*
X11332Y5539D02*
X11432Y5739D01*
X11332Y5939D01*
X11532Y5839D01*
X11732Y5939D01*
X11632Y5739D01*
X11732Y5539D01*
X11532Y5639D01*
X11332Y5539D01*
X11892Y-5661D02*
X11992Y-5461D01*
X11892Y-5261D01*
X12092Y-5361D01*
X12292Y-5261D01*
X12192Y-5461D01*
X12292Y-5661D01*
X12092Y-5561D01*
X11892Y-5661D01*
X12172Y-5101D02*
X12272Y-4901D01*
X12172Y-4701D01*
X12372Y-4801D01*
X12572Y-4701D01*
X12472Y-4901D01*
X12572Y-5101D01*
X12372Y-5001D01*
X12172Y-5101D01*
X11892Y4419D02*
X11992Y4619D01*
X11892Y4819D01*
X12092Y4719D01*
X12292Y4819D01*
X12192Y4619D01*
X12292Y4419D01*
X12092Y4519D01*
X11892Y4419D01*
X12172Y4979D02*
X12272Y5179D01*
X12172Y5379D01*
X12372Y5279D01*
X12572Y5379D01*
X12472Y5179D01*
X12572Y4979D01*
X12372Y5079D01*
X12172Y4979D01*
X11892Y5539D02*
X11992Y5739D01*
X11892Y5939D01*
X12092Y5839D01*
X12292Y5939D01*
X12192Y5739D01*
X12292Y5539D01*
X12092Y5639D01*
X11892Y5539D01*
X12452Y-5661D02*
X12552Y-5461D01*
X12452Y-5261D01*
X12652Y-5361D01*
X12852Y-5261D01*
X12752Y-5461D01*
X12852Y-5661D01*
X12652Y-5561D01*
X12452Y-5661D01*
X12732Y-5101D02*
X12832Y-4901D01*
X12732Y-4701D01*
X12932Y-4801D01*
X13132Y-4701D01*
X13032Y-4901D01*
X13132Y-5101D01*
X12932Y-5001D01*
X12732Y-5101D01*
X12452Y4419D02*
X12552Y4619D01*
X12452Y4819D01*
X12652Y4719D01*
X12852Y4819D01*
X12752Y4619D01*
X12852Y4419D01*
X12652Y4519D01*
X12452Y4419D01*
X12732Y4979D02*
X12832Y5179D01*
X12732Y5379D01*
X12932Y5279D01*
X13132Y5379D01*
X13032Y5179D01*
X13132Y4979D01*
X12932Y5079D01*
X12732Y4979D01*
X12452Y5539D02*
X12552Y5739D01*
X12452Y5939D01*
X12652Y5839D01*
X12852Y5939D01*
X12752Y5739D01*
X12852Y5539D01*
X12652Y5639D01*
X12452Y5539D01*
X13012Y-5661D02*
X13112Y-5461D01*
X13012Y-5261D01*
X13212Y-5361D01*
X13412Y-5261D01*
X13312Y-5461D01*
X13412Y-5661D01*
X13212Y-5561D01*
X13012Y-5661D01*
X13292Y-5101D02*
X13392Y-4901D01*
X13292Y-4701D01*
X13492Y-4801D01*
X13692Y-4701D01*
X13592Y-4901D01*
X13692Y-5101D01*
X13492Y-5001D01*
X13292Y-5101D01*
X13012Y-4541D02*
X13112Y-4341D01*
X13012Y-4141D01*
X13212Y-4241D01*
X13412Y-4141D01*
X13312Y-4341D01*
X13412Y-4541D01*
X13212Y-4441D01*
X13012Y-4541D01*
X13292Y-3981D02*
X13392Y-3781D01*
X13292Y-3581D01*
X13492Y-3681D01*
X13692Y-3581D01*
X13592Y-3781D01*
X13692Y-3981D01*
X13492Y-3881D01*
X13292Y-3981D01*
X13012Y4419D02*
X13112Y4619D01*
X13012Y4819D01*
X13212Y4719D01*
X13412Y4819D01*
X13312Y4619D01*
X13412Y4419D01*
X13212Y4519D01*
X13012Y4419D01*
X13292Y4979D02*
X13392Y5179D01*
X13292Y5379D01*
X13492Y5279D01*
X13692Y5379D01*
X13592Y5179D01*
X13692Y4979D01*
X13492Y5079D01*
X13292Y4979D01*
X13012Y5539D02*
X13112Y5739D01*
X13012Y5939D01*
X13212Y5839D01*
X13412Y5939D01*
X13312Y5739D01*
X13412Y5539D01*
X13212Y5639D01*
X13012Y5539D01*
X13572Y-5661D02*
X13672Y-5461D01*
X13572Y-5261D01*
X13772Y-5361D01*
X13972Y-5261D01*
X13872Y-5461D01*
X13972Y-5661D01*
X13772Y-5561D01*
X13572Y-5661D01*
X13852Y-5101D02*
X13952Y-4901D01*
X13852Y-4701D01*
X14052Y-4801D01*
X14252Y-4701D01*
X14152Y-4901D01*
X14252Y-5101D01*
X14052Y-5001D01*
X13852Y-5101D01*
X13572Y-4541D02*
X13672Y-4341D01*
X13572Y-4141D01*
X13772Y-4241D01*
X13972Y-4141D01*
X13872Y-4341D01*
X13972Y-4541D01*
X13772Y-4441D01*
X13572Y-4541D01*
X13852Y-3981D02*
X13952Y-3781D01*
X13852Y-3581D01*
X14052Y-3681D01*
X14252Y-3581D01*
X14152Y-3781D01*
X14252Y-3981D01*
X14052Y-3881D01*
X13852Y-3981D01*
X13572Y4419D02*
X13672Y4619D01*
X13572Y4819D01*
X13772Y4719D01*
X13972Y4819D01*
X13872Y4619D01*
X13972Y4419D01*
X13772Y4519D01*
X13572Y4419D01*
X13852Y4979D02*
X13952Y5179D01*
X13852Y5379D01*
X14052Y5279D01*
X14252Y5379D01*
X14152Y5179D01*
X14252Y4979D01*
X14052Y5079D01*
X13852Y4979D01*
X13572Y5539D02*
X13672Y5739D01*
X13572Y5939D01*
X13772Y5839D01*
X13972Y5939D01*
X13872Y5739D01*
X13972Y5539D01*
X13772Y5639D01*
X13572Y5539D01*
X14132Y-5661D02*
X14232Y-5461D01*
X14132Y-5261D01*
X14332Y-5361D01*
X14532Y-5261D01*
X14432Y-5461D01*
X14532Y-5661D01*
X14332Y-5561D01*
X14132Y-5661D01*
X14412Y-5101D02*
X14512Y-4901D01*
X14412Y-4701D01*
X14612Y-4801D01*
X14812Y-4701D01*
X14712Y-4901D01*
X14812Y-5101D01*
X14612Y-5001D01*
X14412Y-5101D01*
X14132Y-4541D02*
X14232Y-4341D01*
X14132Y-4141D01*
X14332Y-4241D01*
X14532Y-4141D01*
X14432Y-4341D01*
X14532Y-4541D01*
X14332Y-4441D01*
X14132Y-4541D01*
X14412Y-3981D02*
X14512Y-3781D01*
X14412Y-3581D01*
X14612Y-3681D01*
X14812Y-3581D01*
X14712Y-3781D01*
X14812Y-3981D01*
X14612Y-3881D01*
X14412Y-3981D01*
X14132Y4419D02*
X14232Y4619D01*
X14132Y4819D01*
X14332Y4719D01*
X14532Y4819D01*
X14432Y4619D01*
X14532Y4419D01*
X14332Y4519D01*
X14132Y4419D01*
X14412Y4979D02*
X14512Y5179D01*
X14412Y5379D01*
X14612Y5279D01*
X14812Y5379D01*
X14712Y5179D01*
X14812Y4979D01*
X14612Y5079D01*
X14412Y4979D01*
X14132Y5539D02*
X14232Y5739D01*
X14132Y5939D01*
X14332Y5839D01*
X14532Y5939D01*
X14432Y5739D01*
X14532Y5539D01*
X14332Y5639D01*
X14132Y5539D01*
X14692Y-5661D02*
X14792Y-5461D01*
X14692Y-5261D01*
X14892Y-5361D01*
X15092Y-5261D01*
X14992Y-5461D01*
X15092Y-5661D01*
X14892Y-5561D01*
X14692Y-5661D01*
X14972Y-5101D02*
X15072Y-4901D01*
X14972Y-4701D01*
X15172Y-4801D01*
X15372Y-4701D01*
X15272Y-4901D01*
X15372Y-5101D01*
X15172Y-5001D01*
X14972Y-5101D01*
X14692Y-4541D02*
X14792Y-4341D01*
X14692Y-4141D01*
X14892Y-4241D01*
X15092Y-4141D01*
X14992Y-4341D01*
X15092Y-4541D01*
X14892Y-4441D01*
X14692Y-4541D01*
X14972Y-3981D02*
X15072Y-3781D01*
X14972Y-3581D01*
X15172Y-3681D01*
X15372Y-3581D01*
X15272Y-3781D01*
X15372Y-3981D01*
X15172Y-3881D01*
X14972Y-3981D01*
X14692Y4419D02*
X14792Y4619D01*
X14692Y4819D01*
X14892Y4719D01*
X15092Y4819D01*
X14992Y4619D01*
X15092Y4419D01*
X14892Y4519D01*
X14692Y4419D01*
X14972Y4979D02*
X15072Y5179D01*
X14972Y5379D01*
X15172Y5279D01*
X15372Y5379D01*
X15272Y5179D01*
X15372Y4979D01*
X15172Y5079D01*
X14972Y4979D01*
X14692Y5539D02*
X14792Y5739D01*
X14692Y5939D01*
X14892Y5839D01*
X15092Y5939D01*
X14992Y5739D01*
X15092Y5539D01*
X14892Y5639D01*
X14692Y5539D01*
X15252Y-5661D02*
X15352Y-5461D01*
X15252Y-5261D01*
X15452Y-5361D01*
X15652Y-5261D01*
X15552Y-5461D01*
X15652Y-5661D01*
X15452Y-5561D01*
X15252Y-5661D01*
X15532Y-5101D02*
X15632Y-4901D01*
X15532Y-4701D01*
X15732Y-4801D01*
X15932Y-4701D01*
X15832Y-4901D01*
X15932Y-5101D01*
X15732Y-5001D01*
X15532Y-5101D01*
X15252Y-4541D02*
X15352Y-4341D01*
X15252Y-4141D01*
X15452Y-4241D01*
X15652Y-4141D01*
X15552Y-4341D01*
X15652Y-4541D01*
X15452Y-4441D01*
X15252Y-4541D01*
X15532Y-3981D02*
X15632Y-3781D01*
X15532Y-3581D01*
X15732Y-3681D01*
X15932Y-3581D01*
X15832Y-3781D01*
X15932Y-3981D01*
X15732Y-3881D01*
X15532Y-3981D01*
X15252Y4419D02*
X15352Y4619D01*
X15252Y4819D01*
X15452Y4719D01*
X15652Y4819D01*
X15552Y4619D01*
X15652Y4419D01*
X15452Y4519D01*
X15252Y4419D01*
X15532Y4979D02*
X15632Y5179D01*
X15532Y5379D01*
X15732Y5279D01*
X15932Y5379D01*
X15832Y5179D01*
X15932Y4979D01*
X15732Y5079D01*
X15532Y4979D01*
X15252Y5539D02*
X15352Y5739D01*
X15252Y5939D01*
X15452Y5839D01*
X15652Y5939D01*
X15552Y5739D01*
X15652Y5539D01*
X15452Y5639D01*
X15252Y5539D01*
X15812Y-5661D02*
X15912Y-5461D01*
X15812Y-5261D01*
X16012Y-5361D01*
X16212Y-5261D01*
X16112Y-5461D01*
X16212Y-5661D01*
X16012Y-5561D01*
X15812Y-5661D01*
X16092Y-5101D02*
X16192Y-4901D01*
X16092Y-4701D01*
X16292Y-4801D01*
X16492Y-4701D01*
X16392Y-4901D01*
X16492Y-5101D01*
X16292Y-5001D01*
X16092Y-5101D01*
X15812Y-4541D02*
X15912Y-4341D01*
X15812Y-4141D01*
X16012Y-4241D01*
X16212Y-4141D01*
X16112Y-4341D01*
X16212Y-4541D01*
X16012Y-4441D01*
X15812Y-4541D01*
X16092Y-3981D02*
X16192Y-3781D01*
X16092Y-3581D01*
X16292Y-3681D01*
X16492Y-3581D01*
X16392Y-3781D01*
X16492Y-3981D01*
X16292Y-3881D01*
X16092Y-3981D01*
X15812Y4419D02*
X15912Y4619D01*
X15812Y4819D01*
X16012Y4719D01*
X16212Y4819D01*
X16112Y4619D01*
X16212Y4419D01*
X16012Y4519D01*
X15812Y4419D01*
X16092Y4979D02*
X16192Y5179D01*
X16092Y5379D01*
X16292Y5279D01*
X16492Y5379D01*
X16392Y5179D01*
X16492Y4979D01*
X16292Y5079D01*
X16092Y4979D01*
X15812Y5539D02*
X15912Y5739D01*
X15812Y5939D01*
X16012Y5839D01*
X16212Y5939D01*
X16112Y5739D01*
X16212Y5539D01*
X16012Y5639D01*
X15812Y5539D01*
X16372Y-5661D02*
X16472Y-5461D01*
X16372Y-5261D01*
X16572Y-5361D01*
X16772Y-5261D01*
X16672Y-5461D01*
X16772Y-5661D01*
X16572Y-5561D01*
X16372Y-5661D01*
Y5539D02*
X16472Y5739D01*
X16372Y5939D01*
X16572Y5839D01*
X16772Y5939D01*
X16672Y5739D01*
X16772Y5539D01*
X16572Y5639D01*
X16372Y5539D01*
X17212Y2739D02*
X17312Y2939D01*
X17212Y3139D01*
X17412Y3039D01*
X17612Y3139D01*
X17512Y2939D01*
X17612Y2739D01*
X17412Y2839D01*
X17212Y2739D01*
Y3859D02*
X17312Y4059D01*
X17212Y4259D01*
X17412Y4159D01*
X17612Y4259D01*
X17512Y4059D01*
X17612Y3859D01*
X17412Y3959D01*
X17212Y3859D01*
Y4979D02*
X17312Y5179D01*
X17212Y5379D01*
X17412Y5279D01*
X17612Y5379D01*
X17512Y5179D01*
X17612Y4979D01*
X17412Y5079D01*
X17212Y4979D01*
X8412Y2900D02*
X8512Y3100D01*
X8412Y3300D01*
X8612Y3200D01*
X8812Y3300D01*
X8712Y3100D01*
X8812Y2900D01*
X8612Y3000D01*
X8412Y2900D01*
G54D91*
X17228Y2500D02*
X17205Y2593D01*
X17141Y2665D01*
X17052Y2699D01*
X16957Y2687D01*
X16878Y2633D01*
X16833Y2548D01*
Y2452D01*
X16878Y2367D01*
X16957Y2313D01*
X17052Y2301D01*
X17141Y2335D01*
X17205Y2407D01*
X17228Y2500D01*
Y3500D02*
X17205Y3593D01*
X17141Y3665D01*
X17052Y3699D01*
X16957Y3687D01*
X16878Y3633D01*
X16833Y3548D01*
Y3452D01*
X16878Y3367D01*
X16957Y3313D01*
X17052Y3301D01*
X17141Y3335D01*
X17205Y3407D01*
X17228Y3500D01*
Y4500D02*
X17205Y4593D01*
X17141Y4665D01*
X17052Y4699D01*
X16957Y4687D01*
X16878Y4633D01*
X16833Y4548D01*
Y4452D01*
X16878Y4367D01*
X16957Y4313D01*
X17052Y4301D01*
X17141Y4335D01*
X17205Y4407D01*
X17228Y4500D01*
Y-500D02*
X17205Y-407D01*
X17141Y-335D01*
X17052Y-301D01*
X16957Y-313D01*
X16878Y-367D01*
X16833Y-452D01*
Y-548D01*
X16878Y-633D01*
X16957Y-687D01*
X17052Y-699D01*
X17141Y-665D01*
X17205Y-593D01*
X17228Y-500D01*
Y500D02*
X17205Y593D01*
X17141Y665D01*
X17052Y699D01*
X16957Y687D01*
X16878Y633D01*
X16833Y548D01*
Y452D01*
X16878Y367D01*
X16957Y313D01*
X17052Y301D01*
X17141Y335D01*
X17205Y407D01*
X17228Y500D01*
Y1500D02*
X17205Y1593D01*
X17141Y1665D01*
X17052Y1699D01*
X16957Y1687D01*
X16878Y1633D01*
X16833Y1548D01*
Y1452D01*
X16878Y1367D01*
X16957Y1313D01*
X17052Y1301D01*
X17141Y1335D01*
X17205Y1407D01*
X17228Y1500D01*
Y-1500D02*
X17205Y-1407D01*
X17141Y-1335D01*
X17052Y-1301D01*
X16957Y-1313D01*
X16878Y-1367D01*
X16833Y-1452D01*
Y-1548D01*
X16878Y-1633D01*
X16957Y-1687D01*
X17052Y-1699D01*
X17141Y-1665D01*
X17205Y-1593D01*
X17228Y-1500D01*
Y-2500D02*
X17205Y-2407D01*
X17141Y-2335D01*
X17052Y-2301D01*
X16957Y-2313D01*
X16878Y-2367D01*
X16833Y-2452D01*
Y-2548D01*
X16878Y-2633D01*
X16957Y-2687D01*
X17052Y-2699D01*
X17141Y-2665D01*
X17205Y-2593D01*
X17228Y-2500D01*
Y-3500D02*
X17205Y-3407D01*
X17141Y-3335D01*
X17052Y-3301D01*
X16957Y-3313D01*
X16878Y-3367D01*
X16833Y-3452D01*
Y-3548D01*
X16878Y-3633D01*
X16957Y-3687D01*
X17052Y-3699D01*
X17141Y-3665D01*
X17205Y-3593D01*
X17228Y-3500D01*
Y-4500D02*
X17205Y-4407D01*
X17141Y-4335D01*
X17052Y-4301D01*
X16957Y-4313D01*
X16878Y-4367D01*
X16833Y-4452D01*
Y-4548D01*
X16878Y-4633D01*
X16957Y-4687D01*
X17052Y-4699D01*
X17141Y-4665D01*
X17205Y-4593D01*
X17228Y-4500D01*
X-23706Y-4000D02*
X-23728Y-3907D01*
X-23792Y-3835D01*
X-23881Y-3801D01*
X-23976Y-3813D01*
X-24055Y-3867D01*
X-24100Y-3952D01*
Y-4048D01*
X-24055Y-4133D01*
X-23976Y-4187D01*
X-23881Y-4199D01*
X-23792Y-4165D01*
X-23728Y-4093D01*
X-23706Y-4000D01*
X-22706Y-5000D02*
X-22728Y-4907D01*
X-22792Y-4835D01*
X-22881Y-4801D01*
X-22976Y-4813D01*
X-23055Y-4867D01*
X-23100Y-4952D01*
Y-5048D01*
X-23055Y-5133D01*
X-22976Y-5187D01*
X-22881Y-5199D01*
X-22792Y-5165D01*
X-22728Y-5093D01*
X-22706Y-5000D01*
X-23706Y-2000D02*
X-23728Y-1907D01*
X-23792Y-1835D01*
X-23881Y-1801D01*
X-23976Y-1813D01*
X-24055Y-1867D01*
X-24100Y-1952D01*
Y-2048D01*
X-24055Y-2133D01*
X-23976Y-2187D01*
X-23881Y-2199D01*
X-23792Y-2165D01*
X-23728Y-2093D01*
X-23706Y-2000D01*
Y-1000D02*
X-23728Y-907D01*
X-23792Y-835D01*
X-23881Y-801D01*
X-23976Y-813D01*
X-24055Y-867D01*
X-24100Y-952D01*
Y-1048D01*
X-24055Y-1133D01*
X-23976Y-1187D01*
X-23881Y-1199D01*
X-23792Y-1165D01*
X-23728Y-1093D01*
X-23706Y-1000D01*
Y-0D02*
X-23728Y93D01*
X-23792Y165D01*
X-23881Y199D01*
X-23976Y187D01*
X-24055Y133D01*
X-24100Y48D01*
Y-48D01*
X-24055Y-133D01*
X-23976Y-187D01*
X-23881Y-199D01*
X-23792Y-165D01*
X-23728Y-93D01*
X-23706Y-0D01*
Y1000D02*
X-23728Y1093D01*
X-23792Y1165D01*
X-23881Y1199D01*
X-23976Y1187D01*
X-24055Y1133D01*
X-24100Y1048D01*
Y952D01*
X-24055Y867D01*
X-23976Y813D01*
X-23881Y801D01*
X-23792Y835D01*
X-23728Y907D01*
X-23706Y1000D01*
Y2000D02*
X-23728Y2093D01*
X-23792Y2165D01*
X-23881Y2199D01*
X-23976Y2187D01*
X-24055Y2133D01*
X-24100Y2048D01*
Y1952D01*
X-24055Y1867D01*
X-23976Y1813D01*
X-23881Y1801D01*
X-23792Y1835D01*
X-23728Y1907D01*
X-23706Y2000D01*
Y3000D02*
X-23728Y3093D01*
X-23792Y3165D01*
X-23881Y3199D01*
X-23976Y3187D01*
X-24055Y3133D01*
X-24100Y3048D01*
Y2952D01*
X-24055Y2867D01*
X-23976Y2813D01*
X-23881Y2801D01*
X-23792Y2835D01*
X-23728Y2907D01*
X-23706Y3000D01*
Y4000D02*
X-23728Y4093D01*
X-23792Y4165D01*
X-23881Y4199D01*
X-23976Y4187D01*
X-24055Y4133D01*
X-24100Y4048D01*
Y3952D01*
X-24055Y3867D01*
X-23976Y3813D01*
X-23881Y3801D01*
X-23792Y3835D01*
X-23728Y3907D01*
X-23706Y4000D01*
X-22706Y-2000D02*
X-22728Y-1907D01*
X-22792Y-1835D01*
X-22881Y-1801D01*
X-22976Y-1813D01*
X-23055Y-1867D01*
X-23100Y-1952D01*
Y-2048D01*
X-23055Y-2133D01*
X-22976Y-2187D01*
X-22881Y-2199D01*
X-22792Y-2165D01*
X-22728Y-2093D01*
X-22706Y-2000D01*
Y-3000D02*
X-22728Y-2907D01*
X-22792Y-2835D01*
X-22881Y-2801D01*
X-22976Y-2813D01*
X-23055Y-2867D01*
X-23100Y-2952D01*
Y-3048D01*
X-23055Y-3133D01*
X-22976Y-3187D01*
X-22881Y-3199D01*
X-22792Y-3165D01*
X-22728Y-3093D01*
X-22706Y-3000D01*
Y-4000D02*
X-22728Y-3907D01*
X-22792Y-3835D01*
X-22881Y-3801D01*
X-22976Y-3813D01*
X-23055Y-3867D01*
X-23100Y-3952D01*
Y-4048D01*
X-23055Y-4133D01*
X-22976Y-4187D01*
X-22881Y-4199D01*
X-22792Y-4165D01*
X-22728Y-4093D01*
X-22706Y-4000D01*
Y1000D02*
X-22728Y1093D01*
X-22792Y1165D01*
X-22881Y1199D01*
X-22976Y1187D01*
X-23055Y1133D01*
X-23100Y1048D01*
Y952D01*
X-23055Y867D01*
X-22976Y813D01*
X-22881Y801D01*
X-22792Y835D01*
X-22728Y907D01*
X-22706Y1000D01*
Y-0D02*
X-22728Y93D01*
X-22792Y165D01*
X-22881Y199D01*
X-22976Y187D01*
X-23055Y133D01*
X-23100Y48D01*
Y-48D01*
X-23055Y-133D01*
X-22976Y-187D01*
X-22881Y-199D01*
X-22792Y-165D01*
X-22728Y-93D01*
X-22706Y-0D01*
Y-1000D02*
X-22728Y-907D01*
X-22792Y-835D01*
X-22881Y-801D01*
X-22976Y-813D01*
X-23055Y-867D01*
X-23100Y-952D01*
Y-1048D01*
X-23055Y-1133D01*
X-22976Y-1187D01*
X-22881Y-1199D01*
X-22792Y-1165D01*
X-22728Y-1093D01*
X-22706Y-1000D01*
Y2000D02*
X-22728Y2093D01*
X-22792Y2165D01*
X-22881Y2199D01*
X-22976Y2187D01*
X-23055Y2133D01*
X-23100Y2048D01*
Y1952D01*
X-23055Y1867D01*
X-22976Y1813D01*
X-22881Y1801D01*
X-22792Y1835D01*
X-22728Y1907D01*
X-22706Y2000D01*
Y3000D02*
X-22728Y3093D01*
X-22792Y3165D01*
X-22881Y3199D01*
X-22976Y3187D01*
X-23055Y3133D01*
X-23100Y3048D01*
Y2952D01*
X-23055Y2867D01*
X-22976Y2813D01*
X-22881Y2801D01*
X-22792Y2835D01*
X-22728Y2907D01*
X-22706Y3000D01*
Y4000D02*
X-22728Y4093D01*
X-22792Y4165D01*
X-22881Y4199D01*
X-22976Y4187D01*
X-23055Y4133D01*
X-23100Y4048D01*
Y3952D01*
X-23055Y3867D01*
X-22976Y3813D01*
X-22881Y3801D01*
X-22792Y3835D01*
X-22728Y3907D01*
X-22706Y4000D01*
Y5000D02*
X-22728Y5093D01*
X-22792Y5165D01*
X-22881Y5199D01*
X-22976Y5187D01*
X-23055Y5133D01*
X-23100Y5048D01*
Y4952D01*
X-23055Y4867D01*
X-22976Y4813D01*
X-22881Y4801D01*
X-22792Y4835D01*
X-22728Y4907D01*
X-22706Y5000D01*
X-23706Y-5000D02*
X-23728Y-4907D01*
X-23792Y-4835D01*
X-23881Y-4801D01*
X-23976Y-4813D01*
X-24055Y-4867D01*
X-24100Y-4952D01*
Y-5048D01*
X-24055Y-5133D01*
X-23976Y-5187D01*
X-23881Y-5199D01*
X-23792Y-5165D01*
X-23728Y-5093D01*
X-23706Y-5000D01*
Y5000D02*
X-23728Y5093D01*
X-23792Y5165D01*
X-23881Y5199D01*
X-23976Y5187D01*
X-24055Y5133D01*
X-24100Y5048D01*
Y4952D01*
X-24055Y4867D01*
X-23976Y4813D01*
X-23881Y4801D01*
X-23792Y4835D01*
X-23728Y4907D01*
X-23706Y5000D01*
Y-3000D02*
X-23728Y-2907D01*
X-23792Y-2835D01*
X-23881Y-2801D01*
X-23976Y-2813D01*
X-24055Y-2867D01*
X-24100Y-2952D01*
Y-3048D01*
X-24055Y-3133D01*
X-23976Y-3187D01*
X-23881Y-3199D01*
X-23792Y-3165D01*
X-23728Y-3093D01*
X-23706Y-3000D01*
M02*
