%FSLAX24Y24*%
%MOIN*%
G70*
G01*
G75*
G04 Layer_Physical_Order=1*
G04 Layer_Color=255*
%ADD10R,0.1181X0.0551*%
%ADD11R,0.0433X0.0394*%
%ADD12C,0.0394*%
%ADD13R,0.0512X0.0591*%
%ADD14R,0.0433X0.0236*%
%ADD15R,0.0290X0.0220*%
%ADD16R,0.0118X0.0472*%
%ADD17R,0.0571X0.0177*%
%ADD18R,0.0335X0.0110*%
%ADD19R,0.0110X0.0335*%
%ADD20R,0.0276X0.0118*%
%ADD21R,0.0480X0.0358*%
%ADD22R,0.0358X0.0480*%
%ADD23R,0.0500X0.0200*%
%ADD24R,0.0200X0.0500*%
%ADD25R,0.0472X0.0118*%
%ADD26R,0.0551X0.0118*%
%ADD27R,0.0630X0.0709*%
%ADD28R,0.0906X0.0236*%
%ADD29R,0.0236X0.0433*%
%ADD30R,0.0591X0.0512*%
%ADD31C,0.0100*%
%ADD32C,0.0110*%
%ADD33C,0.1575*%
%ADD34C,0.0748*%
%ADD35R,0.0748X0.0748*%
%ADD36C,0.0787*%
%ADD37C,0.1496*%
%ADD38C,0.0280*%
G36*
X8770Y-2972D02*
X8376D01*
Y-2343D01*
X8770D01*
Y-2972D01*
D02*
G37*
G36*
X-22597Y2222D02*
X-22556Y2186D01*
X-22515Y2154D01*
X-22474Y2126D01*
X-22434Y2103D01*
X-22394Y2084D01*
X-22354Y2069D01*
X-22314Y2058D01*
X-22275Y2052D01*
X-22236Y2050D01*
Y1950D01*
X-22275Y1948D01*
X-22314Y1942D01*
X-22354Y1931D01*
X-22394Y1916D01*
X-22434Y1897D01*
X-22474Y1874D01*
X-22515Y1846D01*
X-22556Y1814D01*
X-22597Y1778D01*
X-22638Y1738D01*
Y2262D01*
X-22597Y2222D01*
D02*
G37*
G36*
X-5511Y-2467D02*
X-5501Y-2580D01*
X-5491Y-2631D01*
X-5478Y-2678D01*
X-5463Y-2723D01*
X-5444Y-2763D01*
X-5423Y-2801D01*
X-5399Y-2835D01*
X-5371Y-2865D01*
X-5442Y-2936D01*
X-5472Y-2909D01*
X-5506Y-2884D01*
X-5544Y-2863D01*
X-5585Y-2844D01*
X-5629Y-2829D01*
X-5676Y-2816D01*
X-5728Y-2807D01*
X-5782Y-2800D01*
X-5840Y-2796D01*
X-5902Y-2795D01*
X-5512Y-2406D01*
X-5511Y-2467D01*
D02*
G37*
G36*
X-23531Y-2061D02*
X-23527Y-2116D01*
X-23521Y-2167D01*
X-23511Y-2216D01*
X-23499Y-2261D01*
X-23484Y-2303D01*
X-23467Y-2341D01*
X-23446Y-2377D01*
X-23423Y-2409D01*
X-23396Y-2438D01*
X-23467Y-2509D01*
X-23496Y-2483D01*
X-23529Y-2459D01*
X-23564Y-2439D01*
X-23603Y-2421D01*
X-23645Y-2406D01*
X-23690Y-2394D01*
X-23738Y-2385D01*
X-23789Y-2378D01*
X-23844Y-2375D01*
X-23902Y-2374D01*
X-23532Y-2004D01*
X-23531Y-2061D01*
D02*
G37*
G36*
X10488Y-2545D02*
X10497D01*
X10497Y-2545D01*
X10498Y-2546D01*
X10501Y-2548D01*
X10502Y-2549D01*
X10503Y-2550D01*
X10505Y-2553D01*
X10506Y-2553D01*
X10506Y-2554D01*
X10506Y-2554D01*
Y-2563D01*
Y-2752D01*
X10506Y-2752D01*
Y-2761D01*
X10506Y-2761D01*
X10506Y-2762D01*
X10503Y-2765D01*
X10502Y-2766D01*
X10501Y-2766D01*
X10499Y-2769D01*
X10498Y-2769D01*
X10497Y-2770D01*
X10497Y-2770D01*
X10488D01*
X9224D01*
Y-2707D01*
X8986D01*
Y-2607D01*
X9224D01*
Y-2545D01*
X10488D01*
X10488Y-2545D01*
D02*
G37*
G36*
X16760Y2238D02*
X16719Y2278D01*
X16678Y2314D01*
X16637Y2346D01*
X16596Y2374D01*
X16556Y2397D01*
X16516Y2416D01*
X16476Y2431D01*
X16436Y2442D01*
X16397Y2448D01*
X16358Y2450D01*
Y2550D01*
X16397Y2552D01*
X16436Y2558D01*
X16476Y2569D01*
X16516Y2584D01*
X16556Y2603D01*
X16596Y2626D01*
X16637Y2654D01*
X16678Y2686D01*
X16719Y2722D01*
X16760Y2762D01*
Y2238D01*
D02*
G37*
G36*
X-23531Y-3061D02*
X-23527Y-3116D01*
X-23521Y-3167D01*
X-23511Y-3216D01*
X-23499Y-3261D01*
X-23484Y-3303D01*
X-23467Y-3341D01*
X-23446Y-3377D01*
X-23423Y-3409D01*
X-23396Y-3438D01*
X-23467Y-3509D01*
X-23496Y-3483D01*
X-23529Y-3459D01*
X-23564Y-3439D01*
X-23603Y-3421D01*
X-23645Y-3406D01*
X-23690Y-3394D01*
X-23738Y-3385D01*
X-23789Y-3378D01*
X-23844Y-3375D01*
X-23902Y-3374D01*
X-23532Y-3004D01*
X-23531Y-3061D01*
D02*
G37*
G36*
X15850Y2130D02*
X15850D01*
X15850Y2130D01*
X15850D01*
X15850Y2130D01*
X15850Y2130D01*
X15850D01*
X15851Y2130D01*
X15853Y2130D01*
X15858D01*
X15861Y2129D01*
X15863Y2127D01*
X15863Y2127D01*
X15865Y2127D01*
X15866Y2126D01*
X15866Y2125D01*
X15866Y2125D01*
X15867Y2125D01*
X15867Y2125D01*
X15868Y2125D01*
X15868Y2125D01*
X15868Y2125D01*
X15869Y2125D01*
X15869Y2125D01*
X15869Y2124D01*
X15869Y2124D01*
X15869Y2124D01*
X15869Y2124D01*
X15869Y2124D01*
X15869Y2124D01*
X15869Y2124D01*
X15869D01*
X15869Y2124D01*
X15869Y2124D01*
X15869Y2124D01*
X15869Y2124D01*
X15869Y2124D01*
X15869Y2124D01*
X15870Y2124D01*
X15870Y2124D01*
X15876Y2118D01*
X15876Y2117D01*
X15876Y2117D01*
X15887Y2106D01*
X15887Y2106D01*
X15887Y2106D01*
X15887Y2106D01*
X15887Y2106D01*
X15892Y2101D01*
X15892Y2101D01*
X15895Y2097D01*
X15895Y2097D01*
X15895Y2097D01*
X15895Y2097D01*
X15895Y2097D01*
X15895Y2097D01*
X15895Y2097D01*
X15895Y2097D01*
X15898Y2093D01*
X15898Y2093D01*
X15898Y2093D01*
X15898Y2093D01*
X15898Y2093D01*
X15898Y2093D01*
Y2093D01*
X15898Y2090D01*
X15898Y2090D01*
X15898Y2088D01*
X15898Y2087D01*
X15899Y2082D01*
X15900Y2081D01*
X15900Y2081D01*
X15900Y2081D01*
Y2080D01*
X15900Y2080D01*
X15900Y2080D01*
X15900Y2080D01*
Y2079D01*
Y2079D01*
Y2079D01*
Y1584D01*
Y1575D01*
X15902Y1566D01*
Y1565D01*
X15907Y1538D01*
X15907Y1538D01*
Y1538D01*
X15907Y1538D01*
X15911Y1520D01*
X15921Y1505D01*
X15921Y1505D01*
X15921Y1505D01*
X15921Y1505D01*
X15937Y1481D01*
X15937Y1481D01*
X15942Y1473D01*
X16017Y1399D01*
X16024Y1394D01*
X16025Y1393D01*
X16048Y1378D01*
X16048Y1378D01*
X16063Y1368D01*
X16081Y1364D01*
X16081Y1364D01*
X16109Y1358D01*
X16109D01*
X16118Y1357D01*
X16373D01*
X16379Y1356D01*
X16387Y1356D01*
X16399Y1354D01*
X16417Y1351D01*
X16433Y1347D01*
X16448Y1343D01*
X16448D01*
X16448Y1343D01*
X16448Y1343D01*
X16453Y1341D01*
X16453D01*
X16480Y1331D01*
X16513Y1315D01*
X16535Y1302D01*
Y1169D01*
Y846D01*
Y824D01*
Y820D01*
Y370D01*
X16535Y370D01*
X16526Y367D01*
X16526Y366D01*
X16525Y366D01*
X16525Y366D01*
X16525Y366D01*
X16525Y366D01*
X16525Y366D01*
X16525Y366D01*
X16520Y364D01*
X16518Y364D01*
X16518Y364D01*
X16517Y363D01*
X16515Y363D01*
X16514Y362D01*
X16509Y361D01*
X16503Y359D01*
X16503Y359D01*
X16503Y359D01*
X16503Y359D01*
X16503Y359D01*
X16501Y358D01*
X16501Y358D01*
X16501Y358D01*
X16501D01*
X16501Y358D01*
X16501Y358D01*
X16501Y358D01*
X16497Y356D01*
X16495Y356D01*
X16486Y354D01*
X16484Y353D01*
X16484Y353D01*
X16475Y349D01*
X16469Y345D01*
X16469Y345D01*
X16469Y345D01*
X16468Y344D01*
X16459Y341D01*
X16457Y339D01*
X16457Y339D01*
X16457Y339D01*
X16456Y338D01*
X16456Y338D01*
X16452Y336D01*
X16452Y336D01*
X16437Y326D01*
X16437Y326D01*
X16437Y326D01*
X16436Y325D01*
X16436Y325D01*
X16436Y325D01*
X16436Y325D01*
X16429Y321D01*
X16424Y315D01*
X16424Y315D01*
X16424Y315D01*
X16423Y315D01*
X16423Y314D01*
X16423Y314D01*
X16423Y314D01*
X16422Y314D01*
X16415Y309D01*
X16414Y308D01*
X16414Y308D01*
X16414Y308D01*
X16409Y303D01*
X16409Y303D01*
X16402Y296D01*
X16402Y296D01*
X16402Y296D01*
X16397Y289D01*
X16397Y288D01*
X16397Y288D01*
X16397Y288D01*
X16391Y282D01*
X16386Y275D01*
X16386Y275D01*
X16386Y275D01*
X16369Y250D01*
X16367Y245D01*
X16365Y242D01*
X16365Y242D01*
X16365Y242D01*
X16364Y240D01*
X16361Y234D01*
X16359Y228D01*
X16358Y227D01*
X16358Y227D01*
X16358Y224D01*
X16357Y223D01*
X16356Y222D01*
X16356Y222D01*
X16356Y222D01*
X16356Y222D01*
X16355Y219D01*
X16354Y216D01*
X16354Y216D01*
X16354Y213D01*
X16352Y209D01*
X16352Y209D01*
X16352Y208D01*
X16351Y206D01*
X16351Y205D01*
Y205D01*
X16350Y202D01*
X16349Y199D01*
Y199D01*
X16349Y199D01*
X16344Y175D01*
Y175D01*
X16343Y166D01*
Y157D01*
Y157D01*
X16341Y148D01*
Y139D01*
Y130D01*
X16343Y121D01*
Y121D01*
Y121D01*
Y121D01*
Y112D01*
X16344Y103D01*
X16344Y103D01*
X16350Y74D01*
X16352Y69D01*
X16353Y63D01*
X16354Y59D01*
X16356Y57D01*
X16356Y54D01*
X16358Y50D01*
X16360Y46D01*
X16361Y45D01*
X16362Y42D01*
X16364Y39D01*
X16364Y39D01*
X16364Y39D01*
X16364Y38D01*
X16364Y38D01*
X16364Y38D01*
X16365Y37D01*
X16367Y32D01*
X16369Y29D01*
X16369Y29D01*
X16370Y26D01*
X16372Y24D01*
X16372Y24D01*
X16372Y24D01*
X16373Y23D01*
X16373Y23D01*
X16391Y-4D01*
X16394Y-7D01*
X16394Y-8D01*
X16394Y-8D01*
X16395Y-9D01*
X16395Y-9D01*
X16398Y-12D01*
X16400Y-16D01*
X16401Y-17D01*
X16402Y-18D01*
X16404Y-21D01*
X16404Y-21D01*
X16404Y-21D01*
X16404Y-21D01*
X16405Y-21D01*
X16405Y-21D01*
X16405Y-21D01*
X16408Y-25D01*
X16412Y-27D01*
X16412Y-27D01*
X16414Y-29D01*
X16417Y-31D01*
X16418Y-32D01*
X16418Y-32D01*
X16418Y-32D01*
X16419Y-32D01*
X16419Y-32D01*
X16421Y-34D01*
X16421Y-34D01*
X16421Y-35D01*
X16422Y-36D01*
X16422Y-36D01*
X16422Y-36D01*
X16422Y-36D01*
X16423Y-36D01*
X16423Y-36D01*
X16426Y-38D01*
X16426Y-38D01*
X16427Y-39D01*
X16430Y-42D01*
X16433Y-44D01*
X16433Y-44D01*
X16436Y-48D01*
X16440Y-50D01*
X16440Y-50D01*
X16440Y-50D01*
X16456Y-61D01*
X16456Y-61D01*
X16463Y-65D01*
X16463Y-65D01*
X16463Y-66D01*
X16463Y-66D01*
X16463Y-66D01*
X16464Y-66D01*
X16464Y-66D01*
X16464Y-66D01*
X16464Y-66D01*
X16469Y-68D01*
X16469Y-68D01*
X16470Y-69D01*
X16470Y-69D01*
X16470Y-69D01*
X16471Y-69D01*
X16471Y-69D01*
X16472Y-70D01*
X16479Y-74D01*
X16479Y-74D01*
X16479Y-74D01*
X16479Y-74D01*
X16479Y-74D01*
X16480Y-74D01*
X16484Y-76D01*
X16485Y-76D01*
X16490Y-79D01*
X16490Y-79D01*
X16491Y-79D01*
X16491Y-79D01*
X16491Y-79D01*
X16491Y-79D01*
X16492Y-80D01*
X16492Y-80D01*
X16493Y-80D01*
X16493Y-80D01*
X16493Y-80D01*
X16493Y-81D01*
X16493Y-81D01*
X16495Y-81D01*
X16495Y-82D01*
X16500Y-85D01*
X16502Y-87D01*
X16502Y-87D01*
X16530Y-117D01*
X16530Y-117D01*
X16530Y-117D01*
X16532Y-121D01*
X16534Y-123D01*
X16534Y-124D01*
X16534Y-124D01*
Y-127D01*
X16535Y-131D01*
X16535Y-132D01*
X16535Y-132D01*
X16535Y-132D01*
Y-132D01*
Y-176D01*
Y-180D01*
Y-743D01*
X16535Y-743D01*
X16534Y-744D01*
X16534Y-744D01*
X16533Y-746D01*
X16532Y-747D01*
X16531Y-748D01*
Y-748D01*
X16531Y-748D01*
X16529Y-749D01*
X16529Y-749D01*
X16529Y-749D01*
X16529Y-749D01*
X16529Y-749D01*
X16529Y-749D01*
X16529Y-749D01*
X16527Y-751D01*
X16527Y-751D01*
X16526Y-751D01*
X16525Y-752D01*
X16524Y-752D01*
X16524Y-752D01*
X16524Y-752D01*
X16520Y-755D01*
X16518Y-756D01*
X16518Y-756D01*
X16518Y-757D01*
X16509Y-759D01*
X16508Y-759D01*
X16508Y-759D01*
X16507Y-759D01*
X16507Y-760D01*
X16506Y-760D01*
X16501Y-762D01*
X16501Y-762D01*
X16501Y-762D01*
X16501Y-762D01*
X16501D01*
X16501Y-762D01*
X16501Y-762D01*
X16501Y-762D01*
X16500Y-762D01*
X16500Y-762D01*
X16500Y-762D01*
X16500Y-762D01*
X16494Y-765D01*
X16485Y-767D01*
X16484Y-767D01*
X16484Y-767D01*
X16484Y-767D01*
X16484Y-767D01*
X16475Y-771D01*
X16469Y-775D01*
X16469Y-775D01*
X16469Y-775D01*
X16468Y-776D01*
X16459Y-779D01*
X16457Y-781D01*
X16457Y-781D01*
X16457Y-781D01*
X16456Y-782D01*
X16456Y-782D01*
X16452Y-784D01*
X16452Y-784D01*
X16437Y-794D01*
X16437Y-794D01*
X16437Y-794D01*
X16436Y-795D01*
X16436Y-795D01*
X16436Y-795D01*
X16436Y-795D01*
X16429Y-799D01*
X16424Y-805D01*
X16424Y-805D01*
X16424Y-805D01*
X16423Y-805D01*
X16423Y-806D01*
X16423Y-806D01*
X16423Y-806D01*
X16422Y-806D01*
X16415Y-811D01*
X16414Y-812D01*
X16414Y-812D01*
X16414Y-812D01*
X16409Y-817D01*
X16409Y-817D01*
X16402Y-824D01*
X16402Y-824D01*
X16402Y-824D01*
X16397Y-831D01*
X16397Y-832D01*
X16397Y-832D01*
X16397Y-832D01*
X16391Y-838D01*
X16386Y-845D01*
X16386Y-845D01*
X16386Y-845D01*
X16369Y-870D01*
X16367Y-875D01*
X16365Y-878D01*
X16365Y-878D01*
X16365Y-878D01*
X16364Y-880D01*
X16361Y-886D01*
X16359Y-892D01*
X16358Y-893D01*
X16358Y-893D01*
X16358Y-896D01*
X16357Y-897D01*
X16356Y-898D01*
X16356Y-898D01*
X16356Y-898D01*
X16356Y-898D01*
X16355Y-901D01*
X16354Y-904D01*
X16354Y-904D01*
X16354Y-907D01*
X16352Y-911D01*
X16352Y-911D01*
X16352Y-912D01*
X16351Y-914D01*
X16351Y-915D01*
Y-915D01*
X16350Y-918D01*
X16349Y-921D01*
Y-921D01*
X16349Y-921D01*
X16344Y-945D01*
Y-945D01*
X16343Y-954D01*
Y-963D01*
Y-963D01*
X16341Y-972D01*
Y-981D01*
Y-990D01*
X16343Y-999D01*
Y-999D01*
Y-999D01*
Y-999D01*
Y-1008D01*
X16344Y-1017D01*
X16344Y-1017D01*
Y-1017D01*
X16350Y-1046D01*
X16352Y-1051D01*
X16353Y-1057D01*
X16355Y-1062D01*
X16355Y-1063D01*
X16355Y-1063D01*
X16356Y-1065D01*
X16357Y-1068D01*
X16360Y-1072D01*
Y-1072D01*
X16360Y-1072D01*
X16360Y-1073D01*
X16361Y-1075D01*
X16362Y-1078D01*
X16362Y-1078D01*
X16362Y-1078D01*
X16364Y-1081D01*
X16364Y-1081D01*
X16365Y-1083D01*
X16368Y-1089D01*
X16369Y-1091D01*
X16369Y-1091D01*
X16370Y-1094D01*
X16372Y-1097D01*
X16372Y-1097D01*
X16391Y-1124D01*
X16397Y-1131D01*
X16402Y-1138D01*
X16408Y-1144D01*
X16408Y-1144D01*
X16409Y-1145D01*
X16409Y-1145D01*
X16409Y-1145D01*
X16414Y-1151D01*
X16421Y-1155D01*
X16421Y-1155D01*
X16422Y-1156D01*
X16422Y-1156D01*
X16422Y-1156D01*
X16422Y-1156D01*
X16422Y-1156D01*
X16423Y-1156D01*
X16423Y-1156D01*
X16423Y-1157D01*
X16423Y-1157D01*
X16428Y-1162D01*
X16429Y-1162D01*
X16429Y-1162D01*
X16429Y-1162D01*
X16432Y-1165D01*
X16433Y-1165D01*
X16433Y-1165D01*
X16435Y-1167D01*
X16435Y-1167D01*
X16436Y-1167D01*
X16436Y-1167D01*
X16436Y-1167D01*
X16436Y-1167D01*
X16436Y-1168D01*
X16437Y-1168D01*
X16437Y-1168D01*
X16437Y-1168D01*
X16452Y-1178D01*
X16452Y-1178D01*
X16452Y-1178D01*
X16459Y-1183D01*
X16468Y-1187D01*
X16468Y-1187D01*
X16468Y-1187D01*
X16468Y-1187D01*
X16468Y-1187D01*
X16476Y-1192D01*
X16484Y-1195D01*
X16484Y-1195D01*
X16484Y-1195D01*
X16491Y-1198D01*
X16491Y-1198D01*
X16491Y-1198D01*
X16491Y-1198D01*
X16491Y-1198D01*
X16492Y-1198D01*
X16492Y-1198D01*
X16495Y-1199D01*
X16496Y-1199D01*
X16496Y-1199D01*
X16499Y-1200D01*
X16503Y-1202D01*
X16506Y-1202D01*
X16509Y-1204D01*
X16509Y-1204D01*
X16509Y-1204D01*
X16512Y-1204D01*
X16512Y-1204D01*
X16512Y-1204D01*
X16512D01*
X16518Y-1205D01*
X16518Y-1206D01*
X16518Y-1206D01*
X16521Y-1213D01*
X16521Y-1213D01*
X16521Y-1213D01*
X16521Y-1214D01*
X16522Y-1214D01*
X16522Y-1214D01*
X16522Y-1214D01*
X16522Y-1214D01*
X16522Y-1214D01*
X16522Y-1215D01*
X16528Y-1229D01*
X16528Y-1229D01*
X16528Y-1230D01*
X16533Y-1237D01*
X16535Y-1243D01*
X16535Y-1243D01*
X16535Y-1244D01*
Y-1824D01*
X16535Y-1824D01*
X16535Y-1855D01*
X16534Y-1860D01*
X16534Y-1864D01*
X16531Y-1865D01*
X16527Y-1868D01*
X16501Y-1882D01*
X16501D01*
X16501Y-1882D01*
X16501Y-1882D01*
X16499Y-1883D01*
X16499Y-1883D01*
X16489Y-1885D01*
X16484Y-1887D01*
X16484Y-1887D01*
X16475Y-1891D01*
X16469Y-1895D01*
X16469Y-1895D01*
X16469Y-1895D01*
X16468Y-1896D01*
X16459Y-1899D01*
X16457Y-1901D01*
X16457Y-1901D01*
X16457Y-1901D01*
X16456Y-1902D01*
X16456Y-1902D01*
X16452Y-1904D01*
X16452Y-1904D01*
X16437Y-1914D01*
X16437Y-1914D01*
X16437Y-1914D01*
X16436Y-1915D01*
X16436Y-1915D01*
X16436Y-1915D01*
X16436Y-1915D01*
X16429Y-1919D01*
X16424Y-1925D01*
X16424Y-1925D01*
X16424Y-1925D01*
X16423Y-1925D01*
X16423Y-1926D01*
X16423Y-1926D01*
X16423Y-1926D01*
X16422Y-1926D01*
X16415Y-1931D01*
X16414Y-1932D01*
X16414Y-1932D01*
X16414Y-1932D01*
X16409Y-1937D01*
X16409Y-1937D01*
X16402Y-1944D01*
X16402Y-1944D01*
X16402Y-1944D01*
X16397Y-1951D01*
X16397Y-1952D01*
X16397Y-1952D01*
X16397Y-1952D01*
X16391Y-1958D01*
X16386Y-1965D01*
X16386Y-1965D01*
X16386Y-1965D01*
X16369Y-1990D01*
X16367Y-1995D01*
X16365Y-1998D01*
X16365Y-1998D01*
X16365Y-1998D01*
X16364Y-2000D01*
X16361Y-2006D01*
X16359Y-2012D01*
X16358Y-2013D01*
X16358Y-2013D01*
X16358Y-2016D01*
X16357Y-2017D01*
X16356Y-2018D01*
X16356Y-2018D01*
X16356Y-2018D01*
X16356Y-2018D01*
X16355Y-2021D01*
X16354Y-2024D01*
X16354Y-2024D01*
X16354Y-2027D01*
X16352Y-2031D01*
X16352Y-2031D01*
X16352Y-2032D01*
X16351Y-2034D01*
X16351Y-2035D01*
Y-2035D01*
X16350Y-2038D01*
X16349Y-2041D01*
Y-2041D01*
X16349Y-2041D01*
X16344Y-2065D01*
Y-2065D01*
X16343Y-2074D01*
Y-2083D01*
Y-2083D01*
X16341Y-2092D01*
Y-2101D01*
Y-2110D01*
X16343Y-2119D01*
Y-2119D01*
Y-2119D01*
Y-2119D01*
Y-2128D01*
X16344Y-2137D01*
X16344Y-2137D01*
Y-2137D01*
X16350Y-2166D01*
X16352Y-2171D01*
X16353Y-2177D01*
X16355Y-2182D01*
X16355Y-2183D01*
X16355Y-2183D01*
X16356Y-2185D01*
X16357Y-2188D01*
X16360Y-2192D01*
Y-2192D01*
X16360Y-2192D01*
X16360Y-2193D01*
X16361Y-2195D01*
X16362Y-2198D01*
X16362Y-2198D01*
X16362Y-2198D01*
X16364Y-2201D01*
X16364Y-2201D01*
X16365Y-2203D01*
X16368Y-2209D01*
X16369Y-2211D01*
X16369Y-2211D01*
X16370Y-2214D01*
X16372Y-2217D01*
X16372Y-2217D01*
X16391Y-2244D01*
X16397Y-2251D01*
X16402Y-2258D01*
X16408Y-2264D01*
X16408Y-2264D01*
X16409Y-2265D01*
X16409Y-2265D01*
X16409Y-2265D01*
X16414Y-2271D01*
X16421Y-2275D01*
X16421Y-2275D01*
X16422Y-2276D01*
X16422Y-2276D01*
X16422Y-2276D01*
X16422Y-2276D01*
X16422Y-2276D01*
X16423Y-2276D01*
X16423Y-2277D01*
X16423Y-2277D01*
X16423Y-2277D01*
X16428Y-2282D01*
X16429Y-2282D01*
X16429Y-2282D01*
X16429Y-2282D01*
X16432Y-2285D01*
X16433Y-2285D01*
X16433Y-2285D01*
X16435Y-2287D01*
X16435Y-2287D01*
X16436Y-2287D01*
X16436Y-2287D01*
X16436Y-2287D01*
X16436Y-2287D01*
X16436Y-2288D01*
X16437Y-2288D01*
X16437Y-2288D01*
X16437Y-2288D01*
X16452Y-2298D01*
X16452Y-2298D01*
X16459Y-2302D01*
X16467Y-2306D01*
X16467Y-2306D01*
X16468Y-2306D01*
X16468Y-2306D01*
X16468Y-2307D01*
X16469Y-2307D01*
X16469Y-2307D01*
X16469Y-2307D01*
X16469Y-2307D01*
X16477Y-2312D01*
X16481Y-2313D01*
X16483Y-2315D01*
X16483Y-2315D01*
X16484Y-2315D01*
X16485Y-2315D01*
X16485Y-2315D01*
X16485Y-2315D01*
X16492Y-2318D01*
X16500Y-2320D01*
X16500Y-2320D01*
X16500Y-2320D01*
X16500Y-2320D01*
X16500Y-2320D01*
X16501Y-2320D01*
X16501Y-2320D01*
X16501Y-2320D01*
X16501Y-2320D01*
X16507Y-2326D01*
X16513Y-2330D01*
X16514Y-2331D01*
X16515Y-2332D01*
X16515Y-2332D01*
X16516Y-2333D01*
X16518Y-2334D01*
X16524Y-2339D01*
X16529Y-2341D01*
X16533Y-2343D01*
X16535Y-2344D01*
Y-2820D01*
Y-2824D01*
Y-3160D01*
Y-3165D01*
Y-3541D01*
X16535Y-3541D01*
X16526Y-3543D01*
X16518D01*
X16517Y-3543D01*
X16517D01*
X16517Y-3543D01*
X15189D01*
X15177Y-3529D01*
X15198Y-3486D01*
X15385D01*
Y-3141D01*
X15030D01*
Y-3091D01*
X14980D01*
Y-2695D01*
X14862D01*
Y-239D01*
X14880Y-197D01*
X14880D01*
X14880Y-197D01*
X15354D01*
Y874D01*
X15355Y875D01*
X15357Y876D01*
X15357Y876D01*
X15357Y876D01*
X15357Y877D01*
X15357Y877D01*
X15358Y878D01*
X15358Y878D01*
X15358Y878D01*
X15358Y878D01*
X15359Y879D01*
X15359Y879D01*
X15359Y880D01*
X15360Y880D01*
X15360Y880D01*
X15360Y880D01*
X15360Y880D01*
X15382Y900D01*
X15382Y900D01*
X15382Y900D01*
X15382Y901D01*
X15384Y902D01*
X15388Y906D01*
X15389Y907D01*
X15389Y907D01*
X15389Y907D01*
X15390Y907D01*
X15390Y907D01*
X15393Y909D01*
X15393Y909D01*
X15394Y909D01*
X15394D01*
X15394Y909D01*
X15394Y910D01*
X15394Y910D01*
X15394Y910D01*
X15394Y910D01*
X15394Y910D01*
X15394Y910D01*
X15394Y910D01*
X15396Y911D01*
X15397Y911D01*
X15397Y911D01*
X15398Y912D01*
X15398Y912D01*
X15398Y912D01*
X15399Y913D01*
X15399Y913D01*
X15400Y914D01*
X15400Y914D01*
X15400Y914D01*
X15400Y914D01*
X15400Y914D01*
X15401Y914D01*
X15402Y915D01*
X15402Y915D01*
X15403Y915D01*
X15403Y915D01*
X15403Y915D01*
X15403Y915D01*
X15403Y916D01*
X15404Y916D01*
X15404Y916D01*
X15404Y916D01*
X15406Y917D01*
X15407Y918D01*
X15408Y918D01*
X15412Y919D01*
X15415Y921D01*
X15420Y922D01*
X15422Y923D01*
X15423Y924D01*
X15424Y925D01*
X15426Y926D01*
X15427Y926D01*
X15427Y927D01*
X15429Y927D01*
X15429Y927D01*
X15429Y927D01*
X15429Y928D01*
X15429Y928D01*
X15430Y928D01*
X15431Y929D01*
X15436Y934D01*
X15443Y938D01*
X15446Y942D01*
X15450Y946D01*
X15451Y947D01*
X15452Y948D01*
X15452Y948D01*
X15453Y950D01*
X15455Y952D01*
X15455Y952D01*
X15455Y952D01*
X15455Y952D01*
X15455Y952D01*
X15455Y953D01*
X15455Y953D01*
X15459Y958D01*
X15459Y959D01*
X15459Y959D01*
X15459Y959D01*
X15459Y959D01*
X15459Y959D01*
X15459Y959D01*
X15460Y959D01*
X15462Y966D01*
X15464Y967D01*
X15464Y967D01*
X15464Y968D01*
X15468Y974D01*
X15468Y975D01*
X15468Y975D01*
X15469Y976D01*
X15469Y977D01*
X15470Y980D01*
X15470Y981D01*
X15471Y981D01*
X15471Y982D01*
X15471Y982D01*
X15471Y982D01*
X15472Y983D01*
X15472Y984D01*
X15472Y984D01*
X15472Y985D01*
X15472Y985D01*
Y985D01*
X15472Y985D01*
X15473Y987D01*
X15473Y988D01*
X15474Y990D01*
X15474Y990D01*
X15475Y991D01*
X15475Y994D01*
X15476Y996D01*
X15477Y999D01*
X15478Y1001D01*
X15478Y1001D01*
X15478Y1004D01*
X15479Y1005D01*
X15480Y1007D01*
X15480Y1008D01*
X15480Y1009D01*
X15481Y1011D01*
X15481Y1012D01*
X15481Y1013D01*
X15482Y1014D01*
X15482Y1014D01*
X15482Y1016D01*
X15483Y1018D01*
X15483Y1018D01*
X15483Y1018D01*
X15488Y1027D01*
X15488Y1029D01*
X15493Y1036D01*
X15494Y1043D01*
X15497Y1049D01*
X15498Y1058D01*
X15498Y1059D01*
X15498Y1059D01*
Y1059D01*
X15498Y1059D01*
Y1060D01*
X15498Y1060D01*
X15498Y1060D01*
X15498Y1060D01*
X15498Y1060D01*
Y1060D01*
X15498Y1060D01*
Y1060D01*
X15498Y1060D01*
X15498Y1061D01*
X15498Y1061D01*
Y1061D01*
X15498Y1061D01*
Y1061D01*
X15498Y1062D01*
X15498Y1064D01*
X15500Y1071D01*
X15500Y1076D01*
X15500Y1077D01*
X15500Y1078D01*
X15500Y1079D01*
Y1079D01*
Y1079D01*
X15500Y1079D01*
X15500Y1080D01*
X15500Y1080D01*
X15500Y1080D01*
Y1696D01*
X15500Y1696D01*
Y1696D01*
X15500Y1696D01*
Y1696D01*
Y1696D01*
X15500Y1696D01*
X15500Y1700D01*
X15500Y1700D01*
X15500Y1700D01*
Y1700D01*
X15500Y1704D01*
X15500Y1707D01*
X15500Y1707D01*
X15499Y1710D01*
X15499Y1712D01*
X15499Y1716D01*
X15496Y1724D01*
X15496Y1727D01*
X15496Y1728D01*
X15495Y1729D01*
X15495Y1734D01*
X15493Y1738D01*
X15493Y1739D01*
X15493Y1739D01*
X15492Y1742D01*
X15491Y1743D01*
X15491Y1744D01*
X15491Y1745D01*
X15491Y1745D01*
X15490Y1746D01*
X15489Y1748D01*
X15489Y1750D01*
X15488Y1752D01*
X15488Y1753D01*
X15486Y1756D01*
X15485Y1759D01*
X15485Y1759D01*
X15482Y1763D01*
X15480Y1768D01*
X15480Y1768D01*
X15479Y1769D01*
X15479Y1769D01*
X15479Y1769D01*
X15479Y1769D01*
X15479Y1769D01*
X15479Y1770D01*
X15479Y1770D01*
X15476Y1772D01*
X15475Y1774D01*
X15475Y1774D01*
X15472Y1777D01*
X15468Y1783D01*
Y1783D01*
X15468Y1783D01*
X15468Y1783D01*
X15468Y1783D01*
X15468Y1783D01*
X15461Y1789D01*
X15461Y1789D01*
X15461Y1789D01*
X15382Y1869D01*
X15382Y1869D01*
X15382Y1869D01*
X15382Y1869D01*
X15382Y1869D01*
X15382Y1869D01*
X15382Y1869D01*
X15381Y1870D01*
Y1870D01*
X15381Y1870D01*
X15381Y1870D01*
X15379Y1871D01*
X15378Y1873D01*
X15372Y1876D01*
X15368Y1881D01*
X15368Y1881D01*
X15368Y1881D01*
X15368Y1881D01*
X15361Y1883D01*
X15351Y1890D01*
X15351Y1890D01*
X15351Y1890D01*
X15349Y1891D01*
X15347Y1891D01*
X15319Y1902D01*
X15311Y1903D01*
X15304Y1906D01*
X15304Y1906D01*
X15295Y1906D01*
X15287Y1908D01*
X15212D01*
Y1909D01*
X14967D01*
Y2009D01*
X15212D01*
Y2010D01*
X15308D01*
X15313Y2011D01*
X15314Y2010D01*
X15314D01*
X15314Y2010D01*
X15314D01*
X15315Y2011D01*
X15319Y2010D01*
X15322Y2011D01*
X15323Y2011D01*
X15324Y2011D01*
X15326Y2011D01*
X15329Y2012D01*
X15330Y2012D01*
X15330Y2012D01*
X15330Y2012D01*
X15330D01*
X15330Y2012D01*
X15330Y2012D01*
X15333Y2012D01*
X15333Y2012D01*
X15333Y2012D01*
X15336Y2012D01*
X15341Y2013D01*
X15341Y2013D01*
X15342Y2013D01*
X15342Y2013D01*
X15342Y2013D01*
X15342Y2013D01*
X15348Y2013D01*
X15349Y2013D01*
X15352Y2014D01*
X15352Y2014D01*
X15352Y2014D01*
X15352Y2014D01*
X15355Y2015D01*
X15360Y2016D01*
X15366Y2018D01*
X15368Y2019D01*
X15368Y2019D01*
X15375Y2021D01*
X15417Y2039D01*
X15423Y2043D01*
X15430Y2046D01*
X15437Y2053D01*
X15446Y2058D01*
X15446Y2059D01*
X15447Y2060D01*
X15451Y2065D01*
X15456Y2070D01*
X15460Y2078D01*
X15460Y2079D01*
X15460Y2079D01*
X15460Y2080D01*
X15466Y2088D01*
X15466Y2089D01*
X15467Y2090D01*
X15467Y2091D01*
X15467Y2092D01*
X15469Y2099D01*
X15469Y2100D01*
X15469Y2100D01*
X15470Y2101D01*
X15470Y2101D01*
X15470Y2102D01*
X15470Y2102D01*
X15470Y2102D01*
X15471Y2103D01*
X15471Y2103D01*
X15473Y2106D01*
X15503Y2130D01*
X15503Y2130D01*
X15503Y2130D01*
X15504Y2130D01*
X15513D01*
X15513Y2130D01*
X15849D01*
X15850Y2130D01*
D02*
G37*
G36*
X-22587Y-2795D02*
X-22553Y-2828D01*
X-22519Y-2856D01*
X-22484Y-2881D01*
X-22448Y-2902D01*
X-22411Y-2919D01*
X-22374Y-2933D01*
X-22335Y-2942D01*
X-22296Y-2948D01*
X-22256Y-2950D01*
Y-3050D01*
X-22296Y-3052D01*
X-22335Y-3058D01*
X-22374Y-3067D01*
X-22411Y-3081D01*
X-22448Y-3098D01*
X-22484Y-3119D01*
X-22519Y-3144D01*
X-22553Y-3172D01*
X-22587Y-3205D01*
X-22620Y-3241D01*
Y-2759D01*
X-22587Y-2795D01*
D02*
G37*
G36*
X-23396Y2438D02*
X-23423Y2409D01*
X-23446Y2377D01*
X-23467Y2341D01*
X-23484Y2303D01*
X-23499Y2261D01*
X-23511Y2216D01*
X-23521Y2167D01*
X-23527Y2116D01*
X-23531Y2061D01*
X-23532Y2004D01*
X-23902Y2374D01*
X-23844Y2375D01*
X-23789Y2378D01*
X-23738Y2385D01*
X-23690Y2394D01*
X-23645Y2406D01*
X-23603Y2421D01*
X-23564Y2439D01*
X-23529Y2459D01*
X-23496Y2483D01*
X-23467Y2509D01*
X-23396Y2438D01*
D02*
G37*
G36*
X12865Y-809D02*
X12866D01*
Y-1637D01*
X12867Y-1642D01*
X12867Y-1643D01*
X12867Y-1644D01*
X12867Y-1647D01*
X12867Y-1650D01*
X12869Y-1657D01*
X12870Y-1662D01*
X12870Y-1664D01*
Y-1664D01*
X12871Y-1667D01*
X12873Y-1672D01*
X12874Y-1678D01*
X12875Y-1682D01*
X12877Y-1684D01*
X12877Y-1685D01*
X12878Y-1686D01*
X12879Y-1691D01*
X12887Y-1707D01*
X12888Y-1708D01*
X12888Y-1708D01*
X12891Y-1714D01*
X12896Y-1720D01*
X12897Y-1722D01*
X12898Y-1723D01*
X12898Y-1723D01*
X12903Y-1732D01*
X12909Y-1737D01*
X12914Y-1743D01*
X12922Y-1747D01*
X12923Y-1748D01*
X12924Y-1749D01*
X12925Y-1749D01*
X12931Y-1754D01*
X12938Y-1758D01*
X12938Y-1758D01*
X12939Y-1759D01*
X12955Y-1767D01*
X12960Y-1768D01*
X12961Y-1769D01*
X12962Y-1769D01*
X12964Y-1770D01*
X12967Y-1772D01*
X12974Y-1773D01*
X12979Y-1775D01*
X12981Y-1775D01*
X12981Y-1775D01*
X12984Y-1776D01*
X12989Y-1777D01*
X12995Y-1778D01*
X12999Y-1779D01*
X13001Y-1778D01*
X13003Y-1779D01*
X13003Y-1779D01*
X13009Y-1780D01*
X13288D01*
X13288Y-1780D01*
X13288D01*
X13288D01*
X13288Y-1780D01*
X13302Y-1782D01*
X13302D01*
X13302Y-1782D01*
X13316Y-1785D01*
X13321Y-1789D01*
X13321Y-1789D01*
X13322Y-1789D01*
X13322Y-1789D01*
X13322Y-1789D01*
X13324Y-1791D01*
X13324Y-1791D01*
X13324Y-1791D01*
X13337Y-1799D01*
X13337Y-1800D01*
X13337Y-1800D01*
X13337Y-1800D01*
X13337D01*
X13340Y-1801D01*
X13340Y-1801D01*
X13425Y-1887D01*
X13441Y-1910D01*
X13442Y-1916D01*
X13444Y-1920D01*
X13444Y-1921D01*
X13444Y-1921D01*
X13446Y-1924D01*
X13446Y-1928D01*
X13447Y-1929D01*
X13450Y-1938D01*
X13452Y-1942D01*
X13453Y-1944D01*
X13454Y-1947D01*
X13465Y-1965D01*
X13469Y-1971D01*
X13470Y-1971D01*
X13470Y-1972D01*
X13470Y-1973D01*
X13471Y-1974D01*
X13473Y-1976D01*
X13477Y-1982D01*
X13481Y-1987D01*
X13466Y-2026D01*
X13465Y-2028D01*
X13463Y-2038D01*
X13462Y-2039D01*
X13461Y-2040D01*
X13461Y-2042D01*
X13458Y-2049D01*
X13456Y-2056D01*
X13456Y-2057D01*
X13451Y-2079D01*
X13451Y-2079D01*
X13451Y-2079D01*
X13451Y-2080D01*
X13451Y-2081D01*
X13450Y-2083D01*
X13450Y-2086D01*
X13450Y-2086D01*
X13450Y-2092D01*
X13449Y-2096D01*
X13449Y-2096D01*
X13449Y-2096D01*
X13449Y-2098D01*
X13449Y-2099D01*
X13449Y-2099D01*
X13449Y-2099D01*
X13448Y-2100D01*
Y-2103D01*
X13447Y-2111D01*
Y-2117D01*
X13447Y-2118D01*
Y-2119D01*
X13447Y-2119D01*
Y-2195D01*
X13446D01*
Y-2474D01*
Y-2754D01*
X13447D01*
Y-3328D01*
X13445Y-3336D01*
Y-3336D01*
X13445Y-3336D01*
X13443Y-3348D01*
Y-3348D01*
X13443Y-3348D01*
X13441Y-3355D01*
Y-3355D01*
X13433Y-3368D01*
X13433Y-3368D01*
X13433Y-3368D01*
X13430Y-3373D01*
X13425Y-3379D01*
X13369Y-3435D01*
X13346Y-3451D01*
X13318Y-3456D01*
X12658D01*
X12658Y-3456D01*
X12648D01*
X12648Y-3457D01*
X12648Y-3457D01*
X12640Y-3458D01*
X12631Y-3458D01*
X12631Y-3458D01*
X12629Y-3459D01*
X12629D01*
X12621Y-3460D01*
X12621Y-3461D01*
X12620Y-3461D01*
X12614Y-3463D01*
X12613Y-3464D01*
X12613Y-3464D01*
X12613Y-3464D01*
X12612Y-3464D01*
X12612Y-3464D01*
X12604Y-3466D01*
X12604Y-3466D01*
X12604Y-3466D01*
X12604Y-3466D01*
X12596Y-3471D01*
X12588Y-3474D01*
X12588Y-3475D01*
X12587Y-3475D01*
X12587Y-3475D01*
X12581Y-3481D01*
X12574Y-3486D01*
X12574Y-3486D01*
X12574Y-3486D01*
X12570Y-3492D01*
X11863D01*
X11862Y-3492D01*
X11858Y-3485D01*
X11857Y-3484D01*
X11857Y-3484D01*
X11849Y-3479D01*
X11843Y-3472D01*
X11835Y-3469D01*
X11828Y-3464D01*
X11827Y-3464D01*
X11827Y-3464D01*
X11818Y-3462D01*
X11810Y-3458D01*
X11810Y-3458D01*
X11801Y-3458D01*
X11793Y-3457D01*
X11792Y-3457D01*
X11791Y-3456D01*
X11546D01*
X11546Y-3456D01*
X11537D01*
X11528Y-3458D01*
X11528D01*
X11528Y-3458D01*
X11528Y-3458D01*
X11527Y-3458D01*
X11518Y-3458D01*
X11518Y-3458D01*
X11516Y-3459D01*
X11510Y-3460D01*
X11504Y-3463D01*
X11498Y-3463D01*
X11498Y-3463D01*
X11495Y-3465D01*
X11492Y-3466D01*
X11485Y-3471D01*
X11476Y-3474D01*
X11476Y-3474D01*
X11476Y-3474D01*
X11476Y-3474D01*
X11472Y-3478D01*
X11467Y-3481D01*
X11466Y-3483D01*
X11172D01*
Y-3937D01*
X11122D01*
Y-3987D01*
X10707D01*
Y-3988D01*
X9332D01*
Y-3987D01*
X8976D01*
Y-3887D01*
X9332D01*
Y-3886D01*
X10497D01*
X10506Y-3884D01*
X10515Y-3884D01*
X10517Y-3884D01*
X10519Y-3884D01*
X10519Y-3884D01*
X10525Y-3880D01*
X10533Y-3879D01*
X10534Y-3878D01*
X10534Y-3878D01*
X10534Y-3878D01*
X10540Y-3874D01*
X10548Y-3870D01*
X10550Y-3870D01*
X10550Y-3869D01*
X10551Y-3868D01*
X10553Y-3866D01*
X10553Y-3866D01*
X10553D01*
X10553Y-3866D01*
X10553Y-3866D01*
X10557Y-3863D01*
X10564Y-3858D01*
X10567Y-3855D01*
X10567Y-3854D01*
X10568Y-3854D01*
X10571Y-3851D01*
X10572Y-3850D01*
X10572Y-3850D01*
X10573Y-3847D01*
X10576Y-3845D01*
X10578Y-3842D01*
X10579Y-3841D01*
X10579Y-3841D01*
X10579Y-3841D01*
Y-3841D01*
X10580Y-3840D01*
X10582Y-3837D01*
X10583Y-3836D01*
X10587Y-3828D01*
X10591Y-3821D01*
X10591Y-3821D01*
X10592Y-3820D01*
X10592Y-3817D01*
X10594Y-3814D01*
X10594Y-3814D01*
X10595Y-3808D01*
X10597Y-3803D01*
X10597Y-3794D01*
X10599Y-3785D01*
Y-3776D01*
X10599Y-3776D01*
Y-3406D01*
Y-3075D01*
Y-3066D01*
X10597Y-3057D01*
X10597Y-3048D01*
X10596Y-3046D01*
X10596Y-3044D01*
X10596Y-3044D01*
X10593Y-3038D01*
X10592Y-3030D01*
X10591Y-3029D01*
X10591Y-3029D01*
X10591Y-3029D01*
X10586Y-3023D01*
X10583Y-3015D01*
X10582Y-3013D01*
X10582Y-3013D01*
X10581Y-3012D01*
X10579Y-3010D01*
X10579Y-3010D01*
Y-3010D01*
X10579Y-3010D01*
X10579Y-3010D01*
X10575Y-3006D01*
X10571Y-2999D01*
X10568Y-2996D01*
X10567Y-2995D01*
X10566Y-2995D01*
X10564Y-2992D01*
X10562Y-2991D01*
X10562Y-2991D01*
X10560Y-2990D01*
X10558Y-2987D01*
X10555Y-2985D01*
X10553Y-2984D01*
X10553Y-2984D01*
X10553Y-2984D01*
X10553D01*
X10552Y-2983D01*
X10550Y-2981D01*
X10549Y-2980D01*
X10540Y-2976D01*
X10534Y-2972D01*
X10534Y-2972D01*
X10533Y-2971D01*
X10529Y-2971D01*
X10526Y-2969D01*
X10526Y-2969D01*
X10521Y-2968D01*
X10515Y-2966D01*
X10506Y-2966D01*
X10497Y-2964D01*
X10488D01*
X10488Y-2964D01*
X9224D01*
Y-2963D01*
X8986D01*
Y-2863D01*
X9224D01*
Y-2862D01*
X9547D01*
X9566Y-2875D01*
X9656Y-2893D01*
X9745Y-2875D01*
X9764Y-2862D01*
X10497D01*
X10506Y-2861D01*
X10515Y-2861D01*
X10517Y-2860D01*
X10519Y-2860D01*
X10519Y-2860D01*
X10525Y-2857D01*
X10533Y-2855D01*
X10534Y-2855D01*
X10534Y-2855D01*
X10534Y-2854D01*
X10540Y-2850D01*
X10548Y-2847D01*
X10550Y-2846D01*
X10550Y-2845D01*
X10551Y-2845D01*
X10553Y-2843D01*
X10553Y-2843D01*
X10553D01*
X10553Y-2843D01*
X10553Y-2843D01*
X10557Y-2839D01*
X10564Y-2835D01*
X10567Y-2832D01*
X10567Y-2830D01*
X10568Y-2830D01*
X10571Y-2827D01*
X10572Y-2826D01*
X10572Y-2826D01*
X10573Y-2824D01*
X10576Y-2821D01*
X10578Y-2818D01*
X10579Y-2817D01*
X10579Y-2817D01*
X10579Y-2817D01*
Y-2817D01*
X10580Y-2816D01*
X10582Y-2813D01*
X10583Y-2812D01*
X10587Y-2804D01*
X10591Y-2797D01*
X10591Y-2797D01*
X10592Y-2796D01*
X10592Y-2793D01*
X10594Y-2790D01*
X10594Y-2790D01*
X10595Y-2784D01*
X10597Y-2779D01*
X10597Y-2770D01*
X10599Y-2761D01*
Y-2752D01*
X10599Y-2752D01*
Y-2563D01*
Y-2554D01*
X10597Y-2545D01*
X10597Y-2536D01*
X10596Y-2534D01*
X10596Y-2533D01*
X10596Y-2533D01*
X10593Y-2526D01*
X10592Y-2519D01*
X10591Y-2517D01*
X10591Y-2517D01*
X10591Y-2517D01*
X10586Y-2511D01*
X10583Y-2503D01*
X10582Y-2502D01*
X10582Y-2501D01*
X10581Y-2500D01*
X10579Y-2498D01*
X10579Y-2498D01*
Y-2498D01*
X10579Y-2498D01*
X10579Y-2498D01*
X10575Y-2494D01*
X10571Y-2487D01*
X10568Y-2485D01*
X10567Y-2484D01*
X10566Y-2483D01*
X10564Y-2480D01*
X10562Y-2480D01*
X10562Y-2480D01*
X10560Y-2478D01*
X10558Y-2475D01*
X10555Y-2473D01*
X10553Y-2472D01*
X10553Y-2472D01*
X10553Y-2472D01*
X10553D01*
X10552Y-2471D01*
X10550Y-2469D01*
X10549Y-2468D01*
X10540Y-2465D01*
X10534Y-2460D01*
X10534Y-2460D01*
X10533Y-2460D01*
X10529Y-2459D01*
X10526Y-2457D01*
X10526Y-2457D01*
X10521Y-2457D01*
X10515Y-2454D01*
X10506Y-2454D01*
X10497Y-2453D01*
X10488D01*
X10488Y-2453D01*
X9764D01*
X9745Y-2440D01*
X9656Y-2422D01*
X9566Y-2440D01*
X9547Y-2453D01*
X9224D01*
Y-2452D01*
X8986D01*
Y-2352D01*
X9224D01*
Y-2351D01*
X11022D01*
Y-2352D01*
X11339D01*
Y-2452D01*
X11022D01*
Y-2453D01*
X10802D01*
X10793Y-2454D01*
X10784Y-2454D01*
X10782Y-2455D01*
X10781Y-2455D01*
X10781Y-2455D01*
X10774Y-2458D01*
X10767Y-2460D01*
X10766Y-2460D01*
X10765Y-2460D01*
X10765Y-2460D01*
X10759Y-2465D01*
X10751Y-2468D01*
X10750Y-2469D01*
X10749Y-2470D01*
X10748Y-2470D01*
X10746Y-2472D01*
X10746Y-2472D01*
X10746D01*
X10746Y-2472D01*
X10746Y-2472D01*
X10742Y-2476D01*
X10735Y-2480D01*
X10733Y-2483D01*
X10732Y-2484D01*
X10731Y-2485D01*
X10728Y-2488D01*
X10728Y-2489D01*
X10728Y-2489D01*
X10726Y-2491D01*
X10723Y-2493D01*
X10721Y-2497D01*
X10720Y-2498D01*
X10720Y-2498D01*
X10720Y-2498D01*
Y-2498D01*
X10719Y-2499D01*
X10717Y-2502D01*
X10716Y-2503D01*
X10713Y-2511D01*
X10708Y-2517D01*
X10708Y-2518D01*
X10708Y-2519D01*
X10707Y-2522D01*
X10705Y-2525D01*
X10705Y-2525D01*
X10705Y-2531D01*
X10702Y-2536D01*
X10702Y-2545D01*
X10701Y-2554D01*
Y-2563D01*
X10701Y-2563D01*
Y-2880D01*
Y-2889D01*
X10702Y-2898D01*
X10702Y-2907D01*
X10703Y-2909D01*
X10703Y-2910D01*
X10703Y-2910D01*
X10706Y-2917D01*
X10708Y-2924D01*
X10708Y-2925D01*
X10708Y-2926D01*
X10709Y-2926D01*
X10713Y-2932D01*
X10716Y-2940D01*
X10717Y-2941D01*
X10718Y-2942D01*
X10718Y-2943D01*
X10720Y-2945D01*
X10720Y-2945D01*
Y-2945D01*
X10720Y-2945D01*
X10720Y-2945D01*
X10724Y-2949D01*
X10728Y-2956D01*
X10731Y-2958D01*
X10733Y-2959D01*
X10733Y-2960D01*
X10736Y-2963D01*
X10737Y-2963D01*
X10737Y-2963D01*
X10739Y-2965D01*
X10742Y-2968D01*
X10745Y-2970D01*
X10746Y-2971D01*
X10746Y-2971D01*
X10746Y-2971D01*
X10746D01*
X10747Y-2972D01*
X10750Y-2974D01*
X10751Y-2975D01*
X10759Y-2978D01*
X10766Y-2983D01*
X10766Y-2983D01*
X10767Y-2983D01*
X10770Y-2984D01*
X10773Y-2986D01*
X10773Y-2986D01*
X10779Y-2986D01*
X10784Y-2989D01*
X10793Y-2989D01*
X10802Y-2990D01*
X10811D01*
X10811Y-2990D01*
X11022D01*
Y-2991D01*
X11339D01*
Y-3041D01*
X11389D01*
Y-3338D01*
X11655D01*
X11655Y-3338D01*
Y-3338D01*
X11655Y-3338D01*
Y-3338D01*
X11701Y-3329D01*
X11701D01*
Y-3329D01*
X11701Y-3329D01*
X12315D01*
Y-3185D01*
X12559D01*
X12614Y-3174D01*
X12660Y-3143D01*
X12719Y-3084D01*
X12751Y-3037D01*
X12761Y-2982D01*
Y-2402D01*
Y-1762D01*
Y-809D01*
X12765D01*
Y-541D01*
X12865D01*
Y-809D01*
D02*
G37*
G36*
X13039Y583D02*
Y386D01*
Y293D01*
X13030D01*
Y188D01*
X13565D01*
Y191D01*
X13935D01*
Y47D01*
X14545D01*
X14549Y47D01*
X14595Y38D01*
X14595D01*
X14595Y38D01*
X14861D01*
Y335D01*
X14961D01*
Y38D01*
X15212D01*
X15228Y38D01*
X15262Y2D01*
X15262Y2D01*
Y-105D01*
X14880D01*
X14880Y-105D01*
X14880D01*
X14880Y-105D01*
X14871D01*
X14863Y-106D01*
X14863Y-106D01*
X14862Y-106D01*
X14862Y-106D01*
X14862D01*
X14862Y-106D01*
X14862Y-107D01*
X14852Y-107D01*
X14844Y-110D01*
X14836Y-112D01*
X14828Y-117D01*
X14819Y-121D01*
X14818Y-121D01*
X14813Y-127D01*
X14811Y-128D01*
X14811Y-129D01*
X14806Y-132D01*
X14795Y-137D01*
X14789Y-135D01*
X14783Y-131D01*
X14782Y-131D01*
X14774Y-130D01*
X14773Y-129D01*
X14767Y-127D01*
X14762Y-124D01*
X14760Y-123D01*
X14757Y-123D01*
X14755Y-121D01*
X14750Y-121D01*
X14750Y-121D01*
X14746Y-120D01*
X14743Y-120D01*
X14738Y-118D01*
X14732Y-117D01*
X14732Y-117D01*
X14727Y-116D01*
X14722D01*
X14718Y-115D01*
X14714D01*
X14709Y-114D01*
X14095D01*
X13843Y-114D01*
X13600D01*
X13600Y-114D01*
X13596Y-109D01*
X13030D01*
Y-214D01*
X13039D01*
Y-283D01*
X12183D01*
Y-274D01*
X12000D01*
Y-110D01*
X12000D01*
Y-8D01*
Y189D01*
Y386D01*
Y583D01*
Y756D01*
X12173D01*
Y756D01*
X13039D01*
Y583D01*
D02*
G37*
G36*
X-22597Y-778D02*
X-22556Y-814D01*
X-22515Y-846D01*
X-22474Y-874D01*
X-22434Y-897D01*
X-22394Y-916D01*
X-22354Y-931D01*
X-22314Y-942D01*
X-22275Y-948D01*
X-22236Y-950D01*
Y-1050D01*
X-22275Y-1052D01*
X-22314Y-1058D01*
X-22354Y-1069D01*
X-22394Y-1084D01*
X-22434Y-1103D01*
X-22474Y-1126D01*
X-22515Y-1154D01*
X-22556Y-1186D01*
X-22597Y-1222D01*
X-22638Y-1262D01*
Y-738D01*
X-22597Y-778D01*
D02*
G37*
G36*
X13987Y-207D02*
X14095D01*
X14709D01*
X14714Y-208D01*
X14718D01*
X14718Y-208D01*
X14721Y-209D01*
X14721Y-209D01*
X14721D01*
X14722Y-209D01*
X14728Y-210D01*
X14728Y-210D01*
X14728Y-210D01*
X14729Y-210D01*
X14732Y-211D01*
X14739Y-215D01*
X14744Y-217D01*
X14750Y-218D01*
X14751Y-218D01*
X14752Y-218D01*
X14753Y-218D01*
X14764Y-264D01*
X14764Y-2130D01*
X14728Y-2165D01*
X14040D01*
X14040Y-2165D01*
X14040D01*
X14040Y-2165D01*
X14040Y-2165D01*
X14040D01*
X14040Y-2165D01*
X14040D01*
X14039Y-2165D01*
X14039Y-2165D01*
X14037Y-2165D01*
X14037Y-2165D01*
X14037Y-2165D01*
X14037D01*
X14037Y-2165D01*
X14037Y-2165D01*
X14037Y-2165D01*
X14037Y-2165D01*
X14036Y-2165D01*
X14036Y-2165D01*
X14036Y-2165D01*
X14004Y-2127D01*
X14004Y-2127D01*
X14004Y-2127D01*
X14004Y-2124D01*
X14004Y-2124D01*
X14004Y-2123D01*
X14004Y-2122D01*
X14004Y-2121D01*
Y-2121D01*
Y-2121D01*
X14003Y-2121D01*
X14003Y-2121D01*
X14003Y-2121D01*
X14003Y-2121D01*
Y-2121D01*
X14003Y-2121D01*
X14003Y-2121D01*
Y-2121D01*
X14003Y-2121D01*
X14003Y-2121D01*
X14003Y-2121D01*
Y-2121D01*
Y-2120D01*
X14004Y-2118D01*
Y-2117D01*
X14004Y-2116D01*
X14004Y-2112D01*
X14005Y-2104D01*
Y-2104D01*
Y-2103D01*
X14005Y-2103D01*
Y-2103D01*
X14004Y-2099D01*
X14005Y-2095D01*
X14004Y-2091D01*
X14003Y-2091D01*
X14003Y-2085D01*
X14003Y-2085D01*
Y-2085D01*
X14002Y-2077D01*
X14002Y-2077D01*
Y-2074D01*
X13998Y-2056D01*
X13998Y-2056D01*
X13995Y-2041D01*
X13995Y-2041D01*
Y-2041D01*
X13995Y-2038D01*
X13994Y-2035D01*
Y-2035D01*
X13993Y-2030D01*
X13991Y-2026D01*
X13991Y-2025D01*
X13991Y-2025D01*
X13990Y-2025D01*
X13990Y-2024D01*
X13990Y-2024D01*
X13990Y-2021D01*
X13990Y-2021D01*
X13990Y-2021D01*
X13989Y-2020D01*
X13989Y-2020D01*
X13989Y-2020D01*
X13989Y-2020D01*
X13989Y-2020D01*
Y-2020D01*
X13989Y-2020D01*
X13989Y-2020D01*
X13989Y-2020D01*
X13989Y-2020D01*
X13989Y-2020D01*
X13989Y-2020D01*
X13988Y-2018D01*
X13987Y-2016D01*
X13985Y-2007D01*
X13981Y-2000D01*
X13977Y-1995D01*
X13975Y-1990D01*
X13954Y-1958D01*
X13954Y-1958D01*
X13954Y-1958D01*
X13947Y-1951D01*
X13942Y-1944D01*
X13936Y-1938D01*
X13936Y-1938D01*
X13936Y-1938D01*
X13936Y-1937D01*
X13936Y-1937D01*
X13935Y-1936D01*
X13935Y-1936D01*
X13934Y-1936D01*
X13930Y-1931D01*
X13922Y-1926D01*
X13922Y-1926D01*
X13922Y-1926D01*
X13922Y-1926D01*
X13922Y-1926D01*
X13922Y-1926D01*
X13922Y-1926D01*
X13922Y-1926D01*
X13922Y-1926D01*
X13916Y-1920D01*
X13914Y-1919D01*
X13914Y-1918D01*
X13914Y-1918D01*
X13908Y-1915D01*
X13908Y-1914D01*
X13884Y-1898D01*
X13881Y-1897D01*
X13880Y-1896D01*
X13877Y-1895D01*
X13874Y-1892D01*
X13870Y-1891D01*
X13867Y-1890D01*
X13864Y-1888D01*
X13861Y-1887D01*
X13857Y-1886D01*
X13856Y-1885D01*
X13856Y-1885D01*
X13856Y-1885D01*
X13856Y-1885D01*
X13853Y-1884D01*
X13853Y-1884D01*
X13853Y-1884D01*
X13851Y-1883D01*
X13849Y-1883D01*
X13849Y-1883D01*
X13847Y-1882D01*
X13846Y-1882D01*
X13845Y-1882D01*
X13842Y-1881D01*
X13842Y-1881D01*
X13840Y-1880D01*
X13838Y-1880D01*
X13835Y-1879D01*
X13832Y-1878D01*
X13832D01*
X13832Y-1878D01*
X13808Y-1873D01*
X13808D01*
X13799Y-1871D01*
X13790D01*
X13781Y-1870D01*
X13763D01*
X13754Y-1871D01*
X13745D01*
X13736Y-1873D01*
X13736D01*
X13708Y-1879D01*
X13702Y-1881D01*
X13697Y-1882D01*
X13692Y-1883D01*
X13686Y-1887D01*
X13685Y-1887D01*
X13685Y-1887D01*
X13682Y-1888D01*
X13679Y-1889D01*
X13679Y-1889D01*
X13678Y-1889D01*
X13678Y-1889D01*
X13678Y-1889D01*
X13678Y-1889D01*
X13678Y-1889D01*
X13678Y-1889D01*
X13676Y-1891D01*
X13675Y-1891D01*
X13675Y-1891D01*
X13673Y-1892D01*
X13673D01*
X13672Y-1893D01*
X13672Y-1893D01*
X13672Y-1893D01*
X13672Y-1893D01*
X13672Y-1893D01*
X13672Y-1893D01*
X13671Y-1893D01*
X13671Y-1893D01*
X13670Y-1894D01*
X13665Y-1896D01*
X13663Y-1898D01*
X13663Y-1898D01*
X13663Y-1898D01*
X13663Y-1898D01*
X13663Y-1898D01*
X13663Y-1898D01*
X13662Y-1898D01*
X13662Y-1898D01*
X13659Y-1899D01*
X13657Y-1901D01*
X13657Y-1901D01*
X13657Y-1901D01*
X13657Y-1901D01*
X13657Y-1901D01*
X13657Y-1901D01*
X13656Y-1901D01*
X13656Y-1901D01*
X13656Y-1901D01*
X13656Y-1902D01*
X13656Y-1902D01*
X13656Y-1902D01*
X13656Y-1902D01*
X13656Y-1902D01*
X13656Y-1902D01*
X13656Y-1902D01*
X13656Y-1902D01*
X13656Y-1902D01*
X13644Y-1909D01*
X13644Y-1909D01*
X13644Y-1909D01*
X13615Y-1929D01*
X13615Y-1929D01*
X13615Y-1929D01*
X13615Y-1929D01*
X13615Y-1929D01*
X13615Y-1929D01*
X13615Y-1929D01*
X13614Y-1929D01*
X13613Y-1930D01*
X13613Y-1930D01*
X13613Y-1930D01*
X13607Y-1932D01*
X13605Y-1933D01*
X13558Y-1936D01*
X13551Y-1927D01*
X13550Y-1927D01*
X13549Y-1925D01*
X13545Y-1921D01*
X13535Y-1902D01*
X13533Y-1898D01*
X13532Y-1892D01*
Y-1892D01*
X13532Y-1892D01*
X13532Y-1892D01*
X13528Y-1874D01*
X13518Y-1859D01*
X13518Y-1859D01*
X13502Y-1835D01*
X13497Y-1828D01*
X13399Y-1729D01*
X13391Y-1724D01*
X13389Y-1723D01*
X13389Y-1723D01*
X13389Y-1723D01*
X13389Y-1723D01*
X13376Y-1714D01*
X13374Y-1713D01*
X13374Y-1713D01*
X13372Y-1712D01*
X13372Y-1712D01*
X13352Y-1698D01*
X13334Y-1695D01*
X13334Y-1695D01*
X13334D01*
X13334Y-1695D01*
X13334Y-1695D01*
X13320Y-1692D01*
X13306Y-1689D01*
X13306Y-1689D01*
X13306D01*
X13297Y-1687D01*
X13009D01*
X13007Y-1687D01*
X13003Y-1686D01*
X12999Y-1685D01*
X12997Y-1684D01*
X12981Y-1677D01*
X12980Y-1676D01*
X12974Y-1672D01*
X12970Y-1665D01*
X12969Y-1664D01*
X12961Y-1649D01*
X12961Y-1646D01*
X12959Y-1643D01*
X12959Y-1639D01*
X12958Y-1637D01*
Y-809D01*
X12962D01*
Y-541D01*
X13012D01*
Y-491D01*
X13167D01*
Y-411D01*
X13247D01*
Y-256D01*
X13347D01*
Y-411D01*
X13565D01*
Y-242D01*
X13600Y-207D01*
X13987Y-207D01*
D02*
G37*
G36*
X-24259Y-1122D02*
X-24265Y-1109D01*
X-24273Y-1096D01*
X-24284Y-1085D01*
X-24297Y-1076D01*
X-24312Y-1068D01*
X-24329Y-1062D01*
X-24348Y-1057D01*
X-24370Y-1053D01*
X-24393Y-1051D01*
X-24419Y-1050D01*
Y-950D01*
X-24393Y-949D01*
X-24370Y-947D01*
X-24348Y-944D01*
X-24329Y-938D01*
X-24312Y-932D01*
X-24297Y-924D01*
X-24284Y-915D01*
X-24273Y-904D01*
X-24265Y-891D01*
X-24259Y-878D01*
Y-1122D01*
D02*
G37*
G36*
X-23173Y-1262D02*
X-23214Y-1222D01*
X-23255Y-1186D01*
X-23296Y-1154D01*
X-23337Y-1126D01*
X-23377Y-1103D01*
X-23406Y-1089D01*
X-23434Y-1103D01*
X-23474Y-1126D01*
X-23515Y-1154D01*
X-23556Y-1186D01*
X-23597Y-1222D01*
X-23638Y-1262D01*
Y-738D01*
X-23597Y-778D01*
X-23556Y-814D01*
X-23515Y-846D01*
X-23474Y-874D01*
X-23434Y-897D01*
X-23406Y-911D01*
X-23377Y-897D01*
X-23337Y-874D01*
X-23296Y-846D01*
X-23255Y-814D01*
X-23214Y-778D01*
X-23173Y-738D01*
Y-1262D01*
D02*
G37*
G36*
X-23396Y1438D02*
X-23423Y1409D01*
X-23446Y1377D01*
X-23467Y1341D01*
X-23484Y1303D01*
X-23499Y1261D01*
X-23511Y1216D01*
X-23521Y1167D01*
X-23527Y1116D01*
X-23531Y1061D01*
X-23532Y1004D01*
X-23902Y1374D01*
X-23844Y1375D01*
X-23789Y1378D01*
X-23738Y1385D01*
X-23690Y1394D01*
X-23645Y1406D01*
X-23603Y1421D01*
X-23564Y1439D01*
X-23529Y1459D01*
X-23496Y1483D01*
X-23467Y1509D01*
X-23396Y1438D01*
D02*
G37*
G36*
X-22597Y-1778D02*
X-22556Y-1814D01*
X-22515Y-1846D01*
X-22474Y-1874D01*
X-22434Y-1897D01*
X-22394Y-1916D01*
X-22354Y-1931D01*
X-22314Y-1942D01*
X-22275Y-1948D01*
X-22236Y-1950D01*
Y-2050D01*
X-22275Y-2052D01*
X-22314Y-2058D01*
X-22354Y-2069D01*
X-22394Y-2084D01*
X-22434Y-2103D01*
X-22474Y-2126D01*
X-22515Y-2154D01*
X-22556Y-2186D01*
X-22597Y-2222D01*
X-22638Y-2262D01*
X-22638Y-1738D01*
X-22597Y-1778D01*
D02*
G37*
G36*
X12278Y1462D02*
X12224D01*
X12170Y1451D01*
X12123Y1420D01*
X12092Y1374D01*
X12081Y1319D01*
X11919D01*
Y1272D01*
X11882D01*
Y919D01*
X11847Y883D01*
X11792D01*
Y728D01*
X11742D01*
Y678D01*
X11475D01*
Y657D01*
X11474Y655D01*
X11465Y639D01*
X11459Y632D01*
X11438Y615D01*
X11427Y613D01*
X11394Y610D01*
X11389Y609D01*
X11388Y609D01*
X11387Y608D01*
X11384D01*
X11383Y608D01*
X11383Y608D01*
X11378Y607D01*
X11370Y604D01*
X11366Y603D01*
X11366Y603D01*
X11366Y603D01*
X11361Y602D01*
X11361Y602D01*
X11357Y600D01*
X11356Y600D01*
X11355Y599D01*
X11354Y599D01*
X11349Y596D01*
X11346Y594D01*
X11345Y594D01*
X11344Y593D01*
X11340Y591D01*
X11321Y579D01*
X11321Y579D01*
X11321Y579D01*
X11314Y574D01*
X11314Y574D01*
X11306Y570D01*
X11306Y570D01*
X11306Y570D01*
X11306Y570D01*
X11306Y570D01*
X11297Y567D01*
X11288Y565D01*
X11288Y565D01*
X11288D01*
X11270Y562D01*
X11270Y562D01*
X11270D01*
X11261Y560D01*
X11243D01*
X11234Y562D01*
X11234D01*
X11216Y565D01*
X11207Y567D01*
X11207D01*
X11207Y567D01*
X11207Y567D01*
X11207Y567D01*
X11205Y568D01*
X11205Y568D01*
X11199Y570D01*
X11199Y570D01*
X11199Y570D01*
X11199Y570D01*
X11199Y570D01*
X11191Y574D01*
X11184Y578D01*
X11183Y579D01*
X11183Y579D01*
X11168Y589D01*
X11168Y589D01*
X11168Y589D01*
X11165Y591D01*
X11160Y594D01*
X11160Y594D01*
X11158Y596D01*
X11158Y596D01*
X11158Y596D01*
X11156Y599D01*
X11156Y599D01*
X11154Y600D01*
X11154Y600D01*
X11154Y600D01*
X11154Y600D01*
X11154Y600D01*
X11154Y600D01*
X11148Y607D01*
X11148Y607D01*
X11148Y607D01*
X11147Y608D01*
X11147Y608D01*
X11147Y608D01*
X11145Y610D01*
X11145Y610D01*
X11145Y610D01*
X11143Y614D01*
X11143Y614D01*
X11143Y614D01*
X11135Y625D01*
X11135Y625D01*
X11130Y633D01*
X11126Y637D01*
X11123Y642D01*
X11121Y644D01*
X11119Y647D01*
X11111Y652D01*
X11105Y658D01*
X11099Y660D01*
X11095Y664D01*
X11095Y664D01*
X11092Y665D01*
X11089Y667D01*
X11089Y667D01*
X11089Y667D01*
X11089D01*
X11089Y667D01*
X11080Y669D01*
X11072Y672D01*
X11066Y672D01*
X11060Y674D01*
X11057Y673D01*
X11053Y674D01*
X11053D01*
X11053Y674D01*
X11053Y674D01*
X11045Y674D01*
X11045Y674D01*
X11044Y674D01*
X10891D01*
X10890Y674D01*
X10889Y674D01*
X10887Y673D01*
X10885Y674D01*
X10879Y672D01*
X10873D01*
X10871Y671D01*
X10869Y671D01*
X10869Y671D01*
X10863Y668D01*
X10856Y667D01*
X10855Y666D01*
X10854Y666D01*
X10854Y666D01*
X10852Y665D01*
X10850Y664D01*
X10845Y660D01*
X10840Y658D01*
X10838Y657D01*
X10836Y656D01*
X10832Y651D01*
X10826Y647D01*
X10825Y646D01*
X10825Y645D01*
X10823Y643D01*
X10821Y642D01*
X10818Y637D01*
X10814Y633D01*
X10809Y625D01*
X10802Y614D01*
X10802Y614D01*
X10802Y614D01*
X10802Y614D01*
X10797Y607D01*
X10797Y607D01*
X10797Y607D01*
X10791Y600D01*
X10791Y600D01*
X10791Y600D01*
X10786Y596D01*
X10786Y596D01*
X10786Y596D01*
X10784Y594D01*
X10761Y579D01*
X10761Y579D01*
X10760Y578D01*
X10760Y578D01*
X10760Y578D01*
X10759Y577D01*
X10754Y574D01*
X10750Y572D01*
X10750Y572D01*
X10746Y570D01*
X10746Y570D01*
X10746Y570D01*
X10746Y570D01*
X10746Y570D01*
X10746Y570D01*
X10738Y567D01*
X10737Y567D01*
X10737Y567D01*
X10737D01*
X10737D01*
X10710Y562D01*
X10710D01*
X10701Y560D01*
X10683D01*
X10674Y562D01*
X10674D01*
X10656Y565D01*
X10647Y567D01*
X10647D01*
X10647Y567D01*
X10647Y567D01*
X10647Y567D01*
X10645Y568D01*
X10645Y568D01*
X10639Y570D01*
X10639Y570D01*
X10639Y570D01*
X10639Y570D01*
X10639Y570D01*
X10631Y574D01*
X10624Y578D01*
X10623Y579D01*
X10623Y579D01*
X10608Y589D01*
X10608Y589D01*
X10608Y589D01*
X10605Y591D01*
X10600Y594D01*
X10600Y594D01*
X10598Y596D01*
X10598Y596D01*
X10598Y596D01*
X10596Y599D01*
X10596Y599D01*
X10594Y600D01*
X10594Y600D01*
X10594Y600D01*
X10594Y600D01*
X10594Y600D01*
X10594Y600D01*
X10588Y607D01*
X10588Y607D01*
X10588Y607D01*
X10587Y608D01*
X10587Y608D01*
X10583Y614D01*
X10583Y614D01*
X10583Y614D01*
X10575Y625D01*
X10575Y625D01*
X10575Y625D01*
X10575Y625D01*
X10575Y625D01*
X10575Y625D01*
X10575Y625D01*
X10575Y625D01*
X10575Y625D01*
X10570Y633D01*
X10570Y633D01*
X10570Y633D01*
X10564Y639D01*
X10559Y647D01*
X10559Y647D01*
X10551Y652D01*
X10545Y658D01*
X10545Y658D01*
X10545Y658D01*
X10545Y658D01*
X10536Y662D01*
X10535Y662D01*
Y663D01*
Y664D01*
Y677D01*
Y677D01*
Y677D01*
Y677D01*
Y677D01*
X10535Y715D01*
X10535Y715D01*
X10535Y724D01*
X10534Y732D01*
X10534Y740D01*
X10533Y741D01*
Y742D01*
X10531Y747D01*
X10530Y753D01*
X10530Y753D01*
X10529Y756D01*
X10528Y759D01*
X10524Y766D01*
X10521Y774D01*
X10521Y774D01*
X10520Y774D01*
X10520Y775D01*
X10516Y780D01*
X10513Y785D01*
X10510Y787D01*
X10508Y789D01*
X10504Y792D01*
X10504Y792D01*
X10504Y792D01*
X10501Y794D01*
X10496Y800D01*
X10495Y800D01*
X10494Y801D01*
X10493Y801D01*
X10493Y801D01*
X10493Y801D01*
X10490Y804D01*
X10490Y804D01*
X10490Y804D01*
X10487Y806D01*
X10487Y806D01*
X10487Y806D01*
X10455Y827D01*
X10453Y828D01*
X10453Y828D01*
X10451Y829D01*
X10449Y830D01*
X10448Y831D01*
X10447Y832D01*
X10445Y833D01*
X10444Y835D01*
X10444Y835D01*
X10444Y835D01*
X10443Y836D01*
X10443Y837D01*
Y2679D01*
X10443Y2679D01*
Y2688D01*
X10443Y2688D01*
X10444Y2689D01*
X10444Y2689D01*
X10444Y2689D01*
X10444Y2689D01*
X10444Y2689D01*
X10445Y2690D01*
X10445Y2690D01*
X10445Y2690D01*
X10446Y2691D01*
X10447Y2692D01*
X10447Y2693D01*
X10447Y2693D01*
X10447Y2693D01*
X10448Y2693D01*
X10448Y2693D01*
X10448Y2693D01*
X10448Y2693D01*
X10448Y2693D01*
X10448Y2693D01*
X10448Y2694D01*
X10448Y2694D01*
X10449Y2694D01*
X10450Y2696D01*
X10450Y2696D01*
X10450Y2696D01*
X10450Y2696D01*
X10450Y2696D01*
X10450Y2696D01*
X10450Y2696D01*
X10451Y2696D01*
X10451Y2696D01*
X10451Y2696D01*
X10451Y2696D01*
X10451Y2696D01*
X10451Y2696D01*
X10451Y2696D01*
X10451D01*
X10451Y2696D01*
X10452Y2697D01*
X10452Y2697D01*
X10452Y2697D01*
X12278D01*
Y1462D01*
D02*
G37*
G36*
X-23405Y448D02*
X-23431Y419D01*
X-23454Y386D01*
X-23474Y350D01*
X-23490Y311D01*
X-23505Y269D01*
X-23516Y224D01*
X-23524Y175D01*
X-23529Y124D01*
X-23532Y69D01*
X-23532Y11D01*
X-23909Y374D01*
X-23852Y376D01*
X-23797Y381D01*
X-23746Y388D01*
X-23698Y398D01*
X-23653Y411D01*
X-23611Y427D01*
X-23573Y446D01*
X-23538Y467D01*
X-23506Y491D01*
X-23478Y518D01*
X-23405Y448D01*
D02*
G37*
G36*
X-22597Y1222D02*
X-22556Y1186D01*
X-22515Y1154D01*
X-22474Y1126D01*
X-22434Y1103D01*
X-22394Y1084D01*
X-22354Y1069D01*
X-22314Y1058D01*
X-22275Y1052D01*
X-22236Y1050D01*
Y950D01*
X-22275Y948D01*
X-22314Y942D01*
X-22354Y931D01*
X-22394Y916D01*
X-22434Y897D01*
X-22474Y874D01*
X-22515Y846D01*
X-22556Y814D01*
X-22597Y778D01*
X-22638Y738D01*
Y1262D01*
X-22597Y1222D01*
D02*
G37*
G36*
Y3222D02*
X-22556Y3186D01*
X-22515Y3154D01*
X-22474Y3126D01*
X-22434Y3103D01*
X-22394Y3084D01*
X-22354Y3069D01*
X-22314Y3058D01*
X-22275Y3052D01*
X-22236Y3050D01*
Y2950D01*
X-22275Y2948D01*
X-22314Y2942D01*
X-22354Y2931D01*
X-22394Y2916D01*
X-22434Y2897D01*
X-22474Y2874D01*
X-22515Y2846D01*
X-22556Y2814D01*
X-22597Y2778D01*
X-22638Y2738D01*
Y3262D01*
X-22597Y3222D01*
D02*
G37*
G36*
X17118Y-4874D02*
X17110Y-4877D01*
X17102Y-4882D01*
X17096Y-4889D01*
X17090Y-4898D01*
X17086Y-4909D01*
X17082Y-4922D01*
X17080Y-4937D01*
X17078Y-4954D01*
X17078Y-4973D01*
X16978D01*
X16977Y-4954D01*
X16976Y-4937D01*
X16973Y-4922D01*
X16970Y-4909D01*
X16965Y-4898D01*
X16960Y-4889D01*
X16953Y-4882D01*
X16946Y-4877D01*
X16937Y-4874D01*
X16928Y-4873D01*
X17128D01*
X17118Y-4874D01*
D02*
G37*
G36*
X-22597Y4222D02*
X-22556Y4186D01*
X-22515Y4154D01*
X-22474Y4126D01*
X-22434Y4103D01*
X-22394Y4084D01*
X-22354Y4069D01*
X-22314Y4058D01*
X-22275Y4052D01*
X-22236Y4050D01*
Y3950D01*
X-22275Y3948D01*
X-22314Y3942D01*
X-22354Y3931D01*
X-22394Y3916D01*
X-22434Y3897D01*
X-22474Y3874D01*
X-22515Y3846D01*
X-22556Y3814D01*
X-22597Y3778D01*
X-22638Y3738D01*
Y4262D01*
X-22597Y4222D01*
D02*
G37*
G36*
X17080Y5131D02*
X17086Y5091D01*
X17097Y5052D01*
X17111Y5012D01*
X17131Y4972D01*
X17154Y4931D01*
X17181Y4891D01*
X17213Y4850D01*
X17249Y4809D01*
X17289Y4767D01*
X16766D01*
X16806Y4809D01*
X16842Y4850D01*
X16874Y4891D01*
X16901Y4931D01*
X16925Y4972D01*
X16944Y5012D01*
X16959Y5052D01*
X16969Y5091D01*
X16975Y5131D01*
X16978Y5170D01*
X17078D01*
X17080Y5131D01*
D02*
G37*
G36*
X-24173Y-5262D02*
X-24214Y-5222D01*
X-24255Y-5186D01*
X-24296Y-5154D01*
X-24337Y-5126D01*
X-24377Y-5103D01*
X-24417Y-5084D01*
X-24457Y-5069D01*
X-24497Y-5058D01*
X-24536Y-5052D01*
X-24575Y-5050D01*
Y-4950D01*
X-24536Y-4948D01*
X-24497Y-4942D01*
X-24457Y-4931D01*
X-24417Y-4916D01*
X-24377Y-4897D01*
X-24337Y-4874D01*
X-24296Y-4846D01*
X-24255Y-4814D01*
X-24214Y-4778D01*
X-24173Y-4738D01*
Y-5262D01*
D02*
G37*
G36*
X-23396Y4438D02*
X-23423Y4409D01*
X-23446Y4377D01*
X-23467Y4341D01*
X-23484Y4303D01*
X-23499Y4261D01*
X-23511Y4216D01*
X-23521Y4167D01*
X-23527Y4116D01*
X-23531Y4061D01*
X-23532Y4004D01*
X-23902Y4374D01*
X-23844Y4375D01*
X-23789Y4378D01*
X-23738Y4385D01*
X-23690Y4394D01*
X-23645Y4406D01*
X-23603Y4421D01*
X-23564Y4439D01*
X-23529Y4459D01*
X-23496Y4483D01*
X-23467Y4509D01*
X-23396Y4438D01*
D02*
G37*
G36*
X17900Y-5927D02*
X17171D01*
Y-4965D01*
X17492D01*
Y-4035D01*
X16563D01*
Y-4965D01*
X16884D01*
Y-5927D01*
X5819D01*
Y-4369D01*
X5841Y-4336D01*
X5844Y-4323D01*
X6523D01*
X6527Y-4323D01*
X6573Y-4332D01*
X6573D01*
X6574Y-4332D01*
X6879D01*
Y-3937D01*
Y-3542D01*
X6574D01*
X6573Y-3542D01*
X6573D01*
X6527Y-3551D01*
X6523Y-3551D01*
X5852D01*
Y-2958D01*
X7470D01*
X7525Y-2947D01*
X7572Y-2916D01*
X7687Y-2801D01*
X7931D01*
Y-2807D01*
Y-3063D01*
X8367D01*
X8376Y-3065D01*
X8770D01*
X8779Y-3063D01*
X9215D01*
Y-3057D01*
X10488D01*
X10488Y-3057D01*
X10497D01*
X10497Y-3057D01*
X10498Y-3057D01*
X10501Y-3060D01*
X10502Y-3061D01*
X10503Y-3062D01*
X10505Y-3064D01*
X10506Y-3065D01*
X10506Y-3066D01*
X10506Y-3066D01*
Y-3075D01*
Y-3406D01*
Y-3776D01*
X10506Y-3776D01*
Y-3785D01*
X10506Y-3785D01*
X10506Y-3786D01*
X10503Y-3788D01*
X10502Y-3790D01*
X10501Y-3790D01*
X10499Y-3793D01*
X10498Y-3793D01*
X10497Y-3794D01*
X10497Y-3794D01*
X10488D01*
X9323D01*
Y-3551D01*
X8634D01*
X8630Y-3551D01*
X8584Y-3542D01*
X8584D01*
X8584Y-3542D01*
X8278D01*
Y-3937D01*
Y-4332D01*
X8584D01*
X8584Y-4332D01*
X8584D01*
X8630Y-4323D01*
X8634Y-4323D01*
X9323D01*
Y-4080D01*
X10717D01*
Y-4382D01*
X11528D01*
Y-3551D01*
X11528Y-3551D01*
X11528Y-3551D01*
X11535Y-3549D01*
X11537Y-3549D01*
X11537Y-3549D01*
X11546D01*
X11546Y-3549D01*
X11791D01*
X11791Y-3549D01*
X11809Y-3595D01*
Y-3887D01*
X12639D01*
Y-3551D01*
X12639Y-3551D01*
X12639Y-3551D01*
X12647Y-3549D01*
X12648Y-3549D01*
X12648Y-3549D01*
X12658D01*
X12658Y-3549D01*
X13327D01*
X13382Y-3538D01*
X13428Y-3507D01*
X13497Y-3438D01*
X13502Y-3430D01*
X13502Y-3430D01*
X13506Y-3424D01*
X13506Y-3424D01*
X13506Y-3424D01*
X13510Y-3419D01*
X13510Y-3419D01*
X13518Y-3407D01*
X13518Y-3407D01*
X13518Y-3407D01*
X13518Y-3407D01*
X13518Y-3407D01*
X13528Y-3391D01*
X13532Y-3373D01*
Y-3373D01*
X13532Y-3373D01*
X13532Y-3373D01*
X13533Y-3366D01*
Y-3366D01*
X13535Y-3354D01*
X13537Y-3346D01*
Y-3346D01*
X13539Y-3337D01*
Y-2744D01*
X13726D01*
Y-2205D01*
X13539D01*
Y-2119D01*
X13539Y-2119D01*
Y-2118D01*
X13539Y-2117D01*
Y-2111D01*
X13541Y-2105D01*
X13540Y-2103D01*
X13541Y-2101D01*
X13541Y-2100D01*
X13541Y-2099D01*
X13541Y-2099D01*
X13546Y-2077D01*
X13547Y-2076D01*
X13548Y-2069D01*
X13549Y-2067D01*
X13552Y-2062D01*
X13556Y-2059D01*
X13562Y-2051D01*
X13565Y-2044D01*
X13570Y-2038D01*
X13580Y-2028D01*
X13580Y-2028D01*
X13580Y-2028D01*
X13588Y-2029D01*
X13597Y-2028D01*
X13597D01*
X13597D01*
X13602Y-2028D01*
X13612Y-2026D01*
X13615Y-2026D01*
X13618Y-2026D01*
X13620Y-2025D01*
X13623Y-2025D01*
X13627Y-2024D01*
X13634Y-2021D01*
X13637Y-2020D01*
X13639Y-2019D01*
X13640Y-2019D01*
X13646Y-2016D01*
X13647Y-2016D01*
X13648Y-2016D01*
X13648Y-2015D01*
X13649Y-2015D01*
X13650Y-2015D01*
X13650Y-2015D01*
X13653Y-2013D01*
X13656Y-2012D01*
X13656Y-2012D01*
X13659Y-2010D01*
X13662Y-2008D01*
X13662Y-2008D01*
X13663Y-2007D01*
X13664Y-2007D01*
X13664Y-2007D01*
X13664Y-2007D01*
X13665Y-2006D01*
X13666Y-2006D01*
X13666Y-2006D01*
X13696Y-1986D01*
X13696Y-1986D01*
X13707Y-1978D01*
X13707Y-1978D01*
X13707Y-1978D01*
X13707Y-1978D01*
X13707Y-1978D01*
X13708Y-1978D01*
X13708Y-1978D01*
X13708Y-1978D01*
X13708Y-1978D01*
X13708Y-1978D01*
X13708Y-1978D01*
X13708Y-1978D01*
X13708Y-1978D01*
X13711Y-1976D01*
X13711Y-1976D01*
X13711Y-1976D01*
X13714Y-1975D01*
X13714Y-1975D01*
X13714Y-1975D01*
X13714Y-1975D01*
X13714Y-1975D01*
X13714Y-1974D01*
X13717Y-1973D01*
X13720Y-1972D01*
X13720Y-1972D01*
X13721Y-1971D01*
X13726Y-1969D01*
X13754Y-1964D01*
X13754D01*
X13763Y-1962D01*
X13781D01*
X13790Y-1964D01*
X13790D01*
X13814Y-1968D01*
X13814D01*
X13814Y-1968D01*
X13817Y-1969D01*
X13817D01*
X13817Y-1969D01*
X13820Y-1970D01*
X13820Y-1970D01*
X13820Y-1970D01*
X13820D01*
X13820Y-1970D01*
X13822Y-1971D01*
X13823Y-1972D01*
X13823Y-1972D01*
X13826Y-1972D01*
X13829Y-1973D01*
X13829Y-1973D01*
X13832Y-1975D01*
X13857Y-1991D01*
X13857Y-1992D01*
X13857Y-1992D01*
X13857Y-1992D01*
X13863Y-1995D01*
X13864Y-1996D01*
X13871Y-2003D01*
X13871Y-2003D01*
X13871Y-2003D01*
X13871Y-2003D01*
X13871Y-2003D01*
X13877Y-2009D01*
X13877Y-2009D01*
X13898Y-2041D01*
X13902Y-2048D01*
X13903Y-2053D01*
X13903Y-2053D01*
X13903Y-2053D01*
X13904Y-2055D01*
Y-2055D01*
X13904Y-2055D01*
X13904Y-2055D01*
X13904Y-2055D01*
X13904Y-2055D01*
Y-2055D01*
X13904Y-2056D01*
X13904Y-2056D01*
Y-2056D01*
X13905Y-2059D01*
X13905Y-2059D01*
Y-2059D01*
X13908Y-2074D01*
X13908Y-2074D01*
Y-2074D01*
X13911Y-2092D01*
Y-2095D01*
X13913Y-2103D01*
Y-2103D01*
X13913Y-2103D01*
Y-2104D01*
Y-2104D01*
X13912Y-2107D01*
X13912Y-2108D01*
X13912Y-2110D01*
X13912Y-2112D01*
X13912Y-2112D01*
X13912Y-2113D01*
X13911Y-2114D01*
X13912Y-2116D01*
X13911Y-2117D01*
Y-2118D01*
X13911Y-2118D01*
X13911Y-2119D01*
X13911Y-2119D01*
X13911Y-2120D01*
Y-2121D01*
X13911Y-2121D01*
X13911Y-2121D01*
Y-2121D01*
X13911Y-2121D01*
X13911Y-2121D01*
Y-2121D01*
Y-2121D01*
X13912Y-2125D01*
X13911Y-2129D01*
X13911Y-2129D01*
X13912Y-2129D01*
X13912Y-2130D01*
X13912Y-2130D01*
X13912Y-2130D01*
X13912Y-2130D01*
X13912Y-2130D01*
X13912Y-2130D01*
X13912Y-2130D01*
X13912Y-2131D01*
X13912Y-2132D01*
X13912Y-2134D01*
X13912Y-2134D01*
X13913Y-2137D01*
X13913Y-2138D01*
X13913Y-2138D01*
X13913Y-2139D01*
X13913Y-2139D01*
X13913Y-2139D01*
X13913Y-2139D01*
X13913Y-2143D01*
X13915Y-2147D01*
X13915Y-2152D01*
X13915Y-2152D01*
X13917Y-2155D01*
X13917Y-2159D01*
X13920Y-2163D01*
X13921Y-2168D01*
X13922Y-2170D01*
X13922Y-2170D01*
X13923Y-2172D01*
X13925Y-2174D01*
X13926Y-2177D01*
X13928Y-2179D01*
X13928Y-2180D01*
X13929Y-2181D01*
X13929Y-2181D01*
X13931Y-2183D01*
X13931Y-2184D01*
X13932Y-2185D01*
X13935Y-2190D01*
X13959Y-2219D01*
X13962Y-2222D01*
X13964Y-2225D01*
X13966Y-2226D01*
X13966Y-2227D01*
X13966Y-2227D01*
X13966Y-2227D01*
X13966Y-2227D01*
X13967Y-2227D01*
X13968Y-2228D01*
X13969Y-2229D01*
X13969Y-2229D01*
X13969Y-2229D01*
X13970Y-2230D01*
X13972Y-2232D01*
X13976Y-2234D01*
X13979Y-2237D01*
X13979Y-2237D01*
X13979Y-2237D01*
X13979Y-2237D01*
X13979Y-2237D01*
X13980Y-2238D01*
X13981Y-2239D01*
X13982Y-2239D01*
X13982Y-2239D01*
X13984Y-2240D01*
X13989Y-2245D01*
X13993Y-2246D01*
X13994Y-2246D01*
X13994Y-2246D01*
X13998Y-2249D01*
X13999Y-2249D01*
X13999Y-2249D01*
X14000Y-2250D01*
X14005Y-2251D01*
X14008Y-2252D01*
X14008Y-2252D01*
X14011Y-2253D01*
X14012Y-2253D01*
X14013Y-2254D01*
X14014Y-2254D01*
X14014Y-2254D01*
X14018Y-2254D01*
X14020Y-2255D01*
X14020Y-2255D01*
X14022Y-2256D01*
X14023Y-2256D01*
X14025Y-2256D01*
X14025Y-2256D01*
X14025Y-2256D01*
X14025Y-2256D01*
X14025Y-2256D01*
X14026Y-2257D01*
X14027Y-2257D01*
X14027Y-2257D01*
X14027Y-2257D01*
X14028Y-2257D01*
X14029Y-2257D01*
X14030Y-2257D01*
X14035Y-2257D01*
X14035Y-2257D01*
X14035Y-2257D01*
X14035Y-2257D01*
X14040Y-2258D01*
X14040D01*
X14040Y-2258D01*
X14040Y-2258D01*
X14040D01*
X14040Y-2258D01*
X14040Y-2258D01*
X14728D01*
X14728Y-2258D01*
X14770Y-2300D01*
Y-2658D01*
X14724Y-2705D01*
X14687D01*
X14683Y-2705D01*
X14637Y-2695D01*
X14637D01*
X14637Y-2695D01*
X14332D01*
Y-3091D01*
Y-3486D01*
X14637D01*
X14637Y-3486D01*
X14637D01*
X14683Y-3476D01*
X14687Y-3476D01*
X14978D01*
X15001Y-3489D01*
X15022Y-3506D01*
X15023Y-3521D01*
X15024Y-3537D01*
X15025Y-3539D01*
X15025Y-3542D01*
X15033Y-3556D01*
X15039Y-3570D01*
X15060Y-3598D01*
X15065Y-3603D01*
X15069Y-3609D01*
X15078Y-3615D01*
X15087Y-3622D01*
X15093Y-3625D01*
X15099Y-3629D01*
X15110Y-3631D01*
X15120Y-3635D01*
X15127Y-3634D01*
X15134Y-3636D01*
X16517D01*
X16517Y-3636D01*
X16526D01*
X16536Y-3634D01*
X16545Y-3634D01*
X16583Y-3666D01*
X16614Y-3739D01*
X16689Y-3838D01*
X16789Y-3914D01*
X16904Y-3962D01*
X16978Y-3972D01*
Y-3500D01*
Y-3028D01*
X16904Y-3038D01*
X16789Y-3086D01*
X16689Y-3162D01*
X16675Y-3181D01*
X16628Y-3165D01*
Y-3160D01*
Y-2824D01*
Y-2820D01*
X16675Y-2804D01*
X16696Y-2831D01*
X16793Y-2906D01*
X16906Y-2953D01*
X17028Y-2969D01*
X17149Y-2953D01*
X17262Y-2906D01*
X17359Y-2831D01*
X17433Y-2734D01*
X17480Y-2621D01*
X17496Y-2500D01*
X17480Y-2379D01*
X17433Y-2266D01*
X17359Y-2169D01*
X17262Y-2094D01*
X17149Y-2047D01*
X17028Y-2031D01*
X16906Y-2047D01*
X16793Y-2094D01*
X16696Y-2169D01*
X16633Y-2252D01*
X16586Y-2261D01*
X16570Y-2259D01*
X16568Y-2257D01*
X16567Y-2256D01*
X16567Y-2255D01*
X16559Y-2250D01*
X16553Y-2244D01*
X16545Y-2241D01*
X16539Y-2236D01*
X16538Y-2236D01*
X16537Y-2235D01*
X16536Y-2235D01*
X16536Y-2235D01*
X16536Y-2235D01*
X16528Y-2233D01*
X16520Y-2230D01*
X16519Y-2230D01*
X16519Y-2230D01*
X16519Y-2229D01*
X16518Y-2229D01*
X16517Y-2228D01*
X16517Y-2228D01*
X16510Y-2226D01*
X16503Y-2221D01*
X16503Y-2221D01*
X16488Y-2211D01*
X16488Y-2211D01*
X16488Y-2211D01*
X16488Y-2211D01*
X16488Y-2211D01*
X16487Y-2211D01*
X16487Y-2210D01*
X16484Y-2208D01*
X16480Y-2206D01*
X16480Y-2206D01*
X16475Y-2200D01*
X16475Y-2200D01*
X16474Y-2199D01*
X16473Y-2199D01*
X16473Y-2199D01*
X16473Y-2199D01*
X16468Y-2193D01*
X16449Y-2165D01*
X16449Y-2165D01*
X16449Y-2165D01*
X16447Y-2163D01*
X16447Y-2163D01*
X16447Y-2163D01*
X16446Y-2160D01*
X16444Y-2157D01*
X16443Y-2154D01*
X16442Y-2153D01*
X16441Y-2148D01*
X16435Y-2119D01*
X16435Y-2119D01*
Y-2119D01*
Y-2119D01*
Y-2119D01*
X16433Y-2110D01*
Y-2101D01*
Y-2092D01*
X16435Y-2083D01*
Y-2083D01*
X16440Y-2059D01*
Y-2059D01*
X16440Y-2059D01*
X16440Y-2056D01*
X16442Y-2053D01*
X16442Y-2053D01*
X16442Y-2053D01*
X16442Y-2053D01*
Y-2053D01*
X16442Y-2053D01*
X16442Y-2053D01*
X16442Y-2052D01*
X16443Y-2050D01*
X16443Y-2050D01*
X16443Y-2047D01*
X16446Y-2041D01*
X16462Y-2017D01*
X16463Y-2016D01*
X16463Y-2016D01*
X16467Y-2009D01*
Y-2009D01*
X16474Y-2003D01*
X16474Y-2003D01*
X16479Y-1998D01*
X16480Y-1997D01*
X16487Y-1992D01*
X16487Y-1992D01*
X16487Y-1992D01*
X16488Y-1991D01*
X16488Y-1991D01*
X16488Y-1991D01*
X16488Y-1991D01*
X16503Y-1981D01*
X16503Y-1981D01*
X16507Y-1978D01*
X16507D01*
X16508Y-1978D01*
X16511Y-1976D01*
X16519Y-1973D01*
X16519Y-1973D01*
X16524Y-1970D01*
X16530Y-1970D01*
X16530Y-1970D01*
X16530Y-1970D01*
X16536Y-1966D01*
X16543Y-1964D01*
X16578Y-1946D01*
X16589Y-1937D01*
X16601Y-1929D01*
X16603Y-1926D01*
X16606Y-1924D01*
X16613Y-1911D01*
X16621Y-1900D01*
X16621Y-1896D01*
X16623Y-1892D01*
X16625Y-1878D01*
X16628Y-1864D01*
X16628Y-1824D01*
X16676Y-1817D01*
X16685Y-1816D01*
X16696Y-1831D01*
X16793Y-1906D01*
X16906Y-1953D01*
X17028Y-1969D01*
X17149Y-1953D01*
X17262Y-1906D01*
X17359Y-1831D01*
X17433Y-1734D01*
X17480Y-1621D01*
X17496Y-1500D01*
X17480Y-1379D01*
X17433Y-1266D01*
X17359Y-1169D01*
X17262Y-1094D01*
X17149Y-1047D01*
X17028Y-1031D01*
X16906Y-1047D01*
X16793Y-1094D01*
X16696Y-1169D01*
X16671Y-1202D01*
X16654Y-1205D01*
X16614Y-1195D01*
X16613Y-1195D01*
Y-1195D01*
X16607Y-1179D01*
X16607Y-1179D01*
Y-1179D01*
X16604Y-1171D01*
X16599Y-1164D01*
X16599Y-1163D01*
X16599Y-1163D01*
X16598Y-1163D01*
X16595Y-1154D01*
X16589Y-1148D01*
X16584Y-1141D01*
X16576Y-1135D01*
X16569Y-1129D01*
X16569Y-1129D01*
X16569Y-1129D01*
X16569Y-1129D01*
X16561Y-1125D01*
X16554Y-1121D01*
X16548Y-1119D01*
X16547Y-1119D01*
X16547Y-1119D01*
X16546Y-1118D01*
X16546Y-1118D01*
X16544Y-1118D01*
X16536Y-1115D01*
X16536D01*
X16536Y-1115D01*
X16530Y-1114D01*
X16530D01*
X16530Y-1114D01*
X16527Y-1113D01*
X16527D01*
X16527Y-1113D01*
X16526Y-1113D01*
X16526D01*
X16526Y-1113D01*
X16519Y-1110D01*
X16519Y-1110D01*
X16519Y-1110D01*
X16511Y-1106D01*
X16503Y-1101D01*
X16503Y-1101D01*
X16488Y-1091D01*
X16488Y-1091D01*
X16488Y-1091D01*
X16488Y-1091D01*
X16488Y-1091D01*
X16487Y-1091D01*
X16487Y-1090D01*
X16484Y-1088D01*
X16480Y-1086D01*
X16480Y-1086D01*
X16475Y-1080D01*
X16475Y-1080D01*
X16474Y-1079D01*
X16473Y-1079D01*
X16473Y-1079D01*
X16473Y-1079D01*
X16468Y-1073D01*
X16449Y-1045D01*
X16449Y-1045D01*
X16449Y-1045D01*
X16447Y-1043D01*
X16447Y-1043D01*
X16447Y-1043D01*
X16446Y-1040D01*
X16444Y-1037D01*
X16443Y-1034D01*
X16442Y-1033D01*
X16441Y-1028D01*
X16435Y-999D01*
X16435Y-999D01*
Y-999D01*
Y-999D01*
Y-999D01*
X16433Y-990D01*
Y-981D01*
Y-972D01*
X16435Y-963D01*
Y-963D01*
X16440Y-939D01*
Y-939D01*
X16440Y-939D01*
X16440Y-936D01*
X16442Y-933D01*
X16442Y-933D01*
X16442Y-933D01*
X16442Y-933D01*
Y-933D01*
X16442Y-933D01*
X16442Y-933D01*
X16442Y-932D01*
X16443Y-930D01*
X16443Y-930D01*
X16443Y-927D01*
X16446Y-921D01*
X16462Y-897D01*
X16463Y-896D01*
X16463Y-896D01*
X16467Y-889D01*
Y-889D01*
X16474Y-883D01*
X16474Y-883D01*
X16479Y-878D01*
X16480Y-877D01*
X16487Y-872D01*
X16487Y-872D01*
X16487Y-872D01*
X16488Y-871D01*
X16488Y-871D01*
X16488Y-871D01*
X16488Y-871D01*
X16503Y-861D01*
X16503Y-861D01*
X16507Y-858D01*
X16507D01*
X16508Y-858D01*
X16511Y-856D01*
X16519Y-853D01*
X16519Y-853D01*
X16519Y-853D01*
X16519D01*
X16519Y-853D01*
X16521Y-852D01*
X16523Y-852D01*
X16523Y-852D01*
X16526Y-850D01*
X16530Y-850D01*
X16530Y-850D01*
X16533Y-848D01*
X16536Y-847D01*
X16536Y-847D01*
X16536Y-847D01*
X16536Y-847D01*
X16537Y-847D01*
X16542Y-845D01*
X16545Y-844D01*
X16545Y-844D01*
X16546Y-843D01*
X16554Y-842D01*
X16560Y-837D01*
X16560Y-837D01*
X16560Y-837D01*
X16560Y-837D01*
X16561Y-837D01*
X16561Y-837D01*
X16569Y-834D01*
X16569Y-833D01*
X16570Y-833D01*
X16570Y-833D01*
X16570Y-833D01*
X16573Y-831D01*
X16573Y-831D01*
X16573Y-831D01*
X16576Y-829D01*
X16576Y-829D01*
X16577Y-828D01*
X16577Y-828D01*
X16578Y-828D01*
X16578Y-827D01*
X16579Y-827D01*
X16579Y-827D01*
X16580Y-826D01*
X16580Y-826D01*
X16580Y-826D01*
X16580Y-826D01*
X16582Y-824D01*
X16588Y-819D01*
X16593Y-816D01*
X16594Y-815D01*
X16594Y-815D01*
X16594Y-815D01*
X16594Y-814D01*
X16595Y-814D01*
X16597Y-812D01*
X16597Y-812D01*
X16597Y-812D01*
X16598Y-811D01*
X16599Y-810D01*
X16601Y-808D01*
X16603Y-804D01*
X16606Y-802D01*
X16607Y-801D01*
X16608Y-799D01*
X16608Y-799D01*
X16631Y-792D01*
X16654Y-791D01*
X16668Y-794D01*
X16696Y-831D01*
X16793Y-906D01*
X16906Y-953D01*
X17028Y-969D01*
X17149Y-953D01*
X17262Y-906D01*
X17359Y-831D01*
X17433Y-734D01*
X17480Y-621D01*
X17496Y-500D01*
X17480Y-379D01*
X17433Y-266D01*
X17359Y-169D01*
X17262Y-94D01*
X17149Y-47D01*
X17028Y-31D01*
X16906Y-47D01*
X16793Y-94D01*
X16696Y-169D01*
X16675Y-196D01*
X16628Y-180D01*
Y-176D01*
Y-132D01*
Y-132D01*
X16627Y-127D01*
Y-124D01*
X16626Y-121D01*
Y-114D01*
X16625Y-109D01*
X16623Y-104D01*
X16622Y-95D01*
X16622Y-94D01*
X16621Y-94D01*
X16621Y-94D01*
X16620Y-91D01*
X16620Y-89D01*
X16619Y-89D01*
X16619Y-88D01*
X16619Y-88D01*
X16614Y-80D01*
X16613Y-75D01*
X16610Y-71D01*
X16606Y-66D01*
X16604Y-62D01*
X16602Y-61D01*
X16602Y-60D01*
X16599Y-56D01*
X16599Y-56D01*
X16599Y-55D01*
X16598Y-55D01*
X16571Y-25D01*
X16567Y-22D01*
X16564Y-18D01*
X16560Y-15D01*
X16555Y-12D01*
X16550Y-7D01*
X16547Y-5D01*
X16544Y-4D01*
X16544Y-3D01*
X16544Y-3D01*
X16544Y-3D01*
X16543Y-3D01*
X16543Y-3D01*
X16543Y-3D01*
X16543Y-3D01*
X16542Y-2D01*
X16542Y-2D01*
X16536Y0D01*
X16536Y1D01*
X16536Y1D01*
X16535Y1D01*
X16531Y4D01*
X16529Y4D01*
X16528Y5D01*
X16528Y5D01*
X16527Y6D01*
X16527Y6D01*
X16527Y6D01*
X16526Y6D01*
X16526Y6D01*
X16525Y7D01*
X16521Y9D01*
X16521Y9D01*
X16521Y9D01*
X16521Y9D01*
X16521Y9D01*
X16520Y9D01*
X16520Y9D01*
X16520Y9D01*
X16515Y11D01*
X16515Y11D01*
X16515Y11D01*
X16515Y11D01*
X16515Y11D01*
X16514Y11D01*
X16514Y11D01*
X16514Y12D01*
X16507Y16D01*
X16507Y16D01*
X16507Y16D01*
X16491Y27D01*
X16491Y27D01*
X16488Y29D01*
X16486Y31D01*
X16486Y31D01*
X16486Y31D01*
X16484Y33D01*
X16481Y35D01*
X16480Y36D01*
X16480Y36D01*
X16479Y37D01*
X16477Y38D01*
X16474Y41D01*
X16474Y41D01*
X16470Y44D01*
X16470Y44D01*
X16470Y45D01*
X16470Y45D01*
X16470Y45D01*
X16470Y45D01*
X16470Y45D01*
X16468Y47D01*
X16450Y74D01*
X16449Y74D01*
X16449Y74D01*
X16449Y74D01*
X16447Y78D01*
X16446Y80D01*
X16444Y84D01*
X16442Y88D01*
X16441Y92D01*
X16435Y121D01*
X16435Y121D01*
Y121D01*
Y121D01*
Y121D01*
X16433Y130D01*
Y139D01*
Y148D01*
X16435Y157D01*
Y157D01*
X16440Y181D01*
Y181D01*
X16440Y181D01*
X16440Y184D01*
X16442Y187D01*
X16442Y187D01*
X16442Y187D01*
X16442Y187D01*
Y187D01*
X16442Y187D01*
X16442Y187D01*
X16442Y188D01*
X16443Y190D01*
X16443Y190D01*
X16443Y193D01*
X16446Y199D01*
X16462Y223D01*
X16463Y224D01*
X16463Y224D01*
X16467Y231D01*
Y231D01*
X16474Y237D01*
X16474Y237D01*
X16479Y242D01*
X16480Y243D01*
X16487Y248D01*
X16487Y248D01*
X16487Y248D01*
X16488Y249D01*
X16488Y249D01*
X16488Y249D01*
X16488Y249D01*
X16503Y259D01*
X16503Y259D01*
X16507Y262D01*
X16507D01*
X16508Y262D01*
X16511Y264D01*
X16519Y267D01*
X16519Y267D01*
X16521Y268D01*
X16523Y268D01*
X16523Y268D01*
X16525Y269D01*
X16525Y269D01*
X16525Y269D01*
X16527Y270D01*
X16530Y270D01*
X16530Y270D01*
X16533Y272D01*
X16536Y273D01*
X16536Y273D01*
X16536Y273D01*
X16538Y274D01*
X16538D01*
X16544Y276D01*
X16544Y276D01*
X16544Y276D01*
X16544Y276D01*
X16544Y276D01*
X16549Y277D01*
X16549Y277D01*
X16550Y277D01*
X16551Y277D01*
X16551Y277D01*
X16554Y278D01*
X16561Y281D01*
X16561Y281D01*
X16561Y281D01*
X16561Y281D01*
X16561Y281D01*
X16570Y285D01*
X16574Y284D01*
X16610Y272D01*
X16618Y268D01*
X16625Y261D01*
X16696Y169D01*
X16793Y94D01*
X16906Y47D01*
X17028Y31D01*
X17149Y47D01*
X17262Y94D01*
X17359Y169D01*
X17433Y266D01*
X17480Y379D01*
X17496Y500D01*
X17480Y621D01*
X17433Y734D01*
X17359Y831D01*
X17262Y906D01*
X17149Y953D01*
X17028Y969D01*
X16906Y953D01*
X16793Y906D01*
X16696Y831D01*
X16675Y804D01*
X16628Y820D01*
Y824D01*
Y846D01*
Y1169D01*
X16678Y1190D01*
X16687Y1181D01*
X16696Y1169D01*
X16793Y1094D01*
X16906Y1047D01*
X17028Y1031D01*
X17149Y1047D01*
X17262Y1094D01*
X17359Y1169D01*
X17433Y1266D01*
X17480Y1379D01*
X17496Y1500D01*
X17480Y1621D01*
X17433Y1734D01*
X17359Y1831D01*
X17262Y1906D01*
X17149Y1953D01*
X17028Y1969D01*
X16906Y1953D01*
X16793Y1906D01*
X16696Y1831D01*
X16687Y1819D01*
X16678Y1810D01*
X16628Y1831D01*
X16628Y1831D01*
Y2084D01*
Y2169D01*
Y2169D01*
X16678Y2190D01*
X16687Y2181D01*
X16696Y2169D01*
X16793Y2094D01*
X16906Y2047D01*
X17028Y2031D01*
X17149Y2047D01*
X17262Y2094D01*
X17359Y2169D01*
X17433Y2266D01*
X17480Y2379D01*
X17496Y2500D01*
X17480Y2621D01*
X17433Y2734D01*
X17359Y2831D01*
X17262Y2906D01*
X17149Y2953D01*
X17028Y2969D01*
X16906Y2953D01*
X16793Y2906D01*
X16696Y2831D01*
X16687Y2819D01*
X16656Y2789D01*
X16619Y2757D01*
X16583Y2729D01*
X16547Y2705D01*
X16513Y2685D01*
X16480Y2669D01*
X16448Y2657D01*
X16417Y2649D01*
X16387Y2644D01*
X16373Y2643D01*
X16309D01*
X16285Y2668D01*
Y3342D01*
X16335Y3366D01*
X16382Y3357D01*
X16401D01*
X16413Y3356D01*
X16443Y3352D01*
X16473Y3345D01*
X16501Y3334D01*
X16529Y3321D01*
X16557Y3305D01*
X16585Y3285D01*
X16613Y3262D01*
X16640Y3235D01*
X16669Y3201D01*
X16672Y3200D01*
X16674Y3197D01*
X16675Y3196D01*
X16696Y3169D01*
X16793Y3094D01*
X16906Y3047D01*
X17028Y3031D01*
X17149Y3047D01*
X17262Y3094D01*
X17359Y3169D01*
X17433Y3266D01*
X17480Y3379D01*
X17496Y3500D01*
X17480Y3621D01*
X17433Y3734D01*
X17359Y3831D01*
X17262Y3906D01*
X17149Y3953D01*
X17028Y3969D01*
X16906Y3953D01*
X16793Y3906D01*
X16696Y3831D01*
X16675Y3804D01*
X16674Y3803D01*
X16672Y3801D01*
X16669Y3799D01*
X16640Y3765D01*
X16613Y3738D01*
X16585Y3715D01*
X16557Y3695D01*
X16532Y3680D01*
X16525Y3682D01*
X16482Y3712D01*
Y3789D01*
X16471Y3844D01*
X16440Y3891D01*
X16371Y3960D01*
X16325Y3991D01*
X16270Y4002D01*
X12520D01*
X12465Y3991D01*
X12418Y3960D01*
X12320Y3861D01*
X12289Y3815D01*
X12278Y3760D01*
Y2789D01*
X10535D01*
Y2885D01*
Y4305D01*
Y4305D01*
X10535Y4308D01*
X10535Y4310D01*
X10533Y4352D01*
X10532Y4353D01*
X10532Y4354D01*
X10531Y4358D01*
X10531Y4358D01*
X10531Y4359D01*
X10531Y4364D01*
X10531Y4365D01*
X10531Y4365D01*
Y4365D01*
X10531Y4365D01*
X10530Y4366D01*
X10530Y4370D01*
X10527Y4377D01*
X10527Y4379D01*
X10526Y4380D01*
X10526Y4382D01*
X10526Y4382D01*
X10526Y4382D01*
X10526Y4382D01*
X10526Y4382D01*
X10526Y4382D01*
X10526Y4382D01*
X10526Y4383D01*
X10526Y4383D01*
X10525Y4383D01*
X10525Y4383D01*
X10525Y4383D01*
X10525Y4383D01*
X10525Y4383D01*
X10525Y4383D01*
X10525Y4384D01*
X10524Y4384D01*
X10522Y4393D01*
X10520Y4397D01*
X10517Y4401D01*
X10516Y4404D01*
X10514Y4406D01*
X10511Y4412D01*
X10511Y4413D01*
X10506Y4417D01*
X10506Y4417D01*
X10505Y4418D01*
X10505Y4419D01*
X10504Y4419D01*
X10504Y4420D01*
X10501Y4422D01*
X10498Y4426D01*
X10495Y4430D01*
X10494Y4431D01*
X10494Y4431D01*
Y4431D01*
X10494Y4431D01*
X10492Y4433D01*
X10491Y4434D01*
X10490Y4434D01*
X10490Y4434D01*
X10490Y4434D01*
X10490Y4434D01*
X10469Y4453D01*
X10464Y4456D01*
X10459Y4461D01*
X10458Y4462D01*
X10458Y4462D01*
X10454Y4463D01*
X10451Y4466D01*
X10450Y4466D01*
X10446Y4468D01*
X10443Y4470D01*
X10440Y4470D01*
X10438Y4471D01*
X10432Y4472D01*
X10424Y4476D01*
X10366Y4487D01*
X10366Y4487D01*
X10365Y4487D01*
X10365D01*
X10365Y4487D01*
X10365Y4487D01*
X10365Y4487D01*
X10365Y4487D01*
X10364Y4488D01*
X10364Y4488D01*
X10362Y4489D01*
X10362Y4489D01*
X10362Y4489D01*
X10360Y4490D01*
X10359Y4490D01*
X10359Y4490D01*
X10359Y4490D01*
X10357Y4491D01*
X10357Y4491D01*
X10357D01*
X10351Y4494D01*
X10351Y4494D01*
X10350Y4495D01*
X10350Y4495D01*
X10345Y4498D01*
X10345Y4498D01*
X10345Y4498D01*
X10345Y4498D01*
X10345Y4498D01*
X10345Y4498D01*
X10328Y4509D01*
X10328Y4509D01*
X10328Y4509D01*
X10328Y4509D01*
X10328Y4509D01*
X10328Y4509D01*
X10328Y4509D01*
X10327Y4510D01*
X10327Y4510D01*
X10327Y4510D01*
X10327Y4510D01*
X10326Y4510D01*
X10321Y4514D01*
X10316Y4519D01*
X10316Y4519D01*
X10315Y4520D01*
X10315Y4520D01*
X10314Y4520D01*
X10314Y4520D01*
X10314Y4520D01*
X10314Y4521D01*
X10313Y4521D01*
X10311Y4523D01*
X10310Y4525D01*
X10309Y4525D01*
X10309Y4526D01*
X10309Y4526D01*
X10307Y4528D01*
X10306Y4530D01*
X10306Y4530D01*
X10306Y4530D01*
X10303Y4534D01*
X10303Y4534D01*
X10289Y4555D01*
X10289Y4555D01*
X10289Y4555D01*
X10287Y4557D01*
X10287Y4557D01*
X10286Y4560D01*
X10285Y4561D01*
X10285Y4564D01*
X10283Y4567D01*
X10282Y4568D01*
X10282Y4568D01*
X10281Y4572D01*
X10275Y4601D01*
X10275Y4601D01*
Y4601D01*
Y4601D01*
Y4601D01*
X10273Y4610D01*
Y4619D01*
Y4628D01*
X10275Y4637D01*
Y4637D01*
X10280Y4661D01*
Y4661D01*
X10280Y4661D01*
X10280Y4664D01*
Y4664D01*
X10280Y4664D01*
X10282Y4667D01*
X10282Y4667D01*
X10282Y4667D01*
Y4667D01*
X10282Y4667D01*
X10282Y4669D01*
X10283Y4670D01*
X10283Y4670D01*
X10283Y4673D01*
X10284Y4675D01*
X10284Y4675D01*
X10286Y4679D01*
X10286Y4679D01*
X10286Y4679D01*
X10302Y4703D01*
X10302Y4703D01*
X10302Y4703D01*
X10303Y4704D01*
X10303Y4704D01*
X10303Y4704D01*
X10308Y4711D01*
X10308Y4711D01*
X10313Y4716D01*
X10313Y4716D01*
X10313Y4717D01*
X10314Y4717D01*
X10314Y4717D01*
X10314Y4717D01*
X10314Y4717D01*
X10314Y4717D01*
X10314Y4717D01*
X10314Y4717D01*
X10314Y4717D01*
X10314Y4717D01*
X10314Y4717D01*
X10314Y4717D01*
X10314Y4717D01*
X10314Y4718D01*
X10314Y4718D01*
X10314Y4718D01*
X10314Y4718D01*
X10320Y4724D01*
X10320Y4724D01*
X10320Y4724D01*
X10320Y4724D01*
X10352Y4745D01*
X10360Y4749D01*
X10360Y4749D01*
X10360D01*
X10362Y4749D01*
X10362D01*
X10364Y4750D01*
X10367Y4751D01*
X10371Y4752D01*
X10372Y4752D01*
X10424Y4762D01*
X10429Y4764D01*
X10430D01*
X10431Y4765D01*
X10434Y4765D01*
X10439Y4766D01*
X10440Y4767D01*
X10441Y4767D01*
X10441Y4767D01*
X10444Y4769D01*
X10447Y4769D01*
X10448Y4770D01*
X10449Y4770D01*
X10449Y4770D01*
X10454Y4774D01*
X10456Y4774D01*
X10457Y4775D01*
X10457Y4775D01*
X10457Y4775D01*
X10459Y4776D01*
X10463Y4778D01*
X10467Y4780D01*
X10469Y4783D01*
X10470Y4783D01*
X10472Y4784D01*
X10472Y4784D01*
X10472Y4784D01*
X10472Y4784D01*
X10473Y4785D01*
X10473Y4785D01*
X10473Y4785D01*
X10473Y4785D01*
X10473Y4785D01*
X10473Y4785D01*
X10474Y4785D01*
X10474Y4786D01*
X10474Y4786D01*
X10474Y4786D01*
X10475Y4786D01*
X10475Y4786D01*
X10476Y4787D01*
X10478Y4789D01*
X10497Y4804D01*
X10499Y4807D01*
X10501Y4808D01*
X10501Y4808D01*
X10503Y4810D01*
X10504Y4810D01*
X10504Y4810D01*
X10504Y4810D01*
X10504Y4810D01*
X10504Y4810D01*
X10504Y4810D01*
X10504Y4811D01*
X10505Y4811D01*
X10505Y4812D01*
X10505Y4812D01*
X10505Y4812D01*
X10506Y4813D01*
X10508Y4815D01*
X10510Y4819D01*
X10514Y4822D01*
X10514Y4822D01*
X10514Y4823D01*
X10514Y4823D01*
X10514Y4823D01*
X10515Y4824D01*
X10515Y4824D01*
X10515Y4825D01*
X10516Y4825D01*
X10516Y4825D01*
X10517Y4826D01*
X10517Y4827D01*
X10518Y4828D01*
X10520Y4832D01*
X10522Y4835D01*
X10523Y4837D01*
X10524Y4838D01*
X10524Y4840D01*
X10526Y4842D01*
X10526Y4843D01*
X10527Y4849D01*
X10528Y4850D01*
X10529Y4853D01*
X10530Y4854D01*
X10530Y4855D01*
X10531Y4857D01*
X10531Y4858D01*
X10531Y4859D01*
X10532Y4861D01*
X10532Y4865D01*
X10534Y4869D01*
X10534Y4872D01*
X10534Y4873D01*
X10534Y4873D01*
X10534Y4873D01*
X10534Y4874D01*
X10534Y4874D01*
Y4874D01*
X10535Y4876D01*
X10535Y4876D01*
X10534Y4881D01*
X10535Y4885D01*
Y5066D01*
X10535Y5066D01*
Y5067D01*
X10535Y5067D01*
Y5067D01*
Y5067D01*
X10534Y5075D01*
X10534Y5084D01*
X10534Y5084D01*
X10533Y5084D01*
Y5084D01*
X10533Y5084D01*
X10533Y5085D01*
X10533Y5085D01*
X10533Y5085D01*
X10532Y5087D01*
X10532Y5090D01*
X10529Y5096D01*
X10528Y5102D01*
X10523Y5110D01*
X10520Y5117D01*
X10520Y5118D01*
X10519Y5118D01*
X10518Y5120D01*
X10517Y5122D01*
X10490Y5158D01*
X10482Y5165D01*
X10475Y5174D01*
X10468Y5177D01*
X10463Y5182D01*
X10454Y5185D01*
X10453Y5186D01*
X10451Y5187D01*
X10443Y5191D01*
X10436Y5193D01*
X10431Y5193D01*
X10429Y5194D01*
X10429Y5194D01*
X10428Y5194D01*
X10425Y5195D01*
X10419Y5196D01*
X10416Y5197D01*
X10415Y5197D01*
X10415Y5197D01*
X10413Y5197D01*
X10412Y5197D01*
X10412Y5197D01*
X10412Y5197D01*
X10410Y5198D01*
X10409Y5198D01*
X10408Y5198D01*
X10406Y5198D01*
X10402Y5198D01*
X10400Y5198D01*
X10400Y5198D01*
X10398Y5198D01*
X10397Y5198D01*
X10397Y5198D01*
X10395Y5198D01*
X10392Y5199D01*
X10392Y5199D01*
X10392Y5199D01*
X10390Y5199D01*
X10390Y5199D01*
X10388Y5199D01*
X10384Y5199D01*
X10382Y5198D01*
X10380Y5198D01*
X10380Y5198D01*
X10379Y5198D01*
X10379Y5198D01*
X10379Y5198D01*
X10378Y5198D01*
X10378Y5198D01*
X10378Y5198D01*
X10377Y5198D01*
X10377Y5198D01*
X10377Y5198D01*
X10375Y5198D01*
X10373Y5198D01*
X10369Y5197D01*
X10367Y5196D01*
X10365Y5196D01*
X10365Y5196D01*
X10364Y5196D01*
X10364Y5196D01*
X10364Y5196D01*
X10363Y5195D01*
X10362Y5195D01*
X10359Y5195D01*
X10358Y5195D01*
X10355Y5193D01*
X10352Y5193D01*
X10346Y5191D01*
X10340Y5187D01*
X10333Y5184D01*
X10309Y5171D01*
X10306Y5169D01*
X10303Y5168D01*
X10294Y5162D01*
X10291Y5159D01*
X10288Y5157D01*
X10288Y5157D01*
X10288Y5157D01*
X10287Y5157D01*
X10287Y5157D01*
X10284Y5153D01*
X10280Y5150D01*
X10280Y5150D01*
X10280Y5150D01*
X10280Y5150D01*
X10278Y5147D01*
X10277Y5147D01*
X10277Y5147D01*
X10277Y5146D01*
X10276Y5146D01*
X10276Y5145D01*
X10275Y5145D01*
X10275Y5145D01*
X10274Y5143D01*
X10273Y5142D01*
X10270Y5139D01*
X10270Y5139D01*
X10269Y5138D01*
X10269Y5138D01*
X10268Y5135D01*
X10266Y5133D01*
X10266Y5133D01*
X10266Y5133D01*
X10266Y5133D01*
X10266Y5133D01*
X10265Y5133D01*
X10262Y5128D01*
X10261Y5124D01*
X10260Y5123D01*
X10259Y5120D01*
X10259Y5120D01*
X10259Y5120D01*
X10257Y5118D01*
X10257Y5117D01*
X10254Y5112D01*
X10254Y5112D01*
X10242Y5095D01*
X10242Y5095D01*
X10242Y5095D01*
X10242Y5094D01*
X10242Y5094D01*
X10242Y5094D01*
X10241Y5094D01*
X10241Y5094D01*
X10241Y5093D01*
X10241Y5093D01*
X10236Y5086D01*
X10231Y5081D01*
X10231Y5081D01*
X10231Y5081D01*
X10231Y5081D01*
X10231Y5081D01*
X10230Y5080D01*
X10230Y5080D01*
X10230Y5080D01*
X10230Y5080D01*
X10230Y5080D01*
X10224Y5074D01*
X10196Y5056D01*
X10196Y5056D01*
X10196Y5056D01*
X10194Y5054D01*
X10194Y5054D01*
X10191Y5053D01*
X10190Y5052D01*
X10188Y5051D01*
X10185Y5050D01*
X10185Y5050D01*
X10184Y5049D01*
X10183Y5049D01*
X10183Y5048D01*
X10179Y5047D01*
X10150Y5042D01*
X10150Y5042D01*
X10150D01*
X10141Y5040D01*
X10123D01*
X10114Y5042D01*
X10114D01*
X10090Y5046D01*
X10090D01*
X10090Y5046D01*
X10087Y5047D01*
X10087D01*
X10087Y5047D01*
X10084Y5048D01*
X10084Y5048D01*
X10084Y5048D01*
X10084D01*
X10084Y5048D01*
X10082Y5049D01*
X10081Y5049D01*
X10081Y5049D01*
X10078Y5050D01*
X10076Y5051D01*
X10076Y5051D01*
X10072Y5053D01*
X10072Y5053D01*
X10072Y5053D01*
X10048Y5069D01*
X10048Y5069D01*
X10048Y5069D01*
X10048Y5069D01*
X10047Y5070D01*
X10047Y5070D01*
X10040Y5074D01*
X10040Y5074D01*
X10035Y5080D01*
X10035Y5080D01*
X10034Y5080D01*
X10034Y5080D01*
X10034Y5080D01*
X10034Y5080D01*
X10034Y5080D01*
X10034Y5080D01*
X10034Y5080D01*
X10034Y5080D01*
X10034Y5080D01*
X10034Y5080D01*
X10034Y5080D01*
X10034Y5080D01*
X10034Y5081D01*
X10034Y5081D01*
X10034Y5081D01*
X10033Y5081D01*
X10033Y5081D01*
X10028Y5087D01*
X10028Y5087D01*
X10028Y5087D01*
X10005Y5121D01*
X10003Y5124D01*
X10003Y5125D01*
X10002Y5127D01*
X10001Y5132D01*
X10001Y5134D01*
X10000Y5134D01*
X10000Y5134D01*
X9999Y5136D01*
X9999Y5136D01*
X9999Y5136D01*
X9999Y5136D01*
X9997Y5142D01*
X9994Y5145D01*
X9993Y5148D01*
X9992Y5149D01*
X9992Y5149D01*
X9992Y5150D01*
X9992Y5150D01*
X9991Y5151D01*
X9991Y5151D01*
X9991Y5151D01*
X9991Y5151D01*
X9991Y5151D01*
X9991Y5151D01*
X9991Y5151D01*
X9990Y5152D01*
X9990Y5152D01*
X9989Y5154D01*
X9985Y5162D01*
X9981Y5166D01*
X9981Y5167D01*
X9977Y5170D01*
X9977Y5171D01*
X9976Y5172D01*
X9973Y5176D01*
X9968Y5181D01*
X9961Y5186D01*
X9955Y5191D01*
X9952Y5194D01*
X9943Y5197D01*
X9935Y5203D01*
X9934Y5203D01*
X9934Y5203D01*
X9934Y5203D01*
X9926Y5205D01*
X9919Y5208D01*
X9911Y5208D01*
X9910Y5209D01*
X9909Y5209D01*
X9907D01*
X9899Y5210D01*
X9899Y5210D01*
X9899Y5210D01*
X9892D01*
X9891Y5210D01*
X9813D01*
X9813Y5210D01*
X9813Y5210D01*
X9804Y5210D01*
X9801Y5210D01*
X9798Y5210D01*
X9794Y5209D01*
X9789Y5209D01*
X9789Y5209D01*
X9788Y5209D01*
X9787Y5209D01*
X9787Y5209D01*
X9786Y5209D01*
X9786Y5208D01*
X9785Y5208D01*
X9780Y5206D01*
X9775Y5206D01*
X9773Y5204D01*
X9769Y5204D01*
X9769Y5204D01*
X9769Y5203D01*
X9769Y5203D01*
X9769Y5203D01*
X9769Y5203D01*
X9769Y5203D01*
X9769Y5203D01*
X9766Y5201D01*
X9763Y5201D01*
X9763Y5200D01*
X9759Y5198D01*
X9755Y5196D01*
X9755Y5196D01*
X9754Y5195D01*
X9754Y5195D01*
X9753Y5195D01*
X9753Y5195D01*
X9753Y5195D01*
X9753Y5195D01*
X9753Y5195D01*
X9753Y5194D01*
X9752Y5194D01*
X9752Y5194D01*
X9748Y5190D01*
X9744Y5188D01*
X9742Y5185D01*
X9739Y5184D01*
X9739Y5183D01*
X9739Y5183D01*
X9739Y5183D01*
X9739Y5183D01*
X9739Y5183D01*
X9734Y5178D01*
X9731Y5174D01*
X9731Y5174D01*
X9731Y5174D01*
X9730Y5173D01*
X9730Y5173D01*
X9730Y5173D01*
X9730Y5173D01*
X9730Y5173D01*
X9730Y5173D01*
X9730Y5173D01*
X9729Y5172D01*
X9729Y5171D01*
X9729Y5171D01*
X9728Y5170D01*
X9728Y5170D01*
X9728Y5170D01*
X9727Y5169D01*
X9727Y5169D01*
X9722Y5164D01*
X9721Y5162D01*
X9721Y5162D01*
X9721Y5162D01*
X9719Y5160D01*
X9719Y5159D01*
X9719Y5159D01*
X9717Y5156D01*
X9717Y5156D01*
X9717Y5156D01*
X9716Y5155D01*
X9713Y5147D01*
X9711Y5145D01*
X9710Y5144D01*
X9710Y5144D01*
X9710Y5143D01*
X9709Y5142D01*
X9707Y5138D01*
X9706Y5136D01*
Y5136D01*
X9704Y5131D01*
X9702Y5127D01*
X9702Y5127D01*
X9702Y5127D01*
X9702Y5127D01*
X9702Y5127D01*
X9702Y5127D01*
X9702Y5127D01*
X9701Y5122D01*
X9698Y5118D01*
X9697Y5117D01*
X9697Y5117D01*
X9697Y5117D01*
X9697Y5117D01*
Y5117D01*
X9697Y5117D01*
X9682Y5095D01*
X9682Y5095D01*
X9682Y5095D01*
X9682Y5094D01*
X9682Y5094D01*
X9682Y5094D01*
X9681Y5094D01*
X9681Y5094D01*
X9681Y5093D01*
X9681Y5093D01*
X9676Y5086D01*
X9671Y5081D01*
X9671Y5081D01*
X9671Y5081D01*
X9671Y5081D01*
X9671Y5081D01*
X9670Y5080D01*
X9670Y5080D01*
X9670Y5080D01*
X9670Y5080D01*
X9670Y5080D01*
X9664Y5074D01*
X9636Y5056D01*
X9636Y5056D01*
X9636Y5056D01*
X9634Y5054D01*
X9634Y5054D01*
X9631Y5053D01*
X9630Y5052D01*
X9628Y5051D01*
X9625Y5050D01*
X9625Y5050D01*
X9624Y5049D01*
X9623Y5049D01*
X9623Y5048D01*
X9619Y5047D01*
X9590Y5042D01*
X9590Y5042D01*
X9590D01*
X9581Y5040D01*
X9563D01*
X9554Y5042D01*
X9554D01*
X9530Y5046D01*
X9530D01*
X9530Y5046D01*
X9527Y5047D01*
X9527D01*
X9527Y5047D01*
X9524Y5048D01*
X9524Y5048D01*
X9524Y5048D01*
X9524D01*
X9524Y5048D01*
X9522Y5049D01*
X9521Y5049D01*
X9521Y5049D01*
X9518Y5050D01*
X9516Y5051D01*
X9516Y5051D01*
X9512Y5053D01*
X9512Y5053D01*
X9512Y5053D01*
X9488Y5069D01*
X9488Y5069D01*
X9488Y5069D01*
X9488Y5069D01*
X9487Y5070D01*
X9487Y5070D01*
X9480Y5074D01*
X9480Y5074D01*
X9475Y5080D01*
X9475Y5080D01*
X9474Y5080D01*
X9474Y5080D01*
X9474Y5080D01*
X9474Y5080D01*
X9474Y5080D01*
X9474Y5080D01*
X9474Y5080D01*
X9474Y5080D01*
X9474Y5080D01*
X9474Y5080D01*
X9474Y5080D01*
X9474Y5080D01*
X9474Y5081D01*
X9474Y5081D01*
X9474Y5081D01*
X9473Y5081D01*
X9473Y5081D01*
X9468Y5087D01*
X9468Y5087D01*
X9468Y5087D01*
X9445Y5121D01*
X9443Y5124D01*
X9443Y5125D01*
X9442Y5127D01*
X9441Y5132D01*
X9441Y5134D01*
X9440Y5134D01*
X9440Y5134D01*
X9439Y5136D01*
X9439Y5136D01*
X9439Y5136D01*
X9439Y5136D01*
X9437Y5142D01*
X9434Y5145D01*
X9433Y5148D01*
X9432Y5149D01*
X9432Y5149D01*
X9432Y5150D01*
X9432Y5150D01*
X9431Y5151D01*
X9431Y5151D01*
X9431Y5151D01*
X9431Y5151D01*
X9431Y5151D01*
X9431Y5151D01*
X9431Y5151D01*
X9430Y5152D01*
X9430Y5152D01*
X9429Y5154D01*
X9425Y5162D01*
X9421Y5166D01*
X9421Y5167D01*
X9417Y5170D01*
X9417Y5171D01*
X9416Y5172D01*
X9413Y5176D01*
X9408Y5181D01*
X9401Y5186D01*
X9395Y5191D01*
X9392Y5194D01*
X9383Y5197D01*
X9375Y5203D01*
X9374Y5203D01*
X9374Y5203D01*
X9374Y5203D01*
X9366Y5205D01*
X9359Y5208D01*
X9351Y5208D01*
X9350Y5209D01*
X9349Y5209D01*
X9347D01*
X9339Y5210D01*
X9339Y5210D01*
X9339Y5210D01*
X9332D01*
X9331Y5210D01*
X9253D01*
X9253Y5210D01*
X9253Y5210D01*
X9244Y5210D01*
X9241Y5210D01*
X9238Y5210D01*
X9234Y5209D01*
X9229Y5209D01*
X9229Y5209D01*
X9228Y5209D01*
X9227Y5209D01*
X9227Y5209D01*
X9226Y5209D01*
X9226Y5208D01*
X9225Y5208D01*
X9220Y5206D01*
X9215Y5206D01*
X9213Y5204D01*
X9209Y5204D01*
X9209Y5204D01*
X9209Y5203D01*
X9209Y5203D01*
X9209Y5203D01*
X9209Y5203D01*
X9209Y5203D01*
X9209Y5203D01*
X9206Y5201D01*
X9203Y5201D01*
X9203Y5200D01*
X9199Y5198D01*
X9195Y5196D01*
X9195Y5196D01*
X9194Y5195D01*
X9194Y5195D01*
X9193Y5195D01*
X9193Y5195D01*
X9193Y5195D01*
X9193Y5195D01*
X9193Y5195D01*
X9193Y5194D01*
X9192Y5194D01*
X9192Y5194D01*
X9188Y5190D01*
X9184Y5188D01*
X9182Y5185D01*
X9179Y5184D01*
X9179Y5183D01*
X9179Y5183D01*
X9179Y5183D01*
X9179Y5183D01*
X9179Y5183D01*
X9174Y5178D01*
X9171Y5174D01*
X9171Y5174D01*
X9171Y5174D01*
X9170Y5173D01*
X9170Y5173D01*
X9170Y5173D01*
X9170Y5173D01*
X9170Y5173D01*
X9170Y5173D01*
X9170Y5173D01*
X9169Y5172D01*
X9169Y5171D01*
X9169Y5171D01*
X9168Y5170D01*
X9168Y5170D01*
X9168Y5170D01*
X9167Y5169D01*
X9167Y5169D01*
X9162Y5164D01*
X9161Y5162D01*
X9161Y5162D01*
X9161Y5162D01*
X9159Y5160D01*
X9159Y5159D01*
X9159Y5159D01*
X9157Y5156D01*
X9157Y5156D01*
X9157Y5156D01*
X9156Y5155D01*
X9153Y5147D01*
X9151Y5145D01*
X9150Y5144D01*
X9150Y5144D01*
X9150Y5143D01*
X9149Y5142D01*
X9147Y5138D01*
X9146Y5136D01*
Y5136D01*
X9144Y5131D01*
X9142Y5127D01*
X9142Y5127D01*
X9142Y5127D01*
X9142Y5127D01*
X9142Y5127D01*
X9142Y5127D01*
X9142Y5127D01*
X9141Y5122D01*
X9138Y5118D01*
X9137Y5117D01*
X9137Y5117D01*
X9137Y5117D01*
X9137Y5117D01*
Y5117D01*
X9137Y5117D01*
X9122Y5095D01*
X9122Y5095D01*
X9122Y5095D01*
X9122Y5094D01*
X9122Y5094D01*
X9122Y5094D01*
X9121Y5094D01*
X9121Y5094D01*
X9121Y5093D01*
X9121Y5093D01*
X9116Y5086D01*
X9111Y5081D01*
X9111Y5081D01*
X9111Y5081D01*
X9111Y5081D01*
X9111Y5081D01*
X9110Y5080D01*
X9110Y5080D01*
X9110Y5080D01*
X9110Y5080D01*
X9110Y5080D01*
X9104Y5074D01*
X9076Y5056D01*
X9076Y5056D01*
X9076Y5056D01*
X9074Y5054D01*
X9074Y5054D01*
X9071Y5053D01*
X9070Y5052D01*
X9068Y5051D01*
X9065Y5050D01*
X9065Y5050D01*
X9064Y5049D01*
X9063Y5049D01*
X9063Y5048D01*
X9059Y5047D01*
X9030Y5042D01*
X9030Y5042D01*
X9030D01*
X9021Y5040D01*
X9003D01*
X8994Y5042D01*
X8994D01*
X8970Y5046D01*
X8970D01*
X8970Y5046D01*
X8967Y5047D01*
X8967D01*
X8967Y5047D01*
X8964Y5048D01*
X8964Y5048D01*
X8964Y5048D01*
X8964D01*
X8964Y5048D01*
X8962Y5049D01*
X8961Y5049D01*
X8961Y5049D01*
X8958Y5050D01*
X8956Y5051D01*
X8956Y5051D01*
X8952Y5053D01*
X8952Y5053D01*
X8952Y5053D01*
X8928Y5069D01*
X8928Y5069D01*
X8928Y5069D01*
X8928Y5069D01*
X8927Y5070D01*
X8927Y5070D01*
X8920Y5074D01*
X8920Y5074D01*
X8915Y5080D01*
X8915Y5080D01*
X8914Y5080D01*
X8914Y5080D01*
X8914Y5080D01*
X8914Y5080D01*
X8914Y5080D01*
X8914Y5080D01*
X8914Y5080D01*
X8914Y5080D01*
X8914Y5080D01*
X8914Y5080D01*
X8914Y5080D01*
X8914Y5080D01*
X8914Y5081D01*
X8914Y5081D01*
X8914Y5081D01*
X8913Y5081D01*
X8913Y5081D01*
X8908Y5087D01*
X8908Y5087D01*
X8908Y5087D01*
X8885Y5121D01*
X8883Y5124D01*
X8883Y5125D01*
X8882Y5127D01*
X8881Y5132D01*
X8881Y5134D01*
X8880Y5134D01*
X8880Y5134D01*
X8879Y5136D01*
X8879Y5136D01*
X8879Y5136D01*
X8879Y5136D01*
X8877Y5142D01*
X8874Y5145D01*
X8873Y5148D01*
X8872Y5149D01*
X8872Y5149D01*
X8872Y5150D01*
X8872Y5150D01*
X8871Y5151D01*
X8871Y5151D01*
X8871Y5151D01*
X8871Y5151D01*
X8871Y5151D01*
X8871Y5151D01*
X8871Y5151D01*
X8870Y5152D01*
X8870Y5152D01*
X8869Y5154D01*
X8865Y5162D01*
X8861Y5166D01*
X8861Y5167D01*
X8857Y5170D01*
X8857Y5171D01*
X8856Y5172D01*
X8853Y5176D01*
X8848Y5181D01*
X8841Y5186D01*
X8835Y5191D01*
X8832Y5194D01*
X8823Y5197D01*
X8815Y5203D01*
X8814Y5203D01*
X8814Y5203D01*
X8814Y5203D01*
X8806Y5205D01*
X8799Y5208D01*
X8791Y5208D01*
X8790Y5209D01*
X8789Y5209D01*
X8787D01*
X8779Y5210D01*
X8779Y5210D01*
X8779Y5210D01*
X8772D01*
X8771Y5210D01*
X8693D01*
X8693Y5210D01*
X8693Y5210D01*
X8684Y5210D01*
X8681Y5210D01*
X8678Y5210D01*
X8674Y5209D01*
X8669Y5209D01*
X8669Y5209D01*
X8668Y5209D01*
X8667Y5209D01*
X8667Y5209D01*
X8666Y5209D01*
X8666Y5208D01*
X8665Y5208D01*
X8660Y5206D01*
X8655Y5206D01*
X8653Y5204D01*
X8649Y5204D01*
X8649Y5204D01*
X8649Y5203D01*
X8649Y5203D01*
X8649Y5203D01*
X8649Y5203D01*
X8649Y5203D01*
X8649Y5203D01*
X8646Y5201D01*
X8643Y5201D01*
X8643Y5200D01*
X8639Y5198D01*
X8635Y5196D01*
X8635Y5196D01*
X8634Y5195D01*
X8634Y5195D01*
X8633Y5195D01*
X8633Y5195D01*
X8633Y5195D01*
X8633Y5195D01*
X8633Y5195D01*
X8633Y5194D01*
X8632Y5194D01*
X8632Y5194D01*
X8628Y5190D01*
X8624Y5188D01*
X8622Y5185D01*
X8619Y5184D01*
X8619Y5183D01*
X8619Y5183D01*
X8619Y5183D01*
X8619Y5183D01*
X8619Y5183D01*
X8614Y5178D01*
X8611Y5174D01*
X8611Y5174D01*
X8611Y5174D01*
X8610Y5173D01*
X8610Y5173D01*
X8610Y5173D01*
X8610Y5173D01*
X8610Y5173D01*
X8610Y5173D01*
X8610Y5173D01*
X8609Y5172D01*
X8609Y5171D01*
X8609Y5171D01*
X8608Y5170D01*
X8608Y5170D01*
X8608Y5170D01*
X8607Y5169D01*
X8607Y5169D01*
X8602Y5164D01*
X8601Y5162D01*
X8601Y5162D01*
X8601Y5162D01*
X8599Y5160D01*
X8599Y5159D01*
X8599Y5159D01*
X8597Y5156D01*
X8597Y5156D01*
X8597Y5156D01*
X8596Y5155D01*
X8593Y5147D01*
X8591Y5145D01*
X8590Y5144D01*
X8590Y5144D01*
X8590Y5143D01*
X8589Y5142D01*
X8587Y5138D01*
X8586Y5136D01*
Y5136D01*
X8584Y5131D01*
X8582Y5127D01*
X8582Y5127D01*
X8582Y5127D01*
X8582Y5127D01*
X8582Y5127D01*
X8582Y5127D01*
X8582Y5127D01*
X8581Y5122D01*
X8578Y5118D01*
X8577Y5117D01*
X8577Y5117D01*
X8577Y5117D01*
X8577Y5117D01*
Y5117D01*
X8577Y5117D01*
X8562Y5095D01*
X8562Y5095D01*
X8562Y5095D01*
X8562Y5094D01*
X8562Y5094D01*
X8562Y5094D01*
X8561Y5094D01*
X8561Y5094D01*
X8561Y5093D01*
X8561Y5093D01*
X8556Y5086D01*
X8551Y5081D01*
X8551Y5081D01*
X8550Y5080D01*
X8550Y5080D01*
X8550Y5080D01*
X8550Y5080D01*
X8550Y5080D01*
X8544Y5074D01*
X8520Y5058D01*
X8519Y5058D01*
X8514Y5054D01*
X8512Y5053D01*
X8511Y5052D01*
X8510Y5052D01*
X8509Y5052D01*
X8507Y5051D01*
X8506Y5050D01*
X8506Y5050D01*
X8506Y5050D01*
X8506Y5050D01*
X8506Y5050D01*
X8506Y5050D01*
X8506Y5050D01*
X8506Y5050D01*
X8504Y5049D01*
X8504Y5049D01*
X8504Y5049D01*
X8504Y5049D01*
X8503Y5049D01*
X8503Y5049D01*
X8503Y5049D01*
X8503Y5049D01*
X8502Y5049D01*
X8499Y5047D01*
X8499Y5047D01*
X8456Y5039D01*
X8443Y5033D01*
X8430Y5030D01*
X8427Y5027D01*
X8422Y5025D01*
X8413Y5015D01*
X8402Y5007D01*
X8393Y4996D01*
X8391Y4992D01*
X8388Y4989D01*
X8384Y4980D01*
X8379Y4972D01*
X8378Y4968D01*
X8376Y4964D01*
X8376Y4960D01*
X8374Y4955D01*
X8374Y4955D01*
X8374Y4946D01*
X8372Y4937D01*
Y4726D01*
X8101D01*
Y4272D01*
Y3817D01*
X8372D01*
Y3727D01*
X8358Y3683D01*
X7744D01*
Y3628D01*
X5950D01*
Y3850D01*
X5986Y3886D01*
X6563D01*
X6567Y3886D01*
X6613Y3876D01*
X6613D01*
X6613Y3876D01*
X6919D01*
Y4272D01*
Y4667D01*
X6613D01*
X6613Y4667D01*
X6613D01*
X6567Y4657D01*
X6563Y4657D01*
X5874D01*
Y4457D01*
X5869Y4455D01*
X5819Y4486D01*
Y6081D01*
X16884D01*
Y5154D01*
X16884Y5141D01*
X16879Y5111D01*
X16870Y5080D01*
X16859Y5048D01*
X16843Y5015D01*
X16823Y4980D01*
X16799Y4945D01*
X16771Y4908D01*
X16738Y4871D01*
X16709Y4841D01*
X16696Y4831D01*
X16622Y4734D01*
X16575Y4621D01*
X16559Y4500D01*
X16575Y4379D01*
X16622Y4266D01*
X16696Y4169D01*
X16793Y4094D01*
X16906Y4047D01*
X17028Y4031D01*
X17149Y4047D01*
X17262Y4094D01*
X17359Y4169D01*
X17433Y4266D01*
X17480Y4379D01*
X17496Y4500D01*
X17480Y4621D01*
X17433Y4734D01*
X17359Y4831D01*
X17346Y4841D01*
X17317Y4871D01*
X17284Y4908D01*
X17256Y4945D01*
X17232Y4980D01*
X17212Y5015D01*
X17197Y5048D01*
X17185Y5080D01*
X17176Y5111D01*
X17172Y5141D01*
X17171Y5154D01*
Y6081D01*
X17900D01*
Y-5927D01*
D02*
G37*
G36*
X-22597Y-3778D02*
X-22556Y-3814D01*
X-22515Y-3846D01*
X-22474Y-3874D01*
X-22434Y-3897D01*
X-22394Y-3916D01*
X-22354Y-3931D01*
X-22314Y-3942D01*
X-22275Y-3948D01*
X-22236Y-3950D01*
Y-4050D01*
X-22275Y-4052D01*
X-22314Y-4058D01*
X-22354Y-4069D01*
X-22394Y-4084D01*
X-22434Y-4103D01*
X-22474Y-4126D01*
X-22515Y-4154D01*
X-22556Y-4186D01*
X-22597Y-4222D01*
X-22638Y-4262D01*
Y-3738D01*
X-22597Y-3778D01*
D02*
G37*
G36*
X-23531Y-4061D02*
X-23527Y-4116D01*
X-23521Y-4167D01*
X-23511Y-4216D01*
X-23499Y-4261D01*
X-23484Y-4303D01*
X-23467Y-4341D01*
X-23446Y-4377D01*
X-23423Y-4409D01*
X-23396Y-4438D01*
X-23467Y-4509D01*
X-23496Y-4483D01*
X-23529Y-4459D01*
X-23564Y-4439D01*
X-23603Y-4421D01*
X-23645Y-4406D01*
X-23690Y-4394D01*
X-23738Y-4385D01*
X-23789Y-4378D01*
X-23844Y-4375D01*
X-23902Y-4374D01*
X-23532Y-4004D01*
X-23531Y-4061D01*
D02*
G37*
G36*
X16739Y3262D02*
X16707Y3298D01*
X16675Y3330D01*
X16642Y3358D01*
X16608Y3382D01*
X16572Y3403D01*
X16536Y3420D01*
X16499Y3433D01*
X16461Y3442D01*
X16422Y3448D01*
X16382Y3450D01*
Y3550D01*
X16422Y3552D01*
X16461Y3558D01*
X16499Y3567D01*
X16536Y3580D01*
X16572Y3597D01*
X16608Y3618D01*
X16642Y3642D01*
X16675Y3670D01*
X16707Y3702D01*
X16739Y3738D01*
Y3262D01*
D02*
G37*
G36*
X-23396Y3438D02*
X-23423Y3409D01*
X-23446Y3377D01*
X-23467Y3341D01*
X-23484Y3303D01*
X-23499Y3261D01*
X-23511Y3216D01*
X-23521Y3167D01*
X-23527Y3116D01*
X-23531Y3061D01*
X-23532Y3004D01*
X-23902Y3374D01*
X-23844Y3375D01*
X-23789Y3378D01*
X-23738Y3385D01*
X-23690Y3394D01*
X-23645Y3406D01*
X-23603Y3421D01*
X-23564Y3439D01*
X-23529Y3459D01*
X-23496Y3483D01*
X-23467Y3509D01*
X-23396Y3438D01*
D02*
G37*
G36*
X7744Y3266D02*
X8358D01*
Y3266D01*
X8358D01*
X8407Y3263D01*
X8409Y3262D01*
X8411Y3259D01*
X8414Y3256D01*
X8418Y3254D01*
X8422Y3251D01*
X8426Y3249D01*
X8429Y3246D01*
X8457Y3231D01*
X8461Y3230D01*
X8461Y3230D01*
X8465Y3228D01*
X8470Y3227D01*
X8474Y3224D01*
X8478Y3223D01*
X8481Y3223D01*
X8491Y3219D01*
X8495Y3219D01*
X8500Y3218D01*
X8513Y3219D01*
X8527Y3219D01*
X8531Y3221D01*
X8535Y3221D01*
X8544Y3226D01*
X8547Y3227D01*
X8552Y3228D01*
X8554Y3230D01*
X8556Y3230D01*
X8612Y3241D01*
X8666Y3231D01*
X8666D01*
X8707Y3203D01*
X8707Y3203D01*
X8712Y3200D01*
X8712Y3200D01*
X8712Y3200D01*
X8712Y3200D01*
X8712Y3200D01*
X8712Y3200D01*
X8712Y3200D01*
X8727Y3190D01*
X8730Y3189D01*
X8733Y3186D01*
X8747Y3182D01*
X8760Y3176D01*
X8764D01*
X8767Y3175D01*
X8782Y3176D01*
X8796Y3176D01*
X8812Y3166D01*
X8829Y3150D01*
X9154D01*
Y3050D01*
X8829D01*
X8812Y3035D01*
X8796Y3025D01*
X8782Y3025D01*
X8767Y3026D01*
X8764Y3025D01*
X8760D01*
X8747Y3019D01*
X8733Y3014D01*
X8730Y3012D01*
X8727Y3011D01*
X8712Y3001D01*
X8712Y3001D01*
X8712Y3001D01*
X8712Y3001D01*
X8712Y3001D01*
X8712Y3001D01*
X8712Y3001D01*
X8696Y2990D01*
X8696Y2990D01*
X8666Y2970D01*
X8665Y2970D01*
X8665Y2970D01*
X8665Y2970D01*
X8660Y2968D01*
X8658Y2968D01*
X8655Y2966D01*
X8649Y2965D01*
X8646Y2964D01*
X8646Y2964D01*
X8646Y2964D01*
X8646D01*
X8646Y2964D01*
X8646Y2964D01*
X8640Y2961D01*
X8640Y2961D01*
X8639Y2961D01*
X8632Y2956D01*
X8624Y2953D01*
X8617Y2946D01*
X8610Y2941D01*
X8604Y2934D01*
X8598Y2927D01*
X8595Y2919D01*
X8590Y2911D01*
X8588Y2908D01*
X8588Y2906D01*
X8588Y2906D01*
X8588Y2906D01*
X8587Y2903D01*
X8585Y2898D01*
X8584Y2894D01*
X8584Y2894D01*
X8584Y2894D01*
X8583Y2891D01*
X8583Y2891D01*
X8583Y2891D01*
X8583Y2890D01*
X8583Y2890D01*
X8583Y2890D01*
X8582Y2889D01*
X8582Y2888D01*
X8582Y2888D01*
X8581Y2886D01*
X8581Y2885D01*
X8581Y2885D01*
X8581Y2883D01*
X8578Y2879D01*
X8578Y2879D01*
X8578Y2879D01*
X8562Y2855D01*
X8562Y2855D01*
X8562Y2855D01*
X8562Y2854D01*
X8562Y2854D01*
X8562Y2854D01*
X8557Y2847D01*
X8557Y2847D01*
X8552Y2842D01*
X8552Y2842D01*
X8551Y2841D01*
X8551Y2841D01*
X8551Y2841D01*
X8551Y2841D01*
X8551Y2841D01*
X8551Y2841D01*
X8551Y2841D01*
X8551Y2841D01*
X8551Y2841D01*
X8551Y2841D01*
X8551Y2841D01*
X8551Y2841D01*
X8551Y2840D01*
X8551Y2840D01*
X8549Y2839D01*
X8547Y2838D01*
X8543Y2833D01*
X8537Y2829D01*
X8537Y2829D01*
X8537Y2829D01*
X8537Y2829D01*
X8537D01*
X8537Y2829D01*
X8519Y2818D01*
X8519Y2818D01*
X8514Y2814D01*
X8510Y2812D01*
X8509Y2812D01*
X8508Y2811D01*
X8506Y2810D01*
X8506Y2810D01*
X8506Y2810D01*
X8506Y2810D01*
X8506Y2810D01*
X8504Y2810D01*
X8502Y2808D01*
X8501Y2808D01*
X8499Y2807D01*
X8499Y2807D01*
X8473Y2802D01*
X8473Y2802D01*
X8464Y2800D01*
X8456Y2797D01*
X8456Y2797D01*
X8456Y2797D01*
X8455Y2797D01*
X8446Y2795D01*
X8445Y2794D01*
X8438Y2791D01*
X8432Y2787D01*
X8431Y2787D01*
X8431Y2786D01*
X8430Y2786D01*
X8429Y2785D01*
X8426Y2784D01*
X8423Y2783D01*
X8423Y2783D01*
X8422Y2782D01*
X8420Y2781D01*
X8419Y2780D01*
X8417Y2779D01*
X8416Y2778D01*
X8414Y2777D01*
X8413Y2776D01*
X8408Y2771D01*
X8402Y2772D01*
X8377Y2780D01*
X8358Y2793D01*
Y2935D01*
X7744D01*
Y2880D01*
X7197D01*
Y3004D01*
X6583D01*
Y2429D01*
X7120D01*
Y2368D01*
X7085Y2333D01*
X6587D01*
X6583Y2333D01*
X6537Y2342D01*
X6537D01*
X6537Y2342D01*
X6270D01*
Y2045D01*
Y1748D01*
X6537D01*
X6537Y1748D01*
X6537D01*
X6583Y1758D01*
X6587Y1758D01*
X7197D01*
Y1902D01*
X7213D01*
X7267Y1913D01*
X7314Y1944D01*
X7365Y1995D01*
X7396Y2042D01*
X7407Y2096D01*
Y2593D01*
X7744D01*
Y2518D01*
X8322D01*
X8327D01*
X8354Y2468D01*
X8340Y2441D01*
X8278D01*
Y2045D01*
X8228D01*
Y1995D01*
X7872D01*
Y1650D01*
X7945D01*
X7961Y1606D01*
X7961Y1606D01*
X7961D01*
X7961Y1606D01*
Y1462D01*
X7913D01*
X7859Y1451D01*
X7812Y1420D01*
X7773Y1381D01*
X7742Y1334D01*
X7731Y1280D01*
Y640D01*
X7731Y640D01*
Y98D01*
Y-443D01*
X7742Y-498D01*
X7773Y-544D01*
X7812Y-584D01*
X7859Y-615D01*
X7913Y-626D01*
X7961D01*
Y-770D01*
X8575D01*
Y-195D01*
X8017D01*
Y-6D01*
X9223D01*
X9249Y-56D01*
X9238Y-73D01*
X9227Y-128D01*
Y-195D01*
X8630D01*
Y-770D01*
X9186D01*
X9206Y-820D01*
X9191Y-835D01*
X8634D01*
X8630Y-835D01*
X8584Y-825D01*
X8584D01*
X8584Y-825D01*
X8318D01*
Y-1122D01*
Y-1419D01*
X8584D01*
X8584Y-1419D01*
X8584D01*
X8630Y-1409D01*
X8634Y-1409D01*
X9244D01*
Y-1265D01*
X9311D01*
X9366Y-1254D01*
X9412Y-1223D01*
X9471Y-1164D01*
X9502Y-1118D01*
X9513Y-1063D01*
Y-482D01*
X9513Y-482D01*
Y-202D01*
X9693D01*
Y-432D01*
X10010D01*
Y-482D01*
X10060D01*
Y-779D01*
X10326D01*
X10326Y-779D01*
Y-779D01*
X10326Y-779D01*
Y-779D01*
X10372Y-770D01*
X10372D01*
Y-770D01*
X10372Y-770D01*
X10986D01*
Y-626D01*
X11083D01*
X11138Y-615D01*
X11184Y-584D01*
X11223Y-544D01*
X11254Y-498D01*
X11265Y-443D01*
Y-399D01*
X11484D01*
Y-402D01*
X11837D01*
X11872Y-437D01*
Y-491D01*
X12028D01*
Y-591D01*
X11872D01*
Y-809D01*
X11833Y-835D01*
X11705D01*
X11701Y-835D01*
X11655Y-825D01*
X11655D01*
X11655Y-825D01*
X11389D01*
Y-1122D01*
X11339D01*
Y-1172D01*
X11022D01*
Y-1415D01*
X11022Y-1419D01*
Y-1442D01*
Y-1465D01*
X11022Y-1469D01*
Y-1712D01*
X11339D01*
Y-1762D01*
X11389D01*
Y-2059D01*
X11655D01*
X11655Y-2059D01*
X11655D01*
X11701Y-2049D01*
X11705Y-2049D01*
X12315D01*
Y-1905D01*
X12475D01*
Y-2258D01*
X12315D01*
Y-2114D01*
X11701D01*
Y-2689D01*
X12315D01*
Y-2545D01*
X12475D01*
Y-2898D01*
X12315D01*
Y-2754D01*
X11701D01*
Y-3183D01*
X11696Y-3185D01*
X11646Y-3150D01*
Y-2754D01*
X11031D01*
Y-2898D01*
X10811D01*
X10811Y-2898D01*
X10802D01*
X10802Y-2898D01*
X10801Y-2897D01*
X10798Y-2895D01*
X10797Y-2894D01*
X10797Y-2893D01*
X10794Y-2890D01*
X10794Y-2890D01*
X10793Y-2889D01*
X10793Y-2889D01*
Y-2880D01*
Y-2563D01*
X10793Y-2563D01*
Y-2554D01*
X10793Y-2554D01*
X10794Y-2553D01*
X10796Y-2550D01*
X10797Y-2549D01*
X10798Y-2548D01*
X10801Y-2546D01*
X10801Y-2546D01*
X10802Y-2545D01*
X10802Y-2545D01*
X10811D01*
X11031D01*
Y-2689D01*
X11646D01*
Y-2114D01*
X11031D01*
Y-2258D01*
X9215D01*
Y-2252D01*
X8779D01*
X8770Y-2250D01*
X8376D01*
X8367Y-2252D01*
X7931D01*
Y-2258D01*
X7722D01*
Y-1905D01*
X7961D01*
Y-2049D01*
X8570D01*
X8574Y-2049D01*
X8620Y-2059D01*
X8620D01*
X8621Y-2059D01*
X8887D01*
Y-1762D01*
Y-1465D01*
X8621D01*
X8620Y-1465D01*
X8620D01*
X8574Y-1474D01*
X8570Y-1474D01*
X7961D01*
Y-1619D01*
X7276D01*
Y-1376D01*
X6583D01*
Y-2114D01*
X6583D01*
Y-2672D01*
X6528D01*
Y-2148D01*
X6528D01*
Y-1376D01*
X5835D01*
X5819Y-1333D01*
Y2551D01*
X5846Y2573D01*
X5913D01*
Y2429D01*
X6528D01*
Y3004D01*
X5950D01*
Y3341D01*
X7744D01*
Y3266D01*
D02*
G37*
G36*
X-23853Y5631D02*
X-23847Y5591D01*
X-23836Y5552D01*
X-23822Y5512D01*
X-23803Y5472D01*
X-23779Y5431D01*
X-23752Y5391D01*
X-23720Y5350D01*
X-23684Y5308D01*
X-23644Y5267D01*
X-24167D01*
X-24127Y5308D01*
X-24091Y5350D01*
X-24059Y5391D01*
X-24032Y5431D01*
X-24008Y5472D01*
X-23989Y5512D01*
X-23975Y5552D01*
X-23964Y5591D01*
X-23958Y5631D01*
X-23956Y5670D01*
X-23856D01*
X-23853Y5631D01*
D02*
G37*
G36*
X9892Y5118D02*
X9899D01*
X9900Y5117D01*
X9903Y5115D01*
X9908Y5111D01*
X9911Y5106D01*
X9913Y5102D01*
X9913Y5102D01*
X9914Y5101D01*
X9914Y5100D01*
X9914Y5100D01*
X9914Y5100D01*
X9914Y5100D01*
X9915Y5099D01*
X9915Y5098D01*
X9915Y5098D01*
X9915Y5098D01*
X9915Y5098D01*
X9916Y5098D01*
X9916Y5096D01*
X9917Y5094D01*
X9920Y5084D01*
X9921Y5081D01*
X9925Y5076D01*
X9928Y5070D01*
X9951Y5036D01*
X9952Y5034D01*
X9952Y5033D01*
X9958Y5028D01*
X9962Y5022D01*
X9962Y5022D01*
X9962Y5022D01*
X9968Y5016D01*
X9968Y5016D01*
X9968Y5016D01*
X9968Y5015D01*
X9969Y5015D01*
X9969Y5015D01*
X9969Y5015D01*
X9969Y5015D01*
X9969Y5015D01*
X9969Y5015D01*
X9969Y5015D01*
X9969Y5015D01*
X9969Y5015D01*
X9969Y5015D01*
X9969Y5015D01*
X9970Y5014D01*
X9970Y5014D01*
X9970Y5014D01*
X9975Y5009D01*
X9981Y5005D01*
X9981Y5005D01*
X9982Y5004D01*
X9982Y5004D01*
X9983Y5004D01*
X9983Y5004D01*
X9984Y5003D01*
X9984Y5003D01*
X9989Y4997D01*
X9996Y4993D01*
X9996Y4993D01*
X9996Y4992D01*
X9997Y4992D01*
X9997Y4992D01*
X9997Y4992D01*
X10021Y4976D01*
X10024Y4975D01*
X10024Y4974D01*
X10027Y4973D01*
X10031Y4970D01*
X10034Y4968D01*
X10036Y4968D01*
X10037Y4967D01*
X10039Y4967D01*
X10041Y4966D01*
X10043Y4965D01*
X10048Y4964D01*
X10049Y4963D01*
X10049Y4963D01*
X10049Y4963D01*
X10049Y4963D01*
X10052Y4962D01*
X10052Y4962D01*
X10052Y4962D01*
X10054Y4961D01*
X10055Y4961D01*
X10055Y4961D01*
X10057Y4960D01*
X10058Y4960D01*
X10060Y4960D01*
X10062Y4958D01*
X10062Y4958D01*
X10064Y4957D01*
X10067Y4957D01*
X10069Y4956D01*
X10072Y4956D01*
X10072D01*
X10072Y4956D01*
X10096Y4951D01*
X10096D01*
X10105Y4949D01*
X10114D01*
X10123Y4947D01*
X10141D01*
X10150Y4949D01*
X10159D01*
X10168Y4951D01*
X10168Y4951D01*
X10168D01*
X10197Y4957D01*
X10200Y4958D01*
X10201D01*
X10204Y4959D01*
X10208Y4960D01*
X10212Y4961D01*
X10214Y4962D01*
X10215Y4962D01*
X10216Y4963D01*
X10218Y4963D01*
X10220Y4964D01*
X10224Y4967D01*
X10226Y4967D01*
X10229Y4968D01*
X10229Y4968D01*
X10229Y4968D01*
X10232Y4970D01*
X10232Y4970D01*
X10234Y4972D01*
X10234Y4972D01*
X10234Y4972D01*
X10234Y4972D01*
X10235Y4973D01*
X10237Y4973D01*
X10237Y4973D01*
X10241Y4975D01*
X10241Y4975D01*
X10241Y4975D01*
X10242Y4976D01*
X10242Y4976D01*
X10245Y4977D01*
X10248Y4979D01*
X10248Y4979D01*
X10276Y4997D01*
X10282Y5004D01*
X10290Y5009D01*
X10295Y5015D01*
X10295Y5015D01*
X10295Y5015D01*
X10295Y5015D01*
X10296Y5015D01*
X10296Y5015D01*
X10296Y5015D01*
X10296Y5015D01*
X10296Y5015D01*
X10296Y5016D01*
X10297Y5016D01*
X10297Y5016D01*
X10297Y5016D01*
X10301Y5021D01*
X10306Y5027D01*
X10307Y5028D01*
X10307Y5028D01*
X10307Y5028D01*
X10307D01*
X10307Y5029D01*
X10307Y5029D01*
X10307Y5029D01*
X10307Y5029D01*
X10307Y5029D01*
X10308Y5029D01*
X10308Y5030D01*
X10308Y5030D01*
X10308Y5030D01*
X10314Y5036D01*
X10317Y5041D01*
X10318Y5042D01*
X10318Y5043D01*
X10318Y5043D01*
Y5043D01*
X10318Y5043D01*
X10318Y5043D01*
X10319Y5043D01*
X10319Y5043D01*
X10319Y5043D01*
X10319Y5044D01*
X10319Y5044D01*
X10319Y5044D01*
X10331Y5061D01*
X10331Y5061D01*
X10334Y5066D01*
X10334Y5066D01*
X10334Y5066D01*
X10336Y5069D01*
X10339Y5077D01*
X10339Y5077D01*
X10339Y5077D01*
X10341Y5080D01*
X10342Y5081D01*
X10342Y5081D01*
X10342Y5081D01*
X10342Y5081D01*
X10342Y5081D01*
X10342Y5081D01*
X10342Y5081D01*
X10342Y5081D01*
X10345Y5084D01*
X10345Y5085D01*
X10345Y5085D01*
X10345Y5085D01*
X10345Y5085D01*
X10345Y5085D01*
X10354Y5091D01*
X10377Y5104D01*
X10383Y5106D01*
X10384Y5106D01*
X10388Y5106D01*
X10388Y5106D01*
X10388Y5106D01*
X10388Y5106D01*
X10388D01*
X10388Y5106D01*
X10388Y5106D01*
X10388Y5107D01*
X10392Y5107D01*
X10394Y5106D01*
X10395Y5106D01*
X10396Y5106D01*
X10396Y5106D01*
X10398Y5106D01*
X10399Y5106D01*
X10401Y5106D01*
X10401Y5106D01*
X10401Y5106D01*
X10402Y5106D01*
X10402Y5106D01*
X10403Y5105D01*
X10404Y5105D01*
X10405Y5105D01*
X10406Y5105D01*
X10408Y5105D01*
X10410Y5105D01*
X10410D01*
X10411Y5104D01*
X10415Y5103D01*
X10416Y5102D01*
X10420Y5097D01*
X10422Y5095D01*
X10443Y5067D01*
Y5067D01*
X10443Y5067D01*
X10443Y5067D01*
Y5066D01*
X10443Y5066D01*
Y4885D01*
X10443Y4885D01*
X10443Y4884D01*
X10442Y4883D01*
X10442Y4883D01*
X10442Y4883D01*
X10442Y4881D01*
Y4881D01*
X10442Y4881D01*
X10442Y4881D01*
X10441Y4880D01*
X10441Y4880D01*
X10441Y4880D01*
X10441Y4879D01*
X10441Y4879D01*
X10440Y4878D01*
X10440Y4878D01*
X10440Y4877D01*
X10439Y4877D01*
X10439Y4877D01*
X10439Y4876D01*
X10439Y4876D01*
X10438Y4875D01*
X10438Y4875D01*
X10438Y4875D01*
X10438Y4875D01*
X10438Y4875D01*
X10438Y4875D01*
X10438Y4875D01*
X10438Y4875D01*
X10438Y4875D01*
X10420Y4860D01*
X10419Y4860D01*
X10419Y4860D01*
X10419Y4860D01*
X10418Y4859D01*
X10418Y4859D01*
X10418Y4859D01*
X10418Y4859D01*
X10418Y4859D01*
X10417Y4859D01*
X10417Y4858D01*
X10417Y4858D01*
X10417Y4858D01*
X10416Y4858D01*
X10416Y4858D01*
X10416Y4857D01*
X10416Y4857D01*
X10416Y4857D01*
X10416Y4857D01*
X10416Y4857D01*
X10416Y4857D01*
X10412Y4855D01*
X10412Y4855D01*
X10412Y4855D01*
X10412Y4855D01*
X10408Y4853D01*
X10406Y4853D01*
X10353Y4842D01*
X10353Y4842D01*
X10349Y4841D01*
X10346Y4840D01*
X10344Y4840D01*
X10344Y4840D01*
X10344D01*
X10342Y4839D01*
X10336Y4837D01*
X10332Y4836D01*
X10329Y4835D01*
X10324Y4834D01*
X10324Y4834D01*
X10324Y4834D01*
X10324Y4834D01*
X10322Y4832D01*
X10318Y4831D01*
X10311Y4828D01*
X10306Y4824D01*
X10301Y4822D01*
X10269Y4800D01*
X10265Y4796D01*
X10260Y4793D01*
X10258Y4791D01*
X10255Y4789D01*
X10255Y4789D01*
X10255Y4789D01*
X10255Y4789D01*
X10249Y4783D01*
X10249Y4783D01*
X10249Y4783D01*
X10249Y4783D01*
X10249Y4783D01*
X10249Y4783D01*
X10249Y4782D01*
X10249Y4782D01*
X10249Y4782D01*
X10249Y4782D01*
X10248Y4782D01*
X10248Y4782D01*
X10248Y4782D01*
X10248Y4782D01*
X10248Y4782D01*
X10248Y4782D01*
X10248Y4782D01*
X10248Y4782D01*
X10242Y4776D01*
X10238Y4770D01*
X10238Y4770D01*
X10238Y4769D01*
X10237Y4769D01*
X10237Y4769D01*
X10237Y4769D01*
X10236Y4768D01*
X10236Y4767D01*
X10231Y4762D01*
X10226Y4755D01*
X10226Y4755D01*
X10226Y4755D01*
X10226Y4755D01*
X10226Y4755D01*
X10226Y4754D01*
X10209Y4730D01*
X10208Y4727D01*
X10208Y4727D01*
X10207Y4724D01*
X10204Y4720D01*
X10202Y4717D01*
X10201Y4715D01*
X10201Y4714D01*
X10201Y4713D01*
X10199Y4710D01*
X10198Y4708D01*
X10197Y4704D01*
X10196Y4702D01*
X10196Y4702D01*
X10196Y4702D01*
X10196Y4702D01*
X10195Y4699D01*
X10195Y4699D01*
X10195Y4699D01*
X10195Y4697D01*
X10194Y4696D01*
X10194Y4696D01*
X10194Y4694D01*
X10193Y4693D01*
X10193Y4691D01*
X10192Y4689D01*
X10192Y4689D01*
X10191Y4687D01*
X10191Y4684D01*
X10190Y4682D01*
X10189Y4679D01*
Y4679D01*
X10189Y4679D01*
X10184Y4655D01*
Y4655D01*
X10183Y4646D01*
Y4637D01*
Y4637D01*
X10181Y4628D01*
Y4619D01*
Y4610D01*
X10183Y4601D01*
Y4601D01*
Y4601D01*
Y4601D01*
Y4592D01*
X10184Y4583D01*
X10184Y4583D01*
Y4583D01*
X10190Y4554D01*
X10191Y4551D01*
Y4550D01*
X10192Y4548D01*
X10193Y4543D01*
X10194Y4539D01*
X10196Y4536D01*
X10197Y4533D01*
X10197Y4531D01*
X10200Y4527D01*
X10201Y4525D01*
X10202Y4522D01*
X10202Y4522D01*
X10202Y4522D01*
X10204Y4519D01*
X10204Y4519D01*
X10205Y4517D01*
X10205Y4517D01*
X10205Y4517D01*
X10205Y4517D01*
X10206Y4515D01*
X10207Y4514D01*
X10209Y4510D01*
X10209Y4510D01*
X10209Y4510D01*
X10209Y4509D01*
X10209Y4509D01*
X10210Y4506D01*
X10212Y4503D01*
X10212Y4503D01*
X10212Y4503D01*
X10226Y4483D01*
X10226Y4483D01*
X10229Y4478D01*
X10229Y4478D01*
X10229Y4478D01*
X10230Y4476D01*
X10236Y4470D01*
X10236Y4470D01*
X10237Y4470D01*
X10240Y4465D01*
X10240Y4465D01*
X10240Y4465D01*
X10240Y4465D01*
X10240Y4465D01*
X10240Y4464D01*
X10240Y4464D01*
X10240Y4464D01*
X10242Y4463D01*
X10242Y4463D01*
X10246Y4458D01*
X10248Y4456D01*
X10248Y4456D01*
X10248Y4455D01*
X10249Y4455D01*
X10249Y4455D01*
X10250Y4454D01*
X10254Y4450D01*
X10261Y4446D01*
X10261Y4445D01*
X10261Y4445D01*
Y4445D01*
X10261Y4445D01*
X10262Y4444D01*
X10262Y4444D01*
X10262Y4444D01*
X10263Y4443D01*
X10263Y4443D01*
X10263Y4443D01*
X10264Y4443D01*
X10270Y4437D01*
X10275Y4434D01*
X10275Y4433D01*
X10275Y4433D01*
X10276Y4433D01*
X10276Y4433D01*
X10276Y4433D01*
X10276Y4433D01*
X10276Y4433D01*
X10276Y4433D01*
X10276Y4432D01*
X10277Y4432D01*
X10277Y4432D01*
X10277Y4432D01*
X10294Y4421D01*
X10294Y4421D01*
X10298Y4418D01*
X10298Y4418D01*
X10298Y4418D01*
X10300Y4417D01*
X10303Y4415D01*
X10304Y4415D01*
X10304Y4415D01*
X10304D01*
X10304Y4415D01*
X10304Y4415D01*
X10305Y4414D01*
X10306Y4414D01*
X10308Y4413D01*
X10310Y4412D01*
X10315Y4408D01*
X10317Y4408D01*
X10318Y4407D01*
X10318Y4407D01*
X10319Y4407D01*
X10321Y4406D01*
X10321Y4406D01*
X10322Y4405D01*
X10323Y4405D01*
X10324Y4405D01*
X10325Y4404D01*
X10325Y4404D01*
X10326Y4404D01*
X10326Y4404D01*
X10326Y4404D01*
X10326Y4404D01*
X10328Y4403D01*
X10330Y4402D01*
X10335Y4401D01*
X10337Y4400D01*
X10338Y4400D01*
X10338D01*
X10339Y4399D01*
X10339Y4399D01*
X10340Y4399D01*
X10343Y4398D01*
X10343Y4398D01*
X10343Y4398D01*
X10343Y4398D01*
X10344Y4398D01*
X10344Y4398D01*
X10344D01*
X10346Y4398D01*
X10348Y4397D01*
X10406Y4385D01*
X10408Y4384D01*
X10408D01*
X10408Y4384D01*
X10428Y4366D01*
X10428Y4366D01*
X10428Y4366D01*
X10428Y4366D01*
X10428Y4366D01*
X10429Y4366D01*
X10430Y4364D01*
X10430Y4364D01*
X10430Y4364D01*
X10431Y4363D01*
X10432Y4362D01*
X10436Y4358D01*
X10437Y4357D01*
X10439Y4353D01*
X10440Y4349D01*
X10440Y4349D01*
X10440Y4348D01*
X10440Y4348D01*
X10440Y4348D01*
X10440Y4347D01*
X10440Y4347D01*
X10440Y4347D01*
X10440Y4347D01*
Y4347D01*
X10440Y4347D01*
X10440Y4347D01*
X10440Y4347D01*
X10440Y4347D01*
Y4347D01*
X10443Y4305D01*
X10443Y4305D01*
Y4305D01*
Y2885D01*
Y2789D01*
Y2787D01*
X10434Y2787D01*
X10429Y2785D01*
X10423Y2784D01*
X10423Y2784D01*
X10421Y2783D01*
X10419Y2783D01*
X10419Y2783D01*
X10418Y2782D01*
X10417Y2782D01*
X10416Y2781D01*
X10416Y2781D01*
X10416Y2781D01*
X10416Y2781D01*
X10415Y2781D01*
X10415Y2781D01*
X10415Y2781D01*
X10415Y2781D01*
X10415Y2781D01*
X10415Y2781D01*
X10408Y2777D01*
X10401Y2774D01*
X10400Y2773D01*
X10400Y2773D01*
X10400Y2773D01*
X10399Y2773D01*
X10399Y2772D01*
X10399Y2772D01*
X10398Y2772D01*
X10396Y2770D01*
X10396Y2770D01*
X10396Y2770D01*
X10396Y2770D01*
X10396Y2770D01*
X10396Y2769D01*
X10395Y2769D01*
X10395Y2768D01*
X10392Y2767D01*
X10390Y2765D01*
X10388Y2764D01*
X10388Y2763D01*
X10386Y2761D01*
X10385Y2761D01*
X10385Y2761D01*
X10385Y2761D01*
X10385Y2761D01*
X10385Y2761D01*
X10385Y2761D01*
X10385Y2761D01*
X10385Y2761D01*
X10385Y2761D01*
X10383Y2759D01*
X10383Y2759D01*
X10383Y2759D01*
X10382Y2758D01*
X10382Y2758D01*
X10381Y2757D01*
X10381Y2756D01*
X10380Y2756D01*
X10380Y2756D01*
X10380Y2756D01*
X10378Y2754D01*
X10378Y2753D01*
X10377Y2752D01*
X10377Y2752D01*
X10375Y2751D01*
X10374Y2749D01*
X10372Y2746D01*
X10370Y2744D01*
X10370Y2744D01*
X10370Y2743D01*
X10370Y2743D01*
X10369Y2743D01*
X10369Y2742D01*
X10369Y2742D01*
X10367Y2740D01*
X10367Y2740D01*
X10367Y2740D01*
X10366Y2739D01*
X10365Y2737D01*
X10363Y2735D01*
X10361Y2729D01*
X10358Y2723D01*
X10357Y2720D01*
X10356Y2718D01*
X10355Y2713D01*
X10352Y2706D01*
X10352Y2703D01*
X10352Y2701D01*
X10352Y2701D01*
X10352Y2694D01*
X10351Y2688D01*
Y2679D01*
X10351Y2679D01*
Y837D01*
X10351Y833D01*
X10351Y831D01*
X10352Y826D01*
X10352Y823D01*
X10354Y818D01*
X10354Y818D01*
X10354Y812D01*
X10354Y812D01*
X10354Y812D01*
X10355Y810D01*
X10355Y809D01*
X10356Y807D01*
X10356Y805D01*
X10357Y803D01*
X10358Y801D01*
X10359Y799D01*
X10360Y796D01*
X10360Y795D01*
X10362Y792D01*
X10364Y789D01*
X10365Y787D01*
X10368Y783D01*
X10369Y780D01*
X10371Y778D01*
X10372Y777D01*
X10373Y776D01*
X10374Y774D01*
X10374Y774D01*
X10376Y772D01*
X10379Y768D01*
X10385Y764D01*
X10389Y760D01*
X10394Y757D01*
X10396Y755D01*
X10397Y754D01*
X10398Y754D01*
X10400Y753D01*
X10402Y751D01*
X10404Y750D01*
X10404Y750D01*
X10435Y729D01*
X10435Y729D01*
X10435Y729D01*
X10438Y727D01*
X10438Y727D01*
X10442Y725D01*
X10443Y724D01*
X10443Y724D01*
X10443Y724D01*
X10443Y715D01*
X10443Y715D01*
X10443Y715D01*
X10443Y677D01*
X10443Y677D01*
X10443D01*
Y677D01*
Y677D01*
Y664D01*
Y663D01*
Y662D01*
Y582D01*
X10493D01*
X10493Y581D01*
X10493Y581D01*
X10498Y574D01*
X10498Y574D01*
X10498Y574D01*
X10498Y574D01*
X10498Y574D01*
X10498Y574D01*
X10499Y574D01*
X10499Y574D01*
X10506Y563D01*
X10506Y563D01*
X10510Y557D01*
X10510Y557D01*
X10510Y557D01*
X10511Y556D01*
X10511Y556D01*
X10511Y555D01*
X10511Y555D01*
X10517Y549D01*
X10522Y542D01*
X10529Y535D01*
X10529Y535D01*
X10529Y535D01*
X10530Y533D01*
X10530Y533D01*
X10530Y533D01*
X10533Y531D01*
X10533Y531D01*
X10533Y531D01*
X10535Y529D01*
X10542Y524D01*
X10542Y524D01*
X10542Y524D01*
X10546Y520D01*
X10546Y520D01*
X10547Y520D01*
X10549Y517D01*
X10554Y514D01*
X10554Y514D01*
X10554Y514D01*
X10556Y512D01*
X10556Y512D01*
X10572Y502D01*
X10572Y502D01*
X10572Y502D01*
X10572Y502D01*
X10572Y502D01*
X10573Y502D01*
X10573Y502D01*
X10579Y497D01*
X10588Y494D01*
X10588Y494D01*
X10588Y493D01*
X10588Y493D01*
X10588Y493D01*
X10588Y493D01*
X10596Y488D01*
X10604Y485D01*
X10604Y485D01*
X10609Y483D01*
X10609Y483D01*
X10609Y483D01*
X10612Y482D01*
X10612D01*
X10612Y482D01*
X10618Y480D01*
X10622Y478D01*
X10622Y478D01*
X10623Y478D01*
X10625Y477D01*
X10625Y477D01*
X10627Y477D01*
X10629Y476D01*
X10629Y476D01*
X10629Y476D01*
X10629D01*
X10638Y475D01*
X10638D01*
X10638Y475D01*
X10656Y471D01*
X10656D01*
X10665Y469D01*
X10674D01*
X10683Y467D01*
X10701D01*
X10710Y469D01*
X10719D01*
X10728Y471D01*
X10728D01*
X10755Y476D01*
X10764Y480D01*
X10773Y482D01*
X10773Y482D01*
X10773D01*
X10773Y482D01*
X10773Y482D01*
X10773Y482D01*
X10773Y482D01*
X10781Y485D01*
X10781Y485D01*
X10781D01*
X10781Y485D01*
X10781Y485D01*
X10785Y487D01*
X10785Y487D01*
X10785Y487D01*
X10789Y488D01*
X10797Y493D01*
X10797Y494D01*
X10797Y494D01*
X10797Y494D01*
X10797Y494D01*
X10797Y494D01*
X10797Y494D01*
X10801Y495D01*
X10801Y495D01*
X10801Y495D01*
X10801Y495D01*
X10805Y497D01*
X10810Y500D01*
X10811Y501D01*
X10811Y501D01*
X10813Y502D01*
X10813Y502D01*
X10813Y502D01*
X10836Y517D01*
X10838Y520D01*
X10839Y520D01*
X10843Y524D01*
X10850Y529D01*
X10852Y531D01*
X10852Y531D01*
X10856Y535D01*
X10856Y535D01*
X10856Y535D01*
X10862Y542D01*
X10867Y549D01*
X10867Y549D01*
X10867Y549D01*
X10874Y556D01*
X10879Y563D01*
X10879Y563D01*
X10886Y574D01*
X10886Y574D01*
X10891Y581D01*
X10891Y581D01*
X10891Y581D01*
X10891Y582D01*
X11044D01*
X11045Y581D01*
X11053Y581D01*
X11053Y581D01*
X11053Y581D01*
X11053Y581D01*
X11053Y581D01*
X11053D01*
Y581D01*
X11058Y574D01*
X11059Y574D01*
X11059Y574D01*
X11066Y563D01*
X11066Y563D01*
X11069Y559D01*
X11069Y559D01*
X11070Y557D01*
X11070Y557D01*
X11070Y557D01*
X11071Y556D01*
X11071Y556D01*
X11071Y555D01*
X11071Y555D01*
X11075Y552D01*
X11077Y548D01*
X11079Y546D01*
X11079Y546D01*
X11080Y545D01*
X11081Y543D01*
X11081Y543D01*
X11082Y542D01*
X11089Y535D01*
X11089Y535D01*
X11089Y535D01*
X11090Y533D01*
X11090Y533D01*
X11090Y533D01*
X11093Y531D01*
X11093Y531D01*
X11093Y531D01*
X11095Y529D01*
X11102Y524D01*
X11102Y524D01*
X11102Y524D01*
X11106Y520D01*
X11106Y520D01*
X11107Y520D01*
X11109Y517D01*
X11114Y514D01*
X11114Y514D01*
X11114Y514D01*
X11116Y512D01*
X11116Y512D01*
X11132Y502D01*
X11132Y502D01*
X11132Y502D01*
X11132Y502D01*
X11132Y502D01*
X11133Y502D01*
X11133Y502D01*
X11139Y497D01*
X11148Y494D01*
X11148Y494D01*
X11148Y493D01*
X11148Y493D01*
X11148Y493D01*
X11148Y493D01*
X11156Y488D01*
X11164Y485D01*
X11164Y485D01*
X11169Y483D01*
X11169Y483D01*
X11169Y483D01*
X11172Y482D01*
X11172D01*
X11172Y482D01*
X11178Y480D01*
X11182Y478D01*
X11182Y478D01*
X11183Y478D01*
X11185Y477D01*
X11185Y477D01*
X11187Y477D01*
X11189Y476D01*
X11189Y476D01*
X11189Y476D01*
X11189D01*
X11198Y475D01*
X11198D01*
X11198Y475D01*
X11216Y471D01*
X11216D01*
X11225Y469D01*
X11234D01*
X11243Y467D01*
X11261D01*
X11270Y469D01*
X11279D01*
X11288Y471D01*
X11288Y471D01*
X11306Y475D01*
X11306Y475D01*
X11306D01*
X11315Y476D01*
X11324Y480D01*
X11324Y480D01*
X11324Y480D01*
X11324Y480D01*
X11324Y480D01*
X11324Y480D01*
X11333Y482D01*
X11340Y485D01*
X11340Y485D01*
X11340Y485D01*
X11340Y485D01*
X11341Y485D01*
X11341Y485D01*
X11349Y488D01*
X11357Y494D01*
X11357Y494D01*
X11357D01*
X11357D01*
X11365Y497D01*
X11373Y502D01*
X11373Y502D01*
X11373Y502D01*
X11391Y514D01*
X11391Y514D01*
X11391Y514D01*
X11396Y517D01*
X11396Y517D01*
X11401Y518D01*
X11401Y518D01*
X11401Y518D01*
X11401Y518D01*
X11401Y518D01*
X11401Y518D01*
X11402Y518D01*
X11402Y518D01*
X11434Y521D01*
X11434Y521D01*
X11450Y513D01*
X11466Y494D01*
X11475Y479D01*
Y385D01*
X11742D01*
Y285D01*
X11475D01*
Y281D01*
X9298D01*
X9254Y296D01*
X9254Y331D01*
Y543D01*
X8937D01*
Y593D01*
X8887D01*
Y889D01*
X8621D01*
X8620Y889D01*
X8620D01*
X8574Y880D01*
X8570Y880D01*
X8465D01*
Y996D01*
X8500Y1032D01*
X8570D01*
X8574Y1032D01*
X8620Y1022D01*
X8620D01*
X8621Y1022D01*
X8887D01*
Y1319D01*
X8937D01*
Y1369D01*
X9254D01*
Y1600D01*
X9254Y1616D01*
X9289Y1650D01*
X9289Y1650D01*
X9332D01*
Y1995D01*
X8976D01*
Y2045D01*
X8926D01*
Y2441D01*
X8621D01*
X8620Y2441D01*
X8620D01*
X8574Y2431D01*
X8570Y2431D01*
X8465D01*
Y2700D01*
X8465Y2700D01*
X8465Y2700D01*
X8465Y2700D01*
X8468Y2702D01*
X8468Y2702D01*
X8471Y2704D01*
X8471Y2704D01*
X8471Y2704D01*
X8474Y2706D01*
X8474Y2706D01*
X8481Y2709D01*
X8481Y2709D01*
X8481Y2709D01*
X8482Y2710D01*
X8482Y2710D01*
X8482Y2710D01*
X8490Y2711D01*
X8491Y2711D01*
X8491Y2712D01*
X8491D01*
X8517Y2717D01*
X8519Y2718D01*
X8521Y2718D01*
X8521Y2718D01*
X8523Y2719D01*
X8523Y2719D01*
X8524Y2719D01*
X8527Y2720D01*
X8528Y2720D01*
X8532Y2722D01*
X8539Y2724D01*
X8540Y2724D01*
X8541Y2725D01*
X8542Y2725D01*
X8543Y2726D01*
X8544Y2726D01*
X8545Y2726D01*
X8545Y2726D01*
X8546Y2727D01*
X8547Y2727D01*
X8549Y2728D01*
X8549Y2729D01*
X8555Y2732D01*
X8557Y2733D01*
X8557Y2733D01*
X8557Y2733D01*
X8557Y2733D01*
X8557Y2733D01*
X8558Y2734D01*
X8561Y2735D01*
X8562Y2736D01*
X8562Y2736D01*
X8565Y2737D01*
X8571Y2741D01*
X8571Y2741D01*
X8588Y2752D01*
X8588Y2752D01*
X8588Y2752D01*
X8589Y2753D01*
X8589Y2753D01*
X8589Y2753D01*
X8594Y2756D01*
X8600Y2763D01*
X8602Y2764D01*
X8602Y2764D01*
X8602Y2764D01*
X8602Y2764D01*
X8603Y2764D01*
X8603D01*
X8603Y2765D01*
X8604Y2766D01*
X8606Y2767D01*
X8606Y2767D01*
X8608Y2769D01*
X8611Y2771D01*
X8612Y2772D01*
X8615Y2774D01*
X8616Y2775D01*
X8616Y2775D01*
X8616Y2775D01*
X8616Y2775D01*
X8616Y2775D01*
X8616Y2775D01*
X8616Y2775D01*
X8616Y2775D01*
X8616Y2776D01*
X8616Y2776D01*
X8617Y2776D01*
X8617Y2776D01*
X8617Y2776D01*
X8622Y2782D01*
X8626Y2788D01*
X8627Y2788D01*
X8627Y2788D01*
X8627Y2789D01*
X8627Y2789D01*
X8627Y2789D01*
X8628Y2790D01*
X8628Y2790D01*
X8634Y2796D01*
X8639Y2803D01*
X8639Y2803D01*
X8639Y2803D01*
X8639Y2803D01*
X8639Y2803D01*
X8639Y2803D01*
X8655Y2828D01*
X8657Y2833D01*
X8661Y2838D01*
X8663Y2842D01*
X8663Y2843D01*
X8664Y2844D01*
X8664Y2846D01*
X8665Y2848D01*
X8665Y2849D01*
X8665Y2849D01*
X8665Y2849D01*
X8666Y2850D01*
X8666Y2850D01*
X8667Y2853D01*
X8668Y2856D01*
X8668Y2856D01*
X8668Y2856D01*
X8668Y2856D01*
X8670Y2859D01*
X8670Y2860D01*
X8671Y2861D01*
X8671Y2861D01*
X8671Y2865D01*
X8672Y2868D01*
X8673Y2871D01*
X8673Y2871D01*
X8673Y2871D01*
X8673Y2872D01*
X8675Y2875D01*
X8675Y2875D01*
X8675Y2876D01*
X8675Y2876D01*
X8675Y2876D01*
X8675Y2876D01*
X8681Y2878D01*
X8681Y2878D01*
X8681D01*
X8684Y2880D01*
X8684Y2880D01*
X8702Y2883D01*
X8717Y2893D01*
X8717D01*
X8747Y2913D01*
X8747Y2913D01*
X8747Y2913D01*
X8763Y2924D01*
X8763Y2924D01*
X8763Y2924D01*
X8763Y2924D01*
X8763Y2924D01*
X8773Y2930D01*
X8776Y2931D01*
X8779Y2933D01*
X8782Y2932D01*
X8787D01*
X8809Y2922D01*
X8828Y2908D01*
X8837Y2890D01*
X8837Y2889D01*
Y2776D01*
X9470D01*
Y2944D01*
X9461D01*
Y3256D01*
X9470D01*
Y3424D01*
X8837D01*
Y3311D01*
X8837Y3311D01*
X8828Y3293D01*
X8809Y3278D01*
X8787Y3268D01*
X8782D01*
X8779Y3268D01*
X8776Y3269D01*
X8773Y3270D01*
X8772Y3271D01*
X8763Y3277D01*
X8763Y3277D01*
X8763Y3277D01*
X8763Y3277D01*
X8763Y3277D01*
X8763Y3277D01*
X8763Y3277D01*
X8762Y3278D01*
X8750Y3286D01*
X8717Y3307D01*
X8717D01*
X8702Y3318D01*
X8684Y3321D01*
X8630Y3332D01*
X8630D01*
X8612Y3335D01*
X8594Y3332D01*
X8594D01*
X8538Y3321D01*
X8538D01*
X8538Y3321D01*
X8538D01*
X8538Y3321D01*
X8522Y3318D01*
X8516Y3314D01*
X8516Y3314D01*
X8512Y3312D01*
X8511Y3311D01*
X8509Y3310D01*
X8507Y3311D01*
X8505Y3311D01*
X8504Y3312D01*
X8503Y3313D01*
X8503Y3313D01*
X8499Y3314D01*
X8496Y3315D01*
X8496Y3315D01*
X8477Y3326D01*
X8475Y3327D01*
X8473Y3328D01*
X8469Y3331D01*
X8467Y3332D01*
X8466Y3332D01*
X8465Y3334D01*
Y4928D01*
X8465Y4928D01*
Y4937D01*
X8465Y4938D01*
X8468Y4941D01*
X8471Y4944D01*
X8474Y4947D01*
X8478Y4948D01*
X8482Y4950D01*
X8517Y4957D01*
X8519Y4958D01*
X8521Y4958D01*
X8522Y4958D01*
X8525Y4959D01*
X8525Y4959D01*
X8525Y4959D01*
X8525Y4959D01*
X8526Y4960D01*
X8526Y4960D01*
X8527Y4960D01*
X8528Y4960D01*
X8530Y4961D01*
X8531Y4961D01*
X8531Y4961D01*
X8531Y4961D01*
X8531Y4961D01*
X8534Y4963D01*
X8538Y4964D01*
X8538Y4964D01*
X8538Y4964D01*
X8539Y4964D01*
X8540Y4964D01*
X8541Y4965D01*
X8541Y4965D01*
X8542Y4965D01*
X8542Y4965D01*
X8543Y4966D01*
X8543Y4966D01*
X8544Y4966D01*
X8544Y4966D01*
X8546Y4967D01*
X8546Y4967D01*
X8547Y4967D01*
X8549Y4968D01*
X8550Y4969D01*
X8555Y4972D01*
X8555Y4972D01*
X8555Y4972D01*
X8555Y4972D01*
X8555Y4973D01*
X8557Y4973D01*
X8557Y4973D01*
X8562Y4975D01*
X8564Y4976D01*
X8564Y4976D01*
X8565Y4977D01*
X8571Y4981D01*
X8571Y4981D01*
X8596Y4997D01*
X8602Y5004D01*
X8610Y5009D01*
X8615Y5015D01*
X8615Y5015D01*
X8615Y5015D01*
X8615Y5015D01*
X8616Y5015D01*
X8616Y5015D01*
X8616Y5016D01*
X8616Y5016D01*
X8621Y5021D01*
X8626Y5027D01*
X8627Y5028D01*
X8627Y5028D01*
X8627Y5028D01*
X8627D01*
X8627Y5029D01*
X8627Y5029D01*
X8627Y5029D01*
X8627Y5029D01*
X8627Y5029D01*
X8628Y5029D01*
X8628Y5030D01*
X8628Y5030D01*
X8628Y5030D01*
X8634Y5036D01*
X8637Y5041D01*
X8638Y5042D01*
X8638Y5043D01*
X8638Y5043D01*
Y5043D01*
X8638Y5043D01*
X8638Y5043D01*
X8639Y5043D01*
X8639Y5043D01*
X8639Y5043D01*
X8639Y5044D01*
X8639Y5044D01*
X8639Y5044D01*
X8654Y5066D01*
X8654Y5067D01*
X8657Y5071D01*
X8660Y5077D01*
X8660Y5078D01*
X8660Y5078D01*
X8661Y5079D01*
X8662Y5080D01*
X8662Y5080D01*
X8662Y5080D01*
X8662Y5080D01*
X8662Y5080D01*
X8662Y5081D01*
X8662Y5082D01*
X8662Y5082D01*
X8662Y5082D01*
X8663Y5082D01*
X8663Y5083D01*
X8663Y5084D01*
X8666Y5089D01*
X8666Y5089D01*
X8668Y5092D01*
X8669Y5096D01*
X8669Y5096D01*
X8669Y5096D01*
X8669Y5096D01*
X8669Y5096D01*
X8670Y5097D01*
X8671Y5098D01*
X8671Y5099D01*
X8672Y5100D01*
X8672Y5103D01*
X8673Y5103D01*
X8673Y5104D01*
X8673Y5104D01*
X8674Y5105D01*
X8675Y5107D01*
X8676Y5108D01*
X8676Y5108D01*
X8676Y5108D01*
X8676Y5108D01*
X8676Y5108D01*
X8676Y5108D01*
X8676D01*
X8676Y5108D01*
X8679Y5113D01*
X8682Y5116D01*
X8684Y5118D01*
X8684Y5118D01*
X8684Y5118D01*
X8684Y5118D01*
X8693Y5118D01*
X8693Y5118D01*
X8771D01*
X8772Y5118D01*
X8779D01*
X8780Y5117D01*
X8783Y5115D01*
X8788Y5111D01*
X8791Y5106D01*
X8793Y5102D01*
X8793Y5102D01*
X8794Y5101D01*
X8794Y5100D01*
X8794Y5100D01*
X8794Y5100D01*
X8794Y5100D01*
X8795Y5099D01*
X8795Y5098D01*
X8795Y5098D01*
X8795Y5098D01*
X8795Y5098D01*
X8796Y5098D01*
X8796Y5096D01*
X8797Y5094D01*
X8800Y5084D01*
X8801Y5081D01*
X8805Y5076D01*
X8808Y5070D01*
X8831Y5036D01*
X8832Y5034D01*
X8832Y5033D01*
X8838Y5028D01*
X8842Y5022D01*
X8842Y5022D01*
X8842Y5022D01*
X8848Y5016D01*
X8848Y5016D01*
X8848Y5016D01*
X8848Y5015D01*
X8849Y5015D01*
X8849Y5015D01*
X8849Y5015D01*
X8849Y5015D01*
X8849Y5015D01*
X8849Y5015D01*
X8849Y5015D01*
X8849Y5015D01*
X8849Y5015D01*
X8849Y5015D01*
X8849Y5015D01*
X8850Y5014D01*
X8850Y5014D01*
X8850Y5014D01*
X8855Y5009D01*
X8861Y5005D01*
X8861Y5005D01*
X8862Y5004D01*
X8862Y5004D01*
X8863Y5004D01*
X8863Y5004D01*
X8864Y5003D01*
X8864Y5003D01*
X8869Y4997D01*
X8876Y4993D01*
X8876Y4993D01*
X8876Y4992D01*
X8877Y4992D01*
X8877Y4992D01*
X8877Y4992D01*
X8901Y4976D01*
X8904Y4975D01*
X8904Y4974D01*
X8907Y4973D01*
X8911Y4970D01*
X8914Y4968D01*
X8916Y4968D01*
X8917Y4967D01*
X8919Y4967D01*
X8921Y4966D01*
X8923Y4965D01*
X8928Y4964D01*
X8929Y4963D01*
X8929Y4963D01*
X8929Y4963D01*
X8929Y4963D01*
X8932Y4962D01*
X8932Y4962D01*
X8932Y4962D01*
X8934Y4961D01*
X8935Y4961D01*
X8935Y4961D01*
X8937Y4960D01*
X8938Y4960D01*
X8940Y4960D01*
X8942Y4958D01*
X8942Y4958D01*
X8944Y4957D01*
X8947Y4957D01*
X8949Y4956D01*
X8952Y4956D01*
X8952D01*
X8952Y4956D01*
X8976Y4951D01*
X8976D01*
X8985Y4949D01*
X8994D01*
X9003Y4947D01*
X9021D01*
X9030Y4949D01*
X9039D01*
X9048Y4951D01*
X9048Y4951D01*
X9048D01*
X9077Y4957D01*
X9080Y4958D01*
X9081D01*
X9084Y4959D01*
X9088Y4960D01*
X9092Y4961D01*
X9094Y4962D01*
X9095Y4962D01*
X9097Y4963D01*
X9098Y4963D01*
X9100Y4964D01*
X9104Y4967D01*
X9106Y4967D01*
X9109Y4968D01*
X9109Y4968D01*
X9109Y4968D01*
X9112Y4970D01*
X9112Y4970D01*
X9114Y4972D01*
X9114Y4972D01*
X9114Y4972D01*
X9114Y4972D01*
X9115Y4973D01*
X9117Y4973D01*
X9117Y4973D01*
X9121Y4975D01*
X9121Y4975D01*
X9121Y4975D01*
X9122Y4976D01*
X9122Y4976D01*
X9125Y4977D01*
X9128Y4979D01*
X9128Y4979D01*
X9156Y4997D01*
X9162Y5004D01*
X9170Y5009D01*
X9175Y5015D01*
X9175Y5015D01*
X9175Y5015D01*
X9175Y5015D01*
X9176Y5015D01*
X9176Y5015D01*
X9176Y5015D01*
X9176Y5015D01*
X9176Y5015D01*
X9176Y5016D01*
X9177Y5016D01*
X9177Y5016D01*
X9177Y5016D01*
X9181Y5021D01*
X9186Y5027D01*
X9187Y5028D01*
X9187Y5028D01*
X9187Y5028D01*
X9187D01*
X9187Y5029D01*
X9187Y5029D01*
X9187Y5029D01*
X9187Y5029D01*
X9187Y5029D01*
X9188Y5029D01*
X9188Y5030D01*
X9188Y5030D01*
X9188Y5030D01*
X9194Y5036D01*
X9197Y5041D01*
X9198Y5042D01*
X9198Y5043D01*
X9198Y5043D01*
Y5043D01*
X9198Y5043D01*
X9198Y5043D01*
X9199Y5043D01*
X9199Y5043D01*
X9199Y5043D01*
X9199Y5044D01*
X9199Y5044D01*
X9199Y5044D01*
X9214Y5066D01*
X9214Y5067D01*
X9217Y5071D01*
X9220Y5077D01*
X9220Y5078D01*
X9220Y5078D01*
X9221Y5079D01*
X9222Y5080D01*
X9222Y5080D01*
X9222Y5080D01*
X9222Y5080D01*
X9222Y5080D01*
X9222Y5081D01*
X9222Y5082D01*
X9222Y5082D01*
X9222Y5082D01*
X9223Y5082D01*
X9223Y5083D01*
X9223Y5084D01*
X9226Y5089D01*
X9226Y5089D01*
X9228Y5092D01*
X9229Y5096D01*
X9229Y5096D01*
X9229Y5096D01*
X9229Y5096D01*
X9229Y5096D01*
X9230Y5097D01*
X9231Y5098D01*
X9231Y5099D01*
X9232Y5100D01*
X9232Y5103D01*
X9233Y5103D01*
X9233Y5104D01*
X9233Y5104D01*
X9234Y5105D01*
X9235Y5107D01*
X9236Y5108D01*
X9236Y5108D01*
X9236Y5108D01*
X9236Y5108D01*
X9236Y5108D01*
X9236Y5108D01*
X9236D01*
X9236Y5108D01*
X9239Y5113D01*
X9242Y5116D01*
X9244Y5118D01*
X9244Y5118D01*
X9244Y5118D01*
X9244Y5118D01*
X9253Y5118D01*
X9253Y5118D01*
X9331D01*
X9332Y5118D01*
X9339D01*
X9340Y5117D01*
X9343Y5115D01*
X9348Y5111D01*
X9351Y5106D01*
X9353Y5102D01*
X9353Y5102D01*
X9354Y5101D01*
X9354Y5100D01*
X9354Y5100D01*
X9354Y5100D01*
X9354Y5100D01*
X9355Y5099D01*
X9355Y5098D01*
X9355Y5098D01*
X9355Y5098D01*
X9355Y5098D01*
X9356Y5098D01*
X9356Y5096D01*
X9357Y5094D01*
X9360Y5084D01*
X9361Y5081D01*
X9365Y5076D01*
X9368Y5070D01*
X9391Y5036D01*
X9392Y5034D01*
X9392Y5033D01*
X9398Y5028D01*
X9402Y5022D01*
X9402Y5022D01*
X9402Y5022D01*
X9408Y5016D01*
X9408Y5016D01*
X9408Y5016D01*
X9408Y5015D01*
X9409Y5015D01*
X9409Y5015D01*
X9409Y5015D01*
X9409Y5015D01*
X9409Y5015D01*
X9409Y5015D01*
X9409Y5015D01*
X9409Y5015D01*
X9409Y5015D01*
X9409Y5015D01*
X9409Y5015D01*
X9410Y5014D01*
X9410Y5014D01*
X9410Y5014D01*
X9415Y5009D01*
X9421Y5005D01*
X9421Y5005D01*
X9422Y5004D01*
X9422Y5004D01*
X9423Y5004D01*
X9423Y5004D01*
X9424Y5003D01*
X9424Y5003D01*
X9429Y4997D01*
X9436Y4993D01*
X9436Y4993D01*
X9436Y4992D01*
X9437Y4992D01*
X9437Y4992D01*
X9437Y4992D01*
X9461Y4976D01*
X9464Y4975D01*
X9464Y4974D01*
X9467Y4973D01*
X9471Y4970D01*
X9474Y4968D01*
X9476Y4968D01*
X9477Y4967D01*
X9479Y4967D01*
X9481Y4966D01*
X9483Y4965D01*
X9488Y4964D01*
X9489Y4963D01*
X9489Y4963D01*
X9489Y4963D01*
X9489Y4963D01*
X9492Y4962D01*
X9492Y4962D01*
X9492Y4962D01*
X9494Y4961D01*
X9495Y4961D01*
X9495Y4961D01*
X9497Y4960D01*
X9498Y4960D01*
X9500Y4960D01*
X9502Y4958D01*
X9502Y4958D01*
X9504Y4957D01*
X9507Y4957D01*
X9509Y4956D01*
X9512Y4956D01*
X9512D01*
X9512Y4956D01*
X9536Y4951D01*
X9536D01*
X9545Y4949D01*
X9554D01*
X9563Y4947D01*
X9581D01*
X9590Y4949D01*
X9599D01*
X9608Y4951D01*
X9608Y4951D01*
X9608D01*
X9637Y4957D01*
X9640Y4958D01*
X9641D01*
X9644Y4959D01*
X9648Y4960D01*
X9652Y4961D01*
X9654Y4962D01*
X9655Y4962D01*
X9657Y4963D01*
X9658Y4963D01*
X9660Y4964D01*
X9664Y4967D01*
X9666Y4967D01*
X9669Y4968D01*
X9669Y4968D01*
X9669Y4968D01*
X9672Y4970D01*
X9672Y4970D01*
X9674Y4972D01*
X9674Y4972D01*
X9674Y4972D01*
X9674Y4972D01*
X9675Y4973D01*
X9677Y4973D01*
X9677Y4973D01*
X9681Y4975D01*
X9681Y4975D01*
X9681Y4975D01*
X9682Y4976D01*
X9682Y4976D01*
X9685Y4977D01*
X9688Y4979D01*
X9688Y4979D01*
X9716Y4997D01*
X9722Y5004D01*
X9730Y5009D01*
X9735Y5015D01*
X9735Y5015D01*
X9735Y5015D01*
X9735Y5015D01*
X9736Y5015D01*
X9736Y5015D01*
X9736Y5015D01*
X9736Y5015D01*
X9736Y5015D01*
X9736Y5016D01*
X9737Y5016D01*
X9737Y5016D01*
X9737Y5016D01*
X9741Y5021D01*
X9746Y5027D01*
X9747Y5028D01*
X9747Y5028D01*
X9747Y5028D01*
X9747D01*
X9747Y5029D01*
X9747Y5029D01*
X9747Y5029D01*
X9747Y5029D01*
X9747Y5029D01*
X9748Y5029D01*
X9748Y5030D01*
X9748Y5030D01*
X9748Y5030D01*
X9754Y5036D01*
X9757Y5041D01*
X9758Y5042D01*
X9758Y5043D01*
X9758Y5043D01*
Y5043D01*
X9758Y5043D01*
X9758Y5043D01*
X9759Y5043D01*
X9759Y5043D01*
X9759Y5043D01*
X9759Y5044D01*
X9759Y5044D01*
X9759Y5044D01*
X9774Y5066D01*
X9774Y5067D01*
X9777Y5071D01*
X9780Y5077D01*
X9780Y5078D01*
X9780Y5078D01*
X9781Y5079D01*
X9782Y5080D01*
X9782Y5080D01*
X9782Y5080D01*
X9782Y5080D01*
X9782Y5080D01*
X9782Y5081D01*
X9782Y5082D01*
X9782Y5082D01*
X9782Y5082D01*
X9783Y5082D01*
X9783Y5083D01*
X9783Y5084D01*
X9786Y5089D01*
X9786Y5089D01*
X9788Y5092D01*
X9789Y5096D01*
X9789Y5096D01*
X9789Y5096D01*
X9789Y5096D01*
X9789Y5096D01*
X9790Y5097D01*
X9791Y5098D01*
X9791Y5099D01*
X9792Y5100D01*
X9792Y5103D01*
X9793Y5103D01*
X9793Y5104D01*
X9793Y5104D01*
X9794Y5105D01*
X9795Y5107D01*
X9796Y5108D01*
X9796Y5108D01*
X9796Y5108D01*
X9796Y5108D01*
X9796Y5108D01*
X9796Y5108D01*
X9796D01*
X9796Y5108D01*
X9799Y5113D01*
X9802Y5116D01*
X9804Y5118D01*
X9804Y5118D01*
X9804Y5118D01*
X9804Y5118D01*
X9813Y5118D01*
X9813Y5118D01*
X9891D01*
X9892Y5118D01*
D02*
G37*
G36*
X-22533Y5091D02*
X-22530Y5082D01*
X-22525Y5074D01*
X-22518Y5068D01*
X-22509Y5063D01*
X-22497Y5058D01*
X-22484Y5055D01*
X-22469Y5052D01*
X-22452Y5051D01*
X-22433Y5050D01*
Y4950D01*
X-22452Y4949D01*
X-22469Y4948D01*
X-22484Y4945D01*
X-22497Y4942D01*
X-22509Y4938D01*
X-22518Y4932D01*
X-22525Y4925D01*
X-22530Y4918D01*
X-22533Y4909D01*
X-22534Y4900D01*
Y5100D01*
X-22533Y5091D01*
D02*
G37*
G36*
X15998Y3386D02*
Y2608D01*
X16009Y2553D01*
X16040Y2507D01*
X16149Y2399D01*
X16195Y2368D01*
X16250Y2357D01*
X16373D01*
X16387Y2356D01*
X16417Y2351D01*
X16448Y2343D01*
X16480Y2331D01*
X16513Y2315D01*
X16535Y2302D01*
Y2169D01*
Y2169D01*
Y2169D01*
Y2084D01*
Y1831D01*
X16535Y1831D01*
Y1593D01*
X16556Y1603D01*
X16596Y1626D01*
X16637Y1654D01*
X16678Y1686D01*
X16719Y1722D01*
X16760Y1762D01*
Y1550D01*
X17028D01*
Y1450D01*
X16760D01*
Y1238D01*
X16719Y1278D01*
X16678Y1314D01*
X16637Y1346D01*
X16596Y1374D01*
X16556Y1397D01*
X16516Y1416D01*
X16485Y1427D01*
D01*
X16480Y1429D01*
X16476Y1430D01*
X16472Y1432D01*
X16465Y1434D01*
X16457Y1436D01*
X16457D01*
X16457Y1436D01*
X16441Y1440D01*
X16436Y1441D01*
X16432Y1442D01*
X16414Y1445D01*
X16402Y1447D01*
X16397Y1447D01*
X16392Y1448D01*
X16388Y1448D01*
X16384Y1449D01*
X16384D01*
X16384D01*
X16384Y1449D01*
X16378Y1449D01*
X16376Y1449D01*
X16373Y1449D01*
X16127D01*
X16127Y1449D01*
X16127D01*
X16099Y1454D01*
X16099D01*
X16099Y1454D01*
X16076Y1470D01*
X16076Y1470D01*
X16076Y1470D01*
X16014Y1532D01*
X16014Y1532D01*
X16013Y1533D01*
X16013Y1533D01*
X15998Y1556D01*
X15992Y1584D01*
Y1584D01*
X15992Y1584D01*
Y2079D01*
Y2079D01*
Y2079D01*
Y2080D01*
X15992Y2080D01*
X15992Y2080D01*
X15992Y2080D01*
X15992Y2080D01*
Y2081D01*
X15991Y2089D01*
X15991Y2098D01*
X15991Y2098D01*
X15991Y2098D01*
X15991Y2099D01*
X15991Y2099D01*
X15991Y2099D01*
Y2099D01*
X15990Y2099D01*
X15990Y2100D01*
Y2100D01*
X15989Y2105D01*
X15989Y2105D01*
X15989Y2105D01*
X15989Y2105D01*
X15988Y2107D01*
X15988Y2111D01*
X15988Y2112D01*
X15988Y2113D01*
X15985Y2119D01*
X15984Y2125D01*
X15984Y2127D01*
X15983Y2128D01*
X15983Y2128D01*
X15983Y2129D01*
X15983Y2129D01*
X15983Y2129D01*
X15983Y2130D01*
X15982Y2130D01*
X15982Y2130D01*
X15982Y2130D01*
X15981Y2132D01*
X15980Y2135D01*
X15980Y2135D01*
X15978Y2138D01*
X15978Y2138D01*
X15978Y2138D01*
X15978Y2138D01*
X15978Y2139D01*
X15977Y2139D01*
X15977Y2139D01*
X15976Y2140D01*
X15975Y2144D01*
X15975Y2144D01*
X15974Y2145D01*
X15973Y2146D01*
X15971Y2150D01*
X15971Y2150D01*
X15971Y2150D01*
X15970Y2150D01*
X15970Y2150D01*
X15968Y2154D01*
X15962Y2159D01*
X15958Y2166D01*
X15952Y2172D01*
X15952Y2172D01*
X15952Y2172D01*
X15941Y2183D01*
X15941Y2183D01*
X15941Y2183D01*
X15935Y2189D01*
X15935Y2189D01*
X15935Y2189D01*
X15935Y2189D01*
X15928Y2194D01*
X15923Y2199D01*
X15922Y2199D01*
X15922Y2200D01*
X15922Y2200D01*
X15921Y2200D01*
X15921Y2200D01*
X15921Y2200D01*
X15921Y2201D01*
X15921Y2201D01*
X15920Y2201D01*
X15920Y2201D01*
X15920Y2201D01*
X15920Y2201D01*
X15920Y2201D01*
X15920Y2201D01*
X15920Y2201D01*
X15920Y2201D01*
X15920Y2201D01*
X15920Y2201D01*
X15920Y2201D01*
X15919Y2202D01*
X15914Y2204D01*
X15910Y2207D01*
X15910Y2207D01*
X15908Y2208D01*
X15907Y2208D01*
X15907Y2209D01*
X15907Y2209D01*
X15907Y2209D01*
X15906Y2209D01*
X15906Y2209D01*
X15906Y2209D01*
X15906Y2209D01*
X15905Y2209D01*
X15905Y2209D01*
X15905Y2209D01*
X15904Y2210D01*
X15904Y2210D01*
X15904Y2210D01*
X15904Y2210D01*
X15904Y2210D01*
X15904Y2210D01*
X15904Y2210D01*
X15904Y2210D01*
X15904Y2210D01*
X15898Y2211D01*
X15893Y2215D01*
X15890Y2216D01*
X15885Y2218D01*
X15885Y2218D01*
X15885Y2218D01*
X15882Y2219D01*
X15873Y2219D01*
X15871Y2220D01*
X15869Y2221D01*
X15869D01*
X15868Y2221D01*
X15868Y2221D01*
X15868D01*
X15868Y2221D01*
X15868Y2221D01*
X15867Y2221D01*
X15867Y2221D01*
X15863Y2221D01*
X15858Y2222D01*
X15854D01*
X15850Y2223D01*
X15850Y2223D01*
X15850Y2223D01*
X15850D01*
X15850Y2223D01*
X15850D01*
X15849Y2223D01*
X15513D01*
X15513Y2223D01*
X15504D01*
X15503Y2222D01*
X15503Y2222D01*
X15495Y2221D01*
X15486D01*
X15485Y2221D01*
X15481Y2219D01*
X15477Y2218D01*
X15472Y2216D01*
X15469Y2216D01*
X15469Y2216D01*
X15467Y2215D01*
X15467Y2215D01*
X15467D01*
X15467Y2215D01*
X15467Y2215D01*
X15460Y2210D01*
X15452Y2207D01*
X15449Y2204D01*
X15445Y2202D01*
X15415Y2177D01*
X15410Y2171D01*
X15407Y2170D01*
X15404Y2165D01*
X15397Y2159D01*
X15395Y2156D01*
X15395Y2156D01*
X15395Y2156D01*
X15395Y2155D01*
X15395Y2155D01*
X15394Y2153D01*
X15393Y2152D01*
X15393Y2151D01*
X15392Y2150D01*
X15390Y2146D01*
X15386Y2141D01*
X15386Y2140D01*
X15386Y2140D01*
X15386Y2140D01*
X15386Y2139D01*
X15386Y2139D01*
X15386Y2139D01*
X15385Y2138D01*
X15385Y2138D01*
X15385Y2137D01*
X15384Y2136D01*
X15383Y2130D01*
X15383Y2129D01*
X15383Y2129D01*
X15381Y2124D01*
X15379Y2123D01*
X15339Y2105D01*
X15339Y2105D01*
X15339Y2105D01*
X15339Y2105D01*
X15338Y2105D01*
X15338Y2105D01*
X15338Y2105D01*
X15333Y2104D01*
X15332Y2104D01*
X15330Y2104D01*
X15330Y2104D01*
X15330Y2104D01*
X15330D01*
X15330Y2104D01*
X15326Y2104D01*
X15325Y2103D01*
X15322Y2103D01*
X15322Y2103D01*
X15321Y2103D01*
X15321Y2103D01*
X15321D01*
X15321Y2103D01*
X15321Y2103D01*
X15318Y2103D01*
X15318Y2103D01*
X15316Y2103D01*
X15314Y2103D01*
X15314D01*
X15314Y2103D01*
X15314D01*
X15311Y2102D01*
X15310Y2102D01*
X15308Y2102D01*
X15202D01*
Y2159D01*
X14731D01*
Y1758D01*
X15202D01*
Y1815D01*
X15287D01*
X15287Y1815D01*
X15308Y1807D01*
X15309Y1807D01*
X15316Y1804D01*
X15316Y1804D01*
X15316Y1804D01*
X15316Y1804D01*
X15316Y1804D01*
X15316Y1804D01*
X15316Y1804D01*
X15396Y1724D01*
X15396Y1724D01*
X15403Y1718D01*
X15403Y1718D01*
X15403Y1718D01*
X15403Y1718D01*
X15403Y1718D01*
X15403Y1718D01*
X15403Y1718D01*
X15403Y1718D01*
X15403Y1717D01*
X15403Y1717D01*
X15403Y1717D01*
X15403Y1715D01*
X15404Y1713D01*
X15405Y1712D01*
X15405Y1712D01*
X15406Y1710D01*
Y1710D01*
X15406Y1709D01*
X15406Y1709D01*
X15406Y1708D01*
X15406Y1708D01*
X15406Y1708D01*
Y1708D01*
X15407Y1704D01*
X15408Y1700D01*
X15408Y1696D01*
X15408Y1696D01*
Y1696D01*
Y1696D01*
X15408Y1696D01*
Y1696D01*
X15408Y1696D01*
Y1080D01*
X15408Y1080D01*
X15408Y1080D01*
Y1079D01*
Y1079D01*
Y1079D01*
Y1079D01*
X15408Y1079D01*
X15408Y1079D01*
Y1079D01*
X15408Y1079D01*
X15408Y1078D01*
Y1078D01*
X15408Y1078D01*
X15408Y1078D01*
Y1078D01*
X15408Y1078D01*
Y1078D01*
X15408Y1078D01*
X15408Y1078D01*
Y1078D01*
X15408Y1078D01*
Y1078D01*
X15408Y1078D01*
X15408Y1072D01*
X15407Y1071D01*
X15404Y1067D01*
X15399Y1057D01*
X15398Y1053D01*
X15397Y1051D01*
X15397Y1051D01*
X15397Y1050D01*
X15396Y1049D01*
X15396Y1049D01*
X15396Y1049D01*
X15396Y1049D01*
X15396Y1048D01*
X15396Y1048D01*
X15395Y1047D01*
X15395Y1047D01*
X15395Y1047D01*
X15395Y1046D01*
X15395Y1043D01*
X15394Y1041D01*
X15393Y1040D01*
X15393Y1040D01*
X15393Y1040D01*
X15393Y1037D01*
X15392Y1035D01*
X15392Y1035D01*
X15391Y1032D01*
X15391Y1031D01*
X15390Y1031D01*
X15390Y1031D01*
X15390Y1031D01*
X15390Y1031D01*
X15390Y1031D01*
Y1031D01*
X15390Y1031D01*
X15390Y1028D01*
X15389Y1027D01*
X15389Y1027D01*
X15389Y1027D01*
X15389Y1027D01*
X15389Y1026D01*
X15389Y1025D01*
X15389Y1025D01*
X15388Y1024D01*
X15388Y1023D01*
X15388Y1023D01*
X15388Y1022D01*
X15388Y1022D01*
X15387Y1021D01*
X15387Y1021D01*
X15387Y1021D01*
X15387Y1020D01*
X15387Y1020D01*
X15387Y1020D01*
X15387Y1019D01*
X15386Y1019D01*
X15386Y1019D01*
X15386Y1018D01*
X15386Y1018D01*
X15386Y1018D01*
X15386Y1018D01*
X15385Y1015D01*
X15384Y1012D01*
X15384Y1012D01*
X15383Y1011D01*
X15383Y1011D01*
X15383Y1011D01*
Y1011D01*
X15383Y1011D01*
X15383Y1011D01*
Y1011D01*
X15383Y1011D01*
X15383Y1011D01*
X15379Y1005D01*
X15379Y1005D01*
Y1005D01*
X15379Y1005D01*
X15379Y1005D01*
X15379Y1005D01*
X15379Y1005D01*
X15379Y1005D01*
X15378Y1005D01*
X15374Y1004D01*
X15371Y1002D01*
X15370Y1002D01*
X15369Y1001D01*
X15369Y1001D01*
X15367Y1000D01*
X15367Y1000D01*
X15367Y1000D01*
X15367Y1000D01*
X15366Y1000D01*
X15365Y999D01*
X15359Y997D01*
X15359Y997D01*
X15359Y997D01*
X15358Y996D01*
X15357Y995D01*
X15357Y995D01*
X15355Y994D01*
X15354Y994D01*
X15354Y994D01*
X15354Y994D01*
X15354Y994D01*
X15354Y994D01*
X15353Y993D01*
X15353Y993D01*
X15352Y993D01*
X15352Y993D01*
X15352Y992D01*
X15350Y992D01*
X15349Y990D01*
X15349Y990D01*
X15349Y990D01*
X15348Y990D01*
X15348Y990D01*
X15348Y990D01*
X15348Y990D01*
X15348Y989D01*
X15348Y989D01*
X15347Y989D01*
X15347Y989D01*
X15347Y989D01*
X15346Y989D01*
X15346Y988D01*
X15346Y988D01*
X15345Y988D01*
X15344Y987D01*
X15344Y987D01*
X15344Y987D01*
X15343Y987D01*
X15343Y987D01*
X15343Y987D01*
X15343Y987D01*
X15342Y986D01*
X15338Y982D01*
X15335Y980D01*
X15334Y979D01*
X15333Y979D01*
X15333Y978D01*
X15332Y978D01*
X15332Y978D01*
X15332Y978D01*
X15332Y978D01*
X15332Y978D01*
X15332Y978D01*
X15332Y978D01*
X15331Y978D01*
X15331Y977D01*
X15326Y974D01*
X15321Y970D01*
X15321Y970D01*
X15320Y969D01*
X15319Y968D01*
X15319Y968D01*
X15319Y968D01*
X15297Y948D01*
X15296Y946D01*
X15294Y945D01*
X15292Y941D01*
X15290Y940D01*
X15289Y939D01*
X15289Y939D01*
X15289Y939D01*
X15288Y937D01*
X15286Y936D01*
X15285Y933D01*
X15283Y932D01*
X15283Y931D01*
X15283Y931D01*
X15282Y931D01*
X15282Y930D01*
X15282Y930D01*
X15282Y930D01*
X15282Y930D01*
X15279Y927D01*
X15276Y920D01*
X15275Y920D01*
X15237Y934D01*
X14911D01*
Y984D01*
X14861D01*
Y1281D01*
X14595D01*
X14595Y1281D01*
X14595D01*
X14549Y1272D01*
X14545Y1272D01*
X13935D01*
Y1128D01*
X13927D01*
X13872Y1117D01*
X13826Y1086D01*
X13777Y1036D01*
X13746Y990D01*
X13735Y935D01*
Y591D01*
X13600D01*
X13565Y626D01*
Y678D01*
X13297D01*
Y728D01*
X13247D01*
Y883D01*
X13157D01*
Y1272D01*
X13155D01*
Y2175D01*
X13171Y2190D01*
X13951D01*
Y2133D01*
X14422D01*
Y2534D01*
X13951D01*
Y2477D01*
X13111D01*
X13056Y2466D01*
X13010Y2435D01*
X12910Y2336D01*
X12879Y2289D01*
X12868Y2234D01*
Y1491D01*
X12830Y1459D01*
X12815Y1462D01*
X12761D01*
Y3382D01*
X12780Y3400D01*
X13811D01*
X13856Y3388D01*
X13856Y3350D01*
Y3166D01*
X13806Y3156D01*
X13798Y3168D01*
X13722Y3219D01*
X13632Y3237D01*
X13542Y3219D01*
X13466Y3168D01*
X13415Y3092D01*
X13397Y3002D01*
X13415Y2912D01*
X13466Y2836D01*
X13542Y2785D01*
X13632Y2767D01*
X13722Y2785D01*
X13798Y2836D01*
X13806Y2848D01*
X13856Y2837D01*
Y2616D01*
X14545D01*
X14549Y2616D01*
X14595Y2607D01*
X14595D01*
X14595Y2607D01*
X14901D01*
Y3002D01*
X14951D01*
Y3052D01*
X15307D01*
Y3350D01*
X15307Y3397D01*
X15356Y3400D01*
X15984D01*
X15998Y3386D01*
D02*
G37*
%LPC*%
G36*
X8987Y-1465D02*
Y-1712D01*
X9254D01*
Y-1465D01*
X8987D01*
D02*
G37*
G36*
X9254Y-1812D02*
X8987D01*
Y-2059D01*
X9254D01*
Y-1812D01*
D02*
G37*
G36*
X11289Y-1812D02*
X11022D01*
Y-2059D01*
X11289D01*
Y-1812D01*
D02*
G37*
G36*
X8218Y-1172D02*
X7951D01*
Y-1419D01*
X8218D01*
Y-1172D01*
D02*
G37*
G36*
X13736Y-908D02*
X13446D01*
Y-1137D01*
X13736D01*
Y-908D01*
D02*
G37*
G36*
X13346D02*
X13056D01*
Y-1137D01*
X13346D01*
Y-908D01*
D02*
G37*
G36*
Y-1237D02*
X13056D01*
Y-1466D01*
X13346D01*
Y-1237D01*
D02*
G37*
G36*
X13736D02*
X13446D01*
Y-1466D01*
X13736D01*
Y-1237D01*
D02*
G37*
G36*
X11289Y-3091D02*
X11022D01*
Y-3338D01*
X11289D01*
Y-3091D01*
D02*
G37*
G36*
X6979Y-3542D02*
Y-3887D01*
X7285D01*
Y-3542D01*
X6979D01*
D02*
G37*
G36*
X17499Y-3550D02*
X17078D01*
Y-3972D01*
X17151Y-3962D01*
X17267Y-3914D01*
X17366Y-3838D01*
X17442Y-3739D01*
X17489Y-3624D01*
X17499Y-3550D01*
D02*
G37*
G36*
X17078Y-3028D02*
Y-3450D01*
X17499D01*
X17489Y-3376D01*
X17442Y-3261D01*
X17366Y-3162D01*
X17267Y-3086D01*
X17151Y-3038D01*
X17078Y-3028D01*
D02*
G37*
G36*
X8178Y-3542D02*
X7872D01*
Y-3887D01*
X8178D01*
Y-3542D01*
D02*
G37*
G36*
X11072Y-3483D02*
X10707D01*
Y-3887D01*
X11072D01*
Y-3483D01*
D02*
G37*
G36*
X14231Y-3141D02*
X13926D01*
Y-3486D01*
X14231D01*
Y-3141D01*
D02*
G37*
G36*
Y-2695D02*
X13926D01*
Y-3041D01*
X14231D01*
Y-2695D01*
D02*
G37*
G36*
X12639Y-3987D02*
X12274D01*
Y-4391D01*
X12639D01*
Y-3987D01*
D02*
G37*
G36*
X13346Y-2195D02*
X13056D01*
Y-2424D01*
X13346D01*
Y-2195D01*
D02*
G37*
G36*
X12174Y-3987D02*
X11809D01*
Y-4391D01*
X12174D01*
Y-3987D01*
D02*
G37*
G36*
X8178D02*
X7872D01*
Y-4332D01*
X8178D01*
Y-3987D01*
D02*
G37*
G36*
X15385Y-2695D02*
X15080D01*
Y-3041D01*
X15385D01*
Y-2695D01*
D02*
G37*
G36*
X7285Y-3987D02*
X6979D01*
Y-4332D01*
X7285D01*
Y-3987D01*
D02*
G37*
G36*
X13346Y-2524D02*
X13056D01*
Y-2754D01*
X13346D01*
Y-2524D01*
D02*
G37*
G36*
X8218Y-825D02*
X7951D01*
Y-1072D01*
X8218D01*
Y-825D01*
D02*
G37*
G36*
X9470Y2676D02*
X9204D01*
Y2508D01*
X9470D01*
Y2676D01*
D02*
G37*
G36*
X9104D02*
X8837D01*
Y2508D01*
X9104D01*
Y2676D01*
D02*
G37*
G36*
Y3693D02*
X8837D01*
Y3524D01*
X9104D01*
Y3693D01*
D02*
G37*
G36*
X15307Y2952D02*
X15001D01*
Y2607D01*
X15307D01*
Y2952D01*
D02*
G37*
G36*
X9026Y2441D02*
Y2095D01*
X9332D01*
Y2441D01*
X9026D01*
D02*
G37*
G36*
X6170Y1995D02*
X5904D01*
Y1748D01*
X6170D01*
Y1995D01*
D02*
G37*
G36*
X14432Y1794D02*
X14237D01*
Y1634D01*
X14432D01*
Y1794D01*
D02*
G37*
G36*
X8178Y2441D02*
X7872D01*
Y2095D01*
X8178D01*
Y2441D01*
D02*
G37*
G36*
X6170Y2342D02*
X5904D01*
Y2095D01*
X6170D01*
Y2342D01*
D02*
G37*
G36*
X8001Y4726D02*
X7636D01*
Y4322D01*
X8001D01*
Y4726D01*
D02*
G37*
G36*
X7018Y4667D02*
Y4322D01*
X7324D01*
Y4667D01*
X7018D01*
D02*
G37*
G36*
X9568Y4726D02*
X9204D01*
Y4322D01*
X9568D01*
Y4726D01*
D02*
G37*
G36*
X9104D02*
X8739D01*
Y4322D01*
X9104D01*
Y4726D01*
D02*
G37*
G36*
X7324Y4222D02*
X7018D01*
Y3876D01*
X7324D01*
Y4222D01*
D02*
G37*
G36*
X8001D02*
X7636D01*
Y3817D01*
X8001D01*
Y4222D01*
D02*
G37*
G36*
X9470Y3693D02*
X9204D01*
Y3524D01*
X9470D01*
Y3693D01*
D02*
G37*
G36*
X9568Y4222D02*
X9204D01*
Y3817D01*
X9568D01*
Y4222D01*
D02*
G37*
G36*
X9104D02*
X8739D01*
Y3817D01*
X9104D01*
Y4222D01*
D02*
G37*
G36*
X14137Y1794D02*
X13942D01*
Y1634D01*
X14137D01*
Y1794D01*
D02*
G37*
G36*
X13565Y883D02*
X13347D01*
Y778D01*
X13565D01*
Y883D01*
D02*
G37*
G36*
X11464Y1170D02*
X11235D01*
Y880D01*
X11425D01*
X11430Y880D01*
X11430D01*
X11430D01*
X11430D01*
X11430Y880D01*
X11430D01*
X11447Y880D01*
X11462Y880D01*
X11463D01*
X11463D01*
X11464D01*
X11464D01*
X11464D01*
X11465Y877D01*
X11466Y873D01*
X11468Y865D01*
X11469Y861D01*
Y861D01*
X11469Y861D01*
X11469Y861D01*
X11469Y859D01*
X11469Y859D01*
Y859D01*
Y859D01*
X11469Y859D01*
Y859D01*
X11469Y858D01*
X11475Y835D01*
Y835D01*
Y835D01*
X11475Y833D01*
Y833D01*
Y778D01*
X11692D01*
Y883D01*
X11514D01*
X11509Y883D01*
X11509D01*
X11509D01*
X11509D01*
X11509Y883D01*
X11509D01*
X11492Y883D01*
X11477Y883D01*
X11476D01*
X11476D01*
X11475D01*
X11475D01*
X11475D01*
X11474Y887D01*
X11473Y891D01*
X11471Y899D01*
X11470Y902D01*
Y902D01*
X11470Y903D01*
X11470Y903D01*
X11470Y905D01*
X11470Y905D01*
X11470Y905D01*
Y905D01*
Y905D01*
X11470Y905D01*
X11470Y906D01*
X11464Y929D01*
Y929D01*
Y929D01*
X11464Y930D01*
Y930D01*
Y1170D01*
D02*
G37*
G36*
X9848D02*
X9618D01*
Y880D01*
X9848D01*
Y1170D01*
D02*
G37*
G36*
X11135D02*
X10906D01*
Y880D01*
X11135D01*
Y1170D01*
D02*
G37*
G36*
X8987Y889D02*
Y643D01*
X9254D01*
Y889D01*
X8987D01*
D02*
G37*
G36*
X13167Y-591D02*
X13062D01*
Y-809D01*
X13167D01*
Y-591D01*
D02*
G37*
G36*
X11289Y-825D02*
X11022D01*
Y-1072D01*
X11289D01*
Y-825D01*
D02*
G37*
G36*
X13565Y88D02*
X13030D01*
Y-9D01*
X13565D01*
Y88D01*
D02*
G37*
G36*
X9960Y-532D02*
X9693D01*
Y-779D01*
X9960D01*
Y-532D01*
D02*
G37*
G36*
X11464Y1561D02*
X11235D01*
Y1270D01*
X11464D01*
Y1561D01*
D02*
G37*
G36*
X11135D02*
X10906D01*
Y1270D01*
X11135D01*
Y1561D01*
D02*
G37*
G36*
X14432Y1534D02*
X14237D01*
Y1374D01*
X14432D01*
Y1534D01*
D02*
G37*
G36*
X14137D02*
X13942D01*
Y1374D01*
X14137D01*
Y1534D01*
D02*
G37*
G36*
X10177Y1561D02*
X9948D01*
Y1270D01*
X10177D01*
Y1561D01*
D02*
G37*
G36*
X9254Y1269D02*
X8987D01*
Y1022D01*
X9254D01*
Y1269D01*
D02*
G37*
G36*
X10177Y1170D02*
X9948D01*
Y880D01*
X10177D01*
Y1170D01*
D02*
G37*
G36*
X9848Y1561D02*
X9618D01*
Y1270D01*
X9848D01*
Y1561D01*
D02*
G37*
G36*
X14961Y1281D02*
Y1034D01*
X15228D01*
Y1281D01*
X14961D01*
D02*
G37*
%LPD*%
G54D10*
X-18307Y-3992D02*
D03*
Y-5921D02*
D03*
X-15551Y6358D02*
D03*
Y4429D02*
D03*
G54D11*
X-9980Y-2756D02*
D03*
X-9311D02*
D03*
X-9980Y-1870D02*
D03*
X-9311D02*
D03*
X-7612Y-1870D02*
D03*
X-6943D02*
D03*
X-7612Y-2756D02*
D03*
X-6943D02*
D03*
X11339Y-3041D02*
D03*
X12008D02*
D03*
X-2894Y-394D02*
D03*
X-2224D02*
D03*
X4295Y4589D02*
D03*
X3626D02*
D03*
X-1240Y1969D02*
D03*
X-1909D02*
D03*
X1929D02*
D03*
X2598D02*
D03*
X-335Y1280D02*
D03*
X335D02*
D03*
X748Y-2165D02*
D03*
X1417D02*
D03*
X-2500Y-3937D02*
D03*
X-1831D02*
D03*
X2579Y98D02*
D03*
X3248D02*
D03*
X3626Y3760D02*
D03*
X4295D02*
D03*
X-4173Y1969D02*
D03*
X-3504D02*
D03*
X-4173Y4724D02*
D03*
X-3504D02*
D03*
X8268Y-1122D02*
D03*
X8937D02*
D03*
X14911Y335D02*
D03*
X14242D02*
D03*
X8268Y593D02*
D03*
X8937D02*
D03*
X-2894Y-1083D02*
D03*
X-2224D02*
D03*
X-492D02*
D03*
X-1161D02*
D03*
X3626Y3089D02*
D03*
X4295D02*
D03*
X3248Y-1083D02*
D03*
X2579D02*
D03*
X758D02*
D03*
X1427D02*
D03*
X1417Y-3937D02*
D03*
X748D02*
D03*
X3287Y-2165D02*
D03*
X2618D02*
D03*
X3287Y-3937D02*
D03*
X2618D02*
D03*
X-1825Y-2854D02*
D03*
X-2494D02*
D03*
X3287Y-3179D02*
D03*
X2618D02*
D03*
X-453Y-2165D02*
D03*
X-1122D02*
D03*
X-4173Y5413D02*
D03*
X-3504D02*
D03*
X-5551D02*
D03*
X-4882D02*
D03*
X-1447D02*
D03*
X-2116D02*
D03*
X-3504Y2657D02*
D03*
X-4173D02*
D03*
X-3504Y4089D02*
D03*
X-4173D02*
D03*
X6890Y-2402D02*
D03*
X6220D02*
D03*
X8937Y-1762D02*
D03*
X8268D02*
D03*
X-4173Y3445D02*
D03*
X-3504D02*
D03*
X8268Y-482D02*
D03*
X8937D02*
D03*
X-5551Y4089D02*
D03*
X-4882D02*
D03*
X8268Y1319D02*
D03*
X8937D02*
D03*
X6890Y2717D02*
D03*
X6220D02*
D03*
X6220Y2045D02*
D03*
X6890D02*
D03*
X11339Y-1122D02*
D03*
X12008D02*
D03*
X10010Y-482D02*
D03*
X10679D02*
D03*
X12008Y-1762D02*
D03*
X11339D02*
D03*
X11339Y-2402D02*
D03*
X12008D02*
D03*
X14911Y984D02*
D03*
X14242D02*
D03*
G54D12*
X-26077Y64764D02*
D03*
X62506D02*
D03*
X62506Y-6496D02*
D03*
X-26077D02*
D03*
G54D13*
X-11831Y-1870D02*
D03*
X-12579D02*
D03*
X-11831Y-2756D02*
D03*
X-12579D02*
D03*
X4335Y5337D02*
D03*
X3587D02*
D03*
X-374Y1969D02*
D03*
X374D02*
D03*
X8228Y-3937D02*
D03*
X8976D02*
D03*
X6929Y-1762D02*
D03*
X6181D02*
D03*
X6929Y-3937D02*
D03*
X6181D02*
D03*
X14282Y-3091D02*
D03*
X15030D02*
D03*
X14203Y3002D02*
D03*
X14951D02*
D03*
X8228Y2045D02*
D03*
X8976D02*
D03*
X6969Y4272D02*
D03*
X6220D02*
D03*
X-16063Y-3008D02*
D03*
X-16811D02*
D03*
X-18681D02*
D03*
X-17933D02*
D03*
X-12283Y-6102D02*
D03*
X-11535D02*
D03*
X-13504D02*
D03*
X-14252D02*
D03*
X-16063Y-3992D02*
D03*
X-16811D02*
D03*
G54D14*
X4478Y1181D02*
D03*
Y1555D02*
D03*
Y807D02*
D03*
X3376Y1555D02*
D03*
Y807D02*
D03*
X-9567Y-4931D02*
D03*
Y-5679D02*
D03*
X-10669Y-4931D02*
D03*
Y-5679D02*
D03*
Y-5305D02*
D03*
X9154Y3100D02*
D03*
Y3474D02*
D03*
Y2726D02*
D03*
X8051Y3474D02*
D03*
Y2726D02*
D03*
G54D15*
X14187Y1584D02*
D03*
X14967Y1959D02*
D03*
X14187Y2334D02*
D03*
G54D16*
X-12205Y3248D02*
D03*
X-12461D02*
D03*
X-12717D02*
D03*
X-12972D02*
D03*
X-13228D02*
D03*
X-13484D02*
D03*
X-13740D02*
D03*
X-13996D02*
D03*
X-14252D02*
D03*
X-14508D02*
D03*
X-14508Y965D02*
D03*
X-14252D02*
D03*
X-13996D02*
D03*
X-13740D02*
D03*
X-13484D02*
D03*
X-13228D02*
D03*
X-12972D02*
D03*
X-12717D02*
D03*
X-12461D02*
D03*
X-12205D02*
D03*
G54D17*
X-866Y-2923D02*
D03*
Y-3179D02*
D03*
Y-3435D02*
D03*
Y-2667D02*
D03*
X866D02*
D03*
Y-2923D02*
D03*
Y-3179D02*
D03*
Y-3435D02*
D03*
G54D18*
X11742Y-256D02*
D03*
X11742Y-59D02*
D03*
Y138D02*
D03*
Y335D02*
D03*
Y531D02*
D03*
Y728D02*
D03*
X13297D02*
D03*
Y531D02*
D03*
Y335D02*
D03*
Y138D02*
D03*
Y-59D02*
D03*
X13297Y-256D02*
D03*
D03*
G54D19*
X13012Y1014D02*
D03*
X12815D02*
D03*
X12618D02*
D03*
X12421D02*
D03*
X12224D02*
D03*
X12028Y1014D02*
D03*
X13012Y-541D02*
D03*
X12815D02*
D03*
X12618D02*
D03*
X12421D02*
D03*
X12224D02*
D03*
X12028D02*
D03*
G54D20*
X8986Y-2913D02*
D03*
Y-2657D02*
D03*
Y-2402D02*
D03*
X8159D02*
D03*
Y-2657D02*
D03*
Y-2913D02*
D03*
G54D21*
X13396Y-1187D02*
D03*
Y-2474D02*
D03*
G54D22*
X9898Y1220D02*
D03*
X11185D02*
D03*
G54D23*
X15357Y-1240D02*
D03*
X14191D02*
D03*
G54D24*
X11427Y3280D02*
D03*
Y2114D02*
D03*
G54D25*
X-13642Y-4931D02*
D03*
Y-4675D02*
D03*
Y-4419D02*
D03*
Y-4163D02*
D03*
Y-3907D02*
D03*
Y-3652D02*
D03*
Y-3396D02*
D03*
X-11358D02*
D03*
Y-3652D02*
D03*
Y-3907D02*
D03*
Y-4163D02*
D03*
Y-4419D02*
D03*
Y-4675D02*
D03*
Y-4931D02*
D03*
G54D26*
X-866Y394D02*
D03*
Y197D02*
D03*
Y0D02*
D03*
Y-197D02*
D03*
Y-394D02*
D03*
X866Y394D02*
D03*
Y197D02*
D03*
Y0D02*
D03*
Y-197D02*
D03*
Y-394D02*
D03*
G54D27*
X12224Y-3937D02*
D03*
X11122D02*
D03*
X9154Y4272D02*
D03*
X8051D02*
D03*
G54D28*
X-1781Y4589D02*
D03*
Y4089D02*
D03*
Y3589D02*
D03*
Y3089D02*
D03*
X1781Y4589D02*
D03*
Y4089D02*
D03*
Y3589D02*
D03*
Y3089D02*
D03*
G54D29*
X-16618Y4390D02*
D03*
X-18618Y6043D02*
D03*
Y4390D02*
D03*
X-16618Y6043D02*
D03*
G54D30*
X-10728Y2579D02*
D03*
Y3327D02*
D03*
Y4941D02*
D03*
Y5689D02*
D03*
X-12598Y4941D02*
D03*
Y5689D02*
D03*
X-11614Y4941D02*
D03*
Y5689D02*
D03*
X-13484Y4941D02*
D03*
Y5689D02*
D03*
X-14370Y4941D02*
D03*
Y5689D02*
D03*
G54D31*
X5384Y-2490D02*
Y3415D01*
X5453Y3484D01*
X5807D01*
X-3307Y-1624D02*
Y-1122D01*
X-2894Y-1083D02*
X-2848D01*
X-8459D02*
X-2894D01*
X-2384Y3089D02*
X-1781D01*
X-2461Y3012D02*
X-2384Y3089D01*
X-2461Y2444D02*
Y3012D01*
X4776Y-392D02*
X4823Y-344D01*
X866Y-392D02*
X4776D01*
X4823Y-344D02*
Y738D01*
X-9892Y1722D02*
X-9744Y1870D01*
Y4724D01*
X-9449Y4921D02*
X-9301Y5069D01*
X-9449Y1673D02*
Y4921D01*
X-23819Y6791D02*
X-15551D01*
X-23906Y6705D02*
X-23819Y6791D01*
X-23906Y5000D02*
Y6705D01*
X-20673Y1000D02*
X-20571Y898D01*
X-20571Y-591D02*
Y898D01*
X-20866Y500D02*
X-20768Y402D01*
X-20768Y-787D02*
Y402D01*
X-12648Y-738D02*
X-1722D01*
X-12795Y-886D02*
X-12648Y-738D01*
X-20669Y-886D02*
X-12795D01*
X-13130Y197D02*
X-3465D01*
X1329Y49D02*
Y1280D01*
X1280Y0D02*
X1329Y49D01*
X866Y0D02*
X1280D01*
X1575Y1722D02*
X1673Y1476D01*
X1575Y1722D02*
Y1919D01*
X2559Y5313D02*
Y5709D01*
X2461Y5807D02*
X2559Y5709D01*
X-4478Y5807D02*
X2461D01*
X2484Y5238D02*
X2559Y5313D01*
X-8557Y-4581D02*
Y-1181D01*
X-8652Y-4675D02*
X-8557Y-4581D01*
X-11427Y-4675D02*
X-8652D01*
X-8557Y-1181D02*
X-8459Y-1083D01*
X-9311Y-1870D02*
X-8858D01*
Y-2657D02*
Y-1870D01*
X-8951Y-2750D02*
X-8858Y-2657D01*
X-8951Y-2756D02*
Y-2750D01*
X-6490Y-2652D02*
Y-1870D01*
X-6589Y-2750D02*
X-6490Y-2652D01*
X-6589Y-2756D02*
Y-2750D01*
X-14252Y-3297D02*
Y-2126D01*
X-14378Y-2000D02*
X-14252Y-2126D01*
X-22906Y-2000D02*
X-14378D01*
X-14449Y-3553D02*
Y-2323D01*
X-14541Y-2230D02*
X-14449Y-2323D01*
X-22136Y-2230D02*
X-14541D01*
X-22406Y-2500D02*
X-22136Y-2230D01*
X-23406Y-2500D02*
X-22406D01*
X-22047Y-2461D02*
X-14764D01*
X-22146Y-2559D02*
X-22047Y-2461D01*
X-14764D02*
X-14646Y-2579D01*
X-8370Y-4827D02*
Y-1978D01*
X-8474Y-4931D02*
X-8370Y-4827D01*
X-10669Y-4931D02*
X-8474D01*
X-14646Y-3809D02*
Y-2579D01*
X-9596Y1526D02*
X-9449Y1673D01*
X-12120Y1526D02*
X-9596D01*
X-9301Y5069D02*
X-4528D01*
Y5413D01*
X-12366Y1722D02*
X-9892D01*
X-20445Y1500D02*
X-20374Y1429D01*
X-3150Y443D02*
X-3100Y394D01*
X-3563Y-0D02*
X-1870D01*
X-18898Y5610D02*
X-18701D01*
X-18976Y5689D02*
X-18898Y5610D01*
X-18976Y5689D02*
Y6791D01*
X-18701Y5610D02*
X-18618Y5528D01*
Y4390D02*
Y5528D01*
X-18898Y3839D02*
X-14350D01*
X-18996Y3937D02*
X-18898Y3839D01*
X-11611Y6791D02*
X-11116D01*
X-12106D02*
X-11611D01*
X-11614Y6788D02*
X-11611Y6791D01*
X-11614Y5689D02*
Y6788D01*
X-11116Y6791D02*
X-11116Y6791D01*
X-10827D01*
X-10728Y6693D01*
Y5689D02*
Y6693D01*
X-15551Y6791D02*
X-12106D01*
X-15551Y6358D02*
Y6791D01*
X-14370Y4478D02*
X-13484D01*
X-15551D02*
X-14370D01*
Y4941D01*
X-13484Y4478D02*
Y4941D01*
X-12598Y4528D02*
Y4941D01*
X-12648Y4478D02*
X-12598Y4528D01*
X-13484Y4478D02*
X-12648D01*
X-13484Y3593D02*
Y4478D01*
X-10728Y2100D02*
Y2579D01*
Y3504D02*
Y3740D01*
X-10827Y3839D02*
X-10728Y3740D01*
X-11467Y3839D02*
X-10827D01*
Y3406D02*
X-10728Y3504D01*
X-12106Y4331D02*
Y6791D01*
X-12205Y4232D02*
X-12106Y4331D01*
X-12894Y4232D02*
X-12205D01*
X-22146Y-2890D02*
Y-2559D01*
X-11018Y-3341D02*
Y-2756D01*
X-11073Y-3396D02*
X-11018Y-3341D01*
X-11427Y-3396D02*
X-11073D01*
X-19144Y-3500D02*
X-15138D01*
X-21831D02*
X-19144D01*
X-19154Y-3490D02*
X-19144Y-3500D01*
X-19154Y-3490D02*
Y-3096D01*
X-14931Y-4163D02*
X-13711D01*
X-15039Y-4055D02*
X-14931Y-4163D01*
X-15039Y-4055D02*
Y-3598D01*
X-17372Y-4675D02*
X-13642D01*
X-9567Y-5679D02*
X-9276D01*
X-9163Y-5791D01*
Y-6610D02*
Y-5791D01*
X-9246Y-6693D02*
X-9163Y-6610D01*
X-10614Y-4419D02*
X-10516Y-4321D01*
Y-2854D01*
X-11427Y-4419D02*
X-10614D01*
X-11850Y-3652D02*
X-11427D01*
X-15138Y-3500D02*
X-15039Y-3598D01*
X-13740Y3248D02*
Y3799D01*
X1772Y-2657D02*
Y-2215D01*
X1339Y-2657D02*
X1772D01*
X935Y-2913D02*
X2008D01*
X2067Y-2854D01*
X-13996Y3199D02*
Y3937D01*
X-14094Y4035D02*
X-13996Y3937D01*
X-8065Y-2756D02*
X-7612D01*
X-8262Y-1870D02*
X-7612D01*
X-8370Y-1978D02*
X-8262Y-1870D01*
X2067Y-2854D02*
Y-1083D01*
X-6943Y-2756D02*
X-6589D01*
X-10427Y-1870D02*
X-9974D01*
X-10427Y-2756D02*
X-10171D01*
X-11018Y-1870D02*
Y-1378D01*
Y-2756D02*
Y-1870D01*
X-11825D02*
X-11018D01*
X-21850Y-1378D02*
X-11018D01*
X-12461Y1628D02*
X-12366Y1722D01*
X-12461Y965D02*
Y1628D01*
X-12205Y1441D02*
X-12120Y1526D01*
X-12205Y965D02*
Y1441D01*
X-12648Y4035D02*
X-10876D01*
X-12717Y3967D02*
X-12648Y4035D01*
X-10876D02*
X-10827Y4085D01*
X-14508Y3248D02*
Y3543D01*
X-14606Y3642D02*
X-14508Y3543D01*
X-14252Y3268D02*
Y3740D01*
X-14350Y3839D02*
X-14252Y3740D01*
X-2455Y1083D02*
Y1963D01*
X-3346Y-3150D02*
Y-2947D01*
Y-6293D02*
Y-3150D01*
X-3317Y-3179D01*
X-13085Y-1870D02*
X-12494D01*
X-13091Y-2756D02*
X-12579D01*
X-9305Y-2756D02*
X-8951D01*
X-6943Y-1870D02*
X-6490D01*
X-10516Y-2844D02*
X-10427Y-2756D01*
X-11825D02*
X-11018D01*
X-3317Y-3179D02*
X-866D01*
X-5384Y-2923D02*
X-2500D01*
X-2461Y1969D02*
X-2455Y1963D01*
X-11004Y-5610D02*
Y-5033D01*
X-11106Y-4931D02*
X-11004Y-5033D01*
X-11427Y-4931D02*
X-11106D01*
X-10935Y-5679D02*
X-10669D01*
X-11004Y-5610D02*
X-10935Y-5679D01*
X-22228Y-1000D02*
X-21850Y-1378D01*
X-22906Y-1000D02*
X-22228D01*
X12421Y1319D02*
Y3760D01*
X12520Y3858D01*
X16270D01*
X16250Y2500D02*
X17028D01*
X16142Y2608D02*
X16250Y2500D01*
X16142Y2608D02*
Y3445D01*
X16043Y3543D02*
X16142Y3445D01*
X12720Y3543D02*
X16043D01*
X16339D02*
Y3789D01*
X16270Y3858D02*
X16339Y3789D01*
X16382Y3500D02*
X17028D01*
X16339Y3543D02*
X16382Y3500D01*
X5709Y-4281D02*
Y-2815D01*
X5610Y-4380D02*
X5709Y-4281D01*
X-1378Y-4380D02*
X5610D01*
X-1476Y-4281D02*
X-1378Y-4380D01*
X-1476Y-4281D02*
Y-3937D01*
X1417Y-2165D02*
X1722D01*
X1772Y-2215D01*
X-3150Y4774D02*
Y5020D01*
X-3199Y4724D02*
X-3150Y4774D01*
X-3504Y4724D02*
X-3199D01*
X-4528Y5069D02*
X-3199D01*
X-3150Y5020D01*
X-24606Y-5000D02*
X-23906D01*
X-13406Y-6102D02*
X-12283D01*
X-22136Y-4931D02*
X-13711D01*
X-22215Y-4852D02*
X-22136Y-4931D01*
X-22215Y-4852D02*
Y-4557D01*
X-22057Y-4419D02*
X-13711D01*
X-22126Y-4350D02*
X-22057Y-4419D01*
X-22126Y-4350D02*
Y-4055D01*
X-22181Y-4000D02*
X-22126Y-4055D01*
X-22906Y-4000D02*
X-22181D01*
X-19065Y-3008D02*
X-18681D01*
X-19154Y-3096D02*
X-19065Y-3008D01*
X-23406Y-3500D02*
X-21831D01*
X-22256Y-3000D02*
X-22146Y-2890D01*
X-22906Y-3000D02*
X-22256D01*
X-22272Y-4500D02*
X-22215Y-4557D01*
X-23406Y-4500D02*
X-22272D01*
X-23906Y-2000D02*
X-23406Y-2500D01*
X-23906Y-3000D02*
X-23406Y-3500D01*
X-23906Y-4000D02*
X-23406Y-4500D01*
Y2500D02*
X-20071D01*
X-23906Y2000D02*
X-23406Y2500D01*
X-20071Y2500D02*
X-19980Y2409D01*
X-23906Y-1000D02*
X-22906D01*
Y1000D02*
X-20673D01*
X-22906Y2000D02*
X-20280D01*
X-22906Y5000D02*
X-19098D01*
X-23906Y4000D02*
X-23406Y4500D01*
X-19295D01*
X-22906Y4000D02*
X-19484D01*
X-23906Y3000D02*
X-23406Y3500D01*
X-19693D01*
X-22906Y3000D02*
X-19882D01*
X-23906Y1000D02*
X-23406Y1500D01*
X-20445D01*
X-23906Y-0D02*
X-23425Y500D01*
X-20866D01*
X-18996Y3937D02*
Y4898D01*
X-19193Y3740D02*
Y4398D01*
X-19390Y591D02*
Y3906D01*
X-19587Y394D02*
Y3394D01*
X-19783Y197D02*
Y2902D01*
X-19980Y-0D02*
Y2409D01*
X-20177Y-197D02*
Y1898D01*
X-20374Y-394D02*
Y1429D01*
X-12717Y472D02*
Y965D01*
X-1870Y-344D02*
Y0D01*
X-12874Y-0D02*
X-3563Y-0D01*
X-3465Y197D02*
X-866D01*
X-13228Y-394D02*
Y98D01*
X-13327Y-492D02*
X-13228Y-394D01*
X-12972Y-591D02*
Y-98D01*
X-13071Y-689D02*
X-12972Y-591D01*
Y-98D02*
X-12874Y-0D01*
X-16618Y6043D02*
Y6421D01*
X-17012D02*
X-16618D01*
X13878Y335D02*
X14144D01*
X13297D02*
X13878D01*
X13927Y984D02*
X14242D01*
X13878Y935D02*
X13927Y984D01*
X13878Y335D02*
Y935D01*
X12618Y3441D02*
X12720Y3543D01*
X12618Y1319D02*
Y3441D01*
X15453Y2274D02*
X15935D01*
X16043Y2165D01*
Y1575D02*
Y2165D01*
Y1575D02*
X16118Y1500D01*
X17028D01*
X15000Y2953D02*
X15453D01*
Y2274D02*
Y2953D01*
X14567Y2274D02*
X15453D01*
X14951Y3002D02*
X15000Y2953D01*
X13632Y3002D02*
X14203D01*
X13111Y2334D02*
X14187D01*
X13012Y2234D02*
X13111Y2334D01*
X13012Y1028D02*
Y2234D01*
X13650Y1584D02*
X14187D01*
X13641Y783D02*
Y1575D01*
X17028Y4500D02*
Y6398D01*
X16831Y6594D02*
X17028Y6398D01*
X13297Y728D02*
X13586D01*
X13641Y550D02*
Y783D01*
X13622Y531D02*
X13641Y550D01*
X13297Y531D02*
X13622D01*
X14567Y1584D02*
X15198D01*
X14187D02*
X14567D01*
X-11427Y-4163D02*
X-10856D01*
X-10994Y-3907D02*
X-10827Y-3740D01*
X-11358Y-3907D02*
X-10994D01*
X7874Y640D02*
X7874Y640D01*
Y98D02*
Y640D01*
X-12146Y3622D02*
X-11909D01*
X-12205Y3563D02*
X-12146Y3622D01*
X-12205Y3248D02*
Y3563D01*
X-11909Y3622D02*
X-11850Y3563D01*
Y3346D02*
Y3563D01*
X-11467Y3839D02*
X-11467Y3839D01*
X-2953Y-3937D02*
X-2598D01*
X-1240Y1969D02*
X-374D01*
X-886Y1280D02*
Y1969D01*
Y1280D02*
X-335D01*
X1781Y3589D02*
X2317D01*
X2362Y3543D01*
Y3089D02*
Y3543D01*
Y3089D02*
X3626D01*
X1781D02*
X2362D01*
X2933Y807D02*
X3376D01*
X4478Y1181D02*
X5020D01*
X4478Y1181D02*
X4478Y1181D01*
X5217Y-2657D02*
X5384Y-2490D01*
X-16618Y4035D02*
X-14094D01*
X-16618Y4380D02*
X-16569Y4429D01*
X-16654Y4344D02*
X-16618Y4380D01*
Y4429D01*
Y4035D02*
Y4380D01*
X866Y0D02*
X866D01*
X-18307Y-6693D02*
Y-5866D01*
X-19094Y3642D02*
X-14606D01*
X-19098Y5000D02*
X-18996Y4898D01*
X-19295Y4500D02*
X-19193Y4398D01*
Y3740D02*
X-19094Y3642D01*
X-19484Y4000D02*
X-19390Y3906D01*
X-12972Y4154D02*
X-12894Y4232D01*
X-12972Y3248D02*
Y4154D01*
X-10827Y4085D02*
Y4941D01*
X-12717Y3248D02*
Y3967D01*
X-12402Y3839D02*
X-11467D01*
X-12461Y3248D02*
Y3780D01*
X-12402Y3839D01*
X15256Y1033D02*
Y1526D01*
X15197Y974D02*
X15256Y1033D01*
X14813Y974D02*
X15197D01*
X15198Y1584D02*
X15256Y1526D01*
X5709Y-2815D02*
X7470D01*
X7628Y-2657D01*
X8130D01*
X5768Y-1762D02*
X6181D01*
X5709Y-1821D02*
X5768Y-1762D01*
X5709Y-2402D02*
Y-1821D01*
X10650Y-3406D02*
X13327D01*
X13396Y-3337D01*
Y-2474D01*
X12008Y-3041D02*
X12559D01*
X12618Y-2982D01*
Y-2402D01*
X12008Y-1112D02*
X12372D01*
X12421Y-1063D01*
Y-541D01*
X12008Y-1122D02*
Y-1112D01*
X10906Y-1762D02*
Y-1152D01*
X10935Y-1122D01*
X11339D01*
X11122Y-443D02*
Y-295D01*
X11161Y-256D01*
X11742D01*
X11083Y-482D02*
X11122Y-443D01*
X10679Y-482D02*
X11083D01*
X9705D02*
X10010D01*
X9656Y-531D02*
X9705Y-482D01*
X9656Y-1762D02*
Y-531D01*
X8937Y-1122D02*
X9311D01*
X9370Y-1063D01*
Y-482D01*
X9439Y-59D02*
X11742D01*
X9370Y-128D02*
X9439Y-59D01*
X9370Y-482D02*
Y-128D01*
X7874Y-443D02*
Y98D01*
Y-443D02*
X7913Y-482D01*
X8209D01*
X7913Y138D02*
X11742D01*
X7874Y98D02*
X7913Y138D01*
X9459Y384D02*
Y531D01*
Y384D02*
X9508Y335D01*
X11742D01*
X7874Y640D02*
Y1280D01*
X7921Y593D02*
X8268D01*
X7874Y1280D02*
X7913Y1319D01*
X8209D01*
X9045Y2045D02*
X9421D01*
X9459Y2008D01*
Y531D02*
Y2008D01*
X9222Y4272D02*
X10197D01*
X10246Y4222D01*
Y3484D02*
Y4222D01*
X7264Y2096D02*
Y2736D01*
X7213Y2045D02*
X7264Y2096D01*
X6909Y2045D02*
X7213D01*
X5846Y2717D02*
X6220D01*
X5807Y2756D02*
X5846Y2717D01*
X5807Y2756D02*
Y3484D01*
X5846Y4272D02*
X6201D01*
X5807Y4232D02*
X5846Y4272D01*
X5807Y3484D02*
Y4232D01*
X4645Y787D02*
X4774D01*
X4823Y738D01*
X2215Y98D02*
X2618D01*
X2165Y49D02*
X2215Y98D01*
X2165Y-392D02*
Y49D01*
X2264Y-3179D02*
Y-2215D01*
Y-3494D02*
Y-3179D01*
X2618D01*
X866D02*
X2264D01*
X2313Y-3543D02*
X3593D01*
X3661Y-3612D01*
Y-3868D02*
Y-3612D01*
X3307Y-3937D02*
X3593D01*
X3661Y-3868D01*
X2313Y-2165D02*
X2687D01*
X2264Y-2215D02*
X2313Y-2165D01*
X2264Y-3494D02*
X2313Y-3543D01*
X935Y-3425D02*
X1998D01*
X2067Y-3494D01*
Y-3937D02*
Y-3494D01*
X-1417Y-3435D02*
X-866D01*
X-1476Y-3494D02*
X-1417Y-3435D01*
X-1476Y-3937D02*
Y-3494D01*
X-1624Y-197D02*
X-866D01*
X-1673Y-246D02*
X-1624Y-197D01*
X-1673Y-689D02*
Y-246D01*
X-1427Y-394D02*
X-866D01*
X-1476Y-443D02*
X-1427Y-394D01*
X-1476Y-1083D02*
Y-443D01*
X-1722Y-738D02*
X-1673Y-689D01*
X-2224Y-394D02*
X-1919D01*
X-1870Y-344D01*
X443Y-1083D02*
Y344D01*
X492Y394D01*
X866D01*
X4823Y1594D02*
Y3069D01*
X4783Y1555D02*
X4823Y1594D01*
X4478Y1555D02*
X4783D01*
X4295Y3740D02*
X4774D01*
X4823Y3691D01*
Y3069D02*
Y3691D01*
X1575Y1919D02*
X1624Y1969D01*
X1929D01*
X-3100Y394D02*
X-1575D01*
X-3150Y443D02*
Y1969D01*
X-3504Y2657D02*
X-3199D01*
X-3150Y2608D01*
Y1969D02*
Y2608D01*
X-4478Y2657D02*
X-4173D01*
X-4528Y2707D02*
X-4478Y2657D01*
X-4528Y2707D02*
Y3051D01*
X-4478Y3445D02*
X-4173D01*
X-4528Y3396D02*
X-4478Y3445D01*
X-4528Y3051D02*
Y3396D01*
Y5758D02*
X-4478Y5807D01*
X-4528Y5413D02*
Y5758D01*
X-2718Y4589D02*
X-1781D01*
X-2756Y4626D02*
X-2718Y4589D01*
X-2756Y4626D02*
Y5413D01*
X-2116D01*
X-3468Y3444D02*
X-3200D01*
X-3150Y3494D01*
Y4069D01*
X-3504Y4089D02*
X-1781D01*
X-2711Y3589D02*
X-1781D01*
X-2756Y3543D02*
X-2711Y3589D01*
X-2756Y3100D02*
Y3543D01*
X-4528Y3051D02*
X-2805D01*
X-2756Y3100D01*
X1781Y4089D02*
X2559D01*
X-6024Y4724D02*
X-4528D01*
X-4528Y4724D01*
X-14646Y-3809D02*
X-14547Y-3907D01*
X-13711D01*
X-14350Y-3652D02*
X-13711D01*
X-14449Y-3553D02*
X-14350Y-3652D01*
X-14154Y-3396D02*
X-13711D01*
X-14252Y-3297D02*
X-14154Y-3396D01*
X-17372Y-3992D02*
X-16811D01*
X-18307D02*
X-17372D01*
Y-3008D02*
X-16811D01*
X-17933D02*
X-17372D01*
X-13228Y98D02*
X-13130Y197D01*
X-20472Y-689D02*
X-13071D01*
X-20276Y-492D02*
X-13327D01*
X-13583Y-295D02*
X-13484Y-197D01*
X-20079Y-295D02*
X-13583D01*
X-13484Y-197D02*
Y965D01*
X-13740Y-0D02*
Y965D01*
X-13839Y-98D02*
X-13740Y-0D01*
X-19882Y-98D02*
X-13839D01*
X-13996Y197D02*
Y965D01*
X-14094Y98D02*
X-13996Y197D01*
X-19685Y98D02*
X-14094D01*
X-14252Y394D02*
Y965D01*
X-14350Y295D02*
X-14252Y394D01*
X-19488Y295D02*
X-14350D01*
X-14508Y591D02*
Y965D01*
X-14606Y492D02*
X-14508Y591D01*
X-19291Y492D02*
X-14606D01*
X-19693Y3500D02*
X-19587Y3394D01*
X-19882Y3000D02*
X-19783Y2902D01*
X-20280Y2000D02*
X-20177Y1898D01*
X-19980Y-0D02*
X-19882Y-98D01*
X-20177Y-197D02*
X-20079Y-295D01*
X-20374Y-394D02*
X-20276Y-492D01*
X-20571Y-591D02*
X-20472Y-689D01*
X-20768Y-787D02*
X-20669Y-886D01*
X-19783Y197D02*
X-19685Y98D01*
X-19587Y394D02*
X-19488Y295D01*
X-19390Y591D02*
X-19291Y492D01*
X-16084Y-3043D02*
X-16017Y-3083D01*
X-16063Y-3008D02*
X-14646D01*
X-16093Y-3037D02*
X-16084Y-3043D01*
X-16063Y-3008D02*
Y-3008D01*
X-15699Y4331D02*
X-15551Y4478D01*
X-797Y-2657D02*
X-443D01*
Y-3937D02*
Y-2657D01*
Y-3937D02*
X748Y-3937D01*
X-1929D02*
X-1476D01*
X3346Y-2165D02*
X3740D01*
X1329Y1280D02*
Y1969D01*
X335Y1280D02*
X1329D01*
Y1969D02*
Y2444D01*
X374Y1969D02*
X1329D01*
X-2461D02*
Y2444D01*
Y1969D02*
X-1909D01*
X-1181Y394D02*
Y394D01*
X-1575Y394D02*
X-1181D01*
X-1575D02*
Y394D01*
X-866Y0D02*
X-768D01*
X-1870D02*
X-866D01*
X-3307Y-394D02*
X-2854D01*
X-1181Y394D02*
X-866D01*
X-3504Y1969D02*
X-3150D01*
X-2461Y2444D02*
X1329D01*
X15266Y-1149D02*
Y-935D01*
X5709Y-2815D02*
Y-2402D01*
X6220D01*
X5709Y-3937D02*
X6181D01*
X6102Y-1732D02*
X6201Y-1634D01*
X8937Y593D02*
X9459D01*
X3002Y1555D02*
Y1969D01*
X2598D02*
X3002D01*
Y1555D02*
X3376D01*
X4295Y3740D02*
Y3760D01*
X3150Y4589D02*
Y5337D01*
X3587D01*
X1781Y4589D02*
X3626D01*
X-1447Y5413D02*
X-984D01*
X-3504D02*
X-2756D01*
X-4626Y1969D02*
X-4137D01*
X-3504Y2657D02*
Y2694D01*
X-6024Y4089D02*
X-5551D01*
X-4882D02*
X-4173D01*
X-4528Y4724D02*
X-4173D01*
X-4528Y4089D02*
Y4724D01*
Y5413D02*
X-4173D01*
X-4882D02*
X-4528D01*
X-6024D02*
X-5551D01*
X3287Y-3179D02*
X3760D01*
X-16063Y-3992D02*
X-15532D01*
X3287Y98D02*
X4035D01*
X1417Y-3937D02*
X2067Y-3937D01*
X10650Y-3041D02*
Y-2913D01*
Y-3406D02*
Y-3041D01*
X11339D01*
X13396Y-1187D02*
X13449Y-1240D01*
X7579Y-2402D02*
X8130D01*
X6909D02*
X7579D01*
Y-1762D02*
X8209D01*
X6949D02*
X7579D01*
Y-2402D02*
Y-1762D01*
X13297Y-1831D02*
X13396Y-1929D01*
X12904Y-1831D02*
X13297D01*
X12815Y-1742D02*
X12904Y-1831D01*
X12224Y1319D02*
X12421D01*
X12224Y1014D02*
Y1319D01*
X12618Y1014D02*
Y1319D01*
X12815D01*
Y1014D02*
Y1319D01*
X12421Y1014D02*
Y1319D01*
X11427Y1811D02*
X11722Y1516D01*
X11427Y1811D02*
Y2114D01*
X11722Y1220D02*
Y1516D01*
X11742Y728D02*
Y1201D01*
X11722Y1220D02*
X11742Y1201D01*
X11185Y1220D02*
X11722D01*
X13770Y-3091D02*
X14282D01*
X15030D02*
X15551D01*
X5659Y2045D02*
X6230D01*
Y2050D02*
X6240Y2040D01*
X7707Y2045D02*
X8228D01*
X8937Y-482D02*
X9370D01*
X12224Y-3937D02*
X12825D01*
X10650Y-3898D02*
Y-3406D01*
X9045Y-3937D02*
X11122D01*
X12618Y-2402D02*
Y-1762D01*
X12008Y-2402D02*
X12618D01*
Y-1762D02*
Y-528D01*
X12008Y-1762D02*
X12618D01*
X10906D02*
X11270D01*
X11289Y-1781D01*
X10650Y-2402D02*
X11270D01*
X9114D02*
X10650D01*
X9085Y-2913D02*
X10650D01*
Y-2402D01*
X11270D02*
X11388Y-2520D01*
X9006Y-1762D02*
X9656D01*
X9085Y-2657D02*
X9616D01*
X8957Y-2913D02*
Y-2913D01*
X6949Y-3937D02*
X7559D01*
X8169D01*
X6949Y4272D02*
X7992D01*
Y4272D02*
Y4272D01*
X7264Y2736D02*
X7953D01*
X6909D02*
X7264D01*
X5807Y3484D02*
X7953D01*
X10246Y1220D02*
Y3484D01*
X10246Y335D02*
Y1220D01*
X9898D02*
X10246D01*
X-453Y-2165D02*
X748D01*
X1339Y-2657D02*
X1339Y-2657D01*
X-10669Y-5305D02*
X-10197D01*
X1427Y-1083D02*
X2579D01*
X-492D02*
X758D01*
X9006Y1319D02*
X9459D01*
X4303Y3040D02*
Y3040D01*
X9183Y3484D02*
X10246D01*
X9183Y2736D02*
X10246D01*
X12815Y-1742D02*
Y-528D01*
X13396Y-2474D02*
Y-1929D01*
X-797Y-2913D02*
X-758D01*
X1634Y-3937D02*
X2618D01*
X935Y-2657D02*
Y-2657D01*
X4295Y3069D02*
X4823D01*
X3157Y3760D02*
X3626D01*
X4295Y4549D02*
X4763D01*
X4335Y5337D02*
X4890D01*
X866Y-0D02*
Y0D01*
X935Y-2657D02*
X1339D01*
X443Y-197D02*
X866D01*
X443Y197D02*
X866D01*
X-2224Y-1083D02*
X-1161D01*
X6220Y2717D02*
Y2736D01*
X-13484Y5689D02*
Y6201D01*
X-12598Y5689D02*
Y6201D01*
X-14370Y5689D02*
Y6201D01*
X-13228Y3248D02*
Y3593D01*
X-13484D02*
X-13228D01*
X-13484Y3248D02*
Y3593D01*
X-11614Y4429D02*
Y4941D01*
X3248Y-1083D02*
X3740D01*
X15266Y-935D02*
X15551Y-650D01*
Y1772D01*
X15364Y1959D02*
X15551Y1772D01*
X15453Y-1772D02*
Y-1673D01*
Y-1772D02*
X15551Y-1870D01*
Y-3091D02*
Y-1870D01*
X14967Y1959D02*
X15364D01*
X14567Y1584D02*
Y2274D01*
X-24404Y-6693D02*
X-11024D01*
X-24606Y-6490D02*
X-24404Y-6693D01*
X-24606Y-6490D02*
Y-1187D01*
X-24419Y-1000D01*
X-23906D01*
X-14659Y-6102D02*
X-14252D01*
X-14764Y-6207D02*
X-14659Y-6102D01*
X-14764Y-6693D02*
Y-6207D01*
X-11535Y-6102D02*
X-11116D01*
X-11024Y-6195D01*
Y-6693D02*
Y-6195D01*
Y-6693D02*
X-9246D01*
X-3346Y-6293D02*
X-3144Y-6496D01*
X17028Y-6305D02*
Y-4500D01*
X16837Y-6496D02*
X17028Y-6305D01*
X-3144Y-6496D02*
X16837D01*
X3150Y5337D02*
Y6392D01*
X3352Y6594D01*
X16831D01*
X3002Y1969D02*
Y2319D01*
X2877Y2444D02*
X3002Y2319D01*
X1329Y2444D02*
X2877D01*
X-1831Y-2923D02*
X-866D01*
X-1476D02*
Y-2220D01*
X-1421Y-2165D01*
X-1122D01*
X-5906Y-2402D02*
X-5384Y-2923D01*
G54D32*
X12028Y-541D02*
Y-325D01*
X12205Y-148D01*
X8612Y3100D02*
X9154D01*
G54D33*
X-23124Y66831D02*
D03*
X59553D02*
D03*
X59553Y-8563D02*
D03*
X-23124D02*
D03*
G54D34*
X17028Y2500D02*
D03*
Y3500D02*
D03*
Y4500D02*
D03*
Y-500D02*
D03*
Y500D02*
D03*
Y1500D02*
D03*
Y-1500D02*
D03*
Y-2500D02*
D03*
Y-3500D02*
D03*
X-23906Y-4000D02*
D03*
X-22906Y-5000D02*
D03*
X-23906Y-2000D02*
D03*
Y-1000D02*
D03*
Y-0D02*
D03*
Y1000D02*
D03*
Y2000D02*
D03*
Y3000D02*
D03*
Y4000D02*
D03*
X-22906Y-2000D02*
D03*
Y-3000D02*
D03*
Y-4000D02*
D03*
Y1000D02*
D03*
Y-0D02*
D03*
Y-1000D02*
D03*
Y2000D02*
D03*
Y3000D02*
D03*
Y4000D02*
D03*
X-23906Y-5000D02*
D03*
Y5000D02*
D03*
Y-3000D02*
D03*
G54D35*
X17028Y-4500D02*
D03*
X-22906Y5000D02*
D03*
G54D36*
X-5906Y-2402D02*
D03*
G54D37*
X-7402Y-5472D02*
D03*
X-4409D02*
D03*
G54D38*
X-3307Y-1624D02*
D03*
X-9744Y4724D02*
D03*
X1673Y1476D02*
D03*
X-8858Y-1870D02*
D03*
X-17372Y-4675D02*
D03*
X-11850Y-3652D02*
D03*
X-13740Y3799D02*
D03*
X1772Y-2657D02*
D03*
X-8065Y-2756D02*
D03*
X-10427Y-1870D02*
D03*
X-11018Y-1378D02*
D03*
X-10728Y2100D02*
D03*
X-2455Y1083D02*
D03*
X-13085Y-1870D02*
D03*
Y-2756D02*
D03*
X-6490Y-1870D02*
D03*
X-12894Y-6102D02*
D03*
X-12717Y472D02*
D03*
X-17012Y6421D02*
D03*
X13632Y3002D02*
D03*
X-10827Y-4163D02*
D03*
Y-3740D02*
D03*
X-11850Y3346D02*
D03*
X-2972Y-3937D02*
D03*
X-886Y1280D02*
D03*
X2835Y807D02*
D03*
X5020Y1181D02*
D03*
X2559Y4089D02*
D03*
X-6024Y4724D02*
D03*
X-17372Y-3008D02*
D03*
X3760Y-2165D02*
D03*
X-3307Y-394D02*
D03*
X-984Y5413D02*
D03*
X-4646Y1969D02*
D03*
X-6024Y4089D02*
D03*
Y5413D02*
D03*
X3760Y-3179D02*
D03*
X-15532Y-3992D02*
D03*
X4035Y98D02*
D03*
X197Y-2165D02*
D03*
X13770Y-3091D02*
D03*
X5659Y2045D02*
D03*
X7707D02*
D03*
X12825Y-3937D02*
D03*
X10906Y-1762D02*
D03*
X9656Y-2657D02*
D03*
Y-1762D02*
D03*
X7559Y-3937D02*
D03*
X7480Y4272D02*
D03*
X-10197Y-5305D02*
D03*
X2559Y5238D02*
D03*
X-17372Y-3992D02*
D03*
X3157Y3760D02*
D03*
X4763Y4549D02*
D03*
X4890Y5337D02*
D03*
X-13484Y6201D02*
D03*
X-12598D02*
D03*
X-14370D02*
D03*
X-11614Y4429D02*
D03*
X3740Y-1083D02*
D03*
X5217Y-2657D02*
D03*
X12224Y541D02*
D03*
X12520D02*
D03*
X12815D02*
D03*
Y246D02*
D03*
X12520D02*
D03*
X12224D02*
D03*
X12520Y-49D02*
D03*
X12815D02*
D03*
X12224D02*
D03*
X6492Y-5461D02*
D03*
X6772Y-4901D02*
D03*
X6492Y-3221D02*
D03*
Y-981D02*
D03*
X6772Y-421D02*
D03*
X6492Y139D02*
D03*
X6772Y699D02*
D03*
X6492Y1259D02*
D03*
X6772Y5179D02*
D03*
X6492Y5739D02*
D03*
X7052Y-5461D02*
D03*
X7332Y-4901D02*
D03*
X7052Y-3221D02*
D03*
Y-981D02*
D03*
X7332Y-421D02*
D03*
X7052Y139D02*
D03*
X7332Y699D02*
D03*
X7052Y1259D02*
D03*
X7332Y5179D02*
D03*
X7052Y5739D02*
D03*
X7612Y-5461D02*
D03*
X7892Y-4901D02*
D03*
X7612Y-4341D02*
D03*
Y-3221D02*
D03*
Y-981D02*
D03*
Y139D02*
D03*
Y1259D02*
D03*
Y2379D02*
D03*
X7892Y5179D02*
D03*
X7612Y5739D02*
D03*
X8172Y-5461D02*
D03*
X8452Y-4901D02*
D03*
X8172Y-3221D02*
D03*
Y5739D02*
D03*
X8732Y-5461D02*
D03*
X9012Y-4901D02*
D03*
X8732Y-3221D02*
D03*
Y5739D02*
D03*
X9292Y-5461D02*
D03*
X9572Y-4901D02*
D03*
X9292Y-3221D02*
D03*
Y5739D02*
D03*
X9852Y-5461D02*
D03*
X10132Y-4901D02*
D03*
X9852Y-4341D02*
D03*
Y-3221D02*
D03*
Y-2101D02*
D03*
X10132Y-1541D02*
D03*
X9852Y-981D02*
D03*
Y5739D02*
D03*
X10412Y-5461D02*
D03*
X10692Y-4901D02*
D03*
X10412Y-4341D02*
D03*
Y-2101D02*
D03*
Y-981D02*
D03*
X10692Y4059D02*
D03*
Y5179D02*
D03*
X10412Y5739D02*
D03*
X10972Y-5461D02*
D03*
X11252Y-4901D02*
D03*
Y4059D02*
D03*
X10972Y4619D02*
D03*
X11252Y5179D02*
D03*
X10972Y5739D02*
D03*
X11532Y-5461D02*
D03*
X11812Y-4901D02*
D03*
Y4059D02*
D03*
X11532Y4619D02*
D03*
X11812Y5179D02*
D03*
X11532Y5739D02*
D03*
X12092Y-5461D02*
D03*
X12372Y-4901D02*
D03*
X12092Y4619D02*
D03*
X12372Y5179D02*
D03*
X12092Y5739D02*
D03*
X12652Y-5461D02*
D03*
X12932Y-4901D02*
D03*
X12652Y4619D02*
D03*
X12932Y5179D02*
D03*
X12652Y5739D02*
D03*
X13212Y-5461D02*
D03*
X13492Y-4901D02*
D03*
X13212Y-4341D02*
D03*
X13492Y-3781D02*
D03*
X13212Y4619D02*
D03*
X13492Y5179D02*
D03*
X13212Y5739D02*
D03*
X13772Y-5461D02*
D03*
X14052Y-4901D02*
D03*
X13772Y-4341D02*
D03*
X14052Y-3781D02*
D03*
X13772Y4619D02*
D03*
X14052Y5179D02*
D03*
X13772Y5739D02*
D03*
X14332Y-5461D02*
D03*
X14612Y-4901D02*
D03*
X14332Y-4341D02*
D03*
X14612Y-3781D02*
D03*
X14332Y4619D02*
D03*
X14612Y5179D02*
D03*
X14332Y5739D02*
D03*
X14892Y-5461D02*
D03*
X15172Y-4901D02*
D03*
X14892Y-4341D02*
D03*
X15172Y-3781D02*
D03*
X14892Y4619D02*
D03*
X15172Y5179D02*
D03*
X14892Y5739D02*
D03*
X15452Y-5461D02*
D03*
X15732Y-4901D02*
D03*
X15452Y-4341D02*
D03*
X15732Y-3781D02*
D03*
X15452Y4619D02*
D03*
X15732Y5179D02*
D03*
X15452Y5739D02*
D03*
X16012Y-5461D02*
D03*
X16292Y-4901D02*
D03*
X16012Y-4341D02*
D03*
X16292Y-3781D02*
D03*
X16012Y4619D02*
D03*
X16292Y5179D02*
D03*
X16012Y5739D02*
D03*
X16572Y-5461D02*
D03*
Y5739D02*
D03*
X17412Y2939D02*
D03*
Y4059D02*
D03*
Y5179D02*
D03*
X8612Y3100D02*
D03*
M02*
